%TF.GenerationSoftware,KiCad,Pcbnew,8.0.9*%
%TF.CreationDate,2025-03-02T14:13:00+01:00*%
%TF.ProjectId,cjss102,636a7373-3130-4322-9e6b-696361645f70,rev?*%
%TF.SameCoordinates,Original*%
%TF.FileFunction,Drillmap*%
%TF.FilePolarity,Positive*%
%FSLAX45Y45*%
G04 Gerber Fmt 4.5, Leading zero omitted, Abs format (unit mm)*
G04 Created by KiCad (PCBNEW 8.0.9) date 2025-03-02 14:13:00*
%MOMM*%
%LPD*%
G01*
G04 APERTURE LIST*
%ADD10C,0.050000*%
%ADD11C,0.200000*%
%ADD12C,0.180000*%
%ADD13C,0.100000*%
%ADD14C,0.320000*%
G04 APERTURE END LIST*
D10*
X19050000Y-9017000D02*
X19050000Y-3810000D01*
X11049000Y-9271000D02*
X18796000Y-9271000D01*
X10795000Y-3810000D02*
X10795000Y-9017000D01*
X10795000Y-3810000D02*
G75*
G02*
X11049000Y-3556000I254000J0D01*
G01*
X19050000Y-9017000D02*
G75*
G02*
X18796000Y-9271000I-254000J0D01*
G01*
X18796000Y-3556000D02*
G75*
G02*
X19050000Y-3810000I0J-254000D01*
G01*
X11049000Y-9271000D02*
G75*
G02*
X10795000Y-9017000I0J254000D01*
G01*
X11049000Y-3556000D02*
X18796000Y-3556000D01*
D11*
D12*
X11874000Y-4361000D02*
X12054000Y-4541000D01*
X12054000Y-4361000D02*
X11874000Y-4541000D01*
D13*
X12054000Y-4516000D02*
X12054000Y-4386000D01*
X11874000Y-4386000D02*
G75*
G02*
X12054000Y-4386000I90000J0D01*
G01*
X11874000Y-4386000D02*
X11874000Y-4516000D01*
X11874000Y-4516000D02*
G75*
G03*
X12054000Y-4516000I90000J0D01*
G01*
D12*
X13104000Y-4361000D02*
X13284000Y-4541000D01*
X13284000Y-4361000D02*
X13104000Y-4541000D01*
D13*
X13284000Y-4516000D02*
X13284000Y-4386000D01*
X13104000Y-4386000D02*
G75*
G02*
X13284000Y-4386000I90000J0D01*
G01*
X13104000Y-4386000D02*
X13104000Y-4516000D01*
X13104000Y-4516000D02*
G75*
G03*
X13284000Y-4516000I90000J0D01*
G01*
D12*
X16700000Y-4361000D02*
X16880000Y-4541000D01*
X16880000Y-4361000D02*
X16700000Y-4541000D01*
D13*
X16880000Y-4516000D02*
X16880000Y-4386000D01*
X16700000Y-4386000D02*
G75*
G02*
X16880000Y-4386000I90000J0D01*
G01*
X16700000Y-4386000D02*
X16700000Y-4516000D01*
X16700000Y-4516000D02*
G75*
G03*
X16880000Y-4516000I90000J0D01*
G01*
D12*
X17930000Y-4361000D02*
X18110000Y-4541000D01*
X18110000Y-4361000D02*
X17930000Y-4541000D01*
D13*
X18110000Y-4516000D02*
X18110000Y-4386000D01*
X17930000Y-4386000D02*
G75*
G02*
X18110000Y-4386000I90000J0D01*
G01*
X17930000Y-4386000D02*
X17930000Y-4516000D01*
X17930000Y-4516000D02*
G75*
G03*
X18110000Y-4516000I90000J0D01*
G01*
D14*
X15146000Y-9017000D02*
G75*
G02*
X14826000Y-9017000I-160000J0D01*
G01*
X14826000Y-9017000D02*
G75*
G02*
X15146000Y-9017000I160000J0D01*
G01*
D11*
X11053277Y-9584984D02*
X11053277Y-9384984D01*
X11053277Y-9384984D02*
X11100896Y-9384984D01*
X11100896Y-9384984D02*
X11129467Y-9394508D01*
X11129467Y-9394508D02*
X11148515Y-9413555D01*
X11148515Y-9413555D02*
X11158039Y-9432603D01*
X11158039Y-9432603D02*
X11167563Y-9470698D01*
X11167563Y-9470698D02*
X11167563Y-9499270D01*
X11167563Y-9499270D02*
X11158039Y-9537365D01*
X11158039Y-9537365D02*
X11148515Y-9556412D01*
X11148515Y-9556412D02*
X11129467Y-9575460D01*
X11129467Y-9575460D02*
X11100896Y-9584984D01*
X11100896Y-9584984D02*
X11053277Y-9584984D01*
X11253277Y-9584984D02*
X11253277Y-9451650D01*
X11253277Y-9489746D02*
X11262801Y-9470698D01*
X11262801Y-9470698D02*
X11272324Y-9461174D01*
X11272324Y-9461174D02*
X11291372Y-9451650D01*
X11291372Y-9451650D02*
X11310420Y-9451650D01*
X11377086Y-9584984D02*
X11377086Y-9451650D01*
X11377086Y-9384984D02*
X11367562Y-9394508D01*
X11367562Y-9394508D02*
X11377086Y-9404031D01*
X11377086Y-9404031D02*
X11386610Y-9394508D01*
X11386610Y-9394508D02*
X11377086Y-9384984D01*
X11377086Y-9384984D02*
X11377086Y-9404031D01*
X11500896Y-9584984D02*
X11481848Y-9575460D01*
X11481848Y-9575460D02*
X11472324Y-9556412D01*
X11472324Y-9556412D02*
X11472324Y-9384984D01*
X11605658Y-9584984D02*
X11586610Y-9575460D01*
X11586610Y-9575460D02*
X11577086Y-9556412D01*
X11577086Y-9556412D02*
X11577086Y-9384984D01*
X11834229Y-9584984D02*
X11834229Y-9384984D01*
X11834229Y-9384984D02*
X11900896Y-9527841D01*
X11900896Y-9527841D02*
X11967562Y-9384984D01*
X11967562Y-9384984D02*
X11967562Y-9584984D01*
X12148515Y-9584984D02*
X12148515Y-9480222D01*
X12148515Y-9480222D02*
X12138991Y-9461174D01*
X12138991Y-9461174D02*
X12119943Y-9451650D01*
X12119943Y-9451650D02*
X12081848Y-9451650D01*
X12081848Y-9451650D02*
X12062801Y-9461174D01*
X12148515Y-9575460D02*
X12129467Y-9584984D01*
X12129467Y-9584984D02*
X12081848Y-9584984D01*
X12081848Y-9584984D02*
X12062801Y-9575460D01*
X12062801Y-9575460D02*
X12053277Y-9556412D01*
X12053277Y-9556412D02*
X12053277Y-9537365D01*
X12053277Y-9537365D02*
X12062801Y-9518317D01*
X12062801Y-9518317D02*
X12081848Y-9508793D01*
X12081848Y-9508793D02*
X12129467Y-9508793D01*
X12129467Y-9508793D02*
X12148515Y-9499270D01*
X12243753Y-9451650D02*
X12243753Y-9651650D01*
X12243753Y-9461174D02*
X12262801Y-9451650D01*
X12262801Y-9451650D02*
X12300896Y-9451650D01*
X12300896Y-9451650D02*
X12319943Y-9461174D01*
X12319943Y-9461174D02*
X12329467Y-9470698D01*
X12329467Y-9470698D02*
X12338991Y-9489746D01*
X12338991Y-9489746D02*
X12338991Y-9546889D01*
X12338991Y-9546889D02*
X12329467Y-9565936D01*
X12329467Y-9565936D02*
X12319943Y-9575460D01*
X12319943Y-9575460D02*
X12300896Y-9584984D01*
X12300896Y-9584984D02*
X12262801Y-9584984D01*
X12262801Y-9584984D02*
X12243753Y-9575460D01*
X12424705Y-9565936D02*
X12434229Y-9575460D01*
X12434229Y-9575460D02*
X12424705Y-9584984D01*
X12424705Y-9584984D02*
X12415182Y-9575460D01*
X12415182Y-9575460D02*
X12424705Y-9565936D01*
X12424705Y-9565936D02*
X12424705Y-9584984D01*
X12424705Y-9461174D02*
X12434229Y-9470698D01*
X12434229Y-9470698D02*
X12424705Y-9480222D01*
X12424705Y-9480222D02*
X12415182Y-9470698D01*
X12415182Y-9470698D02*
X12424705Y-9461174D01*
X12424705Y-9461174D02*
X12424705Y-9480222D01*
D12*
X10612500Y-9823500D02*
X10792500Y-10003500D01*
X10792500Y-9823500D02*
X10612500Y-10003500D01*
D11*
X11158039Y-10004984D02*
X11043753Y-10004984D01*
X11100896Y-10004984D02*
X11100896Y-9804984D01*
X11100896Y-9804984D02*
X11081848Y-9833555D01*
X11081848Y-9833555D02*
X11062801Y-9852603D01*
X11062801Y-9852603D02*
X11043753Y-9862127D01*
X11243753Y-9985936D02*
X11253277Y-9995460D01*
X11253277Y-9995460D02*
X11243753Y-10004984D01*
X11243753Y-10004984D02*
X11234229Y-9995460D01*
X11234229Y-9995460D02*
X11243753Y-9985936D01*
X11243753Y-9985936D02*
X11243753Y-10004984D01*
X11367562Y-9890698D02*
X11348515Y-9881174D01*
X11348515Y-9881174D02*
X11338991Y-9871650D01*
X11338991Y-9871650D02*
X11329467Y-9852603D01*
X11329467Y-9852603D02*
X11329467Y-9843079D01*
X11329467Y-9843079D02*
X11338991Y-9824031D01*
X11338991Y-9824031D02*
X11348515Y-9814508D01*
X11348515Y-9814508D02*
X11367562Y-9804984D01*
X11367562Y-9804984D02*
X11405658Y-9804984D01*
X11405658Y-9804984D02*
X11424705Y-9814508D01*
X11424705Y-9814508D02*
X11434229Y-9824031D01*
X11434229Y-9824031D02*
X11443753Y-9843079D01*
X11443753Y-9843079D02*
X11443753Y-9852603D01*
X11443753Y-9852603D02*
X11434229Y-9871650D01*
X11434229Y-9871650D02*
X11424705Y-9881174D01*
X11424705Y-9881174D02*
X11405658Y-9890698D01*
X11405658Y-9890698D02*
X11367562Y-9890698D01*
X11367562Y-9890698D02*
X11348515Y-9900222D01*
X11348515Y-9900222D02*
X11338991Y-9909746D01*
X11338991Y-9909746D02*
X11329467Y-9928793D01*
X11329467Y-9928793D02*
X11329467Y-9966889D01*
X11329467Y-9966889D02*
X11338991Y-9985936D01*
X11338991Y-9985936D02*
X11348515Y-9995460D01*
X11348515Y-9995460D02*
X11367562Y-10004984D01*
X11367562Y-10004984D02*
X11405658Y-10004984D01*
X11405658Y-10004984D02*
X11424705Y-9995460D01*
X11424705Y-9995460D02*
X11434229Y-9985936D01*
X11434229Y-9985936D02*
X11443753Y-9966889D01*
X11443753Y-9966889D02*
X11443753Y-9928793D01*
X11443753Y-9928793D02*
X11434229Y-9909746D01*
X11434229Y-9909746D02*
X11424705Y-9900222D01*
X11424705Y-9900222D02*
X11405658Y-9890698D01*
X11567562Y-9804984D02*
X11586610Y-9804984D01*
X11586610Y-9804984D02*
X11605658Y-9814508D01*
X11605658Y-9814508D02*
X11615182Y-9824031D01*
X11615182Y-9824031D02*
X11624705Y-9843079D01*
X11624705Y-9843079D02*
X11634229Y-9881174D01*
X11634229Y-9881174D02*
X11634229Y-9928793D01*
X11634229Y-9928793D02*
X11624705Y-9966889D01*
X11624705Y-9966889D02*
X11615182Y-9985936D01*
X11615182Y-9985936D02*
X11605658Y-9995460D01*
X11605658Y-9995460D02*
X11586610Y-10004984D01*
X11586610Y-10004984D02*
X11567562Y-10004984D01*
X11567562Y-10004984D02*
X11548515Y-9995460D01*
X11548515Y-9995460D02*
X11538991Y-9985936D01*
X11538991Y-9985936D02*
X11529467Y-9966889D01*
X11529467Y-9966889D02*
X11519943Y-9928793D01*
X11519943Y-9928793D02*
X11519943Y-9881174D01*
X11519943Y-9881174D02*
X11529467Y-9843079D01*
X11529467Y-9843079D02*
X11538991Y-9824031D01*
X11538991Y-9824031D02*
X11548515Y-9814508D01*
X11548515Y-9814508D02*
X11567562Y-9804984D01*
X11758039Y-9804984D02*
X11777086Y-9804984D01*
X11777086Y-9804984D02*
X11796134Y-9814508D01*
X11796134Y-9814508D02*
X11805658Y-9824031D01*
X11805658Y-9824031D02*
X11815182Y-9843079D01*
X11815182Y-9843079D02*
X11824705Y-9881174D01*
X11824705Y-9881174D02*
X11824705Y-9928793D01*
X11824705Y-9928793D02*
X11815182Y-9966889D01*
X11815182Y-9966889D02*
X11805658Y-9985936D01*
X11805658Y-9985936D02*
X11796134Y-9995460D01*
X11796134Y-9995460D02*
X11777086Y-10004984D01*
X11777086Y-10004984D02*
X11758039Y-10004984D01*
X11758039Y-10004984D02*
X11738991Y-9995460D01*
X11738991Y-9995460D02*
X11729467Y-9985936D01*
X11729467Y-9985936D02*
X11719943Y-9966889D01*
X11719943Y-9966889D02*
X11710420Y-9928793D01*
X11710420Y-9928793D02*
X11710420Y-9881174D01*
X11710420Y-9881174D02*
X11719943Y-9843079D01*
X11719943Y-9843079D02*
X11729467Y-9824031D01*
X11729467Y-9824031D02*
X11738991Y-9814508D01*
X11738991Y-9814508D02*
X11758039Y-9804984D01*
X11910420Y-10004984D02*
X11910420Y-9871650D01*
X11910420Y-9890698D02*
X11919943Y-9881174D01*
X11919943Y-9881174D02*
X11938991Y-9871650D01*
X11938991Y-9871650D02*
X11967563Y-9871650D01*
X11967563Y-9871650D02*
X11986610Y-9881174D01*
X11986610Y-9881174D02*
X11996134Y-9900222D01*
X11996134Y-9900222D02*
X11996134Y-10004984D01*
X11996134Y-9900222D02*
X12005658Y-9881174D01*
X12005658Y-9881174D02*
X12024705Y-9871650D01*
X12024705Y-9871650D02*
X12053277Y-9871650D01*
X12053277Y-9871650D02*
X12072324Y-9881174D01*
X12072324Y-9881174D02*
X12081848Y-9900222D01*
X12081848Y-9900222D02*
X12081848Y-10004984D01*
X12177086Y-10004984D02*
X12177086Y-9871650D01*
X12177086Y-9890698D02*
X12186610Y-9881174D01*
X12186610Y-9881174D02*
X12205658Y-9871650D01*
X12205658Y-9871650D02*
X12234229Y-9871650D01*
X12234229Y-9871650D02*
X12253277Y-9881174D01*
X12253277Y-9881174D02*
X12262801Y-9900222D01*
X12262801Y-9900222D02*
X12262801Y-10004984D01*
X12262801Y-9900222D02*
X12272324Y-9881174D01*
X12272324Y-9881174D02*
X12291372Y-9871650D01*
X12291372Y-9871650D02*
X12319943Y-9871650D01*
X12319943Y-9871650D02*
X12338991Y-9881174D01*
X12338991Y-9881174D02*
X12348515Y-9900222D01*
X12348515Y-9900222D02*
X12348515Y-10004984D01*
X12738991Y-9795460D02*
X12567563Y-10052603D01*
X12996134Y-9804984D02*
X13015182Y-9804984D01*
X13015182Y-9804984D02*
X13034229Y-9814508D01*
X13034229Y-9814508D02*
X13043753Y-9824031D01*
X13043753Y-9824031D02*
X13053277Y-9843079D01*
X13053277Y-9843079D02*
X13062801Y-9881174D01*
X13062801Y-9881174D02*
X13062801Y-9928793D01*
X13062801Y-9928793D02*
X13053277Y-9966889D01*
X13053277Y-9966889D02*
X13043753Y-9985936D01*
X13043753Y-9985936D02*
X13034229Y-9995460D01*
X13034229Y-9995460D02*
X13015182Y-10004984D01*
X13015182Y-10004984D02*
X12996134Y-10004984D01*
X12996134Y-10004984D02*
X12977086Y-9995460D01*
X12977086Y-9995460D02*
X12967563Y-9985936D01*
X12967563Y-9985936D02*
X12958039Y-9966889D01*
X12958039Y-9966889D02*
X12948515Y-9928793D01*
X12948515Y-9928793D02*
X12948515Y-9881174D01*
X12948515Y-9881174D02*
X12958039Y-9843079D01*
X12958039Y-9843079D02*
X12967563Y-9824031D01*
X12967563Y-9824031D02*
X12977086Y-9814508D01*
X12977086Y-9814508D02*
X12996134Y-9804984D01*
X13148515Y-9985936D02*
X13158039Y-9995460D01*
X13158039Y-9995460D02*
X13148515Y-10004984D01*
X13148515Y-10004984D02*
X13138991Y-9995460D01*
X13138991Y-9995460D02*
X13148515Y-9985936D01*
X13148515Y-9985936D02*
X13148515Y-10004984D01*
X13281848Y-9804984D02*
X13300896Y-9804984D01*
X13300896Y-9804984D02*
X13319944Y-9814508D01*
X13319944Y-9814508D02*
X13329467Y-9824031D01*
X13329467Y-9824031D02*
X13338991Y-9843079D01*
X13338991Y-9843079D02*
X13348515Y-9881174D01*
X13348515Y-9881174D02*
X13348515Y-9928793D01*
X13348515Y-9928793D02*
X13338991Y-9966889D01*
X13338991Y-9966889D02*
X13329467Y-9985936D01*
X13329467Y-9985936D02*
X13319944Y-9995460D01*
X13319944Y-9995460D02*
X13300896Y-10004984D01*
X13300896Y-10004984D02*
X13281848Y-10004984D01*
X13281848Y-10004984D02*
X13262801Y-9995460D01*
X13262801Y-9995460D02*
X13253277Y-9985936D01*
X13253277Y-9985936D02*
X13243753Y-9966889D01*
X13243753Y-9966889D02*
X13234229Y-9928793D01*
X13234229Y-9928793D02*
X13234229Y-9881174D01*
X13234229Y-9881174D02*
X13243753Y-9843079D01*
X13243753Y-9843079D02*
X13253277Y-9824031D01*
X13253277Y-9824031D02*
X13262801Y-9814508D01*
X13262801Y-9814508D02*
X13281848Y-9804984D01*
X13415182Y-9804984D02*
X13548515Y-9804984D01*
X13548515Y-9804984D02*
X13462801Y-10004984D01*
X13662801Y-9804984D02*
X13681848Y-9804984D01*
X13681848Y-9804984D02*
X13700896Y-9814508D01*
X13700896Y-9814508D02*
X13710420Y-9824031D01*
X13710420Y-9824031D02*
X13719944Y-9843079D01*
X13719944Y-9843079D02*
X13729467Y-9881174D01*
X13729467Y-9881174D02*
X13729467Y-9928793D01*
X13729467Y-9928793D02*
X13719944Y-9966889D01*
X13719944Y-9966889D02*
X13710420Y-9985936D01*
X13710420Y-9985936D02*
X13700896Y-9995460D01*
X13700896Y-9995460D02*
X13681848Y-10004984D01*
X13681848Y-10004984D02*
X13662801Y-10004984D01*
X13662801Y-10004984D02*
X13643753Y-9995460D01*
X13643753Y-9995460D02*
X13634229Y-9985936D01*
X13634229Y-9985936D02*
X13624706Y-9966889D01*
X13624706Y-9966889D02*
X13615182Y-9928793D01*
X13615182Y-9928793D02*
X13615182Y-9881174D01*
X13615182Y-9881174D02*
X13624706Y-9843079D01*
X13624706Y-9843079D02*
X13634229Y-9824031D01*
X13634229Y-9824031D02*
X13643753Y-9814508D01*
X13643753Y-9814508D02*
X13662801Y-9804984D01*
X13824706Y-10004984D02*
X13862801Y-10004984D01*
X13862801Y-10004984D02*
X13881848Y-9995460D01*
X13881848Y-9995460D02*
X13891372Y-9985936D01*
X13891372Y-9985936D02*
X13910420Y-9957365D01*
X13910420Y-9957365D02*
X13919944Y-9919270D01*
X13919944Y-9919270D02*
X13919944Y-9843079D01*
X13919944Y-9843079D02*
X13910420Y-9824031D01*
X13910420Y-9824031D02*
X13900896Y-9814508D01*
X13900896Y-9814508D02*
X13881848Y-9804984D01*
X13881848Y-9804984D02*
X13843753Y-9804984D01*
X13843753Y-9804984D02*
X13824706Y-9814508D01*
X13824706Y-9814508D02*
X13815182Y-9824031D01*
X13815182Y-9824031D02*
X13805658Y-9843079D01*
X13805658Y-9843079D02*
X13805658Y-9890698D01*
X13805658Y-9890698D02*
X13815182Y-9909746D01*
X13815182Y-9909746D02*
X13824706Y-9919270D01*
X13824706Y-9919270D02*
X13843753Y-9928793D01*
X13843753Y-9928793D02*
X13881848Y-9928793D01*
X13881848Y-9928793D02*
X13900896Y-9919270D01*
X13900896Y-9919270D02*
X13910420Y-9909746D01*
X13910420Y-9909746D02*
X13919944Y-9890698D01*
X13996134Y-9804984D02*
X13996134Y-9843079D01*
X14072325Y-9804984D02*
X14072325Y-9843079D01*
X14367563Y-10081174D02*
X14358039Y-10071650D01*
X14358039Y-10071650D02*
X14338991Y-10043079D01*
X14338991Y-10043079D02*
X14329468Y-10024031D01*
X14329468Y-10024031D02*
X14319944Y-9995460D01*
X14319944Y-9995460D02*
X14310420Y-9947841D01*
X14310420Y-9947841D02*
X14310420Y-9909746D01*
X14310420Y-9909746D02*
X14319944Y-9862127D01*
X14319944Y-9862127D02*
X14329468Y-9833555D01*
X14329468Y-9833555D02*
X14338991Y-9814508D01*
X14338991Y-9814508D02*
X14358039Y-9785936D01*
X14358039Y-9785936D02*
X14367563Y-9776412D01*
X14481848Y-9804984D02*
X14500896Y-9804984D01*
X14500896Y-9804984D02*
X14519944Y-9814508D01*
X14519944Y-9814508D02*
X14529468Y-9824031D01*
X14529468Y-9824031D02*
X14538991Y-9843079D01*
X14538991Y-9843079D02*
X14548515Y-9881174D01*
X14548515Y-9881174D02*
X14548515Y-9928793D01*
X14548515Y-9928793D02*
X14538991Y-9966889D01*
X14538991Y-9966889D02*
X14529468Y-9985936D01*
X14529468Y-9985936D02*
X14519944Y-9995460D01*
X14519944Y-9995460D02*
X14500896Y-10004984D01*
X14500896Y-10004984D02*
X14481848Y-10004984D01*
X14481848Y-10004984D02*
X14462801Y-9995460D01*
X14462801Y-9995460D02*
X14453277Y-9985936D01*
X14453277Y-9985936D02*
X14443753Y-9966889D01*
X14443753Y-9966889D02*
X14434229Y-9928793D01*
X14434229Y-9928793D02*
X14434229Y-9881174D01*
X14434229Y-9881174D02*
X14443753Y-9843079D01*
X14443753Y-9843079D02*
X14453277Y-9824031D01*
X14453277Y-9824031D02*
X14462801Y-9814508D01*
X14462801Y-9814508D02*
X14481848Y-9804984D01*
X14786610Y-10004984D02*
X14786610Y-9804984D01*
X14872325Y-10004984D02*
X14872325Y-9900222D01*
X14872325Y-9900222D02*
X14862801Y-9881174D01*
X14862801Y-9881174D02*
X14843753Y-9871650D01*
X14843753Y-9871650D02*
X14815182Y-9871650D01*
X14815182Y-9871650D02*
X14796134Y-9881174D01*
X14796134Y-9881174D02*
X14786610Y-9890698D01*
X14996134Y-10004984D02*
X14977087Y-9995460D01*
X14977087Y-9995460D02*
X14967563Y-9985936D01*
X14967563Y-9985936D02*
X14958039Y-9966889D01*
X14958039Y-9966889D02*
X14958039Y-9909746D01*
X14958039Y-9909746D02*
X14967563Y-9890698D01*
X14967563Y-9890698D02*
X14977087Y-9881174D01*
X14977087Y-9881174D02*
X14996134Y-9871650D01*
X14996134Y-9871650D02*
X15024706Y-9871650D01*
X15024706Y-9871650D02*
X15043753Y-9881174D01*
X15043753Y-9881174D02*
X15053277Y-9890698D01*
X15053277Y-9890698D02*
X15062801Y-9909746D01*
X15062801Y-9909746D02*
X15062801Y-9966889D01*
X15062801Y-9966889D02*
X15053277Y-9985936D01*
X15053277Y-9985936D02*
X15043753Y-9995460D01*
X15043753Y-9995460D02*
X15024706Y-10004984D01*
X15024706Y-10004984D02*
X14996134Y-10004984D01*
X15177087Y-10004984D02*
X15158039Y-9995460D01*
X15158039Y-9995460D02*
X15148515Y-9976412D01*
X15148515Y-9976412D02*
X15148515Y-9804984D01*
X15329468Y-9995460D02*
X15310420Y-10004984D01*
X15310420Y-10004984D02*
X15272325Y-10004984D01*
X15272325Y-10004984D02*
X15253277Y-9995460D01*
X15253277Y-9995460D02*
X15243753Y-9976412D01*
X15243753Y-9976412D02*
X15243753Y-9900222D01*
X15243753Y-9900222D02*
X15253277Y-9881174D01*
X15253277Y-9881174D02*
X15272325Y-9871650D01*
X15272325Y-9871650D02*
X15310420Y-9871650D01*
X15310420Y-9871650D02*
X15329468Y-9881174D01*
X15329468Y-9881174D02*
X15338991Y-9900222D01*
X15338991Y-9900222D02*
X15338991Y-9919270D01*
X15338991Y-9919270D02*
X15243753Y-9938317D01*
X15415182Y-9995460D02*
X15434230Y-10004984D01*
X15434230Y-10004984D02*
X15472325Y-10004984D01*
X15472325Y-10004984D02*
X15491372Y-9995460D01*
X15491372Y-9995460D02*
X15500896Y-9976412D01*
X15500896Y-9976412D02*
X15500896Y-9966889D01*
X15500896Y-9966889D02*
X15491372Y-9947841D01*
X15491372Y-9947841D02*
X15472325Y-9938317D01*
X15472325Y-9938317D02*
X15443753Y-9938317D01*
X15443753Y-9938317D02*
X15424706Y-9928793D01*
X15424706Y-9928793D02*
X15415182Y-9909746D01*
X15415182Y-9909746D02*
X15415182Y-9900222D01*
X15415182Y-9900222D02*
X15424706Y-9881174D01*
X15424706Y-9881174D02*
X15443753Y-9871650D01*
X15443753Y-9871650D02*
X15472325Y-9871650D01*
X15472325Y-9871650D02*
X15491372Y-9881174D01*
X15738992Y-9928793D02*
X15891373Y-9928793D01*
X15815182Y-10004984D02*
X15815182Y-9852603D01*
X16224706Y-9871650D02*
X16224706Y-10004984D01*
X16177087Y-9795460D02*
X16129468Y-9938317D01*
X16129468Y-9938317D02*
X16253277Y-9938317D01*
X16472325Y-9995460D02*
X16491373Y-10004984D01*
X16491373Y-10004984D02*
X16529468Y-10004984D01*
X16529468Y-10004984D02*
X16548515Y-9995460D01*
X16548515Y-9995460D02*
X16558039Y-9976412D01*
X16558039Y-9976412D02*
X16558039Y-9966889D01*
X16558039Y-9966889D02*
X16548515Y-9947841D01*
X16548515Y-9947841D02*
X16529468Y-9938317D01*
X16529468Y-9938317D02*
X16500896Y-9938317D01*
X16500896Y-9938317D02*
X16481849Y-9928793D01*
X16481849Y-9928793D02*
X16472325Y-9909746D01*
X16472325Y-9909746D02*
X16472325Y-9900222D01*
X16472325Y-9900222D02*
X16481849Y-9881174D01*
X16481849Y-9881174D02*
X16500896Y-9871650D01*
X16500896Y-9871650D02*
X16529468Y-9871650D01*
X16529468Y-9871650D02*
X16548515Y-9881174D01*
X16672325Y-10004984D02*
X16653277Y-9995460D01*
X16653277Y-9995460D02*
X16643754Y-9976412D01*
X16643754Y-9976412D02*
X16643754Y-9804984D01*
X16777087Y-10004984D02*
X16758039Y-9995460D01*
X16758039Y-9995460D02*
X16748515Y-9985936D01*
X16748515Y-9985936D02*
X16738992Y-9966889D01*
X16738992Y-9966889D02*
X16738992Y-9909746D01*
X16738992Y-9909746D02*
X16748515Y-9890698D01*
X16748515Y-9890698D02*
X16758039Y-9881174D01*
X16758039Y-9881174D02*
X16777087Y-9871650D01*
X16777087Y-9871650D02*
X16805658Y-9871650D01*
X16805658Y-9871650D02*
X16824706Y-9881174D01*
X16824706Y-9881174D02*
X16834230Y-9890698D01*
X16834230Y-9890698D02*
X16843754Y-9909746D01*
X16843754Y-9909746D02*
X16843754Y-9966889D01*
X16843754Y-9966889D02*
X16834230Y-9985936D01*
X16834230Y-9985936D02*
X16824706Y-9995460D01*
X16824706Y-9995460D02*
X16805658Y-10004984D01*
X16805658Y-10004984D02*
X16777087Y-10004984D01*
X16900897Y-9871650D02*
X16977087Y-9871650D01*
X16929468Y-9804984D02*
X16929468Y-9976412D01*
X16929468Y-9976412D02*
X16938992Y-9995460D01*
X16938992Y-9995460D02*
X16958039Y-10004984D01*
X16958039Y-10004984D02*
X16977087Y-10004984D01*
X17034230Y-9995460D02*
X17053277Y-10004984D01*
X17053277Y-10004984D02*
X17091373Y-10004984D01*
X17091373Y-10004984D02*
X17110420Y-9995460D01*
X17110420Y-9995460D02*
X17119944Y-9976412D01*
X17119944Y-9976412D02*
X17119944Y-9966889D01*
X17119944Y-9966889D02*
X17110420Y-9947841D01*
X17110420Y-9947841D02*
X17091373Y-9938317D01*
X17091373Y-9938317D02*
X17062801Y-9938317D01*
X17062801Y-9938317D02*
X17043754Y-9928793D01*
X17043754Y-9928793D02*
X17034230Y-9909746D01*
X17034230Y-9909746D02*
X17034230Y-9900222D01*
X17034230Y-9900222D02*
X17043754Y-9881174D01*
X17043754Y-9881174D02*
X17062801Y-9871650D01*
X17062801Y-9871650D02*
X17091373Y-9871650D01*
X17091373Y-9871650D02*
X17110420Y-9881174D01*
X17186611Y-10081174D02*
X17196135Y-10071650D01*
X17196135Y-10071650D02*
X17215182Y-10043079D01*
X17215182Y-10043079D02*
X17224706Y-10024031D01*
X17224706Y-10024031D02*
X17234230Y-9995460D01*
X17234230Y-9995460D02*
X17243754Y-9947841D01*
X17243754Y-9947841D02*
X17243754Y-9909746D01*
X17243754Y-9909746D02*
X17234230Y-9862127D01*
X17234230Y-9862127D02*
X17224706Y-9833555D01*
X17224706Y-9833555D02*
X17215182Y-9814508D01*
X17215182Y-9814508D02*
X17196135Y-9785936D01*
X17196135Y-9785936D02*
X17186611Y-9776412D01*
X17548516Y-10081174D02*
X17538992Y-10071650D01*
X17538992Y-10071650D02*
X17519944Y-10043079D01*
X17519944Y-10043079D02*
X17510420Y-10024031D01*
X17510420Y-10024031D02*
X17500897Y-9995460D01*
X17500897Y-9995460D02*
X17491373Y-9947841D01*
X17491373Y-9947841D02*
X17491373Y-9909746D01*
X17491373Y-9909746D02*
X17500897Y-9862127D01*
X17500897Y-9862127D02*
X17510420Y-9833555D01*
X17510420Y-9833555D02*
X17519944Y-9814508D01*
X17519944Y-9814508D02*
X17538992Y-9785936D01*
X17538992Y-9785936D02*
X17548516Y-9776412D01*
X17624706Y-9871650D02*
X17624706Y-10004984D01*
X17624706Y-9890698D02*
X17634230Y-9881174D01*
X17634230Y-9881174D02*
X17653277Y-9871650D01*
X17653277Y-9871650D02*
X17681849Y-9871650D01*
X17681849Y-9871650D02*
X17700897Y-9881174D01*
X17700897Y-9881174D02*
X17710420Y-9900222D01*
X17710420Y-9900222D02*
X17710420Y-10004984D01*
X17834230Y-10004984D02*
X17815182Y-9995460D01*
X17815182Y-9995460D02*
X17805658Y-9985936D01*
X17805658Y-9985936D02*
X17796135Y-9966889D01*
X17796135Y-9966889D02*
X17796135Y-9909746D01*
X17796135Y-9909746D02*
X17805658Y-9890698D01*
X17805658Y-9890698D02*
X17815182Y-9881174D01*
X17815182Y-9881174D02*
X17834230Y-9871650D01*
X17834230Y-9871650D02*
X17862801Y-9871650D01*
X17862801Y-9871650D02*
X17881849Y-9881174D01*
X17881849Y-9881174D02*
X17891373Y-9890698D01*
X17891373Y-9890698D02*
X17900897Y-9909746D01*
X17900897Y-9909746D02*
X17900897Y-9966889D01*
X17900897Y-9966889D02*
X17891373Y-9985936D01*
X17891373Y-9985936D02*
X17881849Y-9995460D01*
X17881849Y-9995460D02*
X17862801Y-10004984D01*
X17862801Y-10004984D02*
X17834230Y-10004984D01*
X17958039Y-9871650D02*
X18034230Y-9871650D01*
X17986611Y-9804984D02*
X17986611Y-9976412D01*
X17986611Y-9976412D02*
X17996135Y-9995460D01*
X17996135Y-9995460D02*
X18015182Y-10004984D01*
X18015182Y-10004984D02*
X18034230Y-10004984D01*
X18253278Y-9871650D02*
X18253278Y-10071650D01*
X18253278Y-9881174D02*
X18272325Y-9871650D01*
X18272325Y-9871650D02*
X18310420Y-9871650D01*
X18310420Y-9871650D02*
X18329468Y-9881174D01*
X18329468Y-9881174D02*
X18338992Y-9890698D01*
X18338992Y-9890698D02*
X18348516Y-9909746D01*
X18348516Y-9909746D02*
X18348516Y-9966889D01*
X18348516Y-9966889D02*
X18338992Y-9985936D01*
X18338992Y-9985936D02*
X18329468Y-9995460D01*
X18329468Y-9995460D02*
X18310420Y-10004984D01*
X18310420Y-10004984D02*
X18272325Y-10004984D01*
X18272325Y-10004984D02*
X18253278Y-9995460D01*
X18462801Y-10004984D02*
X18443754Y-9995460D01*
X18443754Y-9995460D02*
X18434230Y-9976412D01*
X18434230Y-9976412D02*
X18434230Y-9804984D01*
X18624706Y-10004984D02*
X18624706Y-9900222D01*
X18624706Y-9900222D02*
X18615182Y-9881174D01*
X18615182Y-9881174D02*
X18596135Y-9871650D01*
X18596135Y-9871650D02*
X18558039Y-9871650D01*
X18558039Y-9871650D02*
X18538992Y-9881174D01*
X18624706Y-9995460D02*
X18605659Y-10004984D01*
X18605659Y-10004984D02*
X18558039Y-10004984D01*
X18558039Y-10004984D02*
X18538992Y-9995460D01*
X18538992Y-9995460D02*
X18529468Y-9976412D01*
X18529468Y-9976412D02*
X18529468Y-9957365D01*
X18529468Y-9957365D02*
X18538992Y-9938317D01*
X18538992Y-9938317D02*
X18558039Y-9928793D01*
X18558039Y-9928793D02*
X18605659Y-9928793D01*
X18605659Y-9928793D02*
X18624706Y-9919270D01*
X18691373Y-9871650D02*
X18767563Y-9871650D01*
X18719944Y-9804984D02*
X18719944Y-9976412D01*
X18719944Y-9976412D02*
X18729468Y-9995460D01*
X18729468Y-9995460D02*
X18748516Y-10004984D01*
X18748516Y-10004984D02*
X18767563Y-10004984D01*
X18910420Y-9995460D02*
X18891373Y-10004984D01*
X18891373Y-10004984D02*
X18853278Y-10004984D01*
X18853278Y-10004984D02*
X18834230Y-9995460D01*
X18834230Y-9995460D02*
X18824706Y-9976412D01*
X18824706Y-9976412D02*
X18824706Y-9900222D01*
X18824706Y-9900222D02*
X18834230Y-9881174D01*
X18834230Y-9881174D02*
X18853278Y-9871650D01*
X18853278Y-9871650D02*
X18891373Y-9871650D01*
X18891373Y-9871650D02*
X18910420Y-9881174D01*
X18910420Y-9881174D02*
X18919944Y-9900222D01*
X18919944Y-9900222D02*
X18919944Y-9919270D01*
X18919944Y-9919270D02*
X18824706Y-9938317D01*
X19091373Y-10004984D02*
X19091373Y-9804984D01*
X19091373Y-9995460D02*
X19072325Y-10004984D01*
X19072325Y-10004984D02*
X19034230Y-10004984D01*
X19034230Y-10004984D02*
X19015182Y-9995460D01*
X19015182Y-9995460D02*
X19005659Y-9985936D01*
X19005659Y-9985936D02*
X18996135Y-9966889D01*
X18996135Y-9966889D02*
X18996135Y-9909746D01*
X18996135Y-9909746D02*
X19005659Y-9890698D01*
X19005659Y-9890698D02*
X19015182Y-9881174D01*
X19015182Y-9881174D02*
X19034230Y-9871650D01*
X19034230Y-9871650D02*
X19072325Y-9871650D01*
X19072325Y-9871650D02*
X19091373Y-9881174D01*
X19167563Y-10081174D02*
X19177087Y-10071650D01*
X19177087Y-10071650D02*
X19196135Y-10043079D01*
X19196135Y-10043079D02*
X19205659Y-10024031D01*
X19205659Y-10024031D02*
X19215182Y-9995460D01*
X19215182Y-9995460D02*
X19224706Y-9947841D01*
X19224706Y-9947841D02*
X19224706Y-9909746D01*
X19224706Y-9909746D02*
X19215182Y-9862127D01*
X19215182Y-9862127D02*
X19205659Y-9833555D01*
X19205659Y-9833555D02*
X19196135Y-9814508D01*
X19196135Y-9814508D02*
X19177087Y-9785936D01*
X19177087Y-9785936D02*
X19167563Y-9776412D01*
X10792500Y-10213500D02*
G75*
G02*
X10592500Y-10213500I-100000J0D01*
G01*
X10592500Y-10213500D02*
G75*
G02*
X10792500Y-10213500I100000J0D01*
G01*
X11034229Y-10104984D02*
X11158039Y-10104984D01*
X11158039Y-10104984D02*
X11091372Y-10181174D01*
X11091372Y-10181174D02*
X11119944Y-10181174D01*
X11119944Y-10181174D02*
X11138991Y-10190698D01*
X11138991Y-10190698D02*
X11148515Y-10200222D01*
X11148515Y-10200222D02*
X11158039Y-10219270D01*
X11158039Y-10219270D02*
X11158039Y-10266889D01*
X11158039Y-10266889D02*
X11148515Y-10285936D01*
X11148515Y-10285936D02*
X11138991Y-10295460D01*
X11138991Y-10295460D02*
X11119944Y-10304984D01*
X11119944Y-10304984D02*
X11062801Y-10304984D01*
X11062801Y-10304984D02*
X11043753Y-10295460D01*
X11043753Y-10295460D02*
X11034229Y-10285936D01*
X11243753Y-10285936D02*
X11253277Y-10295460D01*
X11253277Y-10295460D02*
X11243753Y-10304984D01*
X11243753Y-10304984D02*
X11234229Y-10295460D01*
X11234229Y-10295460D02*
X11243753Y-10285936D01*
X11243753Y-10285936D02*
X11243753Y-10304984D01*
X11329467Y-10124031D02*
X11338991Y-10114508D01*
X11338991Y-10114508D02*
X11358039Y-10104984D01*
X11358039Y-10104984D02*
X11405658Y-10104984D01*
X11405658Y-10104984D02*
X11424705Y-10114508D01*
X11424705Y-10114508D02*
X11434229Y-10124031D01*
X11434229Y-10124031D02*
X11443753Y-10143079D01*
X11443753Y-10143079D02*
X11443753Y-10162127D01*
X11443753Y-10162127D02*
X11434229Y-10190698D01*
X11434229Y-10190698D02*
X11319943Y-10304984D01*
X11319943Y-10304984D02*
X11443753Y-10304984D01*
X11567562Y-10104984D02*
X11586610Y-10104984D01*
X11586610Y-10104984D02*
X11605658Y-10114508D01*
X11605658Y-10114508D02*
X11615182Y-10124031D01*
X11615182Y-10124031D02*
X11624705Y-10143079D01*
X11624705Y-10143079D02*
X11634229Y-10181174D01*
X11634229Y-10181174D02*
X11634229Y-10228793D01*
X11634229Y-10228793D02*
X11624705Y-10266889D01*
X11624705Y-10266889D02*
X11615182Y-10285936D01*
X11615182Y-10285936D02*
X11605658Y-10295460D01*
X11605658Y-10295460D02*
X11586610Y-10304984D01*
X11586610Y-10304984D02*
X11567562Y-10304984D01*
X11567562Y-10304984D02*
X11548515Y-10295460D01*
X11548515Y-10295460D02*
X11538991Y-10285936D01*
X11538991Y-10285936D02*
X11529467Y-10266889D01*
X11529467Y-10266889D02*
X11519943Y-10228793D01*
X11519943Y-10228793D02*
X11519943Y-10181174D01*
X11519943Y-10181174D02*
X11529467Y-10143079D01*
X11529467Y-10143079D02*
X11538991Y-10124031D01*
X11538991Y-10124031D02*
X11548515Y-10114508D01*
X11548515Y-10114508D02*
X11567562Y-10104984D01*
X11758039Y-10104984D02*
X11777086Y-10104984D01*
X11777086Y-10104984D02*
X11796134Y-10114508D01*
X11796134Y-10114508D02*
X11805658Y-10124031D01*
X11805658Y-10124031D02*
X11815182Y-10143079D01*
X11815182Y-10143079D02*
X11824705Y-10181174D01*
X11824705Y-10181174D02*
X11824705Y-10228793D01*
X11824705Y-10228793D02*
X11815182Y-10266889D01*
X11815182Y-10266889D02*
X11805658Y-10285936D01*
X11805658Y-10285936D02*
X11796134Y-10295460D01*
X11796134Y-10295460D02*
X11777086Y-10304984D01*
X11777086Y-10304984D02*
X11758039Y-10304984D01*
X11758039Y-10304984D02*
X11738991Y-10295460D01*
X11738991Y-10295460D02*
X11729467Y-10285936D01*
X11729467Y-10285936D02*
X11719943Y-10266889D01*
X11719943Y-10266889D02*
X11710420Y-10228793D01*
X11710420Y-10228793D02*
X11710420Y-10181174D01*
X11710420Y-10181174D02*
X11719943Y-10143079D01*
X11719943Y-10143079D02*
X11729467Y-10124031D01*
X11729467Y-10124031D02*
X11738991Y-10114508D01*
X11738991Y-10114508D02*
X11758039Y-10104984D01*
X11910420Y-10304984D02*
X11910420Y-10171650D01*
X11910420Y-10190698D02*
X11919943Y-10181174D01*
X11919943Y-10181174D02*
X11938991Y-10171650D01*
X11938991Y-10171650D02*
X11967563Y-10171650D01*
X11967563Y-10171650D02*
X11986610Y-10181174D01*
X11986610Y-10181174D02*
X11996134Y-10200222D01*
X11996134Y-10200222D02*
X11996134Y-10304984D01*
X11996134Y-10200222D02*
X12005658Y-10181174D01*
X12005658Y-10181174D02*
X12024705Y-10171650D01*
X12024705Y-10171650D02*
X12053277Y-10171650D01*
X12053277Y-10171650D02*
X12072324Y-10181174D01*
X12072324Y-10181174D02*
X12081848Y-10200222D01*
X12081848Y-10200222D02*
X12081848Y-10304984D01*
X12177086Y-10304984D02*
X12177086Y-10171650D01*
X12177086Y-10190698D02*
X12186610Y-10181174D01*
X12186610Y-10181174D02*
X12205658Y-10171650D01*
X12205658Y-10171650D02*
X12234229Y-10171650D01*
X12234229Y-10171650D02*
X12253277Y-10181174D01*
X12253277Y-10181174D02*
X12262801Y-10200222D01*
X12262801Y-10200222D02*
X12262801Y-10304984D01*
X12262801Y-10200222D02*
X12272324Y-10181174D01*
X12272324Y-10181174D02*
X12291372Y-10171650D01*
X12291372Y-10171650D02*
X12319943Y-10171650D01*
X12319943Y-10171650D02*
X12338991Y-10181174D01*
X12338991Y-10181174D02*
X12348515Y-10200222D01*
X12348515Y-10200222D02*
X12348515Y-10304984D01*
X12738991Y-10095460D02*
X12567563Y-10352603D01*
X12996134Y-10104984D02*
X13015182Y-10104984D01*
X13015182Y-10104984D02*
X13034229Y-10114508D01*
X13034229Y-10114508D02*
X13043753Y-10124031D01*
X13043753Y-10124031D02*
X13053277Y-10143079D01*
X13053277Y-10143079D02*
X13062801Y-10181174D01*
X13062801Y-10181174D02*
X13062801Y-10228793D01*
X13062801Y-10228793D02*
X13053277Y-10266889D01*
X13053277Y-10266889D02*
X13043753Y-10285936D01*
X13043753Y-10285936D02*
X13034229Y-10295460D01*
X13034229Y-10295460D02*
X13015182Y-10304984D01*
X13015182Y-10304984D02*
X12996134Y-10304984D01*
X12996134Y-10304984D02*
X12977086Y-10295460D01*
X12977086Y-10295460D02*
X12967563Y-10285936D01*
X12967563Y-10285936D02*
X12958039Y-10266889D01*
X12958039Y-10266889D02*
X12948515Y-10228793D01*
X12948515Y-10228793D02*
X12948515Y-10181174D01*
X12948515Y-10181174D02*
X12958039Y-10143079D01*
X12958039Y-10143079D02*
X12967563Y-10124031D01*
X12967563Y-10124031D02*
X12977086Y-10114508D01*
X12977086Y-10114508D02*
X12996134Y-10104984D01*
X13148515Y-10285936D02*
X13158039Y-10295460D01*
X13158039Y-10295460D02*
X13148515Y-10304984D01*
X13148515Y-10304984D02*
X13138991Y-10295460D01*
X13138991Y-10295460D02*
X13148515Y-10285936D01*
X13148515Y-10285936D02*
X13148515Y-10304984D01*
X13348515Y-10304984D02*
X13234229Y-10304984D01*
X13291372Y-10304984D02*
X13291372Y-10104984D01*
X13291372Y-10104984D02*
X13272325Y-10133555D01*
X13272325Y-10133555D02*
X13253277Y-10152603D01*
X13253277Y-10152603D02*
X13234229Y-10162127D01*
X13424706Y-10124031D02*
X13434229Y-10114508D01*
X13434229Y-10114508D02*
X13453277Y-10104984D01*
X13453277Y-10104984D02*
X13500896Y-10104984D01*
X13500896Y-10104984D02*
X13519944Y-10114508D01*
X13519944Y-10114508D02*
X13529467Y-10124031D01*
X13529467Y-10124031D02*
X13538991Y-10143079D01*
X13538991Y-10143079D02*
X13538991Y-10162127D01*
X13538991Y-10162127D02*
X13529467Y-10190698D01*
X13529467Y-10190698D02*
X13415182Y-10304984D01*
X13415182Y-10304984D02*
X13538991Y-10304984D01*
X13710420Y-10104984D02*
X13672325Y-10104984D01*
X13672325Y-10104984D02*
X13653277Y-10114508D01*
X13653277Y-10114508D02*
X13643753Y-10124031D01*
X13643753Y-10124031D02*
X13624706Y-10152603D01*
X13624706Y-10152603D02*
X13615182Y-10190698D01*
X13615182Y-10190698D02*
X13615182Y-10266889D01*
X13615182Y-10266889D02*
X13624706Y-10285936D01*
X13624706Y-10285936D02*
X13634229Y-10295460D01*
X13634229Y-10295460D02*
X13653277Y-10304984D01*
X13653277Y-10304984D02*
X13691372Y-10304984D01*
X13691372Y-10304984D02*
X13710420Y-10295460D01*
X13710420Y-10295460D02*
X13719944Y-10285936D01*
X13719944Y-10285936D02*
X13729467Y-10266889D01*
X13729467Y-10266889D02*
X13729467Y-10219270D01*
X13729467Y-10219270D02*
X13719944Y-10200222D01*
X13719944Y-10200222D02*
X13710420Y-10190698D01*
X13710420Y-10190698D02*
X13691372Y-10181174D01*
X13691372Y-10181174D02*
X13653277Y-10181174D01*
X13653277Y-10181174D02*
X13634229Y-10190698D01*
X13634229Y-10190698D02*
X13624706Y-10200222D01*
X13624706Y-10200222D02*
X13615182Y-10219270D01*
X13853277Y-10104984D02*
X13872325Y-10104984D01*
X13872325Y-10104984D02*
X13891372Y-10114508D01*
X13891372Y-10114508D02*
X13900896Y-10124031D01*
X13900896Y-10124031D02*
X13910420Y-10143079D01*
X13910420Y-10143079D02*
X13919944Y-10181174D01*
X13919944Y-10181174D02*
X13919944Y-10228793D01*
X13919944Y-10228793D02*
X13910420Y-10266889D01*
X13910420Y-10266889D02*
X13900896Y-10285936D01*
X13900896Y-10285936D02*
X13891372Y-10295460D01*
X13891372Y-10295460D02*
X13872325Y-10304984D01*
X13872325Y-10304984D02*
X13853277Y-10304984D01*
X13853277Y-10304984D02*
X13834229Y-10295460D01*
X13834229Y-10295460D02*
X13824706Y-10285936D01*
X13824706Y-10285936D02*
X13815182Y-10266889D01*
X13815182Y-10266889D02*
X13805658Y-10228793D01*
X13805658Y-10228793D02*
X13805658Y-10181174D01*
X13805658Y-10181174D02*
X13815182Y-10143079D01*
X13815182Y-10143079D02*
X13824706Y-10124031D01*
X13824706Y-10124031D02*
X13834229Y-10114508D01*
X13834229Y-10114508D02*
X13853277Y-10104984D01*
X13996134Y-10104984D02*
X13996134Y-10143079D01*
X14072325Y-10104984D02*
X14072325Y-10143079D01*
X14367563Y-10381174D02*
X14358039Y-10371650D01*
X14358039Y-10371650D02*
X14338991Y-10343079D01*
X14338991Y-10343079D02*
X14329468Y-10324031D01*
X14329468Y-10324031D02*
X14319944Y-10295460D01*
X14319944Y-10295460D02*
X14310420Y-10247841D01*
X14310420Y-10247841D02*
X14310420Y-10209746D01*
X14310420Y-10209746D02*
X14319944Y-10162127D01*
X14319944Y-10162127D02*
X14329468Y-10133555D01*
X14329468Y-10133555D02*
X14338991Y-10114508D01*
X14338991Y-10114508D02*
X14358039Y-10085936D01*
X14358039Y-10085936D02*
X14367563Y-10076412D01*
X14548515Y-10304984D02*
X14434229Y-10304984D01*
X14491372Y-10304984D02*
X14491372Y-10104984D01*
X14491372Y-10104984D02*
X14472325Y-10133555D01*
X14472325Y-10133555D02*
X14453277Y-10152603D01*
X14453277Y-10152603D02*
X14434229Y-10162127D01*
X14786610Y-10304984D02*
X14786610Y-10104984D01*
X14872325Y-10304984D02*
X14872325Y-10200222D01*
X14872325Y-10200222D02*
X14862801Y-10181174D01*
X14862801Y-10181174D02*
X14843753Y-10171650D01*
X14843753Y-10171650D02*
X14815182Y-10171650D01*
X14815182Y-10171650D02*
X14796134Y-10181174D01*
X14796134Y-10181174D02*
X14786610Y-10190698D01*
X14996134Y-10304984D02*
X14977087Y-10295460D01*
X14977087Y-10295460D02*
X14967563Y-10285936D01*
X14967563Y-10285936D02*
X14958039Y-10266889D01*
X14958039Y-10266889D02*
X14958039Y-10209746D01*
X14958039Y-10209746D02*
X14967563Y-10190698D01*
X14967563Y-10190698D02*
X14977087Y-10181174D01*
X14977087Y-10181174D02*
X14996134Y-10171650D01*
X14996134Y-10171650D02*
X15024706Y-10171650D01*
X15024706Y-10171650D02*
X15043753Y-10181174D01*
X15043753Y-10181174D02*
X15053277Y-10190698D01*
X15053277Y-10190698D02*
X15062801Y-10209746D01*
X15062801Y-10209746D02*
X15062801Y-10266889D01*
X15062801Y-10266889D02*
X15053277Y-10285936D01*
X15053277Y-10285936D02*
X15043753Y-10295460D01*
X15043753Y-10295460D02*
X15024706Y-10304984D01*
X15024706Y-10304984D02*
X14996134Y-10304984D01*
X15177087Y-10304984D02*
X15158039Y-10295460D01*
X15158039Y-10295460D02*
X15148515Y-10276412D01*
X15148515Y-10276412D02*
X15148515Y-10104984D01*
X15329468Y-10295460D02*
X15310420Y-10304984D01*
X15310420Y-10304984D02*
X15272325Y-10304984D01*
X15272325Y-10304984D02*
X15253277Y-10295460D01*
X15253277Y-10295460D02*
X15243753Y-10276412D01*
X15243753Y-10276412D02*
X15243753Y-10200222D01*
X15243753Y-10200222D02*
X15253277Y-10181174D01*
X15253277Y-10181174D02*
X15272325Y-10171650D01*
X15272325Y-10171650D02*
X15310420Y-10171650D01*
X15310420Y-10171650D02*
X15329468Y-10181174D01*
X15329468Y-10181174D02*
X15338991Y-10200222D01*
X15338991Y-10200222D02*
X15338991Y-10219270D01*
X15338991Y-10219270D02*
X15243753Y-10238317D01*
X15405658Y-10381174D02*
X15415182Y-10371650D01*
X15415182Y-10371650D02*
X15434230Y-10343079D01*
X15434230Y-10343079D02*
X15443753Y-10324031D01*
X15443753Y-10324031D02*
X15453277Y-10295460D01*
X15453277Y-10295460D02*
X15462801Y-10247841D01*
X15462801Y-10247841D02*
X15462801Y-10209746D01*
X15462801Y-10209746D02*
X15453277Y-10162127D01*
X15453277Y-10162127D02*
X15443753Y-10133555D01*
X15443753Y-10133555D02*
X15434230Y-10114508D01*
X15434230Y-10114508D02*
X15415182Y-10085936D01*
X15415182Y-10085936D02*
X15405658Y-10076412D01*
X15767563Y-10381174D02*
X15758039Y-10371650D01*
X15758039Y-10371650D02*
X15738991Y-10343079D01*
X15738991Y-10343079D02*
X15729468Y-10324031D01*
X15729468Y-10324031D02*
X15719944Y-10295460D01*
X15719944Y-10295460D02*
X15710420Y-10247841D01*
X15710420Y-10247841D02*
X15710420Y-10209746D01*
X15710420Y-10209746D02*
X15719944Y-10162127D01*
X15719944Y-10162127D02*
X15729468Y-10133555D01*
X15729468Y-10133555D02*
X15738991Y-10114508D01*
X15738991Y-10114508D02*
X15758039Y-10085936D01*
X15758039Y-10085936D02*
X15767563Y-10076412D01*
X15843753Y-10171650D02*
X15843753Y-10304984D01*
X15843753Y-10190698D02*
X15853277Y-10181174D01*
X15853277Y-10181174D02*
X15872325Y-10171650D01*
X15872325Y-10171650D02*
X15900896Y-10171650D01*
X15900896Y-10171650D02*
X15919944Y-10181174D01*
X15919944Y-10181174D02*
X15929468Y-10200222D01*
X15929468Y-10200222D02*
X15929468Y-10304984D01*
X16053277Y-10304984D02*
X16034230Y-10295460D01*
X16034230Y-10295460D02*
X16024706Y-10285936D01*
X16024706Y-10285936D02*
X16015182Y-10266889D01*
X16015182Y-10266889D02*
X16015182Y-10209746D01*
X16015182Y-10209746D02*
X16024706Y-10190698D01*
X16024706Y-10190698D02*
X16034230Y-10181174D01*
X16034230Y-10181174D02*
X16053277Y-10171650D01*
X16053277Y-10171650D02*
X16081849Y-10171650D01*
X16081849Y-10171650D02*
X16100896Y-10181174D01*
X16100896Y-10181174D02*
X16110420Y-10190698D01*
X16110420Y-10190698D02*
X16119944Y-10209746D01*
X16119944Y-10209746D02*
X16119944Y-10266889D01*
X16119944Y-10266889D02*
X16110420Y-10285936D01*
X16110420Y-10285936D02*
X16100896Y-10295460D01*
X16100896Y-10295460D02*
X16081849Y-10304984D01*
X16081849Y-10304984D02*
X16053277Y-10304984D01*
X16177087Y-10171650D02*
X16253277Y-10171650D01*
X16205658Y-10104984D02*
X16205658Y-10276412D01*
X16205658Y-10276412D02*
X16215182Y-10295460D01*
X16215182Y-10295460D02*
X16234230Y-10304984D01*
X16234230Y-10304984D02*
X16253277Y-10304984D01*
X16472325Y-10171650D02*
X16472325Y-10371650D01*
X16472325Y-10181174D02*
X16491372Y-10171650D01*
X16491372Y-10171650D02*
X16529468Y-10171650D01*
X16529468Y-10171650D02*
X16548515Y-10181174D01*
X16548515Y-10181174D02*
X16558039Y-10190698D01*
X16558039Y-10190698D02*
X16567563Y-10209746D01*
X16567563Y-10209746D02*
X16567563Y-10266889D01*
X16567563Y-10266889D02*
X16558039Y-10285936D01*
X16558039Y-10285936D02*
X16548515Y-10295460D01*
X16548515Y-10295460D02*
X16529468Y-10304984D01*
X16529468Y-10304984D02*
X16491372Y-10304984D01*
X16491372Y-10304984D02*
X16472325Y-10295460D01*
X16681849Y-10304984D02*
X16662801Y-10295460D01*
X16662801Y-10295460D02*
X16653277Y-10276412D01*
X16653277Y-10276412D02*
X16653277Y-10104984D01*
X16843754Y-10304984D02*
X16843754Y-10200222D01*
X16843754Y-10200222D02*
X16834230Y-10181174D01*
X16834230Y-10181174D02*
X16815182Y-10171650D01*
X16815182Y-10171650D02*
X16777087Y-10171650D01*
X16777087Y-10171650D02*
X16758039Y-10181174D01*
X16843754Y-10295460D02*
X16824706Y-10304984D01*
X16824706Y-10304984D02*
X16777087Y-10304984D01*
X16777087Y-10304984D02*
X16758039Y-10295460D01*
X16758039Y-10295460D02*
X16748515Y-10276412D01*
X16748515Y-10276412D02*
X16748515Y-10257365D01*
X16748515Y-10257365D02*
X16758039Y-10238317D01*
X16758039Y-10238317D02*
X16777087Y-10228793D01*
X16777087Y-10228793D02*
X16824706Y-10228793D01*
X16824706Y-10228793D02*
X16843754Y-10219270D01*
X16910420Y-10171650D02*
X16986611Y-10171650D01*
X16938992Y-10104984D02*
X16938992Y-10276412D01*
X16938992Y-10276412D02*
X16948515Y-10295460D01*
X16948515Y-10295460D02*
X16967563Y-10304984D01*
X16967563Y-10304984D02*
X16986611Y-10304984D01*
X17129468Y-10295460D02*
X17110420Y-10304984D01*
X17110420Y-10304984D02*
X17072325Y-10304984D01*
X17072325Y-10304984D02*
X17053277Y-10295460D01*
X17053277Y-10295460D02*
X17043754Y-10276412D01*
X17043754Y-10276412D02*
X17043754Y-10200222D01*
X17043754Y-10200222D02*
X17053277Y-10181174D01*
X17053277Y-10181174D02*
X17072325Y-10171650D01*
X17072325Y-10171650D02*
X17110420Y-10171650D01*
X17110420Y-10171650D02*
X17129468Y-10181174D01*
X17129468Y-10181174D02*
X17138992Y-10200222D01*
X17138992Y-10200222D02*
X17138992Y-10219270D01*
X17138992Y-10219270D02*
X17043754Y-10238317D01*
X17310420Y-10304984D02*
X17310420Y-10104984D01*
X17310420Y-10295460D02*
X17291373Y-10304984D01*
X17291373Y-10304984D02*
X17253277Y-10304984D01*
X17253277Y-10304984D02*
X17234230Y-10295460D01*
X17234230Y-10295460D02*
X17224706Y-10285936D01*
X17224706Y-10285936D02*
X17215182Y-10266889D01*
X17215182Y-10266889D02*
X17215182Y-10209746D01*
X17215182Y-10209746D02*
X17224706Y-10190698D01*
X17224706Y-10190698D02*
X17234230Y-10181174D01*
X17234230Y-10181174D02*
X17253277Y-10171650D01*
X17253277Y-10171650D02*
X17291373Y-10171650D01*
X17291373Y-10171650D02*
X17310420Y-10181174D01*
X17386611Y-10381174D02*
X17396135Y-10371650D01*
X17396135Y-10371650D02*
X17415182Y-10343079D01*
X17415182Y-10343079D02*
X17424706Y-10324031D01*
X17424706Y-10324031D02*
X17434230Y-10295460D01*
X17434230Y-10295460D02*
X17443754Y-10247841D01*
X17443754Y-10247841D02*
X17443754Y-10209746D01*
X17443754Y-10209746D02*
X17434230Y-10162127D01*
X17434230Y-10162127D02*
X17424706Y-10133555D01*
X17424706Y-10133555D02*
X17415182Y-10114508D01*
X17415182Y-10114508D02*
X17396135Y-10085936D01*
X17396135Y-10085936D02*
X17386611Y-10076412D01*
M02*
