G04 #@! TF.GenerationSoftware,KiCad,Pcbnew,8.0.9*
G04 #@! TF.CreationDate,2025-03-02T14:12:51+01:00*
G04 #@! TF.ProjectId,cjss102,636a7373-3130-4322-9e6b-696361645f70,rev?*
G04 #@! TF.SameCoordinates,Original*
G04 #@! TF.FileFunction,Soldermask,Top*
G04 #@! TF.FilePolarity,Negative*
%FSLAX46Y46*%
G04 Gerber Fmt 4.6, Leading zero omitted, Abs format (unit mm)*
G04 Created by KiCad (PCBNEW 8.0.9) date 2025-03-02 14:12:51*
%MOMM*%
%LPD*%
G01*
G04 APERTURE LIST*
%ADD10C,1.600000*%
%ADD11O,1.600000X1.600000*%
%ADD12C,5.600000*%
%ADD13R,1.700000X1.700000*%
%ADD14O,1.700000X1.700000*%
%ADD15R,1.200000X1.200000*%
%ADD16C,1.200000*%
%ADD17O,1.900000X3.200000*%
%ADD18C,2.000000*%
%ADD19C,2.200000*%
%ADD20R,1.600000X1.600000*%
%ADD21R,1.050000X1.500000*%
%ADD22O,1.050000X1.500000*%
%ADD23C,3.200000*%
G04 APERTURE END LIST*
D10*
X166370000Y-60960000D03*
D11*
X156210000Y-60960000D03*
D10*
X125730000Y-57150000D03*
X130730000Y-57150000D03*
X176530000Y-60960000D03*
D11*
X186690000Y-60960000D03*
D12*
X186690000Y-48260000D03*
D10*
X163750000Y-85090000D03*
X158750000Y-85090000D03*
X189230000Y-77470000D03*
D11*
X179070000Y-77470000D03*
D13*
X125730000Y-53340000D03*
D14*
X123190000Y-53340000D03*
D15*
X182880000Y-69215000D03*
D16*
X181380000Y-69215000D03*
D10*
X113030000Y-88900000D03*
D11*
X123190000Y-88900000D03*
D15*
X137565000Y-74295000D03*
D16*
X139065000Y-74295000D03*
D17*
X180200000Y-44510000D03*
X167900000Y-44510000D03*
D18*
X170300000Y-48260000D03*
X177800000Y-48260000D03*
D19*
X170300000Y-41010000D03*
D17*
X131940000Y-44510000D03*
X119640000Y-44510000D03*
D18*
X122040000Y-48260000D03*
X129540000Y-48260000D03*
D19*
X122040000Y-41010000D03*
D10*
X152320000Y-63500000D03*
X147320000Y-63500000D03*
X146050000Y-76200000D03*
D11*
X146050000Y-86360000D03*
D10*
X113030000Y-57150000D03*
D11*
X123190000Y-57150000D03*
D10*
X133350000Y-57150000D03*
D11*
X143510000Y-57150000D03*
D13*
X170180000Y-53340000D03*
D14*
X167640000Y-53340000D03*
D10*
X186690000Y-57150000D03*
D11*
X176530000Y-57150000D03*
D10*
X166370000Y-57150000D03*
D11*
X156210000Y-57150000D03*
D10*
X125810000Y-72390000D03*
X130810000Y-72390000D03*
D19*
X144860000Y-38100000D03*
X154860000Y-38100000D03*
D18*
X142360000Y-47800000D03*
X149860000Y-47800000D03*
X157360000Y-47800000D03*
X144860000Y-50300000D03*
X154860000Y-50300000D03*
D10*
X147320000Y-67310000D03*
X152320000Y-67310000D03*
X113030000Y-64770000D03*
D11*
X123190000Y-64770000D03*
D15*
X117245000Y-69215000D03*
D16*
X118745000Y-69215000D03*
D20*
X152400000Y-72390000D03*
D10*
X149900000Y-72390000D03*
D12*
X111760000Y-48260000D03*
D10*
X186690000Y-88900000D03*
D11*
X176530000Y-88900000D03*
D10*
X176530000Y-76200000D03*
D11*
X166370000Y-76200000D03*
D10*
X133350000Y-60960000D03*
D11*
X143510000Y-60960000D03*
D21*
X127000000Y-81280000D03*
D22*
X128270000Y-81280000D03*
X129540000Y-81280000D03*
D13*
X109220000Y-59690000D03*
D14*
X109220000Y-57150000D03*
X109220000Y-54610000D03*
D10*
X173990000Y-72390000D03*
X168990000Y-72390000D03*
X186690000Y-64770000D03*
D11*
X176530000Y-64770000D03*
D10*
X115610000Y-85090000D03*
X120610000Y-85090000D03*
X184110000Y-85090000D03*
X179110000Y-85090000D03*
X123190000Y-60960000D03*
D11*
X113030000Y-60960000D03*
D21*
X170180000Y-62230000D03*
D22*
X171450000Y-62230000D03*
X172720000Y-62230000D03*
D10*
X133350000Y-81280000D03*
D11*
X143510000Y-81280000D03*
D10*
X135890000Y-85090000D03*
X140890000Y-85090000D03*
D21*
X129540000Y-60960000D03*
D22*
X128270000Y-60960000D03*
X127000000Y-60960000D03*
D10*
X156210000Y-64770000D03*
D11*
X166370000Y-64770000D03*
D23*
X149860000Y-90170000D03*
D10*
X166370000Y-81280000D03*
D11*
X156210000Y-81280000D03*
D10*
X110490000Y-74295000D03*
D11*
X120650000Y-74295000D03*
D10*
X133350000Y-88900000D03*
D11*
X143510000Y-88900000D03*
D13*
X129540000Y-53340000D03*
D14*
X132080000Y-53340000D03*
D20*
X147360000Y-58420000D03*
D10*
X149860000Y-58420000D03*
X143510000Y-64770000D03*
D11*
X133350000Y-64770000D03*
D10*
X153670000Y-76200000D03*
D11*
X153670000Y-86360000D03*
D13*
X109220000Y-67310000D03*
D14*
X109220000Y-64770000D03*
D10*
X110490000Y-77470000D03*
D11*
X120650000Y-77470000D03*
D10*
X168990000Y-88900000D03*
X173990000Y-88900000D03*
X166370000Y-88900000D03*
D11*
X156210000Y-88900000D03*
D10*
X133350000Y-68580000D03*
D11*
X143510000Y-68580000D03*
D21*
X172720000Y-80645000D03*
D22*
X171450000Y-80645000D03*
X170180000Y-80645000D03*
D10*
X166370000Y-68580000D03*
D11*
X156210000Y-68580000D03*
D10*
X189230000Y-74295000D03*
D11*
X179070000Y-74295000D03*
D21*
X129540000Y-66675000D03*
D22*
X128270000Y-66675000D03*
X127000000Y-66675000D03*
D15*
X162155000Y-74295000D03*
D16*
X160655000Y-74295000D03*
D21*
X170180000Y-67310000D03*
D22*
X171450000Y-67310000D03*
X172720000Y-67310000D03*
D10*
X130810000Y-88900000D03*
X125810000Y-88900000D03*
X123190000Y-76200000D03*
D11*
X133350000Y-76200000D03*
D10*
X173950000Y-57150000D03*
X168950000Y-57150000D03*
D13*
X173990000Y-53315000D03*
D14*
X176530000Y-53315000D03*
M02*
