M48
; DRILL file {KiCad 8.0.9} date 2025-03-02T14:12:59+0100
; FORMAT={-:-/ absolute / metric / decimal}
; #@! TF.CreationDate,2025-03-02T14:12:59+01:00
; #@! TF.GenerationSoftware,Kicad,Pcbnew,8.0.9
; #@! TF.FileFunction,Plated,1,2,PTH
FMAT,2
METRIC
; #@! TA.AperFunction,Plated,PTH,ViaDrill
T1C0.300
; #@! TA.AperFunction,Plated,PTH,ComponentDrill
T2C0.600
; #@! TA.AperFunction,Plated,PTH,ComponentDrill
T3C0.750
; #@! TA.AperFunction,Plated,PTH,ComponentDrill
T4C0.800
; #@! TA.AperFunction,Plated,PTH,ComponentDrill
T5C1.000
; #@! TA.AperFunction,Plated,PTH,ComponentDrill
T6C1.300
; #@! TA.AperFunction,Plated,PTH,ComponentDrill
T7C1.500
; #@! TA.AperFunction,Plated,PTH,ComponentDrill
T8C3.200
%
G90
G05
T1
X164.465Y-44.45
T2
X117.245Y-69.215
X118.745Y-69.215
X137.565Y-74.295
X139.065Y-74.295
X160.655Y-74.295
X162.155Y-74.295
X181.38Y-69.215
X182.88Y-69.215
T3
X127.0Y-60.96
X127.0Y-66.675
X127.0Y-81.28
X128.27Y-60.96
X128.27Y-66.675
X128.27Y-81.28
X129.54Y-60.96
X129.54Y-66.675
X129.54Y-81.28
X170.18Y-62.23
X170.18Y-67.31
X170.18Y-80.645
X171.45Y-62.23
X171.45Y-67.31
X171.45Y-80.645
X172.72Y-62.23
X172.72Y-67.31
X172.72Y-80.645
T4
X110.49Y-74.295
X110.49Y-77.47
X113.03Y-57.15
X113.03Y-60.96
X113.03Y-64.77
X113.03Y-88.9
X115.61Y-85.09
X120.61Y-85.09
X120.65Y-74.295
X120.65Y-77.47
X123.19Y-57.15
X123.19Y-60.96
X123.19Y-64.77
X123.19Y-76.2
X123.19Y-88.9
X125.73Y-57.15
X125.81Y-72.39
X125.81Y-88.9
X130.73Y-57.15
X130.81Y-72.39
X130.81Y-88.9
X133.35Y-57.15
X133.35Y-60.96
X133.35Y-64.77
X133.35Y-68.58
X133.35Y-76.2
X133.35Y-81.28
X133.35Y-88.9
X135.89Y-85.09
X140.89Y-85.09
X143.51Y-57.15
X143.51Y-60.96
X143.51Y-64.77
X143.51Y-68.58
X143.51Y-81.28
X143.51Y-88.9
X146.05Y-76.2
X146.05Y-86.36
X147.32Y-63.5
X147.32Y-67.31
X147.36Y-58.42
X149.86Y-58.42
X149.9Y-72.39
X152.32Y-63.5
X152.32Y-67.31
X152.4Y-72.39
X153.67Y-76.2
X153.67Y-86.36
X156.21Y-57.15
X156.21Y-60.96
X156.21Y-64.77
X156.21Y-68.58
X156.21Y-81.28
X156.21Y-88.9
X158.75Y-85.09
X163.75Y-85.09
X166.37Y-57.15
X166.37Y-60.96
X166.37Y-64.77
X166.37Y-68.58
X166.37Y-76.2
X166.37Y-81.28
X166.37Y-88.9
X168.95Y-57.15
X168.99Y-72.39
X168.99Y-88.9
X173.95Y-57.15
X173.99Y-72.39
X173.99Y-88.9
X176.53Y-57.15
X176.53Y-60.96
X176.53Y-64.77
X176.53Y-76.2
X176.53Y-88.9
X179.07Y-74.295
X179.07Y-77.47
X179.11Y-85.09
X184.11Y-85.09
X186.69Y-57.15
X186.69Y-60.96
X186.69Y-64.77
X186.69Y-88.9
X189.23Y-74.295
X189.23Y-77.47
T5
X109.22Y-54.61
X109.22Y-57.15
X109.22Y-59.69
X109.22Y-64.77
X109.22Y-67.31
X123.19Y-53.34
X125.73Y-53.34
X129.54Y-53.34
X132.08Y-53.34
X167.64Y-53.34
X170.18Y-53.34
X173.99Y-53.315
X176.53Y-53.315
T6
X122.04Y-48.26
X129.54Y-48.26
X142.36Y-47.8
X144.86Y-50.3
X149.86Y-47.8
X154.86Y-50.3
X157.36Y-47.8
X170.3Y-48.26
X177.8Y-48.26
T7
X122.04Y-41.01
X144.86Y-38.1
X154.86Y-38.1
X170.3Y-41.01
T8
X111.76Y-48.26
X186.69Y-48.26
M30
