%TF.GenerationSoftware,KiCad,Pcbnew,8.0.9*%
%TF.CreationDate,2025-03-02T14:13:00+01:00*%
%TF.ProjectId,cjss102,636a7373-3130-4322-9e6b-696361645f70,rev?*%
%TF.SameCoordinates,Original*%
%TF.FileFunction,Drillmap*%
%TF.FilePolarity,Positive*%
%FSLAX45Y45*%
G04 Gerber Fmt 4.5, Leading zero omitted, Abs format (unit mm)*
G04 Created by KiCad (PCBNEW 8.0.9) date 2025-03-02 14:13:00*
%MOMM*%
%LPD*%
G01*
G04 APERTURE LIST*
%ADD10C,0.050000*%
%ADD11C,0.200000*%
%ADD12C,0.100000*%
%ADD13C,0.130000*%
%ADD14C,0.150000*%
%ADD15C,0.320000*%
G04 APERTURE END LIST*
D10*
X19050000Y-9017000D02*
X19050000Y-3810000D01*
X11049000Y-9271000D02*
X18796000Y-9271000D01*
X10795000Y-3810000D02*
X10795000Y-9017000D01*
X10795000Y-3810000D02*
G75*
G02*
X11049000Y-3556000I254000J0D01*
G01*
X19050000Y-9017000D02*
G75*
G02*
X18796000Y-9271000I-254000J0D01*
G01*
X18796000Y-3556000D02*
G75*
G02*
X19050000Y-3810000I0J-254000D01*
G01*
X11049000Y-9271000D02*
G75*
G02*
X10795000Y-9017000I0J254000D01*
G01*
X11049000Y-3556000D02*
X18796000Y-3556000D01*
D11*
D12*
X16431500Y-4430000D02*
X16461500Y-4460000D01*
X16461500Y-4430000D02*
X16431500Y-4460000D01*
X11754500Y-6921500D02*
G75*
G02*
X11694500Y-6921500I-30000J0D01*
G01*
X11694500Y-6921500D02*
G75*
G02*
X11754500Y-6921500I30000J0D01*
G01*
X11904500Y-6921500D02*
G75*
G02*
X11844500Y-6921500I-30000J0D01*
G01*
X11844500Y-6921500D02*
G75*
G02*
X11904500Y-6921500I30000J0D01*
G01*
X13786500Y-7429500D02*
G75*
G02*
X13726500Y-7429500I-30000J0D01*
G01*
X13726500Y-7429500D02*
G75*
G02*
X13786500Y-7429500I30000J0D01*
G01*
X13936500Y-7429500D02*
G75*
G02*
X13876500Y-7429500I-30000J0D01*
G01*
X13876500Y-7429500D02*
G75*
G02*
X13936500Y-7429500I30000J0D01*
G01*
X16095500Y-7429500D02*
G75*
G02*
X16035500Y-7429500I-30000J0D01*
G01*
X16035500Y-7429500D02*
G75*
G02*
X16095500Y-7429500I30000J0D01*
G01*
X16245500Y-7429500D02*
G75*
G02*
X16185500Y-7429500I-30000J0D01*
G01*
X16185500Y-7429500D02*
G75*
G02*
X16245500Y-7429500I30000J0D01*
G01*
X18168000Y-6921500D02*
G75*
G02*
X18108000Y-6921500I-30000J0D01*
G01*
X18108000Y-6921500D02*
G75*
G02*
X18168000Y-6921500I30000J0D01*
G01*
X18318000Y-6921500D02*
G75*
G02*
X18258000Y-6921500I-30000J0D01*
G01*
X18258000Y-6921500D02*
G75*
G02*
X18318000Y-6921500I30000J0D01*
G01*
X12700000Y-6058500D02*
X12700000Y-6133500D01*
X12662500Y-6096000D02*
X12737500Y-6096000D01*
X12700000Y-6630000D02*
X12700000Y-6705000D01*
X12662500Y-6667500D02*
X12737500Y-6667500D01*
X12700000Y-8090500D02*
X12700000Y-8165500D01*
X12662500Y-8128000D02*
X12737500Y-8128000D01*
X12827000Y-6058500D02*
X12827000Y-6133500D01*
X12789500Y-6096000D02*
X12864500Y-6096000D01*
X12827000Y-6630000D02*
X12827000Y-6705000D01*
X12789500Y-6667500D02*
X12864500Y-6667500D01*
X12827000Y-8090500D02*
X12827000Y-8165500D01*
X12789500Y-8128000D02*
X12864500Y-8128000D01*
X12954000Y-6058500D02*
X12954000Y-6133500D01*
X12916500Y-6096000D02*
X12991500Y-6096000D01*
X12954000Y-6630000D02*
X12954000Y-6705000D01*
X12916500Y-6667500D02*
X12991500Y-6667500D01*
X12954000Y-8090500D02*
X12954000Y-8165500D01*
X12916500Y-8128000D02*
X12991500Y-8128000D01*
X17018000Y-6185500D02*
X17018000Y-6260500D01*
X16980500Y-6223000D02*
X17055500Y-6223000D01*
X17018000Y-6693500D02*
X17018000Y-6768500D01*
X16980500Y-6731000D02*
X17055500Y-6731000D01*
X17018000Y-8027000D02*
X17018000Y-8102000D01*
X16980500Y-8064500D02*
X17055500Y-8064500D01*
X17145000Y-6185500D02*
X17145000Y-6260500D01*
X17107500Y-6223000D02*
X17182500Y-6223000D01*
X17145000Y-6693500D02*
X17145000Y-6768500D01*
X17107500Y-6731000D02*
X17182500Y-6731000D01*
X17145000Y-8027000D02*
X17145000Y-8102000D01*
X17107500Y-8064500D02*
X17182500Y-8064500D01*
X17272000Y-6185500D02*
X17272000Y-6260500D01*
X17234500Y-6223000D02*
X17309500Y-6223000D01*
X17272000Y-6693500D02*
X17272000Y-6768500D01*
X17234500Y-6731000D02*
X17309500Y-6731000D01*
X17272000Y-8027000D02*
X17272000Y-8102000D01*
X17234500Y-8064500D02*
X17309500Y-8064500D01*
X11077285Y-7457784D02*
X11077285Y-7401215D01*
X11020716Y-7401215D01*
X11020716Y-7457784D01*
X11077285Y-7457784D01*
X11077285Y-7775284D02*
X11077285Y-7718715D01*
X11020716Y-7718715D01*
X11020716Y-7775284D01*
X11077285Y-7775284D01*
X11331284Y-5743284D02*
X11331284Y-5686715D01*
X11274715Y-5686715D01*
X11274715Y-5743284D01*
X11331284Y-5743284D01*
X11331284Y-6124284D02*
X11331284Y-6067715D01*
X11274715Y-6067715D01*
X11274715Y-6124284D01*
X11331284Y-6124284D01*
X11331284Y-6505284D02*
X11331284Y-6448715D01*
X11274715Y-6448715D01*
X11274715Y-6505284D01*
X11331284Y-6505284D01*
X11331284Y-8918285D02*
X11331284Y-8861716D01*
X11274715Y-8861716D01*
X11274715Y-8918285D01*
X11331284Y-8918285D01*
X11589284Y-8537285D02*
X11589284Y-8480716D01*
X11532715Y-8480716D01*
X11532715Y-8537285D01*
X11589284Y-8537285D01*
X12089284Y-8537285D02*
X12089284Y-8480716D01*
X12032715Y-8480716D01*
X12032715Y-8537285D01*
X12089284Y-8537285D01*
X12093284Y-7457784D02*
X12093284Y-7401215D01*
X12036715Y-7401215D01*
X12036715Y-7457784D01*
X12093284Y-7457784D01*
X12093284Y-7775284D02*
X12093284Y-7718715D01*
X12036715Y-7718715D01*
X12036715Y-7775284D01*
X12093284Y-7775284D01*
X12347284Y-5743284D02*
X12347284Y-5686715D01*
X12290715Y-5686715D01*
X12290715Y-5743284D01*
X12347284Y-5743284D01*
X12347284Y-6124284D02*
X12347284Y-6067715D01*
X12290715Y-6067715D01*
X12290715Y-6124284D01*
X12347284Y-6124284D01*
X12347284Y-6505284D02*
X12347284Y-6448715D01*
X12290715Y-6448715D01*
X12290715Y-6505284D01*
X12347284Y-6505284D01*
X12347284Y-7648284D02*
X12347284Y-7591715D01*
X12290715Y-7591715D01*
X12290715Y-7648284D01*
X12347284Y-7648284D01*
X12347284Y-8918285D02*
X12347284Y-8861716D01*
X12290715Y-8861716D01*
X12290715Y-8918285D01*
X12347284Y-8918285D01*
X12601284Y-5743284D02*
X12601284Y-5686715D01*
X12544715Y-5686715D01*
X12544715Y-5743284D01*
X12601284Y-5743284D01*
X12609284Y-7267284D02*
X12609284Y-7210715D01*
X12552715Y-7210715D01*
X12552715Y-7267284D01*
X12609284Y-7267284D01*
X12609284Y-8918285D02*
X12609284Y-8861716D01*
X12552715Y-8861716D01*
X12552715Y-8918285D01*
X12609284Y-8918285D01*
X13101284Y-5743284D02*
X13101284Y-5686715D01*
X13044715Y-5686715D01*
X13044715Y-5743284D01*
X13101284Y-5743284D01*
X13109284Y-7267284D02*
X13109284Y-7210715D01*
X13052715Y-7210715D01*
X13052715Y-7267284D01*
X13109284Y-7267284D01*
X13109284Y-8918285D02*
X13109284Y-8861716D01*
X13052715Y-8861716D01*
X13052715Y-8918285D01*
X13109284Y-8918285D01*
X13363284Y-5743284D02*
X13363284Y-5686715D01*
X13306715Y-5686715D01*
X13306715Y-5743284D01*
X13363284Y-5743284D01*
X13363284Y-6124284D02*
X13363284Y-6067715D01*
X13306715Y-6067715D01*
X13306715Y-6124284D01*
X13363284Y-6124284D01*
X13363284Y-6505284D02*
X13363284Y-6448715D01*
X13306715Y-6448715D01*
X13306715Y-6505284D01*
X13363284Y-6505284D01*
X13363284Y-6886284D02*
X13363284Y-6829715D01*
X13306715Y-6829715D01*
X13306715Y-6886284D01*
X13363284Y-6886284D01*
X13363284Y-7648284D02*
X13363284Y-7591715D01*
X13306715Y-7591715D01*
X13306715Y-7648284D01*
X13363284Y-7648284D01*
X13363284Y-8156284D02*
X13363284Y-8099715D01*
X13306715Y-8099715D01*
X13306715Y-8156284D01*
X13363284Y-8156284D01*
X13363284Y-8918285D02*
X13363284Y-8861716D01*
X13306715Y-8861716D01*
X13306715Y-8918285D01*
X13363284Y-8918285D01*
X13617284Y-8537285D02*
X13617284Y-8480716D01*
X13560715Y-8480716D01*
X13560715Y-8537285D01*
X13617284Y-8537285D01*
X14117284Y-8537285D02*
X14117284Y-8480716D01*
X14060715Y-8480716D01*
X14060715Y-8537285D01*
X14117284Y-8537285D01*
X14379284Y-5743284D02*
X14379284Y-5686715D01*
X14322715Y-5686715D01*
X14322715Y-5743284D01*
X14379284Y-5743284D01*
X14379284Y-6124284D02*
X14379284Y-6067715D01*
X14322715Y-6067715D01*
X14322715Y-6124284D01*
X14379284Y-6124284D01*
X14379284Y-6505284D02*
X14379284Y-6448715D01*
X14322715Y-6448715D01*
X14322715Y-6505284D01*
X14379284Y-6505284D01*
X14379284Y-6886284D02*
X14379284Y-6829715D01*
X14322715Y-6829715D01*
X14322715Y-6886284D01*
X14379284Y-6886284D01*
X14379284Y-8156284D02*
X14379284Y-8099715D01*
X14322715Y-8099715D01*
X14322715Y-8156284D01*
X14379284Y-8156284D01*
X14379284Y-8918285D02*
X14379284Y-8861716D01*
X14322715Y-8861716D01*
X14322715Y-8918285D01*
X14379284Y-8918285D01*
X14633284Y-7648284D02*
X14633284Y-7591715D01*
X14576715Y-7591715D01*
X14576715Y-7648284D01*
X14633284Y-7648284D01*
X14633284Y-8664285D02*
X14633284Y-8607716D01*
X14576715Y-8607716D01*
X14576715Y-8664285D01*
X14633284Y-8664285D01*
X14760284Y-6378284D02*
X14760284Y-6321715D01*
X14703715Y-6321715D01*
X14703715Y-6378284D01*
X14760284Y-6378284D01*
X14760284Y-6759284D02*
X14760284Y-6702715D01*
X14703715Y-6702715D01*
X14703715Y-6759284D01*
X14760284Y-6759284D01*
X14764284Y-5870284D02*
X14764284Y-5813715D01*
X14707715Y-5813715D01*
X14707715Y-5870284D01*
X14764284Y-5870284D01*
X15014284Y-5870284D02*
X15014284Y-5813715D01*
X14957715Y-5813715D01*
X14957715Y-5870284D01*
X15014284Y-5870284D01*
X15018284Y-7267284D02*
X15018284Y-7210715D01*
X14961715Y-7210715D01*
X14961715Y-7267284D01*
X15018284Y-7267284D01*
X15260284Y-6378284D02*
X15260284Y-6321715D01*
X15203715Y-6321715D01*
X15203715Y-6378284D01*
X15260284Y-6378284D01*
X15260284Y-6759284D02*
X15260284Y-6702715D01*
X15203715Y-6702715D01*
X15203715Y-6759284D01*
X15260284Y-6759284D01*
X15268284Y-7267284D02*
X15268284Y-7210715D01*
X15211715Y-7210715D01*
X15211715Y-7267284D01*
X15268284Y-7267284D01*
X15395284Y-7648284D02*
X15395284Y-7591715D01*
X15338715Y-7591715D01*
X15338715Y-7648284D01*
X15395284Y-7648284D01*
X15395284Y-8664285D02*
X15395284Y-8607716D01*
X15338715Y-8607716D01*
X15338715Y-8664285D01*
X15395284Y-8664285D01*
X15649284Y-5743284D02*
X15649284Y-5686715D01*
X15592715Y-5686715D01*
X15592715Y-5743284D01*
X15649284Y-5743284D01*
X15649284Y-6124284D02*
X15649284Y-6067715D01*
X15592715Y-6067715D01*
X15592715Y-6124284D01*
X15649284Y-6124284D01*
X15649284Y-6505284D02*
X15649284Y-6448715D01*
X15592715Y-6448715D01*
X15592715Y-6505284D01*
X15649284Y-6505284D01*
X15649284Y-6886284D02*
X15649284Y-6829715D01*
X15592715Y-6829715D01*
X15592715Y-6886284D01*
X15649284Y-6886284D01*
X15649284Y-8156284D02*
X15649284Y-8099715D01*
X15592715Y-8099715D01*
X15592715Y-8156284D01*
X15649284Y-8156284D01*
X15649284Y-8918285D02*
X15649284Y-8861716D01*
X15592715Y-8861716D01*
X15592715Y-8918285D01*
X15649284Y-8918285D01*
X15903284Y-8537285D02*
X15903284Y-8480716D01*
X15846715Y-8480716D01*
X15846715Y-8537285D01*
X15903284Y-8537285D01*
X16403284Y-8537285D02*
X16403284Y-8480716D01*
X16346715Y-8480716D01*
X16346715Y-8537285D01*
X16403284Y-8537285D01*
X16665284Y-5743284D02*
X16665284Y-5686715D01*
X16608715Y-5686715D01*
X16608715Y-5743284D01*
X16665284Y-5743284D01*
X16665284Y-6124284D02*
X16665284Y-6067715D01*
X16608715Y-6067715D01*
X16608715Y-6124284D01*
X16665284Y-6124284D01*
X16665284Y-6505284D02*
X16665284Y-6448715D01*
X16608715Y-6448715D01*
X16608715Y-6505284D01*
X16665284Y-6505284D01*
X16665284Y-6886284D02*
X16665284Y-6829715D01*
X16608715Y-6829715D01*
X16608715Y-6886284D01*
X16665284Y-6886284D01*
X16665284Y-7648284D02*
X16665284Y-7591715D01*
X16608715Y-7591715D01*
X16608715Y-7648284D01*
X16665284Y-7648284D01*
X16665284Y-8156284D02*
X16665284Y-8099715D01*
X16608715Y-8099715D01*
X16608715Y-8156284D01*
X16665284Y-8156284D01*
X16665284Y-8918285D02*
X16665284Y-8861716D01*
X16608715Y-8861716D01*
X16608715Y-8918285D01*
X16665284Y-8918285D01*
X16923285Y-5743284D02*
X16923285Y-5686715D01*
X16866716Y-5686715D01*
X16866716Y-5743284D01*
X16923285Y-5743284D01*
X16927285Y-7267284D02*
X16927285Y-7210715D01*
X16870716Y-7210715D01*
X16870716Y-7267284D01*
X16927285Y-7267284D01*
X16927285Y-8918285D02*
X16927285Y-8861716D01*
X16870716Y-8861716D01*
X16870716Y-8918285D01*
X16927285Y-8918285D01*
X17423285Y-5743284D02*
X17423285Y-5686715D01*
X17366716Y-5686715D01*
X17366716Y-5743284D01*
X17423285Y-5743284D01*
X17427285Y-7267284D02*
X17427285Y-7210715D01*
X17370716Y-7210715D01*
X17370716Y-7267284D01*
X17427285Y-7267284D01*
X17427285Y-8918285D02*
X17427285Y-8861716D01*
X17370716Y-8861716D01*
X17370716Y-8918285D01*
X17427285Y-8918285D01*
X17681285Y-5743284D02*
X17681285Y-5686715D01*
X17624716Y-5686715D01*
X17624716Y-5743284D01*
X17681285Y-5743284D01*
X17681285Y-6124284D02*
X17681285Y-6067715D01*
X17624716Y-6067715D01*
X17624716Y-6124284D01*
X17681285Y-6124284D01*
X17681285Y-6505284D02*
X17681285Y-6448715D01*
X17624716Y-6448715D01*
X17624716Y-6505284D01*
X17681285Y-6505284D01*
X17681285Y-7648284D02*
X17681285Y-7591715D01*
X17624716Y-7591715D01*
X17624716Y-7648284D01*
X17681285Y-7648284D01*
X17681285Y-8918285D02*
X17681285Y-8861716D01*
X17624716Y-8861716D01*
X17624716Y-8918285D01*
X17681285Y-8918285D01*
X17935285Y-7457784D02*
X17935285Y-7401215D01*
X17878716Y-7401215D01*
X17878716Y-7457784D01*
X17935285Y-7457784D01*
X17935285Y-7775284D02*
X17935285Y-7718715D01*
X17878716Y-7718715D01*
X17878716Y-7775284D01*
X17935285Y-7775284D01*
X17939285Y-8537285D02*
X17939285Y-8480716D01*
X17882716Y-8480716D01*
X17882716Y-8537285D01*
X17939285Y-8537285D01*
X18439285Y-8537285D02*
X18439285Y-8480716D01*
X18382716Y-8480716D01*
X18382716Y-8537285D01*
X18439285Y-8537285D01*
X18697285Y-5743284D02*
X18697285Y-5686715D01*
X18640716Y-5686715D01*
X18640716Y-5743284D01*
X18697285Y-5743284D01*
X18697285Y-6124284D02*
X18697285Y-6067715D01*
X18640716Y-6067715D01*
X18640716Y-6124284D01*
X18697285Y-6124284D01*
X18697285Y-6505284D02*
X18697285Y-6448715D01*
X18640716Y-6448715D01*
X18640716Y-6505284D01*
X18697285Y-6505284D01*
X18697285Y-8918285D02*
X18697285Y-8861716D01*
X18640716Y-8861716D01*
X18640716Y-8918285D01*
X18697285Y-8918285D01*
X18951285Y-7457784D02*
X18951285Y-7401215D01*
X18894716Y-7401215D01*
X18894716Y-7457784D01*
X18951285Y-7457784D01*
X18951285Y-7775284D02*
X18951285Y-7718715D01*
X18894716Y-7718715D01*
X18894716Y-7775284D01*
X18951285Y-7775284D01*
X10922000Y-5511000D02*
X10972000Y-5461000D01*
X10922000Y-5411000D01*
X10872000Y-5461000D01*
X10922000Y-5511000D01*
X10922000Y-5765000D02*
X10972000Y-5715000D01*
X10922000Y-5665000D01*
X10872000Y-5715000D01*
X10922000Y-5765000D01*
X10922000Y-6019000D02*
X10972000Y-5969000D01*
X10922000Y-5919000D01*
X10872000Y-5969000D01*
X10922000Y-6019000D01*
X10922000Y-6527000D02*
X10972000Y-6477000D01*
X10922000Y-6427000D01*
X10872000Y-6477000D01*
X10922000Y-6527000D01*
X10922000Y-6781000D02*
X10972000Y-6731000D01*
X10922000Y-6681000D01*
X10872000Y-6731000D01*
X10922000Y-6781000D01*
X12319000Y-5384000D02*
X12369000Y-5334000D01*
X12319000Y-5284000D01*
X12269000Y-5334000D01*
X12319000Y-5384000D01*
X12573000Y-5384000D02*
X12623000Y-5334000D01*
X12573000Y-5284000D01*
X12523000Y-5334000D01*
X12573000Y-5384000D01*
X12954000Y-5384000D02*
X13004000Y-5334000D01*
X12954000Y-5284000D01*
X12904000Y-5334000D01*
X12954000Y-5384000D01*
X13208000Y-5384000D02*
X13258000Y-5334000D01*
X13208000Y-5284000D01*
X13158000Y-5334000D01*
X13208000Y-5384000D01*
X16764000Y-5384000D02*
X16814000Y-5334000D01*
X16764000Y-5284000D01*
X16714000Y-5334000D01*
X16764000Y-5384000D01*
X17018000Y-5384000D02*
X17068000Y-5334000D01*
X17018000Y-5284000D01*
X16968000Y-5334000D01*
X17018000Y-5384000D01*
X17399000Y-5381500D02*
X17449000Y-5331500D01*
X17399000Y-5281500D01*
X17349000Y-5331500D01*
X17399000Y-5381500D01*
X17653000Y-5381500D02*
X17703000Y-5331500D01*
X17653000Y-5281500D01*
X17603000Y-5331500D01*
X17653000Y-5381500D01*
D13*
X12139000Y-4761000D02*
X12269000Y-4891000D01*
X12269000Y-4761000D02*
X12139000Y-4891000D01*
X12269000Y-4826000D02*
G75*
G02*
X12139000Y-4826000I-65000J0D01*
G01*
X12139000Y-4826000D02*
G75*
G02*
X12269000Y-4826000I65000J0D01*
G01*
X12889000Y-4761000D02*
X13019000Y-4891000D01*
X13019000Y-4761000D02*
X12889000Y-4891000D01*
X13019000Y-4826000D02*
G75*
G02*
X12889000Y-4826000I-65000J0D01*
G01*
X12889000Y-4826000D02*
G75*
G02*
X13019000Y-4826000I65000J0D01*
G01*
X14171000Y-4715000D02*
X14301000Y-4845000D01*
X14301000Y-4715000D02*
X14171000Y-4845000D01*
X14301000Y-4780000D02*
G75*
G02*
X14171000Y-4780000I-65000J0D01*
G01*
X14171000Y-4780000D02*
G75*
G02*
X14301000Y-4780000I65000J0D01*
G01*
X14421000Y-4965000D02*
X14551000Y-5095000D01*
X14551000Y-4965000D02*
X14421000Y-5095000D01*
X14551000Y-5030000D02*
G75*
G02*
X14421000Y-5030000I-65000J0D01*
G01*
X14421000Y-5030000D02*
G75*
G02*
X14551000Y-5030000I65000J0D01*
G01*
X14921000Y-4715000D02*
X15051000Y-4845000D01*
X15051000Y-4715000D02*
X14921000Y-4845000D01*
X15051000Y-4780000D02*
G75*
G02*
X14921000Y-4780000I-65000J0D01*
G01*
X14921000Y-4780000D02*
G75*
G02*
X15051000Y-4780000I65000J0D01*
G01*
X15421000Y-4965000D02*
X15551000Y-5095000D01*
X15551000Y-4965000D02*
X15421000Y-5095000D01*
X15551000Y-5030000D02*
G75*
G02*
X15421000Y-5030000I-65000J0D01*
G01*
X15421000Y-5030000D02*
G75*
G02*
X15551000Y-5030000I65000J0D01*
G01*
X15671000Y-4715000D02*
X15801000Y-4845000D01*
X15801000Y-4715000D02*
X15671000Y-4845000D01*
X15801000Y-4780000D02*
G75*
G02*
X15671000Y-4780000I-65000J0D01*
G01*
X15671000Y-4780000D02*
G75*
G02*
X15801000Y-4780000I65000J0D01*
G01*
X16965000Y-4761000D02*
X17095000Y-4891000D01*
X17095000Y-4761000D02*
X16965000Y-4891000D01*
X17095000Y-4826000D02*
G75*
G02*
X16965000Y-4826000I-65000J0D01*
G01*
X16965000Y-4826000D02*
G75*
G02*
X17095000Y-4826000I65000J0D01*
G01*
X17715000Y-4761000D02*
X17845000Y-4891000D01*
X17845000Y-4761000D02*
X17715000Y-4891000D01*
X17845000Y-4826000D02*
G75*
G02*
X17715000Y-4826000I-65000J0D01*
G01*
X17715000Y-4826000D02*
G75*
G02*
X17845000Y-4826000I65000J0D01*
G01*
D14*
X12129000Y-4026000D02*
X12279000Y-4176000D01*
X12279000Y-4026000D02*
X12129000Y-4176000D01*
X12204000Y-4026000D02*
X12204000Y-4176000D01*
X12129000Y-4101000D02*
X12279000Y-4101000D01*
X14411000Y-3735000D02*
X14561000Y-3885000D01*
X14561000Y-3735000D02*
X14411000Y-3885000D01*
X14486000Y-3735000D02*
X14486000Y-3885000D01*
X14411000Y-3810000D02*
X14561000Y-3810000D01*
X15411000Y-3735000D02*
X15561000Y-3885000D01*
X15561000Y-3735000D02*
X15411000Y-3885000D01*
X15486000Y-3735000D02*
X15486000Y-3885000D01*
X15411000Y-3810000D02*
X15561000Y-3810000D01*
X16955000Y-4026000D02*
X17105000Y-4176000D01*
X17105000Y-4026000D02*
X16955000Y-4176000D01*
X17030000Y-4026000D02*
X17030000Y-4176000D01*
X16955000Y-4101000D02*
X17105000Y-4101000D01*
D15*
X11016000Y-4666000D02*
X11336000Y-4986000D01*
X11336000Y-4666000D02*
X11016000Y-4986000D01*
X11289138Y-4939138D02*
X11289138Y-4712862D01*
X11062862Y-4712862D01*
X11062862Y-4939138D01*
X11289138Y-4939138D01*
X18509000Y-4666000D02*
X18829000Y-4986000D01*
X18829000Y-4666000D02*
X18509000Y-4986000D01*
X18782138Y-4939138D02*
X18782138Y-4712862D01*
X18555862Y-4712862D01*
X18555862Y-4939138D01*
X18782138Y-4939138D01*
D11*
X11053277Y-9584984D02*
X11053277Y-9384984D01*
X11053277Y-9384984D02*
X11100896Y-9384984D01*
X11100896Y-9384984D02*
X11129467Y-9394508D01*
X11129467Y-9394508D02*
X11148515Y-9413555D01*
X11148515Y-9413555D02*
X11158039Y-9432603D01*
X11158039Y-9432603D02*
X11167563Y-9470698D01*
X11167563Y-9470698D02*
X11167563Y-9499270D01*
X11167563Y-9499270D02*
X11158039Y-9537365D01*
X11158039Y-9537365D02*
X11148515Y-9556412D01*
X11148515Y-9556412D02*
X11129467Y-9575460D01*
X11129467Y-9575460D02*
X11100896Y-9584984D01*
X11100896Y-9584984D02*
X11053277Y-9584984D01*
X11253277Y-9584984D02*
X11253277Y-9451650D01*
X11253277Y-9489746D02*
X11262801Y-9470698D01*
X11262801Y-9470698D02*
X11272324Y-9461174D01*
X11272324Y-9461174D02*
X11291372Y-9451650D01*
X11291372Y-9451650D02*
X11310420Y-9451650D01*
X11377086Y-9584984D02*
X11377086Y-9451650D01*
X11377086Y-9384984D02*
X11367562Y-9394508D01*
X11367562Y-9394508D02*
X11377086Y-9404031D01*
X11377086Y-9404031D02*
X11386610Y-9394508D01*
X11386610Y-9394508D02*
X11377086Y-9384984D01*
X11377086Y-9384984D02*
X11377086Y-9404031D01*
X11500896Y-9584984D02*
X11481848Y-9575460D01*
X11481848Y-9575460D02*
X11472324Y-9556412D01*
X11472324Y-9556412D02*
X11472324Y-9384984D01*
X11605658Y-9584984D02*
X11586610Y-9575460D01*
X11586610Y-9575460D02*
X11577086Y-9556412D01*
X11577086Y-9556412D02*
X11577086Y-9384984D01*
X11834229Y-9584984D02*
X11834229Y-9384984D01*
X11834229Y-9384984D02*
X11900896Y-9527841D01*
X11900896Y-9527841D02*
X11967562Y-9384984D01*
X11967562Y-9384984D02*
X11967562Y-9584984D01*
X12148515Y-9584984D02*
X12148515Y-9480222D01*
X12148515Y-9480222D02*
X12138991Y-9461174D01*
X12138991Y-9461174D02*
X12119943Y-9451650D01*
X12119943Y-9451650D02*
X12081848Y-9451650D01*
X12081848Y-9451650D02*
X12062801Y-9461174D01*
X12148515Y-9575460D02*
X12129467Y-9584984D01*
X12129467Y-9584984D02*
X12081848Y-9584984D01*
X12081848Y-9584984D02*
X12062801Y-9575460D01*
X12062801Y-9575460D02*
X12053277Y-9556412D01*
X12053277Y-9556412D02*
X12053277Y-9537365D01*
X12053277Y-9537365D02*
X12062801Y-9518317D01*
X12062801Y-9518317D02*
X12081848Y-9508793D01*
X12081848Y-9508793D02*
X12129467Y-9508793D01*
X12129467Y-9508793D02*
X12148515Y-9499270D01*
X12243753Y-9451650D02*
X12243753Y-9651650D01*
X12243753Y-9461174D02*
X12262801Y-9451650D01*
X12262801Y-9451650D02*
X12300896Y-9451650D01*
X12300896Y-9451650D02*
X12319943Y-9461174D01*
X12319943Y-9461174D02*
X12329467Y-9470698D01*
X12329467Y-9470698D02*
X12338991Y-9489746D01*
X12338991Y-9489746D02*
X12338991Y-9546889D01*
X12338991Y-9546889D02*
X12329467Y-9565936D01*
X12329467Y-9565936D02*
X12319943Y-9575460D01*
X12319943Y-9575460D02*
X12300896Y-9584984D01*
X12300896Y-9584984D02*
X12262801Y-9584984D01*
X12262801Y-9584984D02*
X12243753Y-9575460D01*
X12424705Y-9565936D02*
X12434229Y-9575460D01*
X12434229Y-9575460D02*
X12424705Y-9584984D01*
X12424705Y-9584984D02*
X12415182Y-9575460D01*
X12415182Y-9575460D02*
X12424705Y-9565936D01*
X12424705Y-9565936D02*
X12424705Y-9584984D01*
X12424705Y-9461174D02*
X12434229Y-9470698D01*
X12434229Y-9470698D02*
X12424705Y-9480222D01*
X12424705Y-9480222D02*
X12415182Y-9470698D01*
X12415182Y-9470698D02*
X12424705Y-9461174D01*
X12424705Y-9461174D02*
X12424705Y-9480222D01*
D12*
X10762500Y-9898500D02*
X10792500Y-9928500D01*
X10792500Y-9898500D02*
X10762500Y-9928500D01*
D11*
X11091372Y-9804984D02*
X11110420Y-9804984D01*
X11110420Y-9804984D02*
X11129467Y-9814508D01*
X11129467Y-9814508D02*
X11138991Y-9824031D01*
X11138991Y-9824031D02*
X11148515Y-9843079D01*
X11148515Y-9843079D02*
X11158039Y-9881174D01*
X11158039Y-9881174D02*
X11158039Y-9928793D01*
X11158039Y-9928793D02*
X11148515Y-9966889D01*
X11148515Y-9966889D02*
X11138991Y-9985936D01*
X11138991Y-9985936D02*
X11129467Y-9995460D01*
X11129467Y-9995460D02*
X11110420Y-10004984D01*
X11110420Y-10004984D02*
X11091372Y-10004984D01*
X11091372Y-10004984D02*
X11072324Y-9995460D01*
X11072324Y-9995460D02*
X11062801Y-9985936D01*
X11062801Y-9985936D02*
X11053277Y-9966889D01*
X11053277Y-9966889D02*
X11043753Y-9928793D01*
X11043753Y-9928793D02*
X11043753Y-9881174D01*
X11043753Y-9881174D02*
X11053277Y-9843079D01*
X11053277Y-9843079D02*
X11062801Y-9824031D01*
X11062801Y-9824031D02*
X11072324Y-9814508D01*
X11072324Y-9814508D02*
X11091372Y-9804984D01*
X11243753Y-9985936D02*
X11253277Y-9995460D01*
X11253277Y-9995460D02*
X11243753Y-10004984D01*
X11243753Y-10004984D02*
X11234229Y-9995460D01*
X11234229Y-9995460D02*
X11243753Y-9985936D01*
X11243753Y-9985936D02*
X11243753Y-10004984D01*
X11319943Y-9804984D02*
X11443753Y-9804984D01*
X11443753Y-9804984D02*
X11377086Y-9881174D01*
X11377086Y-9881174D02*
X11405658Y-9881174D01*
X11405658Y-9881174D02*
X11424705Y-9890698D01*
X11424705Y-9890698D02*
X11434229Y-9900222D01*
X11434229Y-9900222D02*
X11443753Y-9919270D01*
X11443753Y-9919270D02*
X11443753Y-9966889D01*
X11443753Y-9966889D02*
X11434229Y-9985936D01*
X11434229Y-9985936D02*
X11424705Y-9995460D01*
X11424705Y-9995460D02*
X11405658Y-10004984D01*
X11405658Y-10004984D02*
X11348515Y-10004984D01*
X11348515Y-10004984D02*
X11329467Y-9995460D01*
X11329467Y-9995460D02*
X11319943Y-9985936D01*
X11567562Y-9804984D02*
X11586610Y-9804984D01*
X11586610Y-9804984D02*
X11605658Y-9814508D01*
X11605658Y-9814508D02*
X11615182Y-9824031D01*
X11615182Y-9824031D02*
X11624705Y-9843079D01*
X11624705Y-9843079D02*
X11634229Y-9881174D01*
X11634229Y-9881174D02*
X11634229Y-9928793D01*
X11634229Y-9928793D02*
X11624705Y-9966889D01*
X11624705Y-9966889D02*
X11615182Y-9985936D01*
X11615182Y-9985936D02*
X11605658Y-9995460D01*
X11605658Y-9995460D02*
X11586610Y-10004984D01*
X11586610Y-10004984D02*
X11567562Y-10004984D01*
X11567562Y-10004984D02*
X11548515Y-9995460D01*
X11548515Y-9995460D02*
X11538991Y-9985936D01*
X11538991Y-9985936D02*
X11529467Y-9966889D01*
X11529467Y-9966889D02*
X11519943Y-9928793D01*
X11519943Y-9928793D02*
X11519943Y-9881174D01*
X11519943Y-9881174D02*
X11529467Y-9843079D01*
X11529467Y-9843079D02*
X11538991Y-9824031D01*
X11538991Y-9824031D02*
X11548515Y-9814508D01*
X11548515Y-9814508D02*
X11567562Y-9804984D01*
X11758039Y-9804984D02*
X11777086Y-9804984D01*
X11777086Y-9804984D02*
X11796134Y-9814508D01*
X11796134Y-9814508D02*
X11805658Y-9824031D01*
X11805658Y-9824031D02*
X11815182Y-9843079D01*
X11815182Y-9843079D02*
X11824705Y-9881174D01*
X11824705Y-9881174D02*
X11824705Y-9928793D01*
X11824705Y-9928793D02*
X11815182Y-9966889D01*
X11815182Y-9966889D02*
X11805658Y-9985936D01*
X11805658Y-9985936D02*
X11796134Y-9995460D01*
X11796134Y-9995460D02*
X11777086Y-10004984D01*
X11777086Y-10004984D02*
X11758039Y-10004984D01*
X11758039Y-10004984D02*
X11738991Y-9995460D01*
X11738991Y-9995460D02*
X11729467Y-9985936D01*
X11729467Y-9985936D02*
X11719943Y-9966889D01*
X11719943Y-9966889D02*
X11710420Y-9928793D01*
X11710420Y-9928793D02*
X11710420Y-9881174D01*
X11710420Y-9881174D02*
X11719943Y-9843079D01*
X11719943Y-9843079D02*
X11729467Y-9824031D01*
X11729467Y-9824031D02*
X11738991Y-9814508D01*
X11738991Y-9814508D02*
X11758039Y-9804984D01*
X11910420Y-10004984D02*
X11910420Y-9871650D01*
X11910420Y-9890698D02*
X11919943Y-9881174D01*
X11919943Y-9881174D02*
X11938991Y-9871650D01*
X11938991Y-9871650D02*
X11967563Y-9871650D01*
X11967563Y-9871650D02*
X11986610Y-9881174D01*
X11986610Y-9881174D02*
X11996134Y-9900222D01*
X11996134Y-9900222D02*
X11996134Y-10004984D01*
X11996134Y-9900222D02*
X12005658Y-9881174D01*
X12005658Y-9881174D02*
X12024705Y-9871650D01*
X12024705Y-9871650D02*
X12053277Y-9871650D01*
X12053277Y-9871650D02*
X12072324Y-9881174D01*
X12072324Y-9881174D02*
X12081848Y-9900222D01*
X12081848Y-9900222D02*
X12081848Y-10004984D01*
X12177086Y-10004984D02*
X12177086Y-9871650D01*
X12177086Y-9890698D02*
X12186610Y-9881174D01*
X12186610Y-9881174D02*
X12205658Y-9871650D01*
X12205658Y-9871650D02*
X12234229Y-9871650D01*
X12234229Y-9871650D02*
X12253277Y-9881174D01*
X12253277Y-9881174D02*
X12262801Y-9900222D01*
X12262801Y-9900222D02*
X12262801Y-10004984D01*
X12262801Y-9900222D02*
X12272324Y-9881174D01*
X12272324Y-9881174D02*
X12291372Y-9871650D01*
X12291372Y-9871650D02*
X12319943Y-9871650D01*
X12319943Y-9871650D02*
X12338991Y-9881174D01*
X12338991Y-9881174D02*
X12348515Y-9900222D01*
X12348515Y-9900222D02*
X12348515Y-10004984D01*
X12738991Y-9795460D02*
X12567563Y-10052603D01*
X12996134Y-9804984D02*
X13015182Y-9804984D01*
X13015182Y-9804984D02*
X13034229Y-9814508D01*
X13034229Y-9814508D02*
X13043753Y-9824031D01*
X13043753Y-9824031D02*
X13053277Y-9843079D01*
X13053277Y-9843079D02*
X13062801Y-9881174D01*
X13062801Y-9881174D02*
X13062801Y-9928793D01*
X13062801Y-9928793D02*
X13053277Y-9966889D01*
X13053277Y-9966889D02*
X13043753Y-9985936D01*
X13043753Y-9985936D02*
X13034229Y-9995460D01*
X13034229Y-9995460D02*
X13015182Y-10004984D01*
X13015182Y-10004984D02*
X12996134Y-10004984D01*
X12996134Y-10004984D02*
X12977086Y-9995460D01*
X12977086Y-9995460D02*
X12967563Y-9985936D01*
X12967563Y-9985936D02*
X12958039Y-9966889D01*
X12958039Y-9966889D02*
X12948515Y-9928793D01*
X12948515Y-9928793D02*
X12948515Y-9881174D01*
X12948515Y-9881174D02*
X12958039Y-9843079D01*
X12958039Y-9843079D02*
X12967563Y-9824031D01*
X12967563Y-9824031D02*
X12977086Y-9814508D01*
X12977086Y-9814508D02*
X12996134Y-9804984D01*
X13148515Y-9985936D02*
X13158039Y-9995460D01*
X13158039Y-9995460D02*
X13148515Y-10004984D01*
X13148515Y-10004984D02*
X13138991Y-9995460D01*
X13138991Y-9995460D02*
X13148515Y-9985936D01*
X13148515Y-9985936D02*
X13148515Y-10004984D01*
X13281848Y-9804984D02*
X13300896Y-9804984D01*
X13300896Y-9804984D02*
X13319944Y-9814508D01*
X13319944Y-9814508D02*
X13329467Y-9824031D01*
X13329467Y-9824031D02*
X13338991Y-9843079D01*
X13338991Y-9843079D02*
X13348515Y-9881174D01*
X13348515Y-9881174D02*
X13348515Y-9928793D01*
X13348515Y-9928793D02*
X13338991Y-9966889D01*
X13338991Y-9966889D02*
X13329467Y-9985936D01*
X13329467Y-9985936D02*
X13319944Y-9995460D01*
X13319944Y-9995460D02*
X13300896Y-10004984D01*
X13300896Y-10004984D02*
X13281848Y-10004984D01*
X13281848Y-10004984D02*
X13262801Y-9995460D01*
X13262801Y-9995460D02*
X13253277Y-9985936D01*
X13253277Y-9985936D02*
X13243753Y-9966889D01*
X13243753Y-9966889D02*
X13234229Y-9928793D01*
X13234229Y-9928793D02*
X13234229Y-9881174D01*
X13234229Y-9881174D02*
X13243753Y-9843079D01*
X13243753Y-9843079D02*
X13253277Y-9824031D01*
X13253277Y-9824031D02*
X13262801Y-9814508D01*
X13262801Y-9814508D02*
X13281848Y-9804984D01*
X13538991Y-10004984D02*
X13424706Y-10004984D01*
X13481848Y-10004984D02*
X13481848Y-9804984D01*
X13481848Y-9804984D02*
X13462801Y-9833555D01*
X13462801Y-9833555D02*
X13443753Y-9852603D01*
X13443753Y-9852603D02*
X13424706Y-9862127D01*
X13729467Y-10004984D02*
X13615182Y-10004984D01*
X13672325Y-10004984D02*
X13672325Y-9804984D01*
X13672325Y-9804984D02*
X13653277Y-9833555D01*
X13653277Y-9833555D02*
X13634229Y-9852603D01*
X13634229Y-9852603D02*
X13615182Y-9862127D01*
X13843753Y-9890698D02*
X13824706Y-9881174D01*
X13824706Y-9881174D02*
X13815182Y-9871650D01*
X13815182Y-9871650D02*
X13805658Y-9852603D01*
X13805658Y-9852603D02*
X13805658Y-9843079D01*
X13805658Y-9843079D02*
X13815182Y-9824031D01*
X13815182Y-9824031D02*
X13824706Y-9814508D01*
X13824706Y-9814508D02*
X13843753Y-9804984D01*
X13843753Y-9804984D02*
X13881848Y-9804984D01*
X13881848Y-9804984D02*
X13900896Y-9814508D01*
X13900896Y-9814508D02*
X13910420Y-9824031D01*
X13910420Y-9824031D02*
X13919944Y-9843079D01*
X13919944Y-9843079D02*
X13919944Y-9852603D01*
X13919944Y-9852603D02*
X13910420Y-9871650D01*
X13910420Y-9871650D02*
X13900896Y-9881174D01*
X13900896Y-9881174D02*
X13881848Y-9890698D01*
X13881848Y-9890698D02*
X13843753Y-9890698D01*
X13843753Y-9890698D02*
X13824706Y-9900222D01*
X13824706Y-9900222D02*
X13815182Y-9909746D01*
X13815182Y-9909746D02*
X13805658Y-9928793D01*
X13805658Y-9928793D02*
X13805658Y-9966889D01*
X13805658Y-9966889D02*
X13815182Y-9985936D01*
X13815182Y-9985936D02*
X13824706Y-9995460D01*
X13824706Y-9995460D02*
X13843753Y-10004984D01*
X13843753Y-10004984D02*
X13881848Y-10004984D01*
X13881848Y-10004984D02*
X13900896Y-9995460D01*
X13900896Y-9995460D02*
X13910420Y-9985936D01*
X13910420Y-9985936D02*
X13919944Y-9966889D01*
X13919944Y-9966889D02*
X13919944Y-9928793D01*
X13919944Y-9928793D02*
X13910420Y-9909746D01*
X13910420Y-9909746D02*
X13900896Y-9900222D01*
X13900896Y-9900222D02*
X13881848Y-9890698D01*
X13996134Y-9804984D02*
X13996134Y-9843079D01*
X14072325Y-9804984D02*
X14072325Y-9843079D01*
X14367563Y-10081174D02*
X14358039Y-10071650D01*
X14358039Y-10071650D02*
X14338991Y-10043079D01*
X14338991Y-10043079D02*
X14329468Y-10024031D01*
X14329468Y-10024031D02*
X14319944Y-9995460D01*
X14319944Y-9995460D02*
X14310420Y-9947841D01*
X14310420Y-9947841D02*
X14310420Y-9909746D01*
X14310420Y-9909746D02*
X14319944Y-9862127D01*
X14319944Y-9862127D02*
X14329468Y-9833555D01*
X14329468Y-9833555D02*
X14338991Y-9814508D01*
X14338991Y-9814508D02*
X14358039Y-9785936D01*
X14358039Y-9785936D02*
X14367563Y-9776412D01*
X14548515Y-10004984D02*
X14434229Y-10004984D01*
X14491372Y-10004984D02*
X14491372Y-9804984D01*
X14491372Y-9804984D02*
X14472325Y-9833555D01*
X14472325Y-9833555D02*
X14453277Y-9852603D01*
X14453277Y-9852603D02*
X14434229Y-9862127D01*
X14786610Y-10004984D02*
X14786610Y-9804984D01*
X14872325Y-10004984D02*
X14872325Y-9900222D01*
X14872325Y-9900222D02*
X14862801Y-9881174D01*
X14862801Y-9881174D02*
X14843753Y-9871650D01*
X14843753Y-9871650D02*
X14815182Y-9871650D01*
X14815182Y-9871650D02*
X14796134Y-9881174D01*
X14796134Y-9881174D02*
X14786610Y-9890698D01*
X14996134Y-10004984D02*
X14977087Y-9995460D01*
X14977087Y-9995460D02*
X14967563Y-9985936D01*
X14967563Y-9985936D02*
X14958039Y-9966889D01*
X14958039Y-9966889D02*
X14958039Y-9909746D01*
X14958039Y-9909746D02*
X14967563Y-9890698D01*
X14967563Y-9890698D02*
X14977087Y-9881174D01*
X14977087Y-9881174D02*
X14996134Y-9871650D01*
X14996134Y-9871650D02*
X15024706Y-9871650D01*
X15024706Y-9871650D02*
X15043753Y-9881174D01*
X15043753Y-9881174D02*
X15053277Y-9890698D01*
X15053277Y-9890698D02*
X15062801Y-9909746D01*
X15062801Y-9909746D02*
X15062801Y-9966889D01*
X15062801Y-9966889D02*
X15053277Y-9985936D01*
X15053277Y-9985936D02*
X15043753Y-9995460D01*
X15043753Y-9995460D02*
X15024706Y-10004984D01*
X15024706Y-10004984D02*
X14996134Y-10004984D01*
X15177087Y-10004984D02*
X15158039Y-9995460D01*
X15158039Y-9995460D02*
X15148515Y-9976412D01*
X15148515Y-9976412D02*
X15148515Y-9804984D01*
X15329468Y-9995460D02*
X15310420Y-10004984D01*
X15310420Y-10004984D02*
X15272325Y-10004984D01*
X15272325Y-10004984D02*
X15253277Y-9995460D01*
X15253277Y-9995460D02*
X15243753Y-9976412D01*
X15243753Y-9976412D02*
X15243753Y-9900222D01*
X15243753Y-9900222D02*
X15253277Y-9881174D01*
X15253277Y-9881174D02*
X15272325Y-9871650D01*
X15272325Y-9871650D02*
X15310420Y-9871650D01*
X15310420Y-9871650D02*
X15329468Y-9881174D01*
X15329468Y-9881174D02*
X15338991Y-9900222D01*
X15338991Y-9900222D02*
X15338991Y-9919270D01*
X15338991Y-9919270D02*
X15243753Y-9938317D01*
X15405658Y-10081174D02*
X15415182Y-10071650D01*
X15415182Y-10071650D02*
X15434230Y-10043079D01*
X15434230Y-10043079D02*
X15443753Y-10024031D01*
X15443753Y-10024031D02*
X15453277Y-9995460D01*
X15453277Y-9995460D02*
X15462801Y-9947841D01*
X15462801Y-9947841D02*
X15462801Y-9909746D01*
X15462801Y-9909746D02*
X15453277Y-9862127D01*
X15453277Y-9862127D02*
X15443753Y-9833555D01*
X15443753Y-9833555D02*
X15434230Y-9814508D01*
X15434230Y-9814508D02*
X15415182Y-9785936D01*
X15415182Y-9785936D02*
X15405658Y-9776412D01*
D12*
X10792500Y-10177500D02*
G75*
G02*
X10732500Y-10177500I-30000J0D01*
G01*
X10732500Y-10177500D02*
G75*
G02*
X10792500Y-10177500I30000J0D01*
G01*
D11*
X11091372Y-10068984D02*
X11110420Y-10068984D01*
X11110420Y-10068984D02*
X11129467Y-10078508D01*
X11129467Y-10078508D02*
X11138991Y-10088031D01*
X11138991Y-10088031D02*
X11148515Y-10107079D01*
X11148515Y-10107079D02*
X11158039Y-10145174D01*
X11158039Y-10145174D02*
X11158039Y-10192793D01*
X11158039Y-10192793D02*
X11148515Y-10230889D01*
X11148515Y-10230889D02*
X11138991Y-10249936D01*
X11138991Y-10249936D02*
X11129467Y-10259460D01*
X11129467Y-10259460D02*
X11110420Y-10268984D01*
X11110420Y-10268984D02*
X11091372Y-10268984D01*
X11091372Y-10268984D02*
X11072324Y-10259460D01*
X11072324Y-10259460D02*
X11062801Y-10249936D01*
X11062801Y-10249936D02*
X11053277Y-10230889D01*
X11053277Y-10230889D02*
X11043753Y-10192793D01*
X11043753Y-10192793D02*
X11043753Y-10145174D01*
X11043753Y-10145174D02*
X11053277Y-10107079D01*
X11053277Y-10107079D02*
X11062801Y-10088031D01*
X11062801Y-10088031D02*
X11072324Y-10078508D01*
X11072324Y-10078508D02*
X11091372Y-10068984D01*
X11243753Y-10249936D02*
X11253277Y-10259460D01*
X11253277Y-10259460D02*
X11243753Y-10268984D01*
X11243753Y-10268984D02*
X11234229Y-10259460D01*
X11234229Y-10259460D02*
X11243753Y-10249936D01*
X11243753Y-10249936D02*
X11243753Y-10268984D01*
X11424705Y-10068984D02*
X11386610Y-10068984D01*
X11386610Y-10068984D02*
X11367562Y-10078508D01*
X11367562Y-10078508D02*
X11358039Y-10088031D01*
X11358039Y-10088031D02*
X11338991Y-10116603D01*
X11338991Y-10116603D02*
X11329467Y-10154698D01*
X11329467Y-10154698D02*
X11329467Y-10230889D01*
X11329467Y-10230889D02*
X11338991Y-10249936D01*
X11338991Y-10249936D02*
X11348515Y-10259460D01*
X11348515Y-10259460D02*
X11367562Y-10268984D01*
X11367562Y-10268984D02*
X11405658Y-10268984D01*
X11405658Y-10268984D02*
X11424705Y-10259460D01*
X11424705Y-10259460D02*
X11434229Y-10249936D01*
X11434229Y-10249936D02*
X11443753Y-10230889D01*
X11443753Y-10230889D02*
X11443753Y-10183270D01*
X11443753Y-10183270D02*
X11434229Y-10164222D01*
X11434229Y-10164222D02*
X11424705Y-10154698D01*
X11424705Y-10154698D02*
X11405658Y-10145174D01*
X11405658Y-10145174D02*
X11367562Y-10145174D01*
X11367562Y-10145174D02*
X11348515Y-10154698D01*
X11348515Y-10154698D02*
X11338991Y-10164222D01*
X11338991Y-10164222D02*
X11329467Y-10183270D01*
X11567562Y-10068984D02*
X11586610Y-10068984D01*
X11586610Y-10068984D02*
X11605658Y-10078508D01*
X11605658Y-10078508D02*
X11615182Y-10088031D01*
X11615182Y-10088031D02*
X11624705Y-10107079D01*
X11624705Y-10107079D02*
X11634229Y-10145174D01*
X11634229Y-10145174D02*
X11634229Y-10192793D01*
X11634229Y-10192793D02*
X11624705Y-10230889D01*
X11624705Y-10230889D02*
X11615182Y-10249936D01*
X11615182Y-10249936D02*
X11605658Y-10259460D01*
X11605658Y-10259460D02*
X11586610Y-10268984D01*
X11586610Y-10268984D02*
X11567562Y-10268984D01*
X11567562Y-10268984D02*
X11548515Y-10259460D01*
X11548515Y-10259460D02*
X11538991Y-10249936D01*
X11538991Y-10249936D02*
X11529467Y-10230889D01*
X11529467Y-10230889D02*
X11519943Y-10192793D01*
X11519943Y-10192793D02*
X11519943Y-10145174D01*
X11519943Y-10145174D02*
X11529467Y-10107079D01*
X11529467Y-10107079D02*
X11538991Y-10088031D01*
X11538991Y-10088031D02*
X11548515Y-10078508D01*
X11548515Y-10078508D02*
X11567562Y-10068984D01*
X11758039Y-10068984D02*
X11777086Y-10068984D01*
X11777086Y-10068984D02*
X11796134Y-10078508D01*
X11796134Y-10078508D02*
X11805658Y-10088031D01*
X11805658Y-10088031D02*
X11815182Y-10107079D01*
X11815182Y-10107079D02*
X11824705Y-10145174D01*
X11824705Y-10145174D02*
X11824705Y-10192793D01*
X11824705Y-10192793D02*
X11815182Y-10230889D01*
X11815182Y-10230889D02*
X11805658Y-10249936D01*
X11805658Y-10249936D02*
X11796134Y-10259460D01*
X11796134Y-10259460D02*
X11777086Y-10268984D01*
X11777086Y-10268984D02*
X11758039Y-10268984D01*
X11758039Y-10268984D02*
X11738991Y-10259460D01*
X11738991Y-10259460D02*
X11729467Y-10249936D01*
X11729467Y-10249936D02*
X11719943Y-10230889D01*
X11719943Y-10230889D02*
X11710420Y-10192793D01*
X11710420Y-10192793D02*
X11710420Y-10145174D01*
X11710420Y-10145174D02*
X11719943Y-10107079D01*
X11719943Y-10107079D02*
X11729467Y-10088031D01*
X11729467Y-10088031D02*
X11738991Y-10078508D01*
X11738991Y-10078508D02*
X11758039Y-10068984D01*
X11910420Y-10268984D02*
X11910420Y-10135650D01*
X11910420Y-10154698D02*
X11919943Y-10145174D01*
X11919943Y-10145174D02*
X11938991Y-10135650D01*
X11938991Y-10135650D02*
X11967563Y-10135650D01*
X11967563Y-10135650D02*
X11986610Y-10145174D01*
X11986610Y-10145174D02*
X11996134Y-10164222D01*
X11996134Y-10164222D02*
X11996134Y-10268984D01*
X11996134Y-10164222D02*
X12005658Y-10145174D01*
X12005658Y-10145174D02*
X12024705Y-10135650D01*
X12024705Y-10135650D02*
X12053277Y-10135650D01*
X12053277Y-10135650D02*
X12072324Y-10145174D01*
X12072324Y-10145174D02*
X12081848Y-10164222D01*
X12081848Y-10164222D02*
X12081848Y-10268984D01*
X12177086Y-10268984D02*
X12177086Y-10135650D01*
X12177086Y-10154698D02*
X12186610Y-10145174D01*
X12186610Y-10145174D02*
X12205658Y-10135650D01*
X12205658Y-10135650D02*
X12234229Y-10135650D01*
X12234229Y-10135650D02*
X12253277Y-10145174D01*
X12253277Y-10145174D02*
X12262801Y-10164222D01*
X12262801Y-10164222D02*
X12262801Y-10268984D01*
X12262801Y-10164222D02*
X12272324Y-10145174D01*
X12272324Y-10145174D02*
X12291372Y-10135650D01*
X12291372Y-10135650D02*
X12319943Y-10135650D01*
X12319943Y-10135650D02*
X12338991Y-10145174D01*
X12338991Y-10145174D02*
X12348515Y-10164222D01*
X12348515Y-10164222D02*
X12348515Y-10268984D01*
X12738991Y-10059460D02*
X12567563Y-10316603D01*
X12996134Y-10068984D02*
X13015182Y-10068984D01*
X13015182Y-10068984D02*
X13034229Y-10078508D01*
X13034229Y-10078508D02*
X13043753Y-10088031D01*
X13043753Y-10088031D02*
X13053277Y-10107079D01*
X13053277Y-10107079D02*
X13062801Y-10145174D01*
X13062801Y-10145174D02*
X13062801Y-10192793D01*
X13062801Y-10192793D02*
X13053277Y-10230889D01*
X13053277Y-10230889D02*
X13043753Y-10249936D01*
X13043753Y-10249936D02*
X13034229Y-10259460D01*
X13034229Y-10259460D02*
X13015182Y-10268984D01*
X13015182Y-10268984D02*
X12996134Y-10268984D01*
X12996134Y-10268984D02*
X12977086Y-10259460D01*
X12977086Y-10259460D02*
X12967563Y-10249936D01*
X12967563Y-10249936D02*
X12958039Y-10230889D01*
X12958039Y-10230889D02*
X12948515Y-10192793D01*
X12948515Y-10192793D02*
X12948515Y-10145174D01*
X12948515Y-10145174D02*
X12958039Y-10107079D01*
X12958039Y-10107079D02*
X12967563Y-10088031D01*
X12967563Y-10088031D02*
X12977086Y-10078508D01*
X12977086Y-10078508D02*
X12996134Y-10068984D01*
X13148515Y-10249936D02*
X13158039Y-10259460D01*
X13158039Y-10259460D02*
X13148515Y-10268984D01*
X13148515Y-10268984D02*
X13138991Y-10259460D01*
X13138991Y-10259460D02*
X13148515Y-10249936D01*
X13148515Y-10249936D02*
X13148515Y-10268984D01*
X13281848Y-10068984D02*
X13300896Y-10068984D01*
X13300896Y-10068984D02*
X13319944Y-10078508D01*
X13319944Y-10078508D02*
X13329467Y-10088031D01*
X13329467Y-10088031D02*
X13338991Y-10107079D01*
X13338991Y-10107079D02*
X13348515Y-10145174D01*
X13348515Y-10145174D02*
X13348515Y-10192793D01*
X13348515Y-10192793D02*
X13338991Y-10230889D01*
X13338991Y-10230889D02*
X13329467Y-10249936D01*
X13329467Y-10249936D02*
X13319944Y-10259460D01*
X13319944Y-10259460D02*
X13300896Y-10268984D01*
X13300896Y-10268984D02*
X13281848Y-10268984D01*
X13281848Y-10268984D02*
X13262801Y-10259460D01*
X13262801Y-10259460D02*
X13253277Y-10249936D01*
X13253277Y-10249936D02*
X13243753Y-10230889D01*
X13243753Y-10230889D02*
X13234229Y-10192793D01*
X13234229Y-10192793D02*
X13234229Y-10145174D01*
X13234229Y-10145174D02*
X13243753Y-10107079D01*
X13243753Y-10107079D02*
X13253277Y-10088031D01*
X13253277Y-10088031D02*
X13262801Y-10078508D01*
X13262801Y-10078508D02*
X13281848Y-10068984D01*
X13424706Y-10088031D02*
X13434229Y-10078508D01*
X13434229Y-10078508D02*
X13453277Y-10068984D01*
X13453277Y-10068984D02*
X13500896Y-10068984D01*
X13500896Y-10068984D02*
X13519944Y-10078508D01*
X13519944Y-10078508D02*
X13529467Y-10088031D01*
X13529467Y-10088031D02*
X13538991Y-10107079D01*
X13538991Y-10107079D02*
X13538991Y-10126127D01*
X13538991Y-10126127D02*
X13529467Y-10154698D01*
X13529467Y-10154698D02*
X13415182Y-10268984D01*
X13415182Y-10268984D02*
X13538991Y-10268984D01*
X13605658Y-10068984D02*
X13729467Y-10068984D01*
X13729467Y-10068984D02*
X13662801Y-10145174D01*
X13662801Y-10145174D02*
X13691372Y-10145174D01*
X13691372Y-10145174D02*
X13710420Y-10154698D01*
X13710420Y-10154698D02*
X13719944Y-10164222D01*
X13719944Y-10164222D02*
X13729467Y-10183270D01*
X13729467Y-10183270D02*
X13729467Y-10230889D01*
X13729467Y-10230889D02*
X13719944Y-10249936D01*
X13719944Y-10249936D02*
X13710420Y-10259460D01*
X13710420Y-10259460D02*
X13691372Y-10268984D01*
X13691372Y-10268984D02*
X13634229Y-10268984D01*
X13634229Y-10268984D02*
X13615182Y-10259460D01*
X13615182Y-10259460D02*
X13605658Y-10249936D01*
X13900896Y-10068984D02*
X13862801Y-10068984D01*
X13862801Y-10068984D02*
X13843753Y-10078508D01*
X13843753Y-10078508D02*
X13834229Y-10088031D01*
X13834229Y-10088031D02*
X13815182Y-10116603D01*
X13815182Y-10116603D02*
X13805658Y-10154698D01*
X13805658Y-10154698D02*
X13805658Y-10230889D01*
X13805658Y-10230889D02*
X13815182Y-10249936D01*
X13815182Y-10249936D02*
X13824706Y-10259460D01*
X13824706Y-10259460D02*
X13843753Y-10268984D01*
X13843753Y-10268984D02*
X13881848Y-10268984D01*
X13881848Y-10268984D02*
X13900896Y-10259460D01*
X13900896Y-10259460D02*
X13910420Y-10249936D01*
X13910420Y-10249936D02*
X13919944Y-10230889D01*
X13919944Y-10230889D02*
X13919944Y-10183270D01*
X13919944Y-10183270D02*
X13910420Y-10164222D01*
X13910420Y-10164222D02*
X13900896Y-10154698D01*
X13900896Y-10154698D02*
X13881848Y-10145174D01*
X13881848Y-10145174D02*
X13843753Y-10145174D01*
X13843753Y-10145174D02*
X13824706Y-10154698D01*
X13824706Y-10154698D02*
X13815182Y-10164222D01*
X13815182Y-10164222D02*
X13805658Y-10183270D01*
X13996134Y-10068984D02*
X13996134Y-10107079D01*
X14072325Y-10068984D02*
X14072325Y-10107079D01*
X14367563Y-10345174D02*
X14358039Y-10335650D01*
X14358039Y-10335650D02*
X14338991Y-10307079D01*
X14338991Y-10307079D02*
X14329468Y-10288031D01*
X14329468Y-10288031D02*
X14319944Y-10259460D01*
X14319944Y-10259460D02*
X14310420Y-10211841D01*
X14310420Y-10211841D02*
X14310420Y-10173746D01*
X14310420Y-10173746D02*
X14319944Y-10126127D01*
X14319944Y-10126127D02*
X14329468Y-10097555D01*
X14329468Y-10097555D02*
X14338991Y-10078508D01*
X14338991Y-10078508D02*
X14358039Y-10049936D01*
X14358039Y-10049936D02*
X14367563Y-10040412D01*
X14472325Y-10154698D02*
X14453277Y-10145174D01*
X14453277Y-10145174D02*
X14443753Y-10135650D01*
X14443753Y-10135650D02*
X14434229Y-10116603D01*
X14434229Y-10116603D02*
X14434229Y-10107079D01*
X14434229Y-10107079D02*
X14443753Y-10088031D01*
X14443753Y-10088031D02*
X14453277Y-10078508D01*
X14453277Y-10078508D02*
X14472325Y-10068984D01*
X14472325Y-10068984D02*
X14510420Y-10068984D01*
X14510420Y-10068984D02*
X14529468Y-10078508D01*
X14529468Y-10078508D02*
X14538991Y-10088031D01*
X14538991Y-10088031D02*
X14548515Y-10107079D01*
X14548515Y-10107079D02*
X14548515Y-10116603D01*
X14548515Y-10116603D02*
X14538991Y-10135650D01*
X14538991Y-10135650D02*
X14529468Y-10145174D01*
X14529468Y-10145174D02*
X14510420Y-10154698D01*
X14510420Y-10154698D02*
X14472325Y-10154698D01*
X14472325Y-10154698D02*
X14453277Y-10164222D01*
X14453277Y-10164222D02*
X14443753Y-10173746D01*
X14443753Y-10173746D02*
X14434229Y-10192793D01*
X14434229Y-10192793D02*
X14434229Y-10230889D01*
X14434229Y-10230889D02*
X14443753Y-10249936D01*
X14443753Y-10249936D02*
X14453277Y-10259460D01*
X14453277Y-10259460D02*
X14472325Y-10268984D01*
X14472325Y-10268984D02*
X14510420Y-10268984D01*
X14510420Y-10268984D02*
X14529468Y-10259460D01*
X14529468Y-10259460D02*
X14538991Y-10249936D01*
X14538991Y-10249936D02*
X14548515Y-10230889D01*
X14548515Y-10230889D02*
X14548515Y-10192793D01*
X14548515Y-10192793D02*
X14538991Y-10173746D01*
X14538991Y-10173746D02*
X14529468Y-10164222D01*
X14529468Y-10164222D02*
X14510420Y-10154698D01*
X14786610Y-10268984D02*
X14786610Y-10068984D01*
X14872325Y-10268984D02*
X14872325Y-10164222D01*
X14872325Y-10164222D02*
X14862801Y-10145174D01*
X14862801Y-10145174D02*
X14843753Y-10135650D01*
X14843753Y-10135650D02*
X14815182Y-10135650D01*
X14815182Y-10135650D02*
X14796134Y-10145174D01*
X14796134Y-10145174D02*
X14786610Y-10154698D01*
X14996134Y-10268984D02*
X14977087Y-10259460D01*
X14977087Y-10259460D02*
X14967563Y-10249936D01*
X14967563Y-10249936D02*
X14958039Y-10230889D01*
X14958039Y-10230889D02*
X14958039Y-10173746D01*
X14958039Y-10173746D02*
X14967563Y-10154698D01*
X14967563Y-10154698D02*
X14977087Y-10145174D01*
X14977087Y-10145174D02*
X14996134Y-10135650D01*
X14996134Y-10135650D02*
X15024706Y-10135650D01*
X15024706Y-10135650D02*
X15043753Y-10145174D01*
X15043753Y-10145174D02*
X15053277Y-10154698D01*
X15053277Y-10154698D02*
X15062801Y-10173746D01*
X15062801Y-10173746D02*
X15062801Y-10230889D01*
X15062801Y-10230889D02*
X15053277Y-10249936D01*
X15053277Y-10249936D02*
X15043753Y-10259460D01*
X15043753Y-10259460D02*
X15024706Y-10268984D01*
X15024706Y-10268984D02*
X14996134Y-10268984D01*
X15177087Y-10268984D02*
X15158039Y-10259460D01*
X15158039Y-10259460D02*
X15148515Y-10240412D01*
X15148515Y-10240412D02*
X15148515Y-10068984D01*
X15329468Y-10259460D02*
X15310420Y-10268984D01*
X15310420Y-10268984D02*
X15272325Y-10268984D01*
X15272325Y-10268984D02*
X15253277Y-10259460D01*
X15253277Y-10259460D02*
X15243753Y-10240412D01*
X15243753Y-10240412D02*
X15243753Y-10164222D01*
X15243753Y-10164222D02*
X15253277Y-10145174D01*
X15253277Y-10145174D02*
X15272325Y-10135650D01*
X15272325Y-10135650D02*
X15310420Y-10135650D01*
X15310420Y-10135650D02*
X15329468Y-10145174D01*
X15329468Y-10145174D02*
X15338991Y-10164222D01*
X15338991Y-10164222D02*
X15338991Y-10183270D01*
X15338991Y-10183270D02*
X15243753Y-10202317D01*
X15415182Y-10259460D02*
X15434230Y-10268984D01*
X15434230Y-10268984D02*
X15472325Y-10268984D01*
X15472325Y-10268984D02*
X15491372Y-10259460D01*
X15491372Y-10259460D02*
X15500896Y-10240412D01*
X15500896Y-10240412D02*
X15500896Y-10230889D01*
X15500896Y-10230889D02*
X15491372Y-10211841D01*
X15491372Y-10211841D02*
X15472325Y-10202317D01*
X15472325Y-10202317D02*
X15443753Y-10202317D01*
X15443753Y-10202317D02*
X15424706Y-10192793D01*
X15424706Y-10192793D02*
X15415182Y-10173746D01*
X15415182Y-10173746D02*
X15415182Y-10164222D01*
X15415182Y-10164222D02*
X15424706Y-10145174D01*
X15424706Y-10145174D02*
X15443753Y-10135650D01*
X15443753Y-10135650D02*
X15472325Y-10135650D01*
X15472325Y-10135650D02*
X15491372Y-10145174D01*
X15567563Y-10345174D02*
X15577087Y-10335650D01*
X15577087Y-10335650D02*
X15596134Y-10307079D01*
X15596134Y-10307079D02*
X15605658Y-10288031D01*
X15605658Y-10288031D02*
X15615182Y-10259460D01*
X15615182Y-10259460D02*
X15624706Y-10211841D01*
X15624706Y-10211841D02*
X15624706Y-10173746D01*
X15624706Y-10173746D02*
X15615182Y-10126127D01*
X15615182Y-10126127D02*
X15605658Y-10097555D01*
X15605658Y-10097555D02*
X15596134Y-10078508D01*
X15596134Y-10078508D02*
X15577087Y-10049936D01*
X15577087Y-10049936D02*
X15567563Y-10040412D01*
D12*
X10755000Y-10404000D02*
X10755000Y-10479000D01*
X10717500Y-10441500D02*
X10792500Y-10441500D01*
D11*
X11091372Y-10332984D02*
X11110420Y-10332984D01*
X11110420Y-10332984D02*
X11129467Y-10342508D01*
X11129467Y-10342508D02*
X11138991Y-10352031D01*
X11138991Y-10352031D02*
X11148515Y-10371079D01*
X11148515Y-10371079D02*
X11158039Y-10409174D01*
X11158039Y-10409174D02*
X11158039Y-10456793D01*
X11158039Y-10456793D02*
X11148515Y-10494889D01*
X11148515Y-10494889D02*
X11138991Y-10513936D01*
X11138991Y-10513936D02*
X11129467Y-10523460D01*
X11129467Y-10523460D02*
X11110420Y-10532984D01*
X11110420Y-10532984D02*
X11091372Y-10532984D01*
X11091372Y-10532984D02*
X11072324Y-10523460D01*
X11072324Y-10523460D02*
X11062801Y-10513936D01*
X11062801Y-10513936D02*
X11053277Y-10494889D01*
X11053277Y-10494889D02*
X11043753Y-10456793D01*
X11043753Y-10456793D02*
X11043753Y-10409174D01*
X11043753Y-10409174D02*
X11053277Y-10371079D01*
X11053277Y-10371079D02*
X11062801Y-10352031D01*
X11062801Y-10352031D02*
X11072324Y-10342508D01*
X11072324Y-10342508D02*
X11091372Y-10332984D01*
X11243753Y-10513936D02*
X11253277Y-10523460D01*
X11253277Y-10523460D02*
X11243753Y-10532984D01*
X11243753Y-10532984D02*
X11234229Y-10523460D01*
X11234229Y-10523460D02*
X11243753Y-10513936D01*
X11243753Y-10513936D02*
X11243753Y-10532984D01*
X11319943Y-10332984D02*
X11453277Y-10332984D01*
X11453277Y-10332984D02*
X11367562Y-10532984D01*
X11624705Y-10332984D02*
X11529467Y-10332984D01*
X11529467Y-10332984D02*
X11519943Y-10428222D01*
X11519943Y-10428222D02*
X11529467Y-10418698D01*
X11529467Y-10418698D02*
X11548515Y-10409174D01*
X11548515Y-10409174D02*
X11596134Y-10409174D01*
X11596134Y-10409174D02*
X11615182Y-10418698D01*
X11615182Y-10418698D02*
X11624705Y-10428222D01*
X11624705Y-10428222D02*
X11634229Y-10447270D01*
X11634229Y-10447270D02*
X11634229Y-10494889D01*
X11634229Y-10494889D02*
X11624705Y-10513936D01*
X11624705Y-10513936D02*
X11615182Y-10523460D01*
X11615182Y-10523460D02*
X11596134Y-10532984D01*
X11596134Y-10532984D02*
X11548515Y-10532984D01*
X11548515Y-10532984D02*
X11529467Y-10523460D01*
X11529467Y-10523460D02*
X11519943Y-10513936D01*
X11758039Y-10332984D02*
X11777086Y-10332984D01*
X11777086Y-10332984D02*
X11796134Y-10342508D01*
X11796134Y-10342508D02*
X11805658Y-10352031D01*
X11805658Y-10352031D02*
X11815182Y-10371079D01*
X11815182Y-10371079D02*
X11824705Y-10409174D01*
X11824705Y-10409174D02*
X11824705Y-10456793D01*
X11824705Y-10456793D02*
X11815182Y-10494889D01*
X11815182Y-10494889D02*
X11805658Y-10513936D01*
X11805658Y-10513936D02*
X11796134Y-10523460D01*
X11796134Y-10523460D02*
X11777086Y-10532984D01*
X11777086Y-10532984D02*
X11758039Y-10532984D01*
X11758039Y-10532984D02*
X11738991Y-10523460D01*
X11738991Y-10523460D02*
X11729467Y-10513936D01*
X11729467Y-10513936D02*
X11719943Y-10494889D01*
X11719943Y-10494889D02*
X11710420Y-10456793D01*
X11710420Y-10456793D02*
X11710420Y-10409174D01*
X11710420Y-10409174D02*
X11719943Y-10371079D01*
X11719943Y-10371079D02*
X11729467Y-10352031D01*
X11729467Y-10352031D02*
X11738991Y-10342508D01*
X11738991Y-10342508D02*
X11758039Y-10332984D01*
X11910420Y-10532984D02*
X11910420Y-10399650D01*
X11910420Y-10418698D02*
X11919943Y-10409174D01*
X11919943Y-10409174D02*
X11938991Y-10399650D01*
X11938991Y-10399650D02*
X11967563Y-10399650D01*
X11967563Y-10399650D02*
X11986610Y-10409174D01*
X11986610Y-10409174D02*
X11996134Y-10428222D01*
X11996134Y-10428222D02*
X11996134Y-10532984D01*
X11996134Y-10428222D02*
X12005658Y-10409174D01*
X12005658Y-10409174D02*
X12024705Y-10399650D01*
X12024705Y-10399650D02*
X12053277Y-10399650D01*
X12053277Y-10399650D02*
X12072324Y-10409174D01*
X12072324Y-10409174D02*
X12081848Y-10428222D01*
X12081848Y-10428222D02*
X12081848Y-10532984D01*
X12177086Y-10532984D02*
X12177086Y-10399650D01*
X12177086Y-10418698D02*
X12186610Y-10409174D01*
X12186610Y-10409174D02*
X12205658Y-10399650D01*
X12205658Y-10399650D02*
X12234229Y-10399650D01*
X12234229Y-10399650D02*
X12253277Y-10409174D01*
X12253277Y-10409174D02*
X12262801Y-10428222D01*
X12262801Y-10428222D02*
X12262801Y-10532984D01*
X12262801Y-10428222D02*
X12272324Y-10409174D01*
X12272324Y-10409174D02*
X12291372Y-10399650D01*
X12291372Y-10399650D02*
X12319943Y-10399650D01*
X12319943Y-10399650D02*
X12338991Y-10409174D01*
X12338991Y-10409174D02*
X12348515Y-10428222D01*
X12348515Y-10428222D02*
X12348515Y-10532984D01*
X12738991Y-10323460D02*
X12567563Y-10580603D01*
X12996134Y-10332984D02*
X13015182Y-10332984D01*
X13015182Y-10332984D02*
X13034229Y-10342508D01*
X13034229Y-10342508D02*
X13043753Y-10352031D01*
X13043753Y-10352031D02*
X13053277Y-10371079D01*
X13053277Y-10371079D02*
X13062801Y-10409174D01*
X13062801Y-10409174D02*
X13062801Y-10456793D01*
X13062801Y-10456793D02*
X13053277Y-10494889D01*
X13053277Y-10494889D02*
X13043753Y-10513936D01*
X13043753Y-10513936D02*
X13034229Y-10523460D01*
X13034229Y-10523460D02*
X13015182Y-10532984D01*
X13015182Y-10532984D02*
X12996134Y-10532984D01*
X12996134Y-10532984D02*
X12977086Y-10523460D01*
X12977086Y-10523460D02*
X12967563Y-10513936D01*
X12967563Y-10513936D02*
X12958039Y-10494889D01*
X12958039Y-10494889D02*
X12948515Y-10456793D01*
X12948515Y-10456793D02*
X12948515Y-10409174D01*
X12948515Y-10409174D02*
X12958039Y-10371079D01*
X12958039Y-10371079D02*
X12967563Y-10352031D01*
X12967563Y-10352031D02*
X12977086Y-10342508D01*
X12977086Y-10342508D02*
X12996134Y-10332984D01*
X13148515Y-10513936D02*
X13158039Y-10523460D01*
X13158039Y-10523460D02*
X13148515Y-10532984D01*
X13148515Y-10532984D02*
X13138991Y-10523460D01*
X13138991Y-10523460D02*
X13148515Y-10513936D01*
X13148515Y-10513936D02*
X13148515Y-10532984D01*
X13281848Y-10332984D02*
X13300896Y-10332984D01*
X13300896Y-10332984D02*
X13319944Y-10342508D01*
X13319944Y-10342508D02*
X13329467Y-10352031D01*
X13329467Y-10352031D02*
X13338991Y-10371079D01*
X13338991Y-10371079D02*
X13348515Y-10409174D01*
X13348515Y-10409174D02*
X13348515Y-10456793D01*
X13348515Y-10456793D02*
X13338991Y-10494889D01*
X13338991Y-10494889D02*
X13329467Y-10513936D01*
X13329467Y-10513936D02*
X13319944Y-10523460D01*
X13319944Y-10523460D02*
X13300896Y-10532984D01*
X13300896Y-10532984D02*
X13281848Y-10532984D01*
X13281848Y-10532984D02*
X13262801Y-10523460D01*
X13262801Y-10523460D02*
X13253277Y-10513936D01*
X13253277Y-10513936D02*
X13243753Y-10494889D01*
X13243753Y-10494889D02*
X13234229Y-10456793D01*
X13234229Y-10456793D02*
X13234229Y-10409174D01*
X13234229Y-10409174D02*
X13243753Y-10371079D01*
X13243753Y-10371079D02*
X13253277Y-10352031D01*
X13253277Y-10352031D02*
X13262801Y-10342508D01*
X13262801Y-10342508D02*
X13281848Y-10332984D01*
X13424706Y-10352031D02*
X13434229Y-10342508D01*
X13434229Y-10342508D02*
X13453277Y-10332984D01*
X13453277Y-10332984D02*
X13500896Y-10332984D01*
X13500896Y-10332984D02*
X13519944Y-10342508D01*
X13519944Y-10342508D02*
X13529467Y-10352031D01*
X13529467Y-10352031D02*
X13538991Y-10371079D01*
X13538991Y-10371079D02*
X13538991Y-10390127D01*
X13538991Y-10390127D02*
X13529467Y-10418698D01*
X13529467Y-10418698D02*
X13415182Y-10532984D01*
X13415182Y-10532984D02*
X13538991Y-10532984D01*
X13634229Y-10532984D02*
X13672325Y-10532984D01*
X13672325Y-10532984D02*
X13691372Y-10523460D01*
X13691372Y-10523460D02*
X13700896Y-10513936D01*
X13700896Y-10513936D02*
X13719944Y-10485365D01*
X13719944Y-10485365D02*
X13729467Y-10447270D01*
X13729467Y-10447270D02*
X13729467Y-10371079D01*
X13729467Y-10371079D02*
X13719944Y-10352031D01*
X13719944Y-10352031D02*
X13710420Y-10342508D01*
X13710420Y-10342508D02*
X13691372Y-10332984D01*
X13691372Y-10332984D02*
X13653277Y-10332984D01*
X13653277Y-10332984D02*
X13634229Y-10342508D01*
X13634229Y-10342508D02*
X13624706Y-10352031D01*
X13624706Y-10352031D02*
X13615182Y-10371079D01*
X13615182Y-10371079D02*
X13615182Y-10418698D01*
X13615182Y-10418698D02*
X13624706Y-10437746D01*
X13624706Y-10437746D02*
X13634229Y-10447270D01*
X13634229Y-10447270D02*
X13653277Y-10456793D01*
X13653277Y-10456793D02*
X13691372Y-10456793D01*
X13691372Y-10456793D02*
X13710420Y-10447270D01*
X13710420Y-10447270D02*
X13719944Y-10437746D01*
X13719944Y-10437746D02*
X13729467Y-10418698D01*
X13910420Y-10332984D02*
X13815182Y-10332984D01*
X13815182Y-10332984D02*
X13805658Y-10428222D01*
X13805658Y-10428222D02*
X13815182Y-10418698D01*
X13815182Y-10418698D02*
X13834229Y-10409174D01*
X13834229Y-10409174D02*
X13881848Y-10409174D01*
X13881848Y-10409174D02*
X13900896Y-10418698D01*
X13900896Y-10418698D02*
X13910420Y-10428222D01*
X13910420Y-10428222D02*
X13919944Y-10447270D01*
X13919944Y-10447270D02*
X13919944Y-10494889D01*
X13919944Y-10494889D02*
X13910420Y-10513936D01*
X13910420Y-10513936D02*
X13900896Y-10523460D01*
X13900896Y-10523460D02*
X13881848Y-10532984D01*
X13881848Y-10532984D02*
X13834229Y-10532984D01*
X13834229Y-10532984D02*
X13815182Y-10523460D01*
X13815182Y-10523460D02*
X13805658Y-10513936D01*
X13996134Y-10332984D02*
X13996134Y-10371079D01*
X14072325Y-10332984D02*
X14072325Y-10371079D01*
X14367563Y-10609174D02*
X14358039Y-10599650D01*
X14358039Y-10599650D02*
X14338991Y-10571079D01*
X14338991Y-10571079D02*
X14329468Y-10552031D01*
X14329468Y-10552031D02*
X14319944Y-10523460D01*
X14319944Y-10523460D02*
X14310420Y-10475841D01*
X14310420Y-10475841D02*
X14310420Y-10437746D01*
X14310420Y-10437746D02*
X14319944Y-10390127D01*
X14319944Y-10390127D02*
X14329468Y-10361555D01*
X14329468Y-10361555D02*
X14338991Y-10342508D01*
X14338991Y-10342508D02*
X14358039Y-10313936D01*
X14358039Y-10313936D02*
X14367563Y-10304412D01*
X14548515Y-10532984D02*
X14434229Y-10532984D01*
X14491372Y-10532984D02*
X14491372Y-10332984D01*
X14491372Y-10332984D02*
X14472325Y-10361555D01*
X14472325Y-10361555D02*
X14453277Y-10380603D01*
X14453277Y-10380603D02*
X14434229Y-10390127D01*
X14662801Y-10418698D02*
X14643753Y-10409174D01*
X14643753Y-10409174D02*
X14634229Y-10399650D01*
X14634229Y-10399650D02*
X14624706Y-10380603D01*
X14624706Y-10380603D02*
X14624706Y-10371079D01*
X14624706Y-10371079D02*
X14634229Y-10352031D01*
X14634229Y-10352031D02*
X14643753Y-10342508D01*
X14643753Y-10342508D02*
X14662801Y-10332984D01*
X14662801Y-10332984D02*
X14700896Y-10332984D01*
X14700896Y-10332984D02*
X14719944Y-10342508D01*
X14719944Y-10342508D02*
X14729468Y-10352031D01*
X14729468Y-10352031D02*
X14738991Y-10371079D01*
X14738991Y-10371079D02*
X14738991Y-10380603D01*
X14738991Y-10380603D02*
X14729468Y-10399650D01*
X14729468Y-10399650D02*
X14719944Y-10409174D01*
X14719944Y-10409174D02*
X14700896Y-10418698D01*
X14700896Y-10418698D02*
X14662801Y-10418698D01*
X14662801Y-10418698D02*
X14643753Y-10428222D01*
X14643753Y-10428222D02*
X14634229Y-10437746D01*
X14634229Y-10437746D02*
X14624706Y-10456793D01*
X14624706Y-10456793D02*
X14624706Y-10494889D01*
X14624706Y-10494889D02*
X14634229Y-10513936D01*
X14634229Y-10513936D02*
X14643753Y-10523460D01*
X14643753Y-10523460D02*
X14662801Y-10532984D01*
X14662801Y-10532984D02*
X14700896Y-10532984D01*
X14700896Y-10532984D02*
X14719944Y-10523460D01*
X14719944Y-10523460D02*
X14729468Y-10513936D01*
X14729468Y-10513936D02*
X14738991Y-10494889D01*
X14738991Y-10494889D02*
X14738991Y-10456793D01*
X14738991Y-10456793D02*
X14729468Y-10437746D01*
X14729468Y-10437746D02*
X14719944Y-10428222D01*
X14719944Y-10428222D02*
X14700896Y-10418698D01*
X14977087Y-10532984D02*
X14977087Y-10332984D01*
X15062801Y-10532984D02*
X15062801Y-10428222D01*
X15062801Y-10428222D02*
X15053277Y-10409174D01*
X15053277Y-10409174D02*
X15034230Y-10399650D01*
X15034230Y-10399650D02*
X15005658Y-10399650D01*
X15005658Y-10399650D02*
X14986610Y-10409174D01*
X14986610Y-10409174D02*
X14977087Y-10418698D01*
X15186610Y-10532984D02*
X15167563Y-10523460D01*
X15167563Y-10523460D02*
X15158039Y-10513936D01*
X15158039Y-10513936D02*
X15148515Y-10494889D01*
X15148515Y-10494889D02*
X15148515Y-10437746D01*
X15148515Y-10437746D02*
X15158039Y-10418698D01*
X15158039Y-10418698D02*
X15167563Y-10409174D01*
X15167563Y-10409174D02*
X15186610Y-10399650D01*
X15186610Y-10399650D02*
X15215182Y-10399650D01*
X15215182Y-10399650D02*
X15234230Y-10409174D01*
X15234230Y-10409174D02*
X15243753Y-10418698D01*
X15243753Y-10418698D02*
X15253277Y-10437746D01*
X15253277Y-10437746D02*
X15253277Y-10494889D01*
X15253277Y-10494889D02*
X15243753Y-10513936D01*
X15243753Y-10513936D02*
X15234230Y-10523460D01*
X15234230Y-10523460D02*
X15215182Y-10532984D01*
X15215182Y-10532984D02*
X15186610Y-10532984D01*
X15367563Y-10532984D02*
X15348515Y-10523460D01*
X15348515Y-10523460D02*
X15338991Y-10504412D01*
X15338991Y-10504412D02*
X15338991Y-10332984D01*
X15519944Y-10523460D02*
X15500896Y-10532984D01*
X15500896Y-10532984D02*
X15462801Y-10532984D01*
X15462801Y-10532984D02*
X15443753Y-10523460D01*
X15443753Y-10523460D02*
X15434230Y-10504412D01*
X15434230Y-10504412D02*
X15434230Y-10428222D01*
X15434230Y-10428222D02*
X15443753Y-10409174D01*
X15443753Y-10409174D02*
X15462801Y-10399650D01*
X15462801Y-10399650D02*
X15500896Y-10399650D01*
X15500896Y-10399650D02*
X15519944Y-10409174D01*
X15519944Y-10409174D02*
X15529468Y-10428222D01*
X15529468Y-10428222D02*
X15529468Y-10447270D01*
X15529468Y-10447270D02*
X15434230Y-10466317D01*
X15605658Y-10523460D02*
X15624706Y-10532984D01*
X15624706Y-10532984D02*
X15662801Y-10532984D01*
X15662801Y-10532984D02*
X15681849Y-10523460D01*
X15681849Y-10523460D02*
X15691372Y-10504412D01*
X15691372Y-10504412D02*
X15691372Y-10494889D01*
X15691372Y-10494889D02*
X15681849Y-10475841D01*
X15681849Y-10475841D02*
X15662801Y-10466317D01*
X15662801Y-10466317D02*
X15634230Y-10466317D01*
X15634230Y-10466317D02*
X15615182Y-10456793D01*
X15615182Y-10456793D02*
X15605658Y-10437746D01*
X15605658Y-10437746D02*
X15605658Y-10428222D01*
X15605658Y-10428222D02*
X15615182Y-10409174D01*
X15615182Y-10409174D02*
X15634230Y-10399650D01*
X15634230Y-10399650D02*
X15662801Y-10399650D01*
X15662801Y-10399650D02*
X15681849Y-10409174D01*
X15758039Y-10609174D02*
X15767563Y-10599650D01*
X15767563Y-10599650D02*
X15786611Y-10571079D01*
X15786611Y-10571079D02*
X15796134Y-10552031D01*
X15796134Y-10552031D02*
X15805658Y-10523460D01*
X15805658Y-10523460D02*
X15815182Y-10475841D01*
X15815182Y-10475841D02*
X15815182Y-10437746D01*
X15815182Y-10437746D02*
X15805658Y-10390127D01*
X15805658Y-10390127D02*
X15796134Y-10361555D01*
X15796134Y-10361555D02*
X15786611Y-10342508D01*
X15786611Y-10342508D02*
X15767563Y-10313936D01*
X15767563Y-10313936D02*
X15758039Y-10304412D01*
D12*
X10780785Y-10733785D02*
X10780785Y-10677216D01*
X10724216Y-10677216D01*
X10724216Y-10733785D01*
X10780785Y-10733785D01*
D11*
X11091372Y-10596984D02*
X11110420Y-10596984D01*
X11110420Y-10596984D02*
X11129467Y-10606508D01*
X11129467Y-10606508D02*
X11138991Y-10616031D01*
X11138991Y-10616031D02*
X11148515Y-10635079D01*
X11148515Y-10635079D02*
X11158039Y-10673174D01*
X11158039Y-10673174D02*
X11158039Y-10720793D01*
X11158039Y-10720793D02*
X11148515Y-10758889D01*
X11148515Y-10758889D02*
X11138991Y-10777936D01*
X11138991Y-10777936D02*
X11129467Y-10787460D01*
X11129467Y-10787460D02*
X11110420Y-10796984D01*
X11110420Y-10796984D02*
X11091372Y-10796984D01*
X11091372Y-10796984D02*
X11072324Y-10787460D01*
X11072324Y-10787460D02*
X11062801Y-10777936D01*
X11062801Y-10777936D02*
X11053277Y-10758889D01*
X11053277Y-10758889D02*
X11043753Y-10720793D01*
X11043753Y-10720793D02*
X11043753Y-10673174D01*
X11043753Y-10673174D02*
X11053277Y-10635079D01*
X11053277Y-10635079D02*
X11062801Y-10616031D01*
X11062801Y-10616031D02*
X11072324Y-10606508D01*
X11072324Y-10606508D02*
X11091372Y-10596984D01*
X11243753Y-10777936D02*
X11253277Y-10787460D01*
X11253277Y-10787460D02*
X11243753Y-10796984D01*
X11243753Y-10796984D02*
X11234229Y-10787460D01*
X11234229Y-10787460D02*
X11243753Y-10777936D01*
X11243753Y-10777936D02*
X11243753Y-10796984D01*
X11367562Y-10682698D02*
X11348515Y-10673174D01*
X11348515Y-10673174D02*
X11338991Y-10663650D01*
X11338991Y-10663650D02*
X11329467Y-10644603D01*
X11329467Y-10644603D02*
X11329467Y-10635079D01*
X11329467Y-10635079D02*
X11338991Y-10616031D01*
X11338991Y-10616031D02*
X11348515Y-10606508D01*
X11348515Y-10606508D02*
X11367562Y-10596984D01*
X11367562Y-10596984D02*
X11405658Y-10596984D01*
X11405658Y-10596984D02*
X11424705Y-10606508D01*
X11424705Y-10606508D02*
X11434229Y-10616031D01*
X11434229Y-10616031D02*
X11443753Y-10635079D01*
X11443753Y-10635079D02*
X11443753Y-10644603D01*
X11443753Y-10644603D02*
X11434229Y-10663650D01*
X11434229Y-10663650D02*
X11424705Y-10673174D01*
X11424705Y-10673174D02*
X11405658Y-10682698D01*
X11405658Y-10682698D02*
X11367562Y-10682698D01*
X11367562Y-10682698D02*
X11348515Y-10692222D01*
X11348515Y-10692222D02*
X11338991Y-10701746D01*
X11338991Y-10701746D02*
X11329467Y-10720793D01*
X11329467Y-10720793D02*
X11329467Y-10758889D01*
X11329467Y-10758889D02*
X11338991Y-10777936D01*
X11338991Y-10777936D02*
X11348515Y-10787460D01*
X11348515Y-10787460D02*
X11367562Y-10796984D01*
X11367562Y-10796984D02*
X11405658Y-10796984D01*
X11405658Y-10796984D02*
X11424705Y-10787460D01*
X11424705Y-10787460D02*
X11434229Y-10777936D01*
X11434229Y-10777936D02*
X11443753Y-10758889D01*
X11443753Y-10758889D02*
X11443753Y-10720793D01*
X11443753Y-10720793D02*
X11434229Y-10701746D01*
X11434229Y-10701746D02*
X11424705Y-10692222D01*
X11424705Y-10692222D02*
X11405658Y-10682698D01*
X11567562Y-10596984D02*
X11586610Y-10596984D01*
X11586610Y-10596984D02*
X11605658Y-10606508D01*
X11605658Y-10606508D02*
X11615182Y-10616031D01*
X11615182Y-10616031D02*
X11624705Y-10635079D01*
X11624705Y-10635079D02*
X11634229Y-10673174D01*
X11634229Y-10673174D02*
X11634229Y-10720793D01*
X11634229Y-10720793D02*
X11624705Y-10758889D01*
X11624705Y-10758889D02*
X11615182Y-10777936D01*
X11615182Y-10777936D02*
X11605658Y-10787460D01*
X11605658Y-10787460D02*
X11586610Y-10796984D01*
X11586610Y-10796984D02*
X11567562Y-10796984D01*
X11567562Y-10796984D02*
X11548515Y-10787460D01*
X11548515Y-10787460D02*
X11538991Y-10777936D01*
X11538991Y-10777936D02*
X11529467Y-10758889D01*
X11529467Y-10758889D02*
X11519943Y-10720793D01*
X11519943Y-10720793D02*
X11519943Y-10673174D01*
X11519943Y-10673174D02*
X11529467Y-10635079D01*
X11529467Y-10635079D02*
X11538991Y-10616031D01*
X11538991Y-10616031D02*
X11548515Y-10606508D01*
X11548515Y-10606508D02*
X11567562Y-10596984D01*
X11758039Y-10596984D02*
X11777086Y-10596984D01*
X11777086Y-10596984D02*
X11796134Y-10606508D01*
X11796134Y-10606508D02*
X11805658Y-10616031D01*
X11805658Y-10616031D02*
X11815182Y-10635079D01*
X11815182Y-10635079D02*
X11824705Y-10673174D01*
X11824705Y-10673174D02*
X11824705Y-10720793D01*
X11824705Y-10720793D02*
X11815182Y-10758889D01*
X11815182Y-10758889D02*
X11805658Y-10777936D01*
X11805658Y-10777936D02*
X11796134Y-10787460D01*
X11796134Y-10787460D02*
X11777086Y-10796984D01*
X11777086Y-10796984D02*
X11758039Y-10796984D01*
X11758039Y-10796984D02*
X11738991Y-10787460D01*
X11738991Y-10787460D02*
X11729467Y-10777936D01*
X11729467Y-10777936D02*
X11719943Y-10758889D01*
X11719943Y-10758889D02*
X11710420Y-10720793D01*
X11710420Y-10720793D02*
X11710420Y-10673174D01*
X11710420Y-10673174D02*
X11719943Y-10635079D01*
X11719943Y-10635079D02*
X11729467Y-10616031D01*
X11729467Y-10616031D02*
X11738991Y-10606508D01*
X11738991Y-10606508D02*
X11758039Y-10596984D01*
X11910420Y-10796984D02*
X11910420Y-10663650D01*
X11910420Y-10682698D02*
X11919943Y-10673174D01*
X11919943Y-10673174D02*
X11938991Y-10663650D01*
X11938991Y-10663650D02*
X11967563Y-10663650D01*
X11967563Y-10663650D02*
X11986610Y-10673174D01*
X11986610Y-10673174D02*
X11996134Y-10692222D01*
X11996134Y-10692222D02*
X11996134Y-10796984D01*
X11996134Y-10692222D02*
X12005658Y-10673174D01*
X12005658Y-10673174D02*
X12024705Y-10663650D01*
X12024705Y-10663650D02*
X12053277Y-10663650D01*
X12053277Y-10663650D02*
X12072324Y-10673174D01*
X12072324Y-10673174D02*
X12081848Y-10692222D01*
X12081848Y-10692222D02*
X12081848Y-10796984D01*
X12177086Y-10796984D02*
X12177086Y-10663650D01*
X12177086Y-10682698D02*
X12186610Y-10673174D01*
X12186610Y-10673174D02*
X12205658Y-10663650D01*
X12205658Y-10663650D02*
X12234229Y-10663650D01*
X12234229Y-10663650D02*
X12253277Y-10673174D01*
X12253277Y-10673174D02*
X12262801Y-10692222D01*
X12262801Y-10692222D02*
X12262801Y-10796984D01*
X12262801Y-10692222D02*
X12272324Y-10673174D01*
X12272324Y-10673174D02*
X12291372Y-10663650D01*
X12291372Y-10663650D02*
X12319943Y-10663650D01*
X12319943Y-10663650D02*
X12338991Y-10673174D01*
X12338991Y-10673174D02*
X12348515Y-10692222D01*
X12348515Y-10692222D02*
X12348515Y-10796984D01*
X12738991Y-10587460D02*
X12567563Y-10844603D01*
X12996134Y-10596984D02*
X13015182Y-10596984D01*
X13015182Y-10596984D02*
X13034229Y-10606508D01*
X13034229Y-10606508D02*
X13043753Y-10616031D01*
X13043753Y-10616031D02*
X13053277Y-10635079D01*
X13053277Y-10635079D02*
X13062801Y-10673174D01*
X13062801Y-10673174D02*
X13062801Y-10720793D01*
X13062801Y-10720793D02*
X13053277Y-10758889D01*
X13053277Y-10758889D02*
X13043753Y-10777936D01*
X13043753Y-10777936D02*
X13034229Y-10787460D01*
X13034229Y-10787460D02*
X13015182Y-10796984D01*
X13015182Y-10796984D02*
X12996134Y-10796984D01*
X12996134Y-10796984D02*
X12977086Y-10787460D01*
X12977086Y-10787460D02*
X12967563Y-10777936D01*
X12967563Y-10777936D02*
X12958039Y-10758889D01*
X12958039Y-10758889D02*
X12948515Y-10720793D01*
X12948515Y-10720793D02*
X12948515Y-10673174D01*
X12948515Y-10673174D02*
X12958039Y-10635079D01*
X12958039Y-10635079D02*
X12967563Y-10616031D01*
X12967563Y-10616031D02*
X12977086Y-10606508D01*
X12977086Y-10606508D02*
X12996134Y-10596984D01*
X13148515Y-10777936D02*
X13158039Y-10787460D01*
X13158039Y-10787460D02*
X13148515Y-10796984D01*
X13148515Y-10796984D02*
X13138991Y-10787460D01*
X13138991Y-10787460D02*
X13148515Y-10777936D01*
X13148515Y-10777936D02*
X13148515Y-10796984D01*
X13281848Y-10596984D02*
X13300896Y-10596984D01*
X13300896Y-10596984D02*
X13319944Y-10606508D01*
X13319944Y-10606508D02*
X13329467Y-10616031D01*
X13329467Y-10616031D02*
X13338991Y-10635079D01*
X13338991Y-10635079D02*
X13348515Y-10673174D01*
X13348515Y-10673174D02*
X13348515Y-10720793D01*
X13348515Y-10720793D02*
X13338991Y-10758889D01*
X13338991Y-10758889D02*
X13329467Y-10777936D01*
X13329467Y-10777936D02*
X13319944Y-10787460D01*
X13319944Y-10787460D02*
X13300896Y-10796984D01*
X13300896Y-10796984D02*
X13281848Y-10796984D01*
X13281848Y-10796984D02*
X13262801Y-10787460D01*
X13262801Y-10787460D02*
X13253277Y-10777936D01*
X13253277Y-10777936D02*
X13243753Y-10758889D01*
X13243753Y-10758889D02*
X13234229Y-10720793D01*
X13234229Y-10720793D02*
X13234229Y-10673174D01*
X13234229Y-10673174D02*
X13243753Y-10635079D01*
X13243753Y-10635079D02*
X13253277Y-10616031D01*
X13253277Y-10616031D02*
X13262801Y-10606508D01*
X13262801Y-10606508D02*
X13281848Y-10596984D01*
X13415182Y-10596984D02*
X13538991Y-10596984D01*
X13538991Y-10596984D02*
X13472325Y-10673174D01*
X13472325Y-10673174D02*
X13500896Y-10673174D01*
X13500896Y-10673174D02*
X13519944Y-10682698D01*
X13519944Y-10682698D02*
X13529467Y-10692222D01*
X13529467Y-10692222D02*
X13538991Y-10711270D01*
X13538991Y-10711270D02*
X13538991Y-10758889D01*
X13538991Y-10758889D02*
X13529467Y-10777936D01*
X13529467Y-10777936D02*
X13519944Y-10787460D01*
X13519944Y-10787460D02*
X13500896Y-10796984D01*
X13500896Y-10796984D02*
X13443753Y-10796984D01*
X13443753Y-10796984D02*
X13424706Y-10787460D01*
X13424706Y-10787460D02*
X13415182Y-10777936D01*
X13729467Y-10796984D02*
X13615182Y-10796984D01*
X13672325Y-10796984D02*
X13672325Y-10596984D01*
X13672325Y-10596984D02*
X13653277Y-10625555D01*
X13653277Y-10625555D02*
X13634229Y-10644603D01*
X13634229Y-10644603D02*
X13615182Y-10654127D01*
X13910420Y-10596984D02*
X13815182Y-10596984D01*
X13815182Y-10596984D02*
X13805658Y-10692222D01*
X13805658Y-10692222D02*
X13815182Y-10682698D01*
X13815182Y-10682698D02*
X13834229Y-10673174D01*
X13834229Y-10673174D02*
X13881848Y-10673174D01*
X13881848Y-10673174D02*
X13900896Y-10682698D01*
X13900896Y-10682698D02*
X13910420Y-10692222D01*
X13910420Y-10692222D02*
X13919944Y-10711270D01*
X13919944Y-10711270D02*
X13919944Y-10758889D01*
X13919944Y-10758889D02*
X13910420Y-10777936D01*
X13910420Y-10777936D02*
X13900896Y-10787460D01*
X13900896Y-10787460D02*
X13881848Y-10796984D01*
X13881848Y-10796984D02*
X13834229Y-10796984D01*
X13834229Y-10796984D02*
X13815182Y-10787460D01*
X13815182Y-10787460D02*
X13805658Y-10777936D01*
X13996134Y-10596984D02*
X13996134Y-10635079D01*
X14072325Y-10596984D02*
X14072325Y-10635079D01*
X14367563Y-10873174D02*
X14358039Y-10863650D01*
X14358039Y-10863650D02*
X14338991Y-10835079D01*
X14338991Y-10835079D02*
X14329468Y-10816031D01*
X14329468Y-10816031D02*
X14319944Y-10787460D01*
X14319944Y-10787460D02*
X14310420Y-10739841D01*
X14310420Y-10739841D02*
X14310420Y-10701746D01*
X14310420Y-10701746D02*
X14319944Y-10654127D01*
X14319944Y-10654127D02*
X14329468Y-10625555D01*
X14329468Y-10625555D02*
X14338991Y-10606508D01*
X14338991Y-10606508D02*
X14358039Y-10577936D01*
X14358039Y-10577936D02*
X14367563Y-10568412D01*
X14472325Y-10682698D02*
X14453277Y-10673174D01*
X14453277Y-10673174D02*
X14443753Y-10663650D01*
X14443753Y-10663650D02*
X14434229Y-10644603D01*
X14434229Y-10644603D02*
X14434229Y-10635079D01*
X14434229Y-10635079D02*
X14443753Y-10616031D01*
X14443753Y-10616031D02*
X14453277Y-10606508D01*
X14453277Y-10606508D02*
X14472325Y-10596984D01*
X14472325Y-10596984D02*
X14510420Y-10596984D01*
X14510420Y-10596984D02*
X14529468Y-10606508D01*
X14529468Y-10606508D02*
X14538991Y-10616031D01*
X14538991Y-10616031D02*
X14548515Y-10635079D01*
X14548515Y-10635079D02*
X14548515Y-10644603D01*
X14548515Y-10644603D02*
X14538991Y-10663650D01*
X14538991Y-10663650D02*
X14529468Y-10673174D01*
X14529468Y-10673174D02*
X14510420Y-10682698D01*
X14510420Y-10682698D02*
X14472325Y-10682698D01*
X14472325Y-10682698D02*
X14453277Y-10692222D01*
X14453277Y-10692222D02*
X14443753Y-10701746D01*
X14443753Y-10701746D02*
X14434229Y-10720793D01*
X14434229Y-10720793D02*
X14434229Y-10758889D01*
X14434229Y-10758889D02*
X14443753Y-10777936D01*
X14443753Y-10777936D02*
X14453277Y-10787460D01*
X14453277Y-10787460D02*
X14472325Y-10796984D01*
X14472325Y-10796984D02*
X14510420Y-10796984D01*
X14510420Y-10796984D02*
X14529468Y-10787460D01*
X14529468Y-10787460D02*
X14538991Y-10777936D01*
X14538991Y-10777936D02*
X14548515Y-10758889D01*
X14548515Y-10758889D02*
X14548515Y-10720793D01*
X14548515Y-10720793D02*
X14538991Y-10701746D01*
X14538991Y-10701746D02*
X14529468Y-10692222D01*
X14529468Y-10692222D02*
X14510420Y-10682698D01*
X14719944Y-10663650D02*
X14719944Y-10796984D01*
X14672325Y-10587460D02*
X14624706Y-10730317D01*
X14624706Y-10730317D02*
X14748515Y-10730317D01*
X14977087Y-10796984D02*
X14977087Y-10596984D01*
X15062801Y-10796984D02*
X15062801Y-10692222D01*
X15062801Y-10692222D02*
X15053277Y-10673174D01*
X15053277Y-10673174D02*
X15034230Y-10663650D01*
X15034230Y-10663650D02*
X15005658Y-10663650D01*
X15005658Y-10663650D02*
X14986610Y-10673174D01*
X14986610Y-10673174D02*
X14977087Y-10682698D01*
X15186610Y-10796984D02*
X15167563Y-10787460D01*
X15167563Y-10787460D02*
X15158039Y-10777936D01*
X15158039Y-10777936D02*
X15148515Y-10758889D01*
X15148515Y-10758889D02*
X15148515Y-10701746D01*
X15148515Y-10701746D02*
X15158039Y-10682698D01*
X15158039Y-10682698D02*
X15167563Y-10673174D01*
X15167563Y-10673174D02*
X15186610Y-10663650D01*
X15186610Y-10663650D02*
X15215182Y-10663650D01*
X15215182Y-10663650D02*
X15234230Y-10673174D01*
X15234230Y-10673174D02*
X15243753Y-10682698D01*
X15243753Y-10682698D02*
X15253277Y-10701746D01*
X15253277Y-10701746D02*
X15253277Y-10758889D01*
X15253277Y-10758889D02*
X15243753Y-10777936D01*
X15243753Y-10777936D02*
X15234230Y-10787460D01*
X15234230Y-10787460D02*
X15215182Y-10796984D01*
X15215182Y-10796984D02*
X15186610Y-10796984D01*
X15367563Y-10796984D02*
X15348515Y-10787460D01*
X15348515Y-10787460D02*
X15338991Y-10768412D01*
X15338991Y-10768412D02*
X15338991Y-10596984D01*
X15519944Y-10787460D02*
X15500896Y-10796984D01*
X15500896Y-10796984D02*
X15462801Y-10796984D01*
X15462801Y-10796984D02*
X15443753Y-10787460D01*
X15443753Y-10787460D02*
X15434230Y-10768412D01*
X15434230Y-10768412D02*
X15434230Y-10692222D01*
X15434230Y-10692222D02*
X15443753Y-10673174D01*
X15443753Y-10673174D02*
X15462801Y-10663650D01*
X15462801Y-10663650D02*
X15500896Y-10663650D01*
X15500896Y-10663650D02*
X15519944Y-10673174D01*
X15519944Y-10673174D02*
X15529468Y-10692222D01*
X15529468Y-10692222D02*
X15529468Y-10711270D01*
X15529468Y-10711270D02*
X15434230Y-10730317D01*
X15605658Y-10787460D02*
X15624706Y-10796984D01*
X15624706Y-10796984D02*
X15662801Y-10796984D01*
X15662801Y-10796984D02*
X15681849Y-10787460D01*
X15681849Y-10787460D02*
X15691372Y-10768412D01*
X15691372Y-10768412D02*
X15691372Y-10758889D01*
X15691372Y-10758889D02*
X15681849Y-10739841D01*
X15681849Y-10739841D02*
X15662801Y-10730317D01*
X15662801Y-10730317D02*
X15634230Y-10730317D01*
X15634230Y-10730317D02*
X15615182Y-10720793D01*
X15615182Y-10720793D02*
X15605658Y-10701746D01*
X15605658Y-10701746D02*
X15605658Y-10692222D01*
X15605658Y-10692222D02*
X15615182Y-10673174D01*
X15615182Y-10673174D02*
X15634230Y-10663650D01*
X15634230Y-10663650D02*
X15662801Y-10663650D01*
X15662801Y-10663650D02*
X15681849Y-10673174D01*
X15758039Y-10873174D02*
X15767563Y-10863650D01*
X15767563Y-10863650D02*
X15786611Y-10835079D01*
X15786611Y-10835079D02*
X15796134Y-10816031D01*
X15796134Y-10816031D02*
X15805658Y-10787460D01*
X15805658Y-10787460D02*
X15815182Y-10739841D01*
X15815182Y-10739841D02*
X15815182Y-10701746D01*
X15815182Y-10701746D02*
X15805658Y-10654127D01*
X15805658Y-10654127D02*
X15796134Y-10625555D01*
X15796134Y-10625555D02*
X15786611Y-10606508D01*
X15786611Y-10606508D02*
X15767563Y-10577936D01*
X15767563Y-10577936D02*
X15758039Y-10568412D01*
D12*
X10742500Y-11019500D02*
X10792500Y-10969500D01*
X10742500Y-10919500D01*
X10692500Y-10969500D01*
X10742500Y-11019500D01*
D11*
X11158039Y-11060984D02*
X11043753Y-11060984D01*
X11100896Y-11060984D02*
X11100896Y-10860984D01*
X11100896Y-10860984D02*
X11081848Y-10889555D01*
X11081848Y-10889555D02*
X11062801Y-10908603D01*
X11062801Y-10908603D02*
X11043753Y-10918127D01*
X11243753Y-11041936D02*
X11253277Y-11051460D01*
X11253277Y-11051460D02*
X11243753Y-11060984D01*
X11243753Y-11060984D02*
X11234229Y-11051460D01*
X11234229Y-11051460D02*
X11243753Y-11041936D01*
X11243753Y-11041936D02*
X11243753Y-11060984D01*
X11377086Y-10860984D02*
X11396134Y-10860984D01*
X11396134Y-10860984D02*
X11415182Y-10870508D01*
X11415182Y-10870508D02*
X11424705Y-10880031D01*
X11424705Y-10880031D02*
X11434229Y-10899079D01*
X11434229Y-10899079D02*
X11443753Y-10937174D01*
X11443753Y-10937174D02*
X11443753Y-10984793D01*
X11443753Y-10984793D02*
X11434229Y-11022889D01*
X11434229Y-11022889D02*
X11424705Y-11041936D01*
X11424705Y-11041936D02*
X11415182Y-11051460D01*
X11415182Y-11051460D02*
X11396134Y-11060984D01*
X11396134Y-11060984D02*
X11377086Y-11060984D01*
X11377086Y-11060984D02*
X11358039Y-11051460D01*
X11358039Y-11051460D02*
X11348515Y-11041936D01*
X11348515Y-11041936D02*
X11338991Y-11022889D01*
X11338991Y-11022889D02*
X11329467Y-10984793D01*
X11329467Y-10984793D02*
X11329467Y-10937174D01*
X11329467Y-10937174D02*
X11338991Y-10899079D01*
X11338991Y-10899079D02*
X11348515Y-10880031D01*
X11348515Y-10880031D02*
X11358039Y-10870508D01*
X11358039Y-10870508D02*
X11377086Y-10860984D01*
X11567562Y-10860984D02*
X11586610Y-10860984D01*
X11586610Y-10860984D02*
X11605658Y-10870508D01*
X11605658Y-10870508D02*
X11615182Y-10880031D01*
X11615182Y-10880031D02*
X11624705Y-10899079D01*
X11624705Y-10899079D02*
X11634229Y-10937174D01*
X11634229Y-10937174D02*
X11634229Y-10984793D01*
X11634229Y-10984793D02*
X11624705Y-11022889D01*
X11624705Y-11022889D02*
X11615182Y-11041936D01*
X11615182Y-11041936D02*
X11605658Y-11051460D01*
X11605658Y-11051460D02*
X11586610Y-11060984D01*
X11586610Y-11060984D02*
X11567562Y-11060984D01*
X11567562Y-11060984D02*
X11548515Y-11051460D01*
X11548515Y-11051460D02*
X11538991Y-11041936D01*
X11538991Y-11041936D02*
X11529467Y-11022889D01*
X11529467Y-11022889D02*
X11519943Y-10984793D01*
X11519943Y-10984793D02*
X11519943Y-10937174D01*
X11519943Y-10937174D02*
X11529467Y-10899079D01*
X11529467Y-10899079D02*
X11538991Y-10880031D01*
X11538991Y-10880031D02*
X11548515Y-10870508D01*
X11548515Y-10870508D02*
X11567562Y-10860984D01*
X11758039Y-10860984D02*
X11777086Y-10860984D01*
X11777086Y-10860984D02*
X11796134Y-10870508D01*
X11796134Y-10870508D02*
X11805658Y-10880031D01*
X11805658Y-10880031D02*
X11815182Y-10899079D01*
X11815182Y-10899079D02*
X11824705Y-10937174D01*
X11824705Y-10937174D02*
X11824705Y-10984793D01*
X11824705Y-10984793D02*
X11815182Y-11022889D01*
X11815182Y-11022889D02*
X11805658Y-11041936D01*
X11805658Y-11041936D02*
X11796134Y-11051460D01*
X11796134Y-11051460D02*
X11777086Y-11060984D01*
X11777086Y-11060984D02*
X11758039Y-11060984D01*
X11758039Y-11060984D02*
X11738991Y-11051460D01*
X11738991Y-11051460D02*
X11729467Y-11041936D01*
X11729467Y-11041936D02*
X11719943Y-11022889D01*
X11719943Y-11022889D02*
X11710420Y-10984793D01*
X11710420Y-10984793D02*
X11710420Y-10937174D01*
X11710420Y-10937174D02*
X11719943Y-10899079D01*
X11719943Y-10899079D02*
X11729467Y-10880031D01*
X11729467Y-10880031D02*
X11738991Y-10870508D01*
X11738991Y-10870508D02*
X11758039Y-10860984D01*
X11910420Y-11060984D02*
X11910420Y-10927650D01*
X11910420Y-10946698D02*
X11919943Y-10937174D01*
X11919943Y-10937174D02*
X11938991Y-10927650D01*
X11938991Y-10927650D02*
X11967563Y-10927650D01*
X11967563Y-10927650D02*
X11986610Y-10937174D01*
X11986610Y-10937174D02*
X11996134Y-10956222D01*
X11996134Y-10956222D02*
X11996134Y-11060984D01*
X11996134Y-10956222D02*
X12005658Y-10937174D01*
X12005658Y-10937174D02*
X12024705Y-10927650D01*
X12024705Y-10927650D02*
X12053277Y-10927650D01*
X12053277Y-10927650D02*
X12072324Y-10937174D01*
X12072324Y-10937174D02*
X12081848Y-10956222D01*
X12081848Y-10956222D02*
X12081848Y-11060984D01*
X12177086Y-11060984D02*
X12177086Y-10927650D01*
X12177086Y-10946698D02*
X12186610Y-10937174D01*
X12186610Y-10937174D02*
X12205658Y-10927650D01*
X12205658Y-10927650D02*
X12234229Y-10927650D01*
X12234229Y-10927650D02*
X12253277Y-10937174D01*
X12253277Y-10937174D02*
X12262801Y-10956222D01*
X12262801Y-10956222D02*
X12262801Y-11060984D01*
X12262801Y-10956222D02*
X12272324Y-10937174D01*
X12272324Y-10937174D02*
X12291372Y-10927650D01*
X12291372Y-10927650D02*
X12319943Y-10927650D01*
X12319943Y-10927650D02*
X12338991Y-10937174D01*
X12338991Y-10937174D02*
X12348515Y-10956222D01*
X12348515Y-10956222D02*
X12348515Y-11060984D01*
X12738991Y-10851460D02*
X12567563Y-11108603D01*
X12996134Y-10860984D02*
X13015182Y-10860984D01*
X13015182Y-10860984D02*
X13034229Y-10870508D01*
X13034229Y-10870508D02*
X13043753Y-10880031D01*
X13043753Y-10880031D02*
X13053277Y-10899079D01*
X13053277Y-10899079D02*
X13062801Y-10937174D01*
X13062801Y-10937174D02*
X13062801Y-10984793D01*
X13062801Y-10984793D02*
X13053277Y-11022889D01*
X13053277Y-11022889D02*
X13043753Y-11041936D01*
X13043753Y-11041936D02*
X13034229Y-11051460D01*
X13034229Y-11051460D02*
X13015182Y-11060984D01*
X13015182Y-11060984D02*
X12996134Y-11060984D01*
X12996134Y-11060984D02*
X12977086Y-11051460D01*
X12977086Y-11051460D02*
X12967563Y-11041936D01*
X12967563Y-11041936D02*
X12958039Y-11022889D01*
X12958039Y-11022889D02*
X12948515Y-10984793D01*
X12948515Y-10984793D02*
X12948515Y-10937174D01*
X12948515Y-10937174D02*
X12958039Y-10899079D01*
X12958039Y-10899079D02*
X12967563Y-10880031D01*
X12967563Y-10880031D02*
X12977086Y-10870508D01*
X12977086Y-10870508D02*
X12996134Y-10860984D01*
X13148515Y-11041936D02*
X13158039Y-11051460D01*
X13158039Y-11051460D02*
X13148515Y-11060984D01*
X13148515Y-11060984D02*
X13138991Y-11051460D01*
X13138991Y-11051460D02*
X13148515Y-11041936D01*
X13148515Y-11041936D02*
X13148515Y-11060984D01*
X13281848Y-10860984D02*
X13300896Y-10860984D01*
X13300896Y-10860984D02*
X13319944Y-10870508D01*
X13319944Y-10870508D02*
X13329467Y-10880031D01*
X13329467Y-10880031D02*
X13338991Y-10899079D01*
X13338991Y-10899079D02*
X13348515Y-10937174D01*
X13348515Y-10937174D02*
X13348515Y-10984793D01*
X13348515Y-10984793D02*
X13338991Y-11022889D01*
X13338991Y-11022889D02*
X13329467Y-11041936D01*
X13329467Y-11041936D02*
X13319944Y-11051460D01*
X13319944Y-11051460D02*
X13300896Y-11060984D01*
X13300896Y-11060984D02*
X13281848Y-11060984D01*
X13281848Y-11060984D02*
X13262801Y-11051460D01*
X13262801Y-11051460D02*
X13253277Y-11041936D01*
X13253277Y-11041936D02*
X13243753Y-11022889D01*
X13243753Y-11022889D02*
X13234229Y-10984793D01*
X13234229Y-10984793D02*
X13234229Y-10937174D01*
X13234229Y-10937174D02*
X13243753Y-10899079D01*
X13243753Y-10899079D02*
X13253277Y-10880031D01*
X13253277Y-10880031D02*
X13262801Y-10870508D01*
X13262801Y-10870508D02*
X13281848Y-10860984D01*
X13415182Y-10860984D02*
X13538991Y-10860984D01*
X13538991Y-10860984D02*
X13472325Y-10937174D01*
X13472325Y-10937174D02*
X13500896Y-10937174D01*
X13500896Y-10937174D02*
X13519944Y-10946698D01*
X13519944Y-10946698D02*
X13529467Y-10956222D01*
X13529467Y-10956222D02*
X13538991Y-10975270D01*
X13538991Y-10975270D02*
X13538991Y-11022889D01*
X13538991Y-11022889D02*
X13529467Y-11041936D01*
X13529467Y-11041936D02*
X13519944Y-11051460D01*
X13519944Y-11051460D02*
X13500896Y-11060984D01*
X13500896Y-11060984D02*
X13443753Y-11060984D01*
X13443753Y-11060984D02*
X13424706Y-11051460D01*
X13424706Y-11051460D02*
X13415182Y-11041936D01*
X13634229Y-11060984D02*
X13672325Y-11060984D01*
X13672325Y-11060984D02*
X13691372Y-11051460D01*
X13691372Y-11051460D02*
X13700896Y-11041936D01*
X13700896Y-11041936D02*
X13719944Y-11013365D01*
X13719944Y-11013365D02*
X13729467Y-10975270D01*
X13729467Y-10975270D02*
X13729467Y-10899079D01*
X13729467Y-10899079D02*
X13719944Y-10880031D01*
X13719944Y-10880031D02*
X13710420Y-10870508D01*
X13710420Y-10870508D02*
X13691372Y-10860984D01*
X13691372Y-10860984D02*
X13653277Y-10860984D01*
X13653277Y-10860984D02*
X13634229Y-10870508D01*
X13634229Y-10870508D02*
X13624706Y-10880031D01*
X13624706Y-10880031D02*
X13615182Y-10899079D01*
X13615182Y-10899079D02*
X13615182Y-10946698D01*
X13615182Y-10946698D02*
X13624706Y-10965746D01*
X13624706Y-10965746D02*
X13634229Y-10975270D01*
X13634229Y-10975270D02*
X13653277Y-10984793D01*
X13653277Y-10984793D02*
X13691372Y-10984793D01*
X13691372Y-10984793D02*
X13710420Y-10975270D01*
X13710420Y-10975270D02*
X13719944Y-10965746D01*
X13719944Y-10965746D02*
X13729467Y-10946698D01*
X13900896Y-10927650D02*
X13900896Y-11060984D01*
X13853277Y-10851460D02*
X13805658Y-10994317D01*
X13805658Y-10994317D02*
X13929467Y-10994317D01*
X13996134Y-10860984D02*
X13996134Y-10899079D01*
X14072325Y-10860984D02*
X14072325Y-10899079D01*
X14367563Y-11137174D02*
X14358039Y-11127650D01*
X14358039Y-11127650D02*
X14338991Y-11099079D01*
X14338991Y-11099079D02*
X14329468Y-11080031D01*
X14329468Y-11080031D02*
X14319944Y-11051460D01*
X14319944Y-11051460D02*
X14310420Y-11003841D01*
X14310420Y-11003841D02*
X14310420Y-10965746D01*
X14310420Y-10965746D02*
X14319944Y-10918127D01*
X14319944Y-10918127D02*
X14329468Y-10889555D01*
X14329468Y-10889555D02*
X14338991Y-10870508D01*
X14338991Y-10870508D02*
X14358039Y-10841936D01*
X14358039Y-10841936D02*
X14367563Y-10832412D01*
X14548515Y-11060984D02*
X14434229Y-11060984D01*
X14491372Y-11060984D02*
X14491372Y-10860984D01*
X14491372Y-10860984D02*
X14472325Y-10889555D01*
X14472325Y-10889555D02*
X14453277Y-10908603D01*
X14453277Y-10908603D02*
X14434229Y-10918127D01*
X14615182Y-10860984D02*
X14738991Y-10860984D01*
X14738991Y-10860984D02*
X14672325Y-10937174D01*
X14672325Y-10937174D02*
X14700896Y-10937174D01*
X14700896Y-10937174D02*
X14719944Y-10946698D01*
X14719944Y-10946698D02*
X14729468Y-10956222D01*
X14729468Y-10956222D02*
X14738991Y-10975270D01*
X14738991Y-10975270D02*
X14738991Y-11022889D01*
X14738991Y-11022889D02*
X14729468Y-11041936D01*
X14729468Y-11041936D02*
X14719944Y-11051460D01*
X14719944Y-11051460D02*
X14700896Y-11060984D01*
X14700896Y-11060984D02*
X14643753Y-11060984D01*
X14643753Y-11060984D02*
X14624706Y-11051460D01*
X14624706Y-11051460D02*
X14615182Y-11041936D01*
X14977087Y-11060984D02*
X14977087Y-10860984D01*
X15062801Y-11060984D02*
X15062801Y-10956222D01*
X15062801Y-10956222D02*
X15053277Y-10937174D01*
X15053277Y-10937174D02*
X15034230Y-10927650D01*
X15034230Y-10927650D02*
X15005658Y-10927650D01*
X15005658Y-10927650D02*
X14986610Y-10937174D01*
X14986610Y-10937174D02*
X14977087Y-10946698D01*
X15186610Y-11060984D02*
X15167563Y-11051460D01*
X15167563Y-11051460D02*
X15158039Y-11041936D01*
X15158039Y-11041936D02*
X15148515Y-11022889D01*
X15148515Y-11022889D02*
X15148515Y-10965746D01*
X15148515Y-10965746D02*
X15158039Y-10946698D01*
X15158039Y-10946698D02*
X15167563Y-10937174D01*
X15167563Y-10937174D02*
X15186610Y-10927650D01*
X15186610Y-10927650D02*
X15215182Y-10927650D01*
X15215182Y-10927650D02*
X15234230Y-10937174D01*
X15234230Y-10937174D02*
X15243753Y-10946698D01*
X15243753Y-10946698D02*
X15253277Y-10965746D01*
X15253277Y-10965746D02*
X15253277Y-11022889D01*
X15253277Y-11022889D02*
X15243753Y-11041936D01*
X15243753Y-11041936D02*
X15234230Y-11051460D01*
X15234230Y-11051460D02*
X15215182Y-11060984D01*
X15215182Y-11060984D02*
X15186610Y-11060984D01*
X15367563Y-11060984D02*
X15348515Y-11051460D01*
X15348515Y-11051460D02*
X15338991Y-11032412D01*
X15338991Y-11032412D02*
X15338991Y-10860984D01*
X15519944Y-11051460D02*
X15500896Y-11060984D01*
X15500896Y-11060984D02*
X15462801Y-11060984D01*
X15462801Y-11060984D02*
X15443753Y-11051460D01*
X15443753Y-11051460D02*
X15434230Y-11032412D01*
X15434230Y-11032412D02*
X15434230Y-10956222D01*
X15434230Y-10956222D02*
X15443753Y-10937174D01*
X15443753Y-10937174D02*
X15462801Y-10927650D01*
X15462801Y-10927650D02*
X15500896Y-10927650D01*
X15500896Y-10927650D02*
X15519944Y-10937174D01*
X15519944Y-10937174D02*
X15529468Y-10956222D01*
X15529468Y-10956222D02*
X15529468Y-10975270D01*
X15529468Y-10975270D02*
X15434230Y-10994317D01*
X15605658Y-11051460D02*
X15624706Y-11060984D01*
X15624706Y-11060984D02*
X15662801Y-11060984D01*
X15662801Y-11060984D02*
X15681849Y-11051460D01*
X15681849Y-11051460D02*
X15691372Y-11032412D01*
X15691372Y-11032412D02*
X15691372Y-11022889D01*
X15691372Y-11022889D02*
X15681849Y-11003841D01*
X15681849Y-11003841D02*
X15662801Y-10994317D01*
X15662801Y-10994317D02*
X15634230Y-10994317D01*
X15634230Y-10994317D02*
X15615182Y-10984793D01*
X15615182Y-10984793D02*
X15605658Y-10965746D01*
X15605658Y-10965746D02*
X15605658Y-10956222D01*
X15605658Y-10956222D02*
X15615182Y-10937174D01*
X15615182Y-10937174D02*
X15634230Y-10927650D01*
X15634230Y-10927650D02*
X15662801Y-10927650D01*
X15662801Y-10927650D02*
X15681849Y-10937174D01*
X15758039Y-11137174D02*
X15767563Y-11127650D01*
X15767563Y-11127650D02*
X15786611Y-11099079D01*
X15786611Y-11099079D02*
X15796134Y-11080031D01*
X15796134Y-11080031D02*
X15805658Y-11051460D01*
X15805658Y-11051460D02*
X15815182Y-11003841D01*
X15815182Y-11003841D02*
X15815182Y-10965746D01*
X15815182Y-10965746D02*
X15805658Y-10918127D01*
X15805658Y-10918127D02*
X15796134Y-10889555D01*
X15796134Y-10889555D02*
X15786611Y-10870508D01*
X15786611Y-10870508D02*
X15767563Y-10841936D01*
X15767563Y-10841936D02*
X15758039Y-10832412D01*
D13*
X10662500Y-11168500D02*
X10792500Y-11298500D01*
X10792500Y-11168500D02*
X10662500Y-11298500D01*
X10792500Y-11233500D02*
G75*
G02*
X10662500Y-11233500I-65000J0D01*
G01*
X10662500Y-11233500D02*
G75*
G02*
X10792500Y-11233500I65000J0D01*
G01*
D11*
X11158039Y-11324984D02*
X11043753Y-11324984D01*
X11100896Y-11324984D02*
X11100896Y-11124984D01*
X11100896Y-11124984D02*
X11081848Y-11153555D01*
X11081848Y-11153555D02*
X11062801Y-11172603D01*
X11062801Y-11172603D02*
X11043753Y-11182127D01*
X11243753Y-11305936D02*
X11253277Y-11315460D01*
X11253277Y-11315460D02*
X11243753Y-11324984D01*
X11243753Y-11324984D02*
X11234229Y-11315460D01*
X11234229Y-11315460D02*
X11243753Y-11305936D01*
X11243753Y-11305936D02*
X11243753Y-11324984D01*
X11319943Y-11124984D02*
X11443753Y-11124984D01*
X11443753Y-11124984D02*
X11377086Y-11201174D01*
X11377086Y-11201174D02*
X11405658Y-11201174D01*
X11405658Y-11201174D02*
X11424705Y-11210698D01*
X11424705Y-11210698D02*
X11434229Y-11220222D01*
X11434229Y-11220222D02*
X11443753Y-11239269D01*
X11443753Y-11239269D02*
X11443753Y-11286888D01*
X11443753Y-11286888D02*
X11434229Y-11305936D01*
X11434229Y-11305936D02*
X11424705Y-11315460D01*
X11424705Y-11315460D02*
X11405658Y-11324984D01*
X11405658Y-11324984D02*
X11348515Y-11324984D01*
X11348515Y-11324984D02*
X11329467Y-11315460D01*
X11329467Y-11315460D02*
X11319943Y-11305936D01*
X11567562Y-11124984D02*
X11586610Y-11124984D01*
X11586610Y-11124984D02*
X11605658Y-11134508D01*
X11605658Y-11134508D02*
X11615182Y-11144031D01*
X11615182Y-11144031D02*
X11624705Y-11163079D01*
X11624705Y-11163079D02*
X11634229Y-11201174D01*
X11634229Y-11201174D02*
X11634229Y-11248793D01*
X11634229Y-11248793D02*
X11624705Y-11286888D01*
X11624705Y-11286888D02*
X11615182Y-11305936D01*
X11615182Y-11305936D02*
X11605658Y-11315460D01*
X11605658Y-11315460D02*
X11586610Y-11324984D01*
X11586610Y-11324984D02*
X11567562Y-11324984D01*
X11567562Y-11324984D02*
X11548515Y-11315460D01*
X11548515Y-11315460D02*
X11538991Y-11305936D01*
X11538991Y-11305936D02*
X11529467Y-11286888D01*
X11529467Y-11286888D02*
X11519943Y-11248793D01*
X11519943Y-11248793D02*
X11519943Y-11201174D01*
X11519943Y-11201174D02*
X11529467Y-11163079D01*
X11529467Y-11163079D02*
X11538991Y-11144031D01*
X11538991Y-11144031D02*
X11548515Y-11134508D01*
X11548515Y-11134508D02*
X11567562Y-11124984D01*
X11758039Y-11124984D02*
X11777086Y-11124984D01*
X11777086Y-11124984D02*
X11796134Y-11134508D01*
X11796134Y-11134508D02*
X11805658Y-11144031D01*
X11805658Y-11144031D02*
X11815182Y-11163079D01*
X11815182Y-11163079D02*
X11824705Y-11201174D01*
X11824705Y-11201174D02*
X11824705Y-11248793D01*
X11824705Y-11248793D02*
X11815182Y-11286888D01*
X11815182Y-11286888D02*
X11805658Y-11305936D01*
X11805658Y-11305936D02*
X11796134Y-11315460D01*
X11796134Y-11315460D02*
X11777086Y-11324984D01*
X11777086Y-11324984D02*
X11758039Y-11324984D01*
X11758039Y-11324984D02*
X11738991Y-11315460D01*
X11738991Y-11315460D02*
X11729467Y-11305936D01*
X11729467Y-11305936D02*
X11719943Y-11286888D01*
X11719943Y-11286888D02*
X11710420Y-11248793D01*
X11710420Y-11248793D02*
X11710420Y-11201174D01*
X11710420Y-11201174D02*
X11719943Y-11163079D01*
X11719943Y-11163079D02*
X11729467Y-11144031D01*
X11729467Y-11144031D02*
X11738991Y-11134508D01*
X11738991Y-11134508D02*
X11758039Y-11124984D01*
X11910420Y-11324984D02*
X11910420Y-11191650D01*
X11910420Y-11210698D02*
X11919943Y-11201174D01*
X11919943Y-11201174D02*
X11938991Y-11191650D01*
X11938991Y-11191650D02*
X11967563Y-11191650D01*
X11967563Y-11191650D02*
X11986610Y-11201174D01*
X11986610Y-11201174D02*
X11996134Y-11220222D01*
X11996134Y-11220222D02*
X11996134Y-11324984D01*
X11996134Y-11220222D02*
X12005658Y-11201174D01*
X12005658Y-11201174D02*
X12024705Y-11191650D01*
X12024705Y-11191650D02*
X12053277Y-11191650D01*
X12053277Y-11191650D02*
X12072324Y-11201174D01*
X12072324Y-11201174D02*
X12081848Y-11220222D01*
X12081848Y-11220222D02*
X12081848Y-11324984D01*
X12177086Y-11324984D02*
X12177086Y-11191650D01*
X12177086Y-11210698D02*
X12186610Y-11201174D01*
X12186610Y-11201174D02*
X12205658Y-11191650D01*
X12205658Y-11191650D02*
X12234229Y-11191650D01*
X12234229Y-11191650D02*
X12253277Y-11201174D01*
X12253277Y-11201174D02*
X12262801Y-11220222D01*
X12262801Y-11220222D02*
X12262801Y-11324984D01*
X12262801Y-11220222D02*
X12272324Y-11201174D01*
X12272324Y-11201174D02*
X12291372Y-11191650D01*
X12291372Y-11191650D02*
X12319943Y-11191650D01*
X12319943Y-11191650D02*
X12338991Y-11201174D01*
X12338991Y-11201174D02*
X12348515Y-11220222D01*
X12348515Y-11220222D02*
X12348515Y-11324984D01*
X12738991Y-11115460D02*
X12567563Y-11372603D01*
X12996134Y-11124984D02*
X13015182Y-11124984D01*
X13015182Y-11124984D02*
X13034229Y-11134508D01*
X13034229Y-11134508D02*
X13043753Y-11144031D01*
X13043753Y-11144031D02*
X13053277Y-11163079D01*
X13053277Y-11163079D02*
X13062801Y-11201174D01*
X13062801Y-11201174D02*
X13062801Y-11248793D01*
X13062801Y-11248793D02*
X13053277Y-11286888D01*
X13053277Y-11286888D02*
X13043753Y-11305936D01*
X13043753Y-11305936D02*
X13034229Y-11315460D01*
X13034229Y-11315460D02*
X13015182Y-11324984D01*
X13015182Y-11324984D02*
X12996134Y-11324984D01*
X12996134Y-11324984D02*
X12977086Y-11315460D01*
X12977086Y-11315460D02*
X12967563Y-11305936D01*
X12967563Y-11305936D02*
X12958039Y-11286888D01*
X12958039Y-11286888D02*
X12948515Y-11248793D01*
X12948515Y-11248793D02*
X12948515Y-11201174D01*
X12948515Y-11201174D02*
X12958039Y-11163079D01*
X12958039Y-11163079D02*
X12967563Y-11144031D01*
X12967563Y-11144031D02*
X12977086Y-11134508D01*
X12977086Y-11134508D02*
X12996134Y-11124984D01*
X13148515Y-11305936D02*
X13158039Y-11315460D01*
X13158039Y-11315460D02*
X13148515Y-11324984D01*
X13148515Y-11324984D02*
X13138991Y-11315460D01*
X13138991Y-11315460D02*
X13148515Y-11305936D01*
X13148515Y-11305936D02*
X13148515Y-11324984D01*
X13281848Y-11124984D02*
X13300896Y-11124984D01*
X13300896Y-11124984D02*
X13319944Y-11134508D01*
X13319944Y-11134508D02*
X13329467Y-11144031D01*
X13329467Y-11144031D02*
X13338991Y-11163079D01*
X13338991Y-11163079D02*
X13348515Y-11201174D01*
X13348515Y-11201174D02*
X13348515Y-11248793D01*
X13348515Y-11248793D02*
X13338991Y-11286888D01*
X13338991Y-11286888D02*
X13329467Y-11305936D01*
X13329467Y-11305936D02*
X13319944Y-11315460D01*
X13319944Y-11315460D02*
X13300896Y-11324984D01*
X13300896Y-11324984D02*
X13281848Y-11324984D01*
X13281848Y-11324984D02*
X13262801Y-11315460D01*
X13262801Y-11315460D02*
X13253277Y-11305936D01*
X13253277Y-11305936D02*
X13243753Y-11286888D01*
X13243753Y-11286888D02*
X13234229Y-11248793D01*
X13234229Y-11248793D02*
X13234229Y-11201174D01*
X13234229Y-11201174D02*
X13243753Y-11163079D01*
X13243753Y-11163079D02*
X13253277Y-11144031D01*
X13253277Y-11144031D02*
X13262801Y-11134508D01*
X13262801Y-11134508D02*
X13281848Y-11124984D01*
X13529467Y-11124984D02*
X13434229Y-11124984D01*
X13434229Y-11124984D02*
X13424706Y-11220222D01*
X13424706Y-11220222D02*
X13434229Y-11210698D01*
X13434229Y-11210698D02*
X13453277Y-11201174D01*
X13453277Y-11201174D02*
X13500896Y-11201174D01*
X13500896Y-11201174D02*
X13519944Y-11210698D01*
X13519944Y-11210698D02*
X13529467Y-11220222D01*
X13529467Y-11220222D02*
X13538991Y-11239269D01*
X13538991Y-11239269D02*
X13538991Y-11286888D01*
X13538991Y-11286888D02*
X13529467Y-11305936D01*
X13529467Y-11305936D02*
X13519944Y-11315460D01*
X13519944Y-11315460D02*
X13500896Y-11324984D01*
X13500896Y-11324984D02*
X13453277Y-11324984D01*
X13453277Y-11324984D02*
X13434229Y-11315460D01*
X13434229Y-11315460D02*
X13424706Y-11305936D01*
X13729467Y-11324984D02*
X13615182Y-11324984D01*
X13672325Y-11324984D02*
X13672325Y-11124984D01*
X13672325Y-11124984D02*
X13653277Y-11153555D01*
X13653277Y-11153555D02*
X13634229Y-11172603D01*
X13634229Y-11172603D02*
X13615182Y-11182127D01*
X13805658Y-11144031D02*
X13815182Y-11134508D01*
X13815182Y-11134508D02*
X13834229Y-11124984D01*
X13834229Y-11124984D02*
X13881848Y-11124984D01*
X13881848Y-11124984D02*
X13900896Y-11134508D01*
X13900896Y-11134508D02*
X13910420Y-11144031D01*
X13910420Y-11144031D02*
X13919944Y-11163079D01*
X13919944Y-11163079D02*
X13919944Y-11182127D01*
X13919944Y-11182127D02*
X13910420Y-11210698D01*
X13910420Y-11210698D02*
X13796134Y-11324984D01*
X13796134Y-11324984D02*
X13919944Y-11324984D01*
X13996134Y-11124984D02*
X13996134Y-11163079D01*
X14072325Y-11124984D02*
X14072325Y-11163079D01*
X14367563Y-11401174D02*
X14358039Y-11391650D01*
X14358039Y-11391650D02*
X14338991Y-11363079D01*
X14338991Y-11363079D02*
X14329468Y-11344031D01*
X14329468Y-11344031D02*
X14319944Y-11315460D01*
X14319944Y-11315460D02*
X14310420Y-11267841D01*
X14310420Y-11267841D02*
X14310420Y-11229746D01*
X14310420Y-11229746D02*
X14319944Y-11182127D01*
X14319944Y-11182127D02*
X14329468Y-11153555D01*
X14329468Y-11153555D02*
X14338991Y-11134508D01*
X14338991Y-11134508D02*
X14358039Y-11105936D01*
X14358039Y-11105936D02*
X14367563Y-11096412D01*
X14453277Y-11324984D02*
X14491372Y-11324984D01*
X14491372Y-11324984D02*
X14510420Y-11315460D01*
X14510420Y-11315460D02*
X14519944Y-11305936D01*
X14519944Y-11305936D02*
X14538991Y-11277365D01*
X14538991Y-11277365D02*
X14548515Y-11239269D01*
X14548515Y-11239269D02*
X14548515Y-11163079D01*
X14548515Y-11163079D02*
X14538991Y-11144031D01*
X14538991Y-11144031D02*
X14529468Y-11134508D01*
X14529468Y-11134508D02*
X14510420Y-11124984D01*
X14510420Y-11124984D02*
X14472325Y-11124984D01*
X14472325Y-11124984D02*
X14453277Y-11134508D01*
X14453277Y-11134508D02*
X14443753Y-11144031D01*
X14443753Y-11144031D02*
X14434229Y-11163079D01*
X14434229Y-11163079D02*
X14434229Y-11210698D01*
X14434229Y-11210698D02*
X14443753Y-11229746D01*
X14443753Y-11229746D02*
X14453277Y-11239269D01*
X14453277Y-11239269D02*
X14472325Y-11248793D01*
X14472325Y-11248793D02*
X14510420Y-11248793D01*
X14510420Y-11248793D02*
X14529468Y-11239269D01*
X14529468Y-11239269D02*
X14538991Y-11229746D01*
X14538991Y-11229746D02*
X14548515Y-11210698D01*
X14786610Y-11324984D02*
X14786610Y-11124984D01*
X14872325Y-11324984D02*
X14872325Y-11220222D01*
X14872325Y-11220222D02*
X14862801Y-11201174D01*
X14862801Y-11201174D02*
X14843753Y-11191650D01*
X14843753Y-11191650D02*
X14815182Y-11191650D01*
X14815182Y-11191650D02*
X14796134Y-11201174D01*
X14796134Y-11201174D02*
X14786610Y-11210698D01*
X14996134Y-11324984D02*
X14977087Y-11315460D01*
X14977087Y-11315460D02*
X14967563Y-11305936D01*
X14967563Y-11305936D02*
X14958039Y-11286888D01*
X14958039Y-11286888D02*
X14958039Y-11229746D01*
X14958039Y-11229746D02*
X14967563Y-11210698D01*
X14967563Y-11210698D02*
X14977087Y-11201174D01*
X14977087Y-11201174D02*
X14996134Y-11191650D01*
X14996134Y-11191650D02*
X15024706Y-11191650D01*
X15024706Y-11191650D02*
X15043753Y-11201174D01*
X15043753Y-11201174D02*
X15053277Y-11210698D01*
X15053277Y-11210698D02*
X15062801Y-11229746D01*
X15062801Y-11229746D02*
X15062801Y-11286888D01*
X15062801Y-11286888D02*
X15053277Y-11305936D01*
X15053277Y-11305936D02*
X15043753Y-11315460D01*
X15043753Y-11315460D02*
X15024706Y-11324984D01*
X15024706Y-11324984D02*
X14996134Y-11324984D01*
X15177087Y-11324984D02*
X15158039Y-11315460D01*
X15158039Y-11315460D02*
X15148515Y-11296412D01*
X15148515Y-11296412D02*
X15148515Y-11124984D01*
X15329468Y-11315460D02*
X15310420Y-11324984D01*
X15310420Y-11324984D02*
X15272325Y-11324984D01*
X15272325Y-11324984D02*
X15253277Y-11315460D01*
X15253277Y-11315460D02*
X15243753Y-11296412D01*
X15243753Y-11296412D02*
X15243753Y-11220222D01*
X15243753Y-11220222D02*
X15253277Y-11201174D01*
X15253277Y-11201174D02*
X15272325Y-11191650D01*
X15272325Y-11191650D02*
X15310420Y-11191650D01*
X15310420Y-11191650D02*
X15329468Y-11201174D01*
X15329468Y-11201174D02*
X15338991Y-11220222D01*
X15338991Y-11220222D02*
X15338991Y-11239269D01*
X15338991Y-11239269D02*
X15243753Y-11258317D01*
X15415182Y-11315460D02*
X15434230Y-11324984D01*
X15434230Y-11324984D02*
X15472325Y-11324984D01*
X15472325Y-11324984D02*
X15491372Y-11315460D01*
X15491372Y-11315460D02*
X15500896Y-11296412D01*
X15500896Y-11296412D02*
X15500896Y-11286888D01*
X15500896Y-11286888D02*
X15491372Y-11267841D01*
X15491372Y-11267841D02*
X15472325Y-11258317D01*
X15472325Y-11258317D02*
X15443753Y-11258317D01*
X15443753Y-11258317D02*
X15424706Y-11248793D01*
X15424706Y-11248793D02*
X15415182Y-11229746D01*
X15415182Y-11229746D02*
X15415182Y-11220222D01*
X15415182Y-11220222D02*
X15424706Y-11201174D01*
X15424706Y-11201174D02*
X15443753Y-11191650D01*
X15443753Y-11191650D02*
X15472325Y-11191650D01*
X15472325Y-11191650D02*
X15491372Y-11201174D01*
X15567563Y-11401174D02*
X15577087Y-11391650D01*
X15577087Y-11391650D02*
X15596134Y-11363079D01*
X15596134Y-11363079D02*
X15605658Y-11344031D01*
X15605658Y-11344031D02*
X15615182Y-11315460D01*
X15615182Y-11315460D02*
X15624706Y-11267841D01*
X15624706Y-11267841D02*
X15624706Y-11229746D01*
X15624706Y-11229746D02*
X15615182Y-11182127D01*
X15615182Y-11182127D02*
X15605658Y-11153555D01*
X15605658Y-11153555D02*
X15596134Y-11134508D01*
X15596134Y-11134508D02*
X15577087Y-11105936D01*
X15577087Y-11105936D02*
X15567563Y-11096412D01*
D14*
X10642500Y-11422500D02*
X10792500Y-11572500D01*
X10792500Y-11422500D02*
X10642500Y-11572500D01*
X10717500Y-11422500D02*
X10717500Y-11572500D01*
X10642500Y-11497500D02*
X10792500Y-11497500D01*
D11*
X11158039Y-11588984D02*
X11043753Y-11588984D01*
X11100896Y-11588984D02*
X11100896Y-11388984D01*
X11100896Y-11388984D02*
X11081848Y-11417555D01*
X11081848Y-11417555D02*
X11062801Y-11436603D01*
X11062801Y-11436603D02*
X11043753Y-11446127D01*
X11243753Y-11569936D02*
X11253277Y-11579460D01*
X11253277Y-11579460D02*
X11243753Y-11588984D01*
X11243753Y-11588984D02*
X11234229Y-11579460D01*
X11234229Y-11579460D02*
X11243753Y-11569936D01*
X11243753Y-11569936D02*
X11243753Y-11588984D01*
X11434229Y-11388984D02*
X11338991Y-11388984D01*
X11338991Y-11388984D02*
X11329467Y-11484222D01*
X11329467Y-11484222D02*
X11338991Y-11474698D01*
X11338991Y-11474698D02*
X11358039Y-11465174D01*
X11358039Y-11465174D02*
X11405658Y-11465174D01*
X11405658Y-11465174D02*
X11424705Y-11474698D01*
X11424705Y-11474698D02*
X11434229Y-11484222D01*
X11434229Y-11484222D02*
X11443753Y-11503269D01*
X11443753Y-11503269D02*
X11443753Y-11550888D01*
X11443753Y-11550888D02*
X11434229Y-11569936D01*
X11434229Y-11569936D02*
X11424705Y-11579460D01*
X11424705Y-11579460D02*
X11405658Y-11588984D01*
X11405658Y-11588984D02*
X11358039Y-11588984D01*
X11358039Y-11588984D02*
X11338991Y-11579460D01*
X11338991Y-11579460D02*
X11329467Y-11569936D01*
X11567562Y-11388984D02*
X11586610Y-11388984D01*
X11586610Y-11388984D02*
X11605658Y-11398508D01*
X11605658Y-11398508D02*
X11615182Y-11408031D01*
X11615182Y-11408031D02*
X11624705Y-11427079D01*
X11624705Y-11427079D02*
X11634229Y-11465174D01*
X11634229Y-11465174D02*
X11634229Y-11512793D01*
X11634229Y-11512793D02*
X11624705Y-11550888D01*
X11624705Y-11550888D02*
X11615182Y-11569936D01*
X11615182Y-11569936D02*
X11605658Y-11579460D01*
X11605658Y-11579460D02*
X11586610Y-11588984D01*
X11586610Y-11588984D02*
X11567562Y-11588984D01*
X11567562Y-11588984D02*
X11548515Y-11579460D01*
X11548515Y-11579460D02*
X11538991Y-11569936D01*
X11538991Y-11569936D02*
X11529467Y-11550888D01*
X11529467Y-11550888D02*
X11519943Y-11512793D01*
X11519943Y-11512793D02*
X11519943Y-11465174D01*
X11519943Y-11465174D02*
X11529467Y-11427079D01*
X11529467Y-11427079D02*
X11538991Y-11408031D01*
X11538991Y-11408031D02*
X11548515Y-11398508D01*
X11548515Y-11398508D02*
X11567562Y-11388984D01*
X11758039Y-11388984D02*
X11777086Y-11388984D01*
X11777086Y-11388984D02*
X11796134Y-11398508D01*
X11796134Y-11398508D02*
X11805658Y-11408031D01*
X11805658Y-11408031D02*
X11815182Y-11427079D01*
X11815182Y-11427079D02*
X11824705Y-11465174D01*
X11824705Y-11465174D02*
X11824705Y-11512793D01*
X11824705Y-11512793D02*
X11815182Y-11550888D01*
X11815182Y-11550888D02*
X11805658Y-11569936D01*
X11805658Y-11569936D02*
X11796134Y-11579460D01*
X11796134Y-11579460D02*
X11777086Y-11588984D01*
X11777086Y-11588984D02*
X11758039Y-11588984D01*
X11758039Y-11588984D02*
X11738991Y-11579460D01*
X11738991Y-11579460D02*
X11729467Y-11569936D01*
X11729467Y-11569936D02*
X11719943Y-11550888D01*
X11719943Y-11550888D02*
X11710420Y-11512793D01*
X11710420Y-11512793D02*
X11710420Y-11465174D01*
X11710420Y-11465174D02*
X11719943Y-11427079D01*
X11719943Y-11427079D02*
X11729467Y-11408031D01*
X11729467Y-11408031D02*
X11738991Y-11398508D01*
X11738991Y-11398508D02*
X11758039Y-11388984D01*
X11910420Y-11588984D02*
X11910420Y-11455650D01*
X11910420Y-11474698D02*
X11919943Y-11465174D01*
X11919943Y-11465174D02*
X11938991Y-11455650D01*
X11938991Y-11455650D02*
X11967563Y-11455650D01*
X11967563Y-11455650D02*
X11986610Y-11465174D01*
X11986610Y-11465174D02*
X11996134Y-11484222D01*
X11996134Y-11484222D02*
X11996134Y-11588984D01*
X11996134Y-11484222D02*
X12005658Y-11465174D01*
X12005658Y-11465174D02*
X12024705Y-11455650D01*
X12024705Y-11455650D02*
X12053277Y-11455650D01*
X12053277Y-11455650D02*
X12072324Y-11465174D01*
X12072324Y-11465174D02*
X12081848Y-11484222D01*
X12081848Y-11484222D02*
X12081848Y-11588984D01*
X12177086Y-11588984D02*
X12177086Y-11455650D01*
X12177086Y-11474698D02*
X12186610Y-11465174D01*
X12186610Y-11465174D02*
X12205658Y-11455650D01*
X12205658Y-11455650D02*
X12234229Y-11455650D01*
X12234229Y-11455650D02*
X12253277Y-11465174D01*
X12253277Y-11465174D02*
X12262801Y-11484222D01*
X12262801Y-11484222D02*
X12262801Y-11588984D01*
X12262801Y-11484222D02*
X12272324Y-11465174D01*
X12272324Y-11465174D02*
X12291372Y-11455650D01*
X12291372Y-11455650D02*
X12319943Y-11455650D01*
X12319943Y-11455650D02*
X12338991Y-11465174D01*
X12338991Y-11465174D02*
X12348515Y-11484222D01*
X12348515Y-11484222D02*
X12348515Y-11588984D01*
X12738991Y-11379460D02*
X12567563Y-11636603D01*
X12996134Y-11388984D02*
X13015182Y-11388984D01*
X13015182Y-11388984D02*
X13034229Y-11398508D01*
X13034229Y-11398508D02*
X13043753Y-11408031D01*
X13043753Y-11408031D02*
X13053277Y-11427079D01*
X13053277Y-11427079D02*
X13062801Y-11465174D01*
X13062801Y-11465174D02*
X13062801Y-11512793D01*
X13062801Y-11512793D02*
X13053277Y-11550888D01*
X13053277Y-11550888D02*
X13043753Y-11569936D01*
X13043753Y-11569936D02*
X13034229Y-11579460D01*
X13034229Y-11579460D02*
X13015182Y-11588984D01*
X13015182Y-11588984D02*
X12996134Y-11588984D01*
X12996134Y-11588984D02*
X12977086Y-11579460D01*
X12977086Y-11579460D02*
X12967563Y-11569936D01*
X12967563Y-11569936D02*
X12958039Y-11550888D01*
X12958039Y-11550888D02*
X12948515Y-11512793D01*
X12948515Y-11512793D02*
X12948515Y-11465174D01*
X12948515Y-11465174D02*
X12958039Y-11427079D01*
X12958039Y-11427079D02*
X12967563Y-11408031D01*
X12967563Y-11408031D02*
X12977086Y-11398508D01*
X12977086Y-11398508D02*
X12996134Y-11388984D01*
X13148515Y-11569936D02*
X13158039Y-11579460D01*
X13158039Y-11579460D02*
X13148515Y-11588984D01*
X13148515Y-11588984D02*
X13138991Y-11579460D01*
X13138991Y-11579460D02*
X13148515Y-11569936D01*
X13148515Y-11569936D02*
X13148515Y-11588984D01*
X13281848Y-11388984D02*
X13300896Y-11388984D01*
X13300896Y-11388984D02*
X13319944Y-11398508D01*
X13319944Y-11398508D02*
X13329467Y-11408031D01*
X13329467Y-11408031D02*
X13338991Y-11427079D01*
X13338991Y-11427079D02*
X13348515Y-11465174D01*
X13348515Y-11465174D02*
X13348515Y-11512793D01*
X13348515Y-11512793D02*
X13338991Y-11550888D01*
X13338991Y-11550888D02*
X13329467Y-11569936D01*
X13329467Y-11569936D02*
X13319944Y-11579460D01*
X13319944Y-11579460D02*
X13300896Y-11588984D01*
X13300896Y-11588984D02*
X13281848Y-11588984D01*
X13281848Y-11588984D02*
X13262801Y-11579460D01*
X13262801Y-11579460D02*
X13253277Y-11569936D01*
X13253277Y-11569936D02*
X13243753Y-11550888D01*
X13243753Y-11550888D02*
X13234229Y-11512793D01*
X13234229Y-11512793D02*
X13234229Y-11465174D01*
X13234229Y-11465174D02*
X13243753Y-11427079D01*
X13243753Y-11427079D02*
X13253277Y-11408031D01*
X13253277Y-11408031D02*
X13262801Y-11398508D01*
X13262801Y-11398508D02*
X13281848Y-11388984D01*
X13529467Y-11388984D02*
X13434229Y-11388984D01*
X13434229Y-11388984D02*
X13424706Y-11484222D01*
X13424706Y-11484222D02*
X13434229Y-11474698D01*
X13434229Y-11474698D02*
X13453277Y-11465174D01*
X13453277Y-11465174D02*
X13500896Y-11465174D01*
X13500896Y-11465174D02*
X13519944Y-11474698D01*
X13519944Y-11474698D02*
X13529467Y-11484222D01*
X13529467Y-11484222D02*
X13538991Y-11503269D01*
X13538991Y-11503269D02*
X13538991Y-11550888D01*
X13538991Y-11550888D02*
X13529467Y-11569936D01*
X13529467Y-11569936D02*
X13519944Y-11579460D01*
X13519944Y-11579460D02*
X13500896Y-11588984D01*
X13500896Y-11588984D02*
X13453277Y-11588984D01*
X13453277Y-11588984D02*
X13434229Y-11579460D01*
X13434229Y-11579460D02*
X13424706Y-11569936D01*
X13634229Y-11588984D02*
X13672325Y-11588984D01*
X13672325Y-11588984D02*
X13691372Y-11579460D01*
X13691372Y-11579460D02*
X13700896Y-11569936D01*
X13700896Y-11569936D02*
X13719944Y-11541365D01*
X13719944Y-11541365D02*
X13729467Y-11503269D01*
X13729467Y-11503269D02*
X13729467Y-11427079D01*
X13729467Y-11427079D02*
X13719944Y-11408031D01*
X13719944Y-11408031D02*
X13710420Y-11398508D01*
X13710420Y-11398508D02*
X13691372Y-11388984D01*
X13691372Y-11388984D02*
X13653277Y-11388984D01*
X13653277Y-11388984D02*
X13634229Y-11398508D01*
X13634229Y-11398508D02*
X13624706Y-11408031D01*
X13624706Y-11408031D02*
X13615182Y-11427079D01*
X13615182Y-11427079D02*
X13615182Y-11474698D01*
X13615182Y-11474698D02*
X13624706Y-11493746D01*
X13624706Y-11493746D02*
X13634229Y-11503269D01*
X13634229Y-11503269D02*
X13653277Y-11512793D01*
X13653277Y-11512793D02*
X13691372Y-11512793D01*
X13691372Y-11512793D02*
X13710420Y-11503269D01*
X13710420Y-11503269D02*
X13719944Y-11493746D01*
X13719944Y-11493746D02*
X13729467Y-11474698D01*
X13919944Y-11588984D02*
X13805658Y-11588984D01*
X13862801Y-11588984D02*
X13862801Y-11388984D01*
X13862801Y-11388984D02*
X13843753Y-11417555D01*
X13843753Y-11417555D02*
X13824706Y-11436603D01*
X13824706Y-11436603D02*
X13805658Y-11446127D01*
X13996134Y-11388984D02*
X13996134Y-11427079D01*
X14072325Y-11388984D02*
X14072325Y-11427079D01*
X14367563Y-11665174D02*
X14358039Y-11655650D01*
X14358039Y-11655650D02*
X14338991Y-11627079D01*
X14338991Y-11627079D02*
X14329468Y-11608031D01*
X14329468Y-11608031D02*
X14319944Y-11579460D01*
X14319944Y-11579460D02*
X14310420Y-11531841D01*
X14310420Y-11531841D02*
X14310420Y-11493746D01*
X14310420Y-11493746D02*
X14319944Y-11446127D01*
X14319944Y-11446127D02*
X14329468Y-11417555D01*
X14329468Y-11417555D02*
X14338991Y-11398508D01*
X14338991Y-11398508D02*
X14358039Y-11369936D01*
X14358039Y-11369936D02*
X14367563Y-11360412D01*
X14529468Y-11455650D02*
X14529468Y-11588984D01*
X14481848Y-11379460D02*
X14434229Y-11522317D01*
X14434229Y-11522317D02*
X14558039Y-11522317D01*
X14786610Y-11588984D02*
X14786610Y-11388984D01*
X14872325Y-11588984D02*
X14872325Y-11484222D01*
X14872325Y-11484222D02*
X14862801Y-11465174D01*
X14862801Y-11465174D02*
X14843753Y-11455650D01*
X14843753Y-11455650D02*
X14815182Y-11455650D01*
X14815182Y-11455650D02*
X14796134Y-11465174D01*
X14796134Y-11465174D02*
X14786610Y-11474698D01*
X14996134Y-11588984D02*
X14977087Y-11579460D01*
X14977087Y-11579460D02*
X14967563Y-11569936D01*
X14967563Y-11569936D02*
X14958039Y-11550888D01*
X14958039Y-11550888D02*
X14958039Y-11493746D01*
X14958039Y-11493746D02*
X14967563Y-11474698D01*
X14967563Y-11474698D02*
X14977087Y-11465174D01*
X14977087Y-11465174D02*
X14996134Y-11455650D01*
X14996134Y-11455650D02*
X15024706Y-11455650D01*
X15024706Y-11455650D02*
X15043753Y-11465174D01*
X15043753Y-11465174D02*
X15053277Y-11474698D01*
X15053277Y-11474698D02*
X15062801Y-11493746D01*
X15062801Y-11493746D02*
X15062801Y-11550888D01*
X15062801Y-11550888D02*
X15053277Y-11569936D01*
X15053277Y-11569936D02*
X15043753Y-11579460D01*
X15043753Y-11579460D02*
X15024706Y-11588984D01*
X15024706Y-11588984D02*
X14996134Y-11588984D01*
X15177087Y-11588984D02*
X15158039Y-11579460D01*
X15158039Y-11579460D02*
X15148515Y-11560412D01*
X15148515Y-11560412D02*
X15148515Y-11388984D01*
X15329468Y-11579460D02*
X15310420Y-11588984D01*
X15310420Y-11588984D02*
X15272325Y-11588984D01*
X15272325Y-11588984D02*
X15253277Y-11579460D01*
X15253277Y-11579460D02*
X15243753Y-11560412D01*
X15243753Y-11560412D02*
X15243753Y-11484222D01*
X15243753Y-11484222D02*
X15253277Y-11465174D01*
X15253277Y-11465174D02*
X15272325Y-11455650D01*
X15272325Y-11455650D02*
X15310420Y-11455650D01*
X15310420Y-11455650D02*
X15329468Y-11465174D01*
X15329468Y-11465174D02*
X15338991Y-11484222D01*
X15338991Y-11484222D02*
X15338991Y-11503269D01*
X15338991Y-11503269D02*
X15243753Y-11522317D01*
X15415182Y-11579460D02*
X15434230Y-11588984D01*
X15434230Y-11588984D02*
X15472325Y-11588984D01*
X15472325Y-11588984D02*
X15491372Y-11579460D01*
X15491372Y-11579460D02*
X15500896Y-11560412D01*
X15500896Y-11560412D02*
X15500896Y-11550888D01*
X15500896Y-11550888D02*
X15491372Y-11531841D01*
X15491372Y-11531841D02*
X15472325Y-11522317D01*
X15472325Y-11522317D02*
X15443753Y-11522317D01*
X15443753Y-11522317D02*
X15424706Y-11512793D01*
X15424706Y-11512793D02*
X15415182Y-11493746D01*
X15415182Y-11493746D02*
X15415182Y-11484222D01*
X15415182Y-11484222D02*
X15424706Y-11465174D01*
X15424706Y-11465174D02*
X15443753Y-11455650D01*
X15443753Y-11455650D02*
X15472325Y-11455650D01*
X15472325Y-11455650D02*
X15491372Y-11465174D01*
X15567563Y-11665174D02*
X15577087Y-11655650D01*
X15577087Y-11655650D02*
X15596134Y-11627079D01*
X15596134Y-11627079D02*
X15605658Y-11608031D01*
X15605658Y-11608031D02*
X15615182Y-11579460D01*
X15615182Y-11579460D02*
X15624706Y-11531841D01*
X15624706Y-11531841D02*
X15624706Y-11493746D01*
X15624706Y-11493746D02*
X15615182Y-11446127D01*
X15615182Y-11446127D02*
X15605658Y-11417555D01*
X15605658Y-11417555D02*
X15596134Y-11398508D01*
X15596134Y-11398508D02*
X15577087Y-11369936D01*
X15577087Y-11369936D02*
X15567563Y-11360412D01*
X10592500Y-11667500D02*
X10792500Y-11867500D01*
X10792500Y-11667500D02*
X10592500Y-11867500D01*
X10763211Y-11838211D02*
X10763211Y-11696789D01*
X10621789Y-11696789D01*
X10621789Y-11838211D01*
X10763211Y-11838211D01*
X11034229Y-11658984D02*
X11158039Y-11658984D01*
X11158039Y-11658984D02*
X11091372Y-11735174D01*
X11091372Y-11735174D02*
X11119944Y-11735174D01*
X11119944Y-11735174D02*
X11138991Y-11744698D01*
X11138991Y-11744698D02*
X11148515Y-11754222D01*
X11148515Y-11754222D02*
X11158039Y-11773269D01*
X11158039Y-11773269D02*
X11158039Y-11820888D01*
X11158039Y-11820888D02*
X11148515Y-11839936D01*
X11148515Y-11839936D02*
X11138991Y-11849460D01*
X11138991Y-11849460D02*
X11119944Y-11858984D01*
X11119944Y-11858984D02*
X11062801Y-11858984D01*
X11062801Y-11858984D02*
X11043753Y-11849460D01*
X11043753Y-11849460D02*
X11034229Y-11839936D01*
X11243753Y-11839936D02*
X11253277Y-11849460D01*
X11253277Y-11849460D02*
X11243753Y-11858984D01*
X11243753Y-11858984D02*
X11234229Y-11849460D01*
X11234229Y-11849460D02*
X11243753Y-11839936D01*
X11243753Y-11839936D02*
X11243753Y-11858984D01*
X11329467Y-11678031D02*
X11338991Y-11668508D01*
X11338991Y-11668508D02*
X11358039Y-11658984D01*
X11358039Y-11658984D02*
X11405658Y-11658984D01*
X11405658Y-11658984D02*
X11424705Y-11668508D01*
X11424705Y-11668508D02*
X11434229Y-11678031D01*
X11434229Y-11678031D02*
X11443753Y-11697079D01*
X11443753Y-11697079D02*
X11443753Y-11716127D01*
X11443753Y-11716127D02*
X11434229Y-11744698D01*
X11434229Y-11744698D02*
X11319943Y-11858984D01*
X11319943Y-11858984D02*
X11443753Y-11858984D01*
X11567562Y-11658984D02*
X11586610Y-11658984D01*
X11586610Y-11658984D02*
X11605658Y-11668508D01*
X11605658Y-11668508D02*
X11615182Y-11678031D01*
X11615182Y-11678031D02*
X11624705Y-11697079D01*
X11624705Y-11697079D02*
X11634229Y-11735174D01*
X11634229Y-11735174D02*
X11634229Y-11782793D01*
X11634229Y-11782793D02*
X11624705Y-11820888D01*
X11624705Y-11820888D02*
X11615182Y-11839936D01*
X11615182Y-11839936D02*
X11605658Y-11849460D01*
X11605658Y-11849460D02*
X11586610Y-11858984D01*
X11586610Y-11858984D02*
X11567562Y-11858984D01*
X11567562Y-11858984D02*
X11548515Y-11849460D01*
X11548515Y-11849460D02*
X11538991Y-11839936D01*
X11538991Y-11839936D02*
X11529467Y-11820888D01*
X11529467Y-11820888D02*
X11519943Y-11782793D01*
X11519943Y-11782793D02*
X11519943Y-11735174D01*
X11519943Y-11735174D02*
X11529467Y-11697079D01*
X11529467Y-11697079D02*
X11538991Y-11678031D01*
X11538991Y-11678031D02*
X11548515Y-11668508D01*
X11548515Y-11668508D02*
X11567562Y-11658984D01*
X11758039Y-11658984D02*
X11777086Y-11658984D01*
X11777086Y-11658984D02*
X11796134Y-11668508D01*
X11796134Y-11668508D02*
X11805658Y-11678031D01*
X11805658Y-11678031D02*
X11815182Y-11697079D01*
X11815182Y-11697079D02*
X11824705Y-11735174D01*
X11824705Y-11735174D02*
X11824705Y-11782793D01*
X11824705Y-11782793D02*
X11815182Y-11820888D01*
X11815182Y-11820888D02*
X11805658Y-11839936D01*
X11805658Y-11839936D02*
X11796134Y-11849460D01*
X11796134Y-11849460D02*
X11777086Y-11858984D01*
X11777086Y-11858984D02*
X11758039Y-11858984D01*
X11758039Y-11858984D02*
X11738991Y-11849460D01*
X11738991Y-11849460D02*
X11729467Y-11839936D01*
X11729467Y-11839936D02*
X11719943Y-11820888D01*
X11719943Y-11820888D02*
X11710420Y-11782793D01*
X11710420Y-11782793D02*
X11710420Y-11735174D01*
X11710420Y-11735174D02*
X11719943Y-11697079D01*
X11719943Y-11697079D02*
X11729467Y-11678031D01*
X11729467Y-11678031D02*
X11738991Y-11668508D01*
X11738991Y-11668508D02*
X11758039Y-11658984D01*
X11910420Y-11858984D02*
X11910420Y-11725650D01*
X11910420Y-11744698D02*
X11919943Y-11735174D01*
X11919943Y-11735174D02*
X11938991Y-11725650D01*
X11938991Y-11725650D02*
X11967563Y-11725650D01*
X11967563Y-11725650D02*
X11986610Y-11735174D01*
X11986610Y-11735174D02*
X11996134Y-11754222D01*
X11996134Y-11754222D02*
X11996134Y-11858984D01*
X11996134Y-11754222D02*
X12005658Y-11735174D01*
X12005658Y-11735174D02*
X12024705Y-11725650D01*
X12024705Y-11725650D02*
X12053277Y-11725650D01*
X12053277Y-11725650D02*
X12072324Y-11735174D01*
X12072324Y-11735174D02*
X12081848Y-11754222D01*
X12081848Y-11754222D02*
X12081848Y-11858984D01*
X12177086Y-11858984D02*
X12177086Y-11725650D01*
X12177086Y-11744698D02*
X12186610Y-11735174D01*
X12186610Y-11735174D02*
X12205658Y-11725650D01*
X12205658Y-11725650D02*
X12234229Y-11725650D01*
X12234229Y-11725650D02*
X12253277Y-11735174D01*
X12253277Y-11735174D02*
X12262801Y-11754222D01*
X12262801Y-11754222D02*
X12262801Y-11858984D01*
X12262801Y-11754222D02*
X12272324Y-11735174D01*
X12272324Y-11735174D02*
X12291372Y-11725650D01*
X12291372Y-11725650D02*
X12319943Y-11725650D01*
X12319943Y-11725650D02*
X12338991Y-11735174D01*
X12338991Y-11735174D02*
X12348515Y-11754222D01*
X12348515Y-11754222D02*
X12348515Y-11858984D01*
X12738991Y-11649460D02*
X12567563Y-11906603D01*
X12996134Y-11658984D02*
X13015182Y-11658984D01*
X13015182Y-11658984D02*
X13034229Y-11668508D01*
X13034229Y-11668508D02*
X13043753Y-11678031D01*
X13043753Y-11678031D02*
X13053277Y-11697079D01*
X13053277Y-11697079D02*
X13062801Y-11735174D01*
X13062801Y-11735174D02*
X13062801Y-11782793D01*
X13062801Y-11782793D02*
X13053277Y-11820888D01*
X13053277Y-11820888D02*
X13043753Y-11839936D01*
X13043753Y-11839936D02*
X13034229Y-11849460D01*
X13034229Y-11849460D02*
X13015182Y-11858984D01*
X13015182Y-11858984D02*
X12996134Y-11858984D01*
X12996134Y-11858984D02*
X12977086Y-11849460D01*
X12977086Y-11849460D02*
X12967563Y-11839936D01*
X12967563Y-11839936D02*
X12958039Y-11820888D01*
X12958039Y-11820888D02*
X12948515Y-11782793D01*
X12948515Y-11782793D02*
X12948515Y-11735174D01*
X12948515Y-11735174D02*
X12958039Y-11697079D01*
X12958039Y-11697079D02*
X12967563Y-11678031D01*
X12967563Y-11678031D02*
X12977086Y-11668508D01*
X12977086Y-11668508D02*
X12996134Y-11658984D01*
X13148515Y-11839936D02*
X13158039Y-11849460D01*
X13158039Y-11849460D02*
X13148515Y-11858984D01*
X13148515Y-11858984D02*
X13138991Y-11849460D01*
X13138991Y-11849460D02*
X13148515Y-11839936D01*
X13148515Y-11839936D02*
X13148515Y-11858984D01*
X13348515Y-11858984D02*
X13234229Y-11858984D01*
X13291372Y-11858984D02*
X13291372Y-11658984D01*
X13291372Y-11658984D02*
X13272325Y-11687555D01*
X13272325Y-11687555D02*
X13253277Y-11706603D01*
X13253277Y-11706603D02*
X13234229Y-11716127D01*
X13424706Y-11678031D02*
X13434229Y-11668508D01*
X13434229Y-11668508D02*
X13453277Y-11658984D01*
X13453277Y-11658984D02*
X13500896Y-11658984D01*
X13500896Y-11658984D02*
X13519944Y-11668508D01*
X13519944Y-11668508D02*
X13529467Y-11678031D01*
X13529467Y-11678031D02*
X13538991Y-11697079D01*
X13538991Y-11697079D02*
X13538991Y-11716127D01*
X13538991Y-11716127D02*
X13529467Y-11744698D01*
X13529467Y-11744698D02*
X13415182Y-11858984D01*
X13415182Y-11858984D02*
X13538991Y-11858984D01*
X13710420Y-11658984D02*
X13672325Y-11658984D01*
X13672325Y-11658984D02*
X13653277Y-11668508D01*
X13653277Y-11668508D02*
X13643753Y-11678031D01*
X13643753Y-11678031D02*
X13624706Y-11706603D01*
X13624706Y-11706603D02*
X13615182Y-11744698D01*
X13615182Y-11744698D02*
X13615182Y-11820888D01*
X13615182Y-11820888D02*
X13624706Y-11839936D01*
X13624706Y-11839936D02*
X13634229Y-11849460D01*
X13634229Y-11849460D02*
X13653277Y-11858984D01*
X13653277Y-11858984D02*
X13691372Y-11858984D01*
X13691372Y-11858984D02*
X13710420Y-11849460D01*
X13710420Y-11849460D02*
X13719944Y-11839936D01*
X13719944Y-11839936D02*
X13729467Y-11820888D01*
X13729467Y-11820888D02*
X13729467Y-11773269D01*
X13729467Y-11773269D02*
X13719944Y-11754222D01*
X13719944Y-11754222D02*
X13710420Y-11744698D01*
X13710420Y-11744698D02*
X13691372Y-11735174D01*
X13691372Y-11735174D02*
X13653277Y-11735174D01*
X13653277Y-11735174D02*
X13634229Y-11744698D01*
X13634229Y-11744698D02*
X13624706Y-11754222D01*
X13624706Y-11754222D02*
X13615182Y-11773269D01*
X13853277Y-11658984D02*
X13872325Y-11658984D01*
X13872325Y-11658984D02*
X13891372Y-11668508D01*
X13891372Y-11668508D02*
X13900896Y-11678031D01*
X13900896Y-11678031D02*
X13910420Y-11697079D01*
X13910420Y-11697079D02*
X13919944Y-11735174D01*
X13919944Y-11735174D02*
X13919944Y-11782793D01*
X13919944Y-11782793D02*
X13910420Y-11820888D01*
X13910420Y-11820888D02*
X13900896Y-11839936D01*
X13900896Y-11839936D02*
X13891372Y-11849460D01*
X13891372Y-11849460D02*
X13872325Y-11858984D01*
X13872325Y-11858984D02*
X13853277Y-11858984D01*
X13853277Y-11858984D02*
X13834229Y-11849460D01*
X13834229Y-11849460D02*
X13824706Y-11839936D01*
X13824706Y-11839936D02*
X13815182Y-11820888D01*
X13815182Y-11820888D02*
X13805658Y-11782793D01*
X13805658Y-11782793D02*
X13805658Y-11735174D01*
X13805658Y-11735174D02*
X13815182Y-11697079D01*
X13815182Y-11697079D02*
X13824706Y-11678031D01*
X13824706Y-11678031D02*
X13834229Y-11668508D01*
X13834229Y-11668508D02*
X13853277Y-11658984D01*
X13996134Y-11658984D02*
X13996134Y-11697079D01*
X14072325Y-11658984D02*
X14072325Y-11697079D01*
X14367563Y-11935174D02*
X14358039Y-11925650D01*
X14358039Y-11925650D02*
X14338991Y-11897079D01*
X14338991Y-11897079D02*
X14329468Y-11878031D01*
X14329468Y-11878031D02*
X14319944Y-11849460D01*
X14319944Y-11849460D02*
X14310420Y-11801841D01*
X14310420Y-11801841D02*
X14310420Y-11763746D01*
X14310420Y-11763746D02*
X14319944Y-11716127D01*
X14319944Y-11716127D02*
X14329468Y-11687555D01*
X14329468Y-11687555D02*
X14338991Y-11668508D01*
X14338991Y-11668508D02*
X14358039Y-11639936D01*
X14358039Y-11639936D02*
X14367563Y-11630412D01*
X14434229Y-11678031D02*
X14443753Y-11668508D01*
X14443753Y-11668508D02*
X14462801Y-11658984D01*
X14462801Y-11658984D02*
X14510420Y-11658984D01*
X14510420Y-11658984D02*
X14529468Y-11668508D01*
X14529468Y-11668508D02*
X14538991Y-11678031D01*
X14538991Y-11678031D02*
X14548515Y-11697079D01*
X14548515Y-11697079D02*
X14548515Y-11716127D01*
X14548515Y-11716127D02*
X14538991Y-11744698D01*
X14538991Y-11744698D02*
X14424706Y-11858984D01*
X14424706Y-11858984D02*
X14548515Y-11858984D01*
X14786610Y-11858984D02*
X14786610Y-11658984D01*
X14872325Y-11858984D02*
X14872325Y-11754222D01*
X14872325Y-11754222D02*
X14862801Y-11735174D01*
X14862801Y-11735174D02*
X14843753Y-11725650D01*
X14843753Y-11725650D02*
X14815182Y-11725650D01*
X14815182Y-11725650D02*
X14796134Y-11735174D01*
X14796134Y-11735174D02*
X14786610Y-11744698D01*
X14996134Y-11858984D02*
X14977087Y-11849460D01*
X14977087Y-11849460D02*
X14967563Y-11839936D01*
X14967563Y-11839936D02*
X14958039Y-11820888D01*
X14958039Y-11820888D02*
X14958039Y-11763746D01*
X14958039Y-11763746D02*
X14967563Y-11744698D01*
X14967563Y-11744698D02*
X14977087Y-11735174D01*
X14977087Y-11735174D02*
X14996134Y-11725650D01*
X14996134Y-11725650D02*
X15024706Y-11725650D01*
X15024706Y-11725650D02*
X15043753Y-11735174D01*
X15043753Y-11735174D02*
X15053277Y-11744698D01*
X15053277Y-11744698D02*
X15062801Y-11763746D01*
X15062801Y-11763746D02*
X15062801Y-11820888D01*
X15062801Y-11820888D02*
X15053277Y-11839936D01*
X15053277Y-11839936D02*
X15043753Y-11849460D01*
X15043753Y-11849460D02*
X15024706Y-11858984D01*
X15024706Y-11858984D02*
X14996134Y-11858984D01*
X15177087Y-11858984D02*
X15158039Y-11849460D01*
X15158039Y-11849460D02*
X15148515Y-11830412D01*
X15148515Y-11830412D02*
X15148515Y-11658984D01*
X15329468Y-11849460D02*
X15310420Y-11858984D01*
X15310420Y-11858984D02*
X15272325Y-11858984D01*
X15272325Y-11858984D02*
X15253277Y-11849460D01*
X15253277Y-11849460D02*
X15243753Y-11830412D01*
X15243753Y-11830412D02*
X15243753Y-11754222D01*
X15243753Y-11754222D02*
X15253277Y-11735174D01*
X15253277Y-11735174D02*
X15272325Y-11725650D01*
X15272325Y-11725650D02*
X15310420Y-11725650D01*
X15310420Y-11725650D02*
X15329468Y-11735174D01*
X15329468Y-11735174D02*
X15338991Y-11754222D01*
X15338991Y-11754222D02*
X15338991Y-11773269D01*
X15338991Y-11773269D02*
X15243753Y-11792317D01*
X15415182Y-11849460D02*
X15434230Y-11858984D01*
X15434230Y-11858984D02*
X15472325Y-11858984D01*
X15472325Y-11858984D02*
X15491372Y-11849460D01*
X15491372Y-11849460D02*
X15500896Y-11830412D01*
X15500896Y-11830412D02*
X15500896Y-11820888D01*
X15500896Y-11820888D02*
X15491372Y-11801841D01*
X15491372Y-11801841D02*
X15472325Y-11792317D01*
X15472325Y-11792317D02*
X15443753Y-11792317D01*
X15443753Y-11792317D02*
X15424706Y-11782793D01*
X15424706Y-11782793D02*
X15415182Y-11763746D01*
X15415182Y-11763746D02*
X15415182Y-11754222D01*
X15415182Y-11754222D02*
X15424706Y-11735174D01*
X15424706Y-11735174D02*
X15443753Y-11725650D01*
X15443753Y-11725650D02*
X15472325Y-11725650D01*
X15472325Y-11725650D02*
X15491372Y-11735174D01*
X15567563Y-11935174D02*
X15577087Y-11925650D01*
X15577087Y-11925650D02*
X15596134Y-11897079D01*
X15596134Y-11897079D02*
X15605658Y-11878031D01*
X15605658Y-11878031D02*
X15615182Y-11849460D01*
X15615182Y-11849460D02*
X15624706Y-11801841D01*
X15624706Y-11801841D02*
X15624706Y-11763746D01*
X15624706Y-11763746D02*
X15615182Y-11716127D01*
X15615182Y-11716127D02*
X15605658Y-11687555D01*
X15605658Y-11687555D02*
X15596134Y-11668508D01*
X15596134Y-11668508D02*
X15577087Y-11639936D01*
X15577087Y-11639936D02*
X15567563Y-11630412D01*
M02*
