G04 #@! TF.GenerationSoftware,KiCad,Pcbnew,8.0.9*
G04 #@! TF.CreationDate,2025-03-02T14:12:50+01:00*
G04 #@! TF.ProjectId,cjss102,636a7373-3130-4322-9e6b-696361645f70,rev?*
G04 #@! TF.SameCoordinates,Original*
G04 #@! TF.FileFunction,Legend,Bot*
G04 #@! TF.FilePolarity,Positive*
%FSLAX46Y46*%
G04 Gerber Fmt 4.6, Leading zero omitted, Abs format (unit mm)*
G04 Created by KiCad (PCBNEW 8.0.9) date 2025-03-02 14:12:50*
%MOMM*%
%LPD*%
G01*
G04 APERTURE LIST*
%ADD10C,0.700000*%
%ADD11C,0.100000*%
%ADD12C,0.300000*%
%ADD13C,0.360000*%
%ADD14C,0.240000*%
%ADD15C,0.150000*%
%ADD16C,0.304800*%
%ADD17C,1.600000*%
%ADD18O,1.600000X1.600000*%
%ADD19C,5.600000*%
%ADD20R,1.700000X1.700000*%
%ADD21O,1.700000X1.700000*%
%ADD22R,1.200000X1.200000*%
%ADD23C,1.200000*%
%ADD24O,1.900000X3.200000*%
%ADD25C,2.000000*%
%ADD26C,2.200000*%
%ADD27R,1.600000X1.600000*%
%ADD28R,1.050000X1.500000*%
%ADD29O,1.050000X1.500000*%
%ADD30C,3.200000*%
G04 APERTURE END LIST*
D10*
X161925000Y-52705000D02*
X162560000Y-52070000D01*
D11*
X162560000Y-52070000D02*
X163195000Y-52705000D01*
D12*
X164465000Y-45085000D02*
X163830000Y-44450000D01*
X163195000Y-45720000D02*
X163830000Y-46355000D01*
X161871746Y-52540356D02*
G75*
G02*
X159384956Y-52596095I-1270046J1161156D01*
G01*
X164465000Y-50800000D02*
G75*
G02*
X159385000Y-50800000I-2540000J0D01*
G01*
X159385000Y-50800000D02*
G75*
G02*
X164465000Y-50800000I2540000J0D01*
G01*
X159385000Y-45085000D02*
X160020000Y-44450000D01*
X163195000Y-45085000D02*
X163830000Y-45720000D01*
X162560000Y-45085000D02*
X163195000Y-45720000D01*
X160020000Y-45720000D02*
X160020000Y-46355000D01*
X160020000Y-45720000D02*
X159385000Y-45085000D01*
X163195000Y-45085000D02*
X162560000Y-45085000D01*
X160020000Y-46355000D02*
X161290000Y-45085000D01*
X163830000Y-46355000D02*
X163830000Y-45720000D01*
X163830000Y-44450000D02*
X163195000Y-45085000D01*
X163195000Y-46990000D02*
G75*
G02*
X160655000Y-46990000I-1270000J0D01*
G01*
X160655000Y-46990000D02*
G75*
G02*
X163195000Y-46990000I1270000J0D01*
G01*
X163830000Y-45720000D02*
X164465000Y-45085000D01*
X160020000Y-44450000D02*
X160655000Y-45085000D01*
X156845000Y-52596051D02*
G75*
G02*
X159385000Y-52596051I1270000J-1270001D01*
G01*
X161290000Y-45085000D02*
X160655000Y-45085000D01*
X160655000Y-45085000D02*
X160020000Y-45720000D01*
D11*
X189722580Y-89326401D02*
X189008295Y-89326401D01*
X189008295Y-89326401D02*
X188865438Y-89374020D01*
X188865438Y-89374020D02*
X188770200Y-89469258D01*
X188770200Y-89469258D02*
X188722580Y-89612115D01*
X188722580Y-89612115D02*
X188722580Y-89707353D01*
X188722580Y-88374020D02*
X188722580Y-88850210D01*
X188722580Y-88850210D02*
X189722580Y-88850210D01*
X188817819Y-87469258D02*
X188770200Y-87516877D01*
X188770200Y-87516877D02*
X188722580Y-87659734D01*
X188722580Y-87659734D02*
X188722580Y-87754972D01*
X188722580Y-87754972D02*
X188770200Y-87897829D01*
X188770200Y-87897829D02*
X188865438Y-87993067D01*
X188865438Y-87993067D02*
X188960676Y-88040686D01*
X188960676Y-88040686D02*
X189151152Y-88088305D01*
X189151152Y-88088305D02*
X189294009Y-88088305D01*
X189294009Y-88088305D02*
X189484485Y-88040686D01*
X189484485Y-88040686D02*
X189579723Y-87993067D01*
X189579723Y-87993067D02*
X189674961Y-87897829D01*
X189674961Y-87897829D02*
X189722580Y-87754972D01*
X189722580Y-87754972D02*
X189722580Y-87659734D01*
X189722580Y-87659734D02*
X189674961Y-87516877D01*
X189674961Y-87516877D02*
X189627342Y-87469258D01*
X189722580Y-86754972D02*
X189008295Y-86754972D01*
X189008295Y-86754972D02*
X188865438Y-86802591D01*
X188865438Y-86802591D02*
X188770200Y-86897829D01*
X188770200Y-86897829D02*
X188722580Y-87040686D01*
X188722580Y-87040686D02*
X188722580Y-87135924D01*
X188722580Y-85802591D02*
X188722580Y-86278781D01*
X188722580Y-86278781D02*
X189722580Y-86278781D01*
X188817819Y-84897829D02*
X188770200Y-84945448D01*
X188770200Y-84945448D02*
X188722580Y-85088305D01*
X188722580Y-85088305D02*
X188722580Y-85183543D01*
X188722580Y-85183543D02*
X188770200Y-85326400D01*
X188770200Y-85326400D02*
X188865438Y-85421638D01*
X188865438Y-85421638D02*
X188960676Y-85469257D01*
X188960676Y-85469257D02*
X189151152Y-85516876D01*
X189151152Y-85516876D02*
X189294009Y-85516876D01*
X189294009Y-85516876D02*
X189484485Y-85469257D01*
X189484485Y-85469257D02*
X189579723Y-85421638D01*
X189579723Y-85421638D02*
X189674961Y-85326400D01*
X189674961Y-85326400D02*
X189722580Y-85183543D01*
X189722580Y-85183543D02*
X189722580Y-85088305D01*
X189722580Y-85088305D02*
X189674961Y-84945448D01*
X189674961Y-84945448D02*
X189627342Y-84897829D01*
X189722580Y-84183543D02*
X189008295Y-84183543D01*
X189008295Y-84183543D02*
X188865438Y-84231162D01*
X188865438Y-84231162D02*
X188770200Y-84326400D01*
X188770200Y-84326400D02*
X188722580Y-84469257D01*
X188722580Y-84469257D02*
X188722580Y-84564495D01*
X188722580Y-83231162D02*
X188722580Y-83707352D01*
X188722580Y-83707352D02*
X189722580Y-83707352D01*
X188817819Y-82326400D02*
X188770200Y-82374019D01*
X188770200Y-82374019D02*
X188722580Y-82516876D01*
X188722580Y-82516876D02*
X188722580Y-82612114D01*
X188722580Y-82612114D02*
X188770200Y-82754971D01*
X188770200Y-82754971D02*
X188865438Y-82850209D01*
X188865438Y-82850209D02*
X188960676Y-82897828D01*
X188960676Y-82897828D02*
X189151152Y-82945447D01*
X189151152Y-82945447D02*
X189294009Y-82945447D01*
X189294009Y-82945447D02*
X189484485Y-82897828D01*
X189484485Y-82897828D02*
X189579723Y-82850209D01*
X189579723Y-82850209D02*
X189674961Y-82754971D01*
X189674961Y-82754971D02*
X189722580Y-82612114D01*
X189722580Y-82612114D02*
X189722580Y-82516876D01*
X189722580Y-82516876D02*
X189674961Y-82374019D01*
X189674961Y-82374019D02*
X189627342Y-82326400D01*
X189722580Y-81612114D02*
X189008295Y-81612114D01*
X189008295Y-81612114D02*
X188865438Y-81659733D01*
X188865438Y-81659733D02*
X188770200Y-81754971D01*
X188770200Y-81754971D02*
X188722580Y-81897828D01*
X188722580Y-81897828D02*
X188722580Y-81993066D01*
X188722580Y-80659733D02*
X188722580Y-81135923D01*
X188722580Y-81135923D02*
X189722580Y-81135923D01*
X188817819Y-79754971D02*
X188770200Y-79802590D01*
X188770200Y-79802590D02*
X188722580Y-79945447D01*
X188722580Y-79945447D02*
X188722580Y-80040685D01*
X188722580Y-80040685D02*
X188770200Y-80183542D01*
X188770200Y-80183542D02*
X188865438Y-80278780D01*
X188865438Y-80278780D02*
X188960676Y-80326399D01*
X188960676Y-80326399D02*
X189151152Y-80374018D01*
X189151152Y-80374018D02*
X189294009Y-80374018D01*
X189294009Y-80374018D02*
X189484485Y-80326399D01*
X189484485Y-80326399D02*
X189579723Y-80278780D01*
X189579723Y-80278780D02*
X189674961Y-80183542D01*
X189674961Y-80183542D02*
X189722580Y-80040685D01*
X189722580Y-80040685D02*
X189722580Y-79945447D01*
X189722580Y-79945447D02*
X189674961Y-79802590D01*
X189674961Y-79802590D02*
X189627342Y-79754971D01*
D13*
X183741729Y-36695994D02*
X182713158Y-36695994D01*
X183227443Y-38495994D02*
X183227443Y-36695994D01*
X181341729Y-37295994D02*
X181341729Y-38495994D01*
X182113157Y-37295994D02*
X182113157Y-38238851D01*
X182113157Y-38238851D02*
X182027443Y-38410280D01*
X182027443Y-38410280D02*
X181856014Y-38495994D01*
X181856014Y-38495994D02*
X181598871Y-38495994D01*
X181598871Y-38495994D02*
X181427443Y-38410280D01*
X181427443Y-38410280D02*
X181341729Y-38324565D01*
X179713158Y-38410280D02*
X179884586Y-38495994D01*
X179884586Y-38495994D02*
X180227443Y-38495994D01*
X180227443Y-38495994D02*
X180398872Y-38410280D01*
X180398872Y-38410280D02*
X180484586Y-38324565D01*
X180484586Y-38324565D02*
X180570300Y-38153137D01*
X180570300Y-38153137D02*
X180570300Y-37638851D01*
X180570300Y-37638851D02*
X180484586Y-37467422D01*
X180484586Y-37467422D02*
X180398872Y-37381708D01*
X180398872Y-37381708D02*
X180227443Y-37295994D01*
X180227443Y-37295994D02*
X179884586Y-37295994D01*
X179884586Y-37295994D02*
X179713158Y-37381708D01*
X178941729Y-38495994D02*
X178941729Y-36695994D01*
X178170301Y-38495994D02*
X178170301Y-37553137D01*
X178170301Y-37553137D02*
X178256015Y-37381708D01*
X178256015Y-37381708D02*
X178427443Y-37295994D01*
X178427443Y-37295994D02*
X178684586Y-37295994D01*
X178684586Y-37295994D02*
X178856015Y-37381708D01*
X178856015Y-37381708D02*
X178941729Y-37467422D01*
X177398872Y-37981708D02*
X176541730Y-37981708D01*
X177570301Y-38495994D02*
X176970301Y-36695994D01*
X176970301Y-36695994D02*
X176370301Y-38495994D01*
X174998873Y-37295994D02*
X174998873Y-38495994D01*
X175770301Y-37295994D02*
X175770301Y-38238851D01*
X175770301Y-38238851D02*
X175684587Y-38410280D01*
X175684587Y-38410280D02*
X175513158Y-38495994D01*
X175513158Y-38495994D02*
X175256015Y-38495994D01*
X175256015Y-38495994D02*
X175084587Y-38410280D01*
X175084587Y-38410280D02*
X174998873Y-38324565D01*
X173370302Y-38495994D02*
X173370302Y-36695994D01*
X173370302Y-38410280D02*
X173541730Y-38495994D01*
X173541730Y-38495994D02*
X173884587Y-38495994D01*
X173884587Y-38495994D02*
X174056016Y-38410280D01*
X174056016Y-38410280D02*
X174141730Y-38324565D01*
X174141730Y-38324565D02*
X174227444Y-38153137D01*
X174227444Y-38153137D02*
X174227444Y-37638851D01*
X174227444Y-37638851D02*
X174141730Y-37467422D01*
X174141730Y-37467422D02*
X174056016Y-37381708D01*
X174056016Y-37381708D02*
X173884587Y-37295994D01*
X173884587Y-37295994D02*
X173541730Y-37295994D01*
X173541730Y-37295994D02*
X173370302Y-37381708D01*
X172513159Y-38495994D02*
X172513159Y-37295994D01*
X172513159Y-36695994D02*
X172598873Y-36781708D01*
X172598873Y-36781708D02*
X172513159Y-36867422D01*
X172513159Y-36867422D02*
X172427445Y-36781708D01*
X172427445Y-36781708D02*
X172513159Y-36695994D01*
X172513159Y-36695994D02*
X172513159Y-36867422D01*
X171398873Y-38495994D02*
X171570302Y-38410280D01*
X171570302Y-38410280D02*
X171656016Y-38324565D01*
X171656016Y-38324565D02*
X171741730Y-38153137D01*
X171741730Y-38153137D02*
X171741730Y-37638851D01*
X171741730Y-37638851D02*
X171656016Y-37467422D01*
X171656016Y-37467422D02*
X171570302Y-37381708D01*
X171570302Y-37381708D02*
X171398873Y-37295994D01*
X171398873Y-37295994D02*
X171141730Y-37295994D01*
X171141730Y-37295994D02*
X170970302Y-37381708D01*
X170970302Y-37381708D02*
X170884588Y-37467422D01*
X170884588Y-37467422D02*
X170798873Y-37638851D01*
X170798873Y-37638851D02*
X170798873Y-38153137D01*
X170798873Y-38153137D02*
X170884588Y-38324565D01*
X170884588Y-38324565D02*
X170970302Y-38410280D01*
X170970302Y-38410280D02*
X171141730Y-38495994D01*
X171141730Y-38495994D02*
X171398873Y-38495994D01*
X167713159Y-38495994D02*
X168741730Y-38495994D01*
X168227445Y-38495994D02*
X168227445Y-36695994D01*
X168227445Y-36695994D02*
X168398873Y-36953137D01*
X168398873Y-36953137D02*
X168570302Y-37124565D01*
X168570302Y-37124565D02*
X168741730Y-37210280D01*
X166598873Y-36695994D02*
X166427444Y-36695994D01*
X166427444Y-36695994D02*
X166256016Y-36781708D01*
X166256016Y-36781708D02*
X166170302Y-36867422D01*
X166170302Y-36867422D02*
X166084587Y-37038851D01*
X166084587Y-37038851D02*
X165998873Y-37381708D01*
X165998873Y-37381708D02*
X165998873Y-37810280D01*
X165998873Y-37810280D02*
X166084587Y-38153137D01*
X166084587Y-38153137D02*
X166170302Y-38324565D01*
X166170302Y-38324565D02*
X166256016Y-38410280D01*
X166256016Y-38410280D02*
X166427444Y-38495994D01*
X166427444Y-38495994D02*
X166598873Y-38495994D01*
X166598873Y-38495994D02*
X166770302Y-38410280D01*
X166770302Y-38410280D02*
X166856016Y-38324565D01*
X166856016Y-38324565D02*
X166941730Y-38153137D01*
X166941730Y-38153137D02*
X167027444Y-37810280D01*
X167027444Y-37810280D02*
X167027444Y-37381708D01*
X167027444Y-37381708D02*
X166941730Y-37038851D01*
X166941730Y-37038851D02*
X166856016Y-36867422D01*
X166856016Y-36867422D02*
X166770302Y-36781708D01*
X166770302Y-36781708D02*
X166598873Y-36695994D01*
X165313158Y-36867422D02*
X165227444Y-36781708D01*
X165227444Y-36781708D02*
X165056016Y-36695994D01*
X165056016Y-36695994D02*
X164627444Y-36695994D01*
X164627444Y-36695994D02*
X164456016Y-36781708D01*
X164456016Y-36781708D02*
X164370301Y-36867422D01*
X164370301Y-36867422D02*
X164284587Y-37038851D01*
X164284587Y-37038851D02*
X164284587Y-37210280D01*
X164284587Y-37210280D02*
X164370301Y-37467422D01*
X164370301Y-37467422D02*
X165398873Y-38495994D01*
X165398873Y-38495994D02*
X164284587Y-38495994D01*
D11*
X183179353Y-40734752D02*
X182941258Y-41401419D01*
X182941258Y-41401419D02*
X182703163Y-40734752D01*
X181798401Y-41401419D02*
X182369829Y-41401419D01*
X182084115Y-41401419D02*
X182084115Y-40401419D01*
X182084115Y-40401419D02*
X182179353Y-40544276D01*
X182179353Y-40544276D02*
X182274591Y-40639514D01*
X182274591Y-40639514D02*
X182369829Y-40687133D01*
X179893638Y-40496657D02*
X179846019Y-40449038D01*
X179846019Y-40449038D02*
X179750781Y-40401419D01*
X179750781Y-40401419D02*
X179512686Y-40401419D01*
X179512686Y-40401419D02*
X179417448Y-40449038D01*
X179417448Y-40449038D02*
X179369829Y-40496657D01*
X179369829Y-40496657D02*
X179322210Y-40591895D01*
X179322210Y-40591895D02*
X179322210Y-40687133D01*
X179322210Y-40687133D02*
X179369829Y-40829990D01*
X179369829Y-40829990D02*
X179941257Y-41401419D01*
X179941257Y-41401419D02*
X179322210Y-41401419D01*
X178703162Y-40401419D02*
X178607924Y-40401419D01*
X178607924Y-40401419D02*
X178512686Y-40449038D01*
X178512686Y-40449038D02*
X178465067Y-40496657D01*
X178465067Y-40496657D02*
X178417448Y-40591895D01*
X178417448Y-40591895D02*
X178369829Y-40782371D01*
X178369829Y-40782371D02*
X178369829Y-41020466D01*
X178369829Y-41020466D02*
X178417448Y-41210942D01*
X178417448Y-41210942D02*
X178465067Y-41306180D01*
X178465067Y-41306180D02*
X178512686Y-41353800D01*
X178512686Y-41353800D02*
X178607924Y-41401419D01*
X178607924Y-41401419D02*
X178703162Y-41401419D01*
X178703162Y-41401419D02*
X178798400Y-41353800D01*
X178798400Y-41353800D02*
X178846019Y-41306180D01*
X178846019Y-41306180D02*
X178893638Y-41210942D01*
X178893638Y-41210942D02*
X178941257Y-41020466D01*
X178941257Y-41020466D02*
X178941257Y-40782371D01*
X178941257Y-40782371D02*
X178893638Y-40591895D01*
X178893638Y-40591895D02*
X178846019Y-40496657D01*
X178846019Y-40496657D02*
X178798400Y-40449038D01*
X178798400Y-40449038D02*
X178703162Y-40401419D01*
X177988876Y-40496657D02*
X177941257Y-40449038D01*
X177941257Y-40449038D02*
X177846019Y-40401419D01*
X177846019Y-40401419D02*
X177607924Y-40401419D01*
X177607924Y-40401419D02*
X177512686Y-40449038D01*
X177512686Y-40449038D02*
X177465067Y-40496657D01*
X177465067Y-40496657D02*
X177417448Y-40591895D01*
X177417448Y-40591895D02*
X177417448Y-40687133D01*
X177417448Y-40687133D02*
X177465067Y-40829990D01*
X177465067Y-40829990D02*
X178036495Y-41401419D01*
X178036495Y-41401419D02*
X177417448Y-41401419D01*
X176512686Y-40401419D02*
X176988876Y-40401419D01*
X176988876Y-40401419D02*
X177036495Y-40877609D01*
X177036495Y-40877609D02*
X176988876Y-40829990D01*
X176988876Y-40829990D02*
X176893638Y-40782371D01*
X176893638Y-40782371D02*
X176655543Y-40782371D01*
X176655543Y-40782371D02*
X176560305Y-40829990D01*
X176560305Y-40829990D02*
X176512686Y-40877609D01*
X176512686Y-40877609D02*
X176465067Y-40972847D01*
X176465067Y-40972847D02*
X176465067Y-41210942D01*
X176465067Y-41210942D02*
X176512686Y-41306180D01*
X176512686Y-41306180D02*
X176560305Y-41353800D01*
X176560305Y-41353800D02*
X176655543Y-41401419D01*
X176655543Y-41401419D02*
X176893638Y-41401419D01*
X176893638Y-41401419D02*
X176988876Y-41353800D01*
X176988876Y-41353800D02*
X177036495Y-41306180D01*
X175893638Y-40972847D02*
X175941257Y-41020466D01*
X175941257Y-41020466D02*
X175893638Y-41068085D01*
X175893638Y-41068085D02*
X175846019Y-41020466D01*
X175846019Y-41020466D02*
X175893638Y-40972847D01*
X175893638Y-40972847D02*
X175893638Y-41068085D01*
X175084114Y-40401419D02*
X174988876Y-40401419D01*
X174988876Y-40401419D02*
X174893638Y-40449038D01*
X174893638Y-40449038D02*
X174846019Y-40496657D01*
X174846019Y-40496657D02*
X174798400Y-40591895D01*
X174798400Y-40591895D02*
X174750781Y-40782371D01*
X174750781Y-40782371D02*
X174750781Y-41020466D01*
X174750781Y-41020466D02*
X174798400Y-41210942D01*
X174798400Y-41210942D02*
X174846019Y-41306180D01*
X174846019Y-41306180D02*
X174893638Y-41353800D01*
X174893638Y-41353800D02*
X174988876Y-41401419D01*
X174988876Y-41401419D02*
X175084114Y-41401419D01*
X175084114Y-41401419D02*
X175179352Y-41353800D01*
X175179352Y-41353800D02*
X175226971Y-41306180D01*
X175226971Y-41306180D02*
X175274590Y-41210942D01*
X175274590Y-41210942D02*
X175322209Y-41020466D01*
X175322209Y-41020466D02*
X175322209Y-40782371D01*
X175322209Y-40782371D02*
X175274590Y-40591895D01*
X175274590Y-40591895D02*
X175226971Y-40496657D01*
X175226971Y-40496657D02*
X175179352Y-40449038D01*
X175179352Y-40449038D02*
X175084114Y-40401419D01*
X174369828Y-40496657D02*
X174322209Y-40449038D01*
X174322209Y-40449038D02*
X174226971Y-40401419D01*
X174226971Y-40401419D02*
X173988876Y-40401419D01*
X173988876Y-40401419D02*
X173893638Y-40449038D01*
X173893638Y-40449038D02*
X173846019Y-40496657D01*
X173846019Y-40496657D02*
X173798400Y-40591895D01*
X173798400Y-40591895D02*
X173798400Y-40687133D01*
X173798400Y-40687133D02*
X173846019Y-40829990D01*
X173846019Y-40829990D02*
X174417447Y-41401419D01*
X174417447Y-41401419D02*
X173798400Y-41401419D01*
D14*
X135758570Y-37659729D02*
X136158570Y-37088301D01*
X136444284Y-37659729D02*
X136444284Y-36459729D01*
X136444284Y-36459729D02*
X135987141Y-36459729D01*
X135987141Y-36459729D02*
X135872856Y-36516872D01*
X135872856Y-36516872D02*
X135815713Y-36574015D01*
X135815713Y-36574015D02*
X135758570Y-36688301D01*
X135758570Y-36688301D02*
X135758570Y-36859729D01*
X135758570Y-36859729D02*
X135815713Y-36974015D01*
X135815713Y-36974015D02*
X135872856Y-37031158D01*
X135872856Y-37031158D02*
X135987141Y-37088301D01*
X135987141Y-37088301D02*
X136444284Y-37088301D01*
X135244284Y-37659729D02*
X135244284Y-36459729D01*
X134729998Y-37316872D02*
X134158570Y-37316872D01*
X134844284Y-37659729D02*
X134444284Y-36459729D01*
X134444284Y-36459729D02*
X134044284Y-37659729D01*
X133701427Y-37316872D02*
X133129999Y-37316872D01*
X133815713Y-37659729D02*
X133415713Y-36459729D01*
X133415713Y-36459729D02*
X133015713Y-37659729D01*
X131758570Y-36402587D02*
X132787142Y-37945444D01*
X131358570Y-37659729D02*
X131358570Y-36459729D01*
X130787141Y-37031158D02*
X130387141Y-37031158D01*
X130215713Y-37659729D02*
X130787141Y-37659729D01*
X130787141Y-37659729D02*
X130787141Y-36459729D01*
X130787141Y-36459729D02*
X130215713Y-36459729D01*
X129015713Y-37545444D02*
X129072856Y-37602587D01*
X129072856Y-37602587D02*
X129244284Y-37659729D01*
X129244284Y-37659729D02*
X129358570Y-37659729D01*
X129358570Y-37659729D02*
X129529999Y-37602587D01*
X129529999Y-37602587D02*
X129644284Y-37488301D01*
X129644284Y-37488301D02*
X129701427Y-37374015D01*
X129701427Y-37374015D02*
X129758570Y-37145444D01*
X129758570Y-37145444D02*
X129758570Y-36974015D01*
X129758570Y-36974015D02*
X129701427Y-36745444D01*
X129701427Y-36745444D02*
X129644284Y-36631158D01*
X129644284Y-36631158D02*
X129529999Y-36516872D01*
X129529999Y-36516872D02*
X129358570Y-36459729D01*
X129358570Y-36459729D02*
X129244284Y-36459729D01*
X129244284Y-36459729D02*
X129072856Y-36516872D01*
X129072856Y-36516872D02*
X129015713Y-36574015D01*
X127872856Y-37659729D02*
X128558570Y-37659729D01*
X128215713Y-37659729D02*
X128215713Y-36459729D01*
X128215713Y-36459729D02*
X128329999Y-36631158D01*
X128329999Y-36631158D02*
X128444284Y-36745444D01*
X128444284Y-36745444D02*
X128558570Y-36802587D01*
X127301427Y-37659729D02*
X127072856Y-37659729D01*
X127072856Y-37659729D02*
X126958570Y-37602587D01*
X126958570Y-37602587D02*
X126901427Y-37545444D01*
X126901427Y-37545444D02*
X126787142Y-37374015D01*
X126787142Y-37374015D02*
X126729999Y-37145444D01*
X126729999Y-37145444D02*
X126729999Y-36688301D01*
X126729999Y-36688301D02*
X126787142Y-36574015D01*
X126787142Y-36574015D02*
X126844285Y-36516872D01*
X126844285Y-36516872D02*
X126958570Y-36459729D01*
X126958570Y-36459729D02*
X127187142Y-36459729D01*
X127187142Y-36459729D02*
X127301427Y-36516872D01*
X127301427Y-36516872D02*
X127358570Y-36574015D01*
X127358570Y-36574015D02*
X127415713Y-36688301D01*
X127415713Y-36688301D02*
X127415713Y-36974015D01*
X127415713Y-36974015D02*
X127358570Y-37088301D01*
X127358570Y-37088301D02*
X127301427Y-37145444D01*
X127301427Y-37145444D02*
X127187142Y-37202587D01*
X127187142Y-37202587D02*
X126958570Y-37202587D01*
X126958570Y-37202587D02*
X126844285Y-37145444D01*
X126844285Y-37145444D02*
X126787142Y-37088301D01*
X126787142Y-37088301D02*
X126729999Y-36974015D01*
X126329999Y-36459729D02*
X125529999Y-36459729D01*
X125529999Y-36459729D02*
X126044285Y-37659729D01*
X124558571Y-36459729D02*
X124787142Y-36459729D01*
X124787142Y-36459729D02*
X124901428Y-36516872D01*
X124901428Y-36516872D02*
X124958571Y-36574015D01*
X124958571Y-36574015D02*
X125072856Y-36745444D01*
X125072856Y-36745444D02*
X125129999Y-36974015D01*
X125129999Y-36974015D02*
X125129999Y-37431158D01*
X125129999Y-37431158D02*
X125072856Y-37545444D01*
X125072856Y-37545444D02*
X125015713Y-37602587D01*
X125015713Y-37602587D02*
X124901428Y-37659729D01*
X124901428Y-37659729D02*
X124672856Y-37659729D01*
X124672856Y-37659729D02*
X124558571Y-37602587D01*
X124558571Y-37602587D02*
X124501428Y-37545444D01*
X124501428Y-37545444D02*
X124444285Y-37431158D01*
X124444285Y-37431158D02*
X124444285Y-37145444D01*
X124444285Y-37145444D02*
X124501428Y-37031158D01*
X124501428Y-37031158D02*
X124558571Y-36974015D01*
X124558571Y-36974015D02*
X124672856Y-36916872D01*
X124672856Y-36916872D02*
X124901428Y-36916872D01*
X124901428Y-36916872D02*
X125015713Y-36974015D01*
X125015713Y-36974015D02*
X125072856Y-37031158D01*
X125072856Y-37031158D02*
X125129999Y-37145444D01*
X123072856Y-36402587D02*
X124101428Y-37945444D01*
X122672856Y-37659729D02*
X122672856Y-36459729D01*
X122672856Y-36459729D02*
X121987142Y-37659729D01*
X121987142Y-37659729D02*
X121987142Y-36459729D01*
X120958570Y-37602587D02*
X121072856Y-37659729D01*
X121072856Y-37659729D02*
X121301428Y-37659729D01*
X121301428Y-37659729D02*
X121415713Y-37602587D01*
X121415713Y-37602587D02*
X121472856Y-37488301D01*
X121472856Y-37488301D02*
X121472856Y-37031158D01*
X121472856Y-37031158D02*
X121415713Y-36916872D01*
X121415713Y-36916872D02*
X121301428Y-36859729D01*
X121301428Y-36859729D02*
X121072856Y-36859729D01*
X121072856Y-36859729D02*
X120958570Y-36916872D01*
X120958570Y-36916872D02*
X120901428Y-37031158D01*
X120901428Y-37031158D02*
X120901428Y-37145444D01*
X120901428Y-37145444D02*
X121472856Y-37259729D01*
X119872857Y-36859729D02*
X119872857Y-37659729D01*
X120387142Y-36859729D02*
X120387142Y-37488301D01*
X120387142Y-37488301D02*
X120329999Y-37602587D01*
X120329999Y-37602587D02*
X120215714Y-37659729D01*
X120215714Y-37659729D02*
X120044285Y-37659729D01*
X120044285Y-37659729D02*
X119929999Y-37602587D01*
X119929999Y-37602587D02*
X119872857Y-37545444D01*
X119301428Y-37659729D02*
X119301428Y-36859729D01*
X119301428Y-36974015D02*
X119244285Y-36916872D01*
X119244285Y-36916872D02*
X119130000Y-36859729D01*
X119130000Y-36859729D02*
X118958571Y-36859729D01*
X118958571Y-36859729D02*
X118844285Y-36916872D01*
X118844285Y-36916872D02*
X118787143Y-37031158D01*
X118787143Y-37031158D02*
X118787143Y-37659729D01*
X118787143Y-37031158D02*
X118730000Y-36916872D01*
X118730000Y-36916872D02*
X118615714Y-36859729D01*
X118615714Y-36859729D02*
X118444285Y-36859729D01*
X118444285Y-36859729D02*
X118330000Y-36916872D01*
X118330000Y-36916872D02*
X118272857Y-37031158D01*
X118272857Y-37031158D02*
X118272857Y-37659729D01*
X117187143Y-37659729D02*
X117187143Y-37031158D01*
X117187143Y-37031158D02*
X117244285Y-36916872D01*
X117244285Y-36916872D02*
X117358571Y-36859729D01*
X117358571Y-36859729D02*
X117587143Y-36859729D01*
X117587143Y-36859729D02*
X117701428Y-36916872D01*
X117187143Y-37602587D02*
X117301428Y-37659729D01*
X117301428Y-37659729D02*
X117587143Y-37659729D01*
X117587143Y-37659729D02*
X117701428Y-37602587D01*
X117701428Y-37602587D02*
X117758571Y-37488301D01*
X117758571Y-37488301D02*
X117758571Y-37374015D01*
X117758571Y-37374015D02*
X117701428Y-37259729D01*
X117701428Y-37259729D02*
X117587143Y-37202587D01*
X117587143Y-37202587D02*
X117301428Y-37202587D01*
X117301428Y-37202587D02*
X117187143Y-37145444D01*
X116615714Y-36859729D02*
X116615714Y-37659729D01*
X116615714Y-36974015D02*
X116558571Y-36916872D01*
X116558571Y-36916872D02*
X116444286Y-36859729D01*
X116444286Y-36859729D02*
X116272857Y-36859729D01*
X116272857Y-36859729D02*
X116158571Y-36916872D01*
X116158571Y-36916872D02*
X116101429Y-37031158D01*
X116101429Y-37031158D02*
X116101429Y-37659729D01*
X115530000Y-36859729D02*
X115530000Y-37659729D01*
X115530000Y-36974015D02*
X115472857Y-36916872D01*
X115472857Y-36916872D02*
X115358572Y-36859729D01*
X115358572Y-36859729D02*
X115187143Y-36859729D01*
X115187143Y-36859729D02*
X115072857Y-36916872D01*
X115072857Y-36916872D02*
X115015715Y-37031158D01*
X115015715Y-37031158D02*
X115015715Y-37659729D01*
X133872856Y-39591662D02*
X133872856Y-38391662D01*
X133872856Y-38391662D02*
X133472856Y-39248805D01*
X133472856Y-39248805D02*
X133072856Y-38391662D01*
X133072856Y-38391662D02*
X133072856Y-39591662D01*
X132501427Y-39591662D02*
X132501427Y-38391662D01*
X132501427Y-38391662D02*
X132101427Y-39248805D01*
X132101427Y-39248805D02*
X131701427Y-38391662D01*
X131701427Y-38391662D02*
X131701427Y-39591662D01*
X130215712Y-39591662D02*
X130215712Y-38391662D01*
X130215712Y-38391662D02*
X129758569Y-38391662D01*
X129758569Y-38391662D02*
X129644284Y-38448805D01*
X129644284Y-38448805D02*
X129587141Y-38505948D01*
X129587141Y-38505948D02*
X129529998Y-38620234D01*
X129529998Y-38620234D02*
X129529998Y-38791662D01*
X129529998Y-38791662D02*
X129587141Y-38905948D01*
X129587141Y-38905948D02*
X129644284Y-38963091D01*
X129644284Y-38963091D02*
X129758569Y-39020234D01*
X129758569Y-39020234D02*
X130215712Y-39020234D01*
X129015712Y-39591662D02*
X129015712Y-38391662D01*
X128501427Y-39591662D02*
X128501427Y-38963091D01*
X128501427Y-38963091D02*
X128558569Y-38848805D01*
X128558569Y-38848805D02*
X128672855Y-38791662D01*
X128672855Y-38791662D02*
X128844284Y-38791662D01*
X128844284Y-38791662D02*
X128958569Y-38848805D01*
X128958569Y-38848805D02*
X129015712Y-38905948D01*
X127758570Y-39591662D02*
X127872855Y-39534520D01*
X127872855Y-39534520D02*
X127929998Y-39477377D01*
X127929998Y-39477377D02*
X127987141Y-39363091D01*
X127987141Y-39363091D02*
X127987141Y-39020234D01*
X127987141Y-39020234D02*
X127929998Y-38905948D01*
X127929998Y-38905948D02*
X127872855Y-38848805D01*
X127872855Y-38848805D02*
X127758570Y-38791662D01*
X127758570Y-38791662D02*
X127587141Y-38791662D01*
X127587141Y-38791662D02*
X127472855Y-38848805D01*
X127472855Y-38848805D02*
X127415713Y-38905948D01*
X127415713Y-38905948D02*
X127358570Y-39020234D01*
X127358570Y-39020234D02*
X127358570Y-39363091D01*
X127358570Y-39363091D02*
X127415713Y-39477377D01*
X127415713Y-39477377D02*
X127472855Y-39534520D01*
X127472855Y-39534520D02*
X127587141Y-39591662D01*
X127587141Y-39591662D02*
X127758570Y-39591662D01*
X126844284Y-38791662D02*
X126844284Y-39591662D01*
X126844284Y-38905948D02*
X126787141Y-38848805D01*
X126787141Y-38848805D02*
X126672856Y-38791662D01*
X126672856Y-38791662D02*
X126501427Y-38791662D01*
X126501427Y-38791662D02*
X126387141Y-38848805D01*
X126387141Y-38848805D02*
X126329999Y-38963091D01*
X126329999Y-38963091D02*
X126329999Y-39591662D01*
X125587142Y-39591662D02*
X125701427Y-39534520D01*
X125701427Y-39534520D02*
X125758570Y-39477377D01*
X125758570Y-39477377D02*
X125815713Y-39363091D01*
X125815713Y-39363091D02*
X125815713Y-39020234D01*
X125815713Y-39020234D02*
X125758570Y-38905948D01*
X125758570Y-38905948D02*
X125701427Y-38848805D01*
X125701427Y-38848805D02*
X125587142Y-38791662D01*
X125587142Y-38791662D02*
X125415713Y-38791662D01*
X125415713Y-38791662D02*
X125301427Y-38848805D01*
X125301427Y-38848805D02*
X125244285Y-38905948D01*
X125244285Y-38905948D02*
X125187142Y-39020234D01*
X125187142Y-39020234D02*
X125187142Y-39363091D01*
X125187142Y-39363091D02*
X125244285Y-39477377D01*
X125244285Y-39477377D02*
X125301427Y-39534520D01*
X125301427Y-39534520D02*
X125415713Y-39591662D01*
X125415713Y-39591662D02*
X125587142Y-39591662D01*
X123758570Y-39591662D02*
X123758570Y-38391662D01*
X123758570Y-38391662D02*
X123301427Y-38391662D01*
X123301427Y-38391662D02*
X123187142Y-38448805D01*
X123187142Y-38448805D02*
X123129999Y-38505948D01*
X123129999Y-38505948D02*
X123072856Y-38620234D01*
X123072856Y-38620234D02*
X123072856Y-38791662D01*
X123072856Y-38791662D02*
X123129999Y-38905948D01*
X123129999Y-38905948D02*
X123187142Y-38963091D01*
X123187142Y-38963091D02*
X123301427Y-39020234D01*
X123301427Y-39020234D02*
X123758570Y-39020234D01*
X122558570Y-39591662D02*
X122558570Y-38791662D01*
X122558570Y-39020234D02*
X122501427Y-38905948D01*
X122501427Y-38905948D02*
X122444285Y-38848805D01*
X122444285Y-38848805D02*
X122329999Y-38791662D01*
X122329999Y-38791662D02*
X122215713Y-38791662D01*
X121358570Y-39534520D02*
X121472856Y-39591662D01*
X121472856Y-39591662D02*
X121701428Y-39591662D01*
X121701428Y-39591662D02*
X121815713Y-39534520D01*
X121815713Y-39534520D02*
X121872856Y-39420234D01*
X121872856Y-39420234D02*
X121872856Y-38963091D01*
X121872856Y-38963091D02*
X121815713Y-38848805D01*
X121815713Y-38848805D02*
X121701428Y-38791662D01*
X121701428Y-38791662D02*
X121472856Y-38791662D01*
X121472856Y-38791662D02*
X121358570Y-38848805D01*
X121358570Y-38848805D02*
X121301428Y-38963091D01*
X121301428Y-38963091D02*
X121301428Y-39077377D01*
X121301428Y-39077377D02*
X121872856Y-39191662D01*
X120272857Y-39591662D02*
X120272857Y-38963091D01*
X120272857Y-38963091D02*
X120329999Y-38848805D01*
X120329999Y-38848805D02*
X120444285Y-38791662D01*
X120444285Y-38791662D02*
X120672857Y-38791662D01*
X120672857Y-38791662D02*
X120787142Y-38848805D01*
X120272857Y-39534520D02*
X120387142Y-39591662D01*
X120387142Y-39591662D02*
X120672857Y-39591662D01*
X120672857Y-39591662D02*
X120787142Y-39534520D01*
X120787142Y-39534520D02*
X120844285Y-39420234D01*
X120844285Y-39420234D02*
X120844285Y-39305948D01*
X120844285Y-39305948D02*
X120787142Y-39191662D01*
X120787142Y-39191662D02*
X120672857Y-39134520D01*
X120672857Y-39134520D02*
X120387142Y-39134520D01*
X120387142Y-39134520D02*
X120272857Y-39077377D01*
X119701428Y-39591662D02*
X119701428Y-38791662D01*
X119701428Y-38905948D02*
X119644285Y-38848805D01*
X119644285Y-38848805D02*
X119530000Y-38791662D01*
X119530000Y-38791662D02*
X119358571Y-38791662D01*
X119358571Y-38791662D02*
X119244285Y-38848805D01*
X119244285Y-38848805D02*
X119187143Y-38963091D01*
X119187143Y-38963091D02*
X119187143Y-39591662D01*
X119187143Y-38963091D02*
X119130000Y-38848805D01*
X119130000Y-38848805D02*
X119015714Y-38791662D01*
X119015714Y-38791662D02*
X118844285Y-38791662D01*
X118844285Y-38791662D02*
X118730000Y-38848805D01*
X118730000Y-38848805D02*
X118672857Y-38963091D01*
X118672857Y-38963091D02*
X118672857Y-39591662D01*
X118101428Y-38791662D02*
X118101428Y-39991662D01*
X118101428Y-38848805D02*
X117987143Y-38791662D01*
X117987143Y-38791662D02*
X117758571Y-38791662D01*
X117758571Y-38791662D02*
X117644285Y-38848805D01*
X117644285Y-38848805D02*
X117587143Y-38905948D01*
X117587143Y-38905948D02*
X117530000Y-39020234D01*
X117530000Y-39020234D02*
X117530000Y-39363091D01*
X117530000Y-39363091D02*
X117587143Y-39477377D01*
X117587143Y-39477377D02*
X117644285Y-39534520D01*
X117644285Y-39534520D02*
X117758571Y-39591662D01*
X117758571Y-39591662D02*
X117987143Y-39591662D01*
X117987143Y-39591662D02*
X118101428Y-39534520D01*
D15*
X162409047Y-61414819D02*
X162742380Y-60938628D01*
X162980475Y-61414819D02*
X162980475Y-60414819D01*
X162980475Y-60414819D02*
X162599523Y-60414819D01*
X162599523Y-60414819D02*
X162504285Y-60462438D01*
X162504285Y-60462438D02*
X162456666Y-60510057D01*
X162456666Y-60510057D02*
X162409047Y-60605295D01*
X162409047Y-60605295D02*
X162409047Y-60748152D01*
X162409047Y-60748152D02*
X162456666Y-60843390D01*
X162456666Y-60843390D02*
X162504285Y-60891009D01*
X162504285Y-60891009D02*
X162599523Y-60938628D01*
X162599523Y-60938628D02*
X162980475Y-60938628D01*
X162028094Y-60510057D02*
X161980475Y-60462438D01*
X161980475Y-60462438D02*
X161885237Y-60414819D01*
X161885237Y-60414819D02*
X161647142Y-60414819D01*
X161647142Y-60414819D02*
X161551904Y-60462438D01*
X161551904Y-60462438D02*
X161504285Y-60510057D01*
X161504285Y-60510057D02*
X161456666Y-60605295D01*
X161456666Y-60605295D02*
X161456666Y-60700533D01*
X161456666Y-60700533D02*
X161504285Y-60843390D01*
X161504285Y-60843390D02*
X162075713Y-61414819D01*
X162075713Y-61414819D02*
X161456666Y-61414819D01*
X160837618Y-60414819D02*
X160742380Y-60414819D01*
X160742380Y-60414819D02*
X160647142Y-60462438D01*
X160647142Y-60462438D02*
X160599523Y-60510057D01*
X160599523Y-60510057D02*
X160551904Y-60605295D01*
X160551904Y-60605295D02*
X160504285Y-60795771D01*
X160504285Y-60795771D02*
X160504285Y-61033866D01*
X160504285Y-61033866D02*
X160551904Y-61224342D01*
X160551904Y-61224342D02*
X160599523Y-61319580D01*
X160599523Y-61319580D02*
X160647142Y-61367200D01*
X160647142Y-61367200D02*
X160742380Y-61414819D01*
X160742380Y-61414819D02*
X160837618Y-61414819D01*
X160837618Y-61414819D02*
X160932856Y-61367200D01*
X160932856Y-61367200D02*
X160980475Y-61319580D01*
X160980475Y-61319580D02*
X161028094Y-61224342D01*
X161028094Y-61224342D02*
X161075713Y-61033866D01*
X161075713Y-61033866D02*
X161075713Y-60795771D01*
X161075713Y-60795771D02*
X161028094Y-60605295D01*
X161028094Y-60605295D02*
X160980475Y-60510057D01*
X160980475Y-60510057D02*
X160932856Y-60462438D01*
X160932856Y-60462438D02*
X160837618Y-60414819D01*
X159599523Y-60414819D02*
X160075713Y-60414819D01*
X160075713Y-60414819D02*
X160123332Y-60891009D01*
X160123332Y-60891009D02*
X160075713Y-60843390D01*
X160075713Y-60843390D02*
X159980475Y-60795771D01*
X159980475Y-60795771D02*
X159742380Y-60795771D01*
X159742380Y-60795771D02*
X159647142Y-60843390D01*
X159647142Y-60843390D02*
X159599523Y-60891009D01*
X159599523Y-60891009D02*
X159551904Y-60986247D01*
X159551904Y-60986247D02*
X159551904Y-61224342D01*
X159551904Y-61224342D02*
X159599523Y-61319580D01*
X159599523Y-61319580D02*
X159647142Y-61367200D01*
X159647142Y-61367200D02*
X159742380Y-61414819D01*
X159742380Y-61414819D02*
X159980475Y-61414819D01*
X159980475Y-61414819D02*
X160075713Y-61367200D01*
X160075713Y-61367200D02*
X160123332Y-61319580D01*
X129349047Y-57509580D02*
X129396666Y-57557200D01*
X129396666Y-57557200D02*
X129539523Y-57604819D01*
X129539523Y-57604819D02*
X129634761Y-57604819D01*
X129634761Y-57604819D02*
X129777618Y-57557200D01*
X129777618Y-57557200D02*
X129872856Y-57461961D01*
X129872856Y-57461961D02*
X129920475Y-57366723D01*
X129920475Y-57366723D02*
X129968094Y-57176247D01*
X129968094Y-57176247D02*
X129968094Y-57033390D01*
X129968094Y-57033390D02*
X129920475Y-56842914D01*
X129920475Y-56842914D02*
X129872856Y-56747676D01*
X129872856Y-56747676D02*
X129777618Y-56652438D01*
X129777618Y-56652438D02*
X129634761Y-56604819D01*
X129634761Y-56604819D02*
X129539523Y-56604819D01*
X129539523Y-56604819D02*
X129396666Y-56652438D01*
X129396666Y-56652438D02*
X129349047Y-56700057D01*
X128396666Y-57604819D02*
X128968094Y-57604819D01*
X128682380Y-57604819D02*
X128682380Y-56604819D01*
X128682380Y-56604819D02*
X128777618Y-56747676D01*
X128777618Y-56747676D02*
X128872856Y-56842914D01*
X128872856Y-56842914D02*
X128968094Y-56890533D01*
X127777618Y-56604819D02*
X127682380Y-56604819D01*
X127682380Y-56604819D02*
X127587142Y-56652438D01*
X127587142Y-56652438D02*
X127539523Y-56700057D01*
X127539523Y-56700057D02*
X127491904Y-56795295D01*
X127491904Y-56795295D02*
X127444285Y-56985771D01*
X127444285Y-56985771D02*
X127444285Y-57223866D01*
X127444285Y-57223866D02*
X127491904Y-57414342D01*
X127491904Y-57414342D02*
X127539523Y-57509580D01*
X127539523Y-57509580D02*
X127587142Y-57557200D01*
X127587142Y-57557200D02*
X127682380Y-57604819D01*
X127682380Y-57604819D02*
X127777618Y-57604819D01*
X127777618Y-57604819D02*
X127872856Y-57557200D01*
X127872856Y-57557200D02*
X127920475Y-57509580D01*
X127920475Y-57509580D02*
X127968094Y-57414342D01*
X127968094Y-57414342D02*
X128015713Y-57223866D01*
X128015713Y-57223866D02*
X128015713Y-56985771D01*
X128015713Y-56985771D02*
X127968094Y-56795295D01*
X127968094Y-56795295D02*
X127920475Y-56700057D01*
X127920475Y-56700057D02*
X127872856Y-56652438D01*
X127872856Y-56652438D02*
X127777618Y-56604819D01*
X126491904Y-57604819D02*
X127063332Y-57604819D01*
X126777618Y-57604819D02*
X126777618Y-56604819D01*
X126777618Y-56604819D02*
X126872856Y-56747676D01*
X126872856Y-56747676D02*
X126968094Y-56842914D01*
X126968094Y-56842914D02*
X127063332Y-56890533D01*
X182729047Y-61414819D02*
X183062380Y-60938628D01*
X183300475Y-61414819D02*
X183300475Y-60414819D01*
X183300475Y-60414819D02*
X182919523Y-60414819D01*
X182919523Y-60414819D02*
X182824285Y-60462438D01*
X182824285Y-60462438D02*
X182776666Y-60510057D01*
X182776666Y-60510057D02*
X182729047Y-60605295D01*
X182729047Y-60605295D02*
X182729047Y-60748152D01*
X182729047Y-60748152D02*
X182776666Y-60843390D01*
X182776666Y-60843390D02*
X182824285Y-60891009D01*
X182824285Y-60891009D02*
X182919523Y-60938628D01*
X182919523Y-60938628D02*
X183300475Y-60938628D01*
X182348094Y-60510057D02*
X182300475Y-60462438D01*
X182300475Y-60462438D02*
X182205237Y-60414819D01*
X182205237Y-60414819D02*
X181967142Y-60414819D01*
X181967142Y-60414819D02*
X181871904Y-60462438D01*
X181871904Y-60462438D02*
X181824285Y-60510057D01*
X181824285Y-60510057D02*
X181776666Y-60605295D01*
X181776666Y-60605295D02*
X181776666Y-60700533D01*
X181776666Y-60700533D02*
X181824285Y-60843390D01*
X181824285Y-60843390D02*
X182395713Y-61414819D01*
X182395713Y-61414819D02*
X181776666Y-61414819D01*
X181157618Y-60414819D02*
X181062380Y-60414819D01*
X181062380Y-60414819D02*
X180967142Y-60462438D01*
X180967142Y-60462438D02*
X180919523Y-60510057D01*
X180919523Y-60510057D02*
X180871904Y-60605295D01*
X180871904Y-60605295D02*
X180824285Y-60795771D01*
X180824285Y-60795771D02*
X180824285Y-61033866D01*
X180824285Y-61033866D02*
X180871904Y-61224342D01*
X180871904Y-61224342D02*
X180919523Y-61319580D01*
X180919523Y-61319580D02*
X180967142Y-61367200D01*
X180967142Y-61367200D02*
X181062380Y-61414819D01*
X181062380Y-61414819D02*
X181157618Y-61414819D01*
X181157618Y-61414819D02*
X181252856Y-61367200D01*
X181252856Y-61367200D02*
X181300475Y-61319580D01*
X181300475Y-61319580D02*
X181348094Y-61224342D01*
X181348094Y-61224342D02*
X181395713Y-61033866D01*
X181395713Y-61033866D02*
X181395713Y-60795771D01*
X181395713Y-60795771D02*
X181348094Y-60605295D01*
X181348094Y-60605295D02*
X181300475Y-60510057D01*
X181300475Y-60510057D02*
X181252856Y-60462438D01*
X181252856Y-60462438D02*
X181157618Y-60414819D01*
X179967142Y-60748152D02*
X179967142Y-61414819D01*
X180205237Y-60367200D02*
X180443332Y-61081485D01*
X180443332Y-61081485D02*
X179824285Y-61081485D01*
X162369047Y-85449580D02*
X162416666Y-85497200D01*
X162416666Y-85497200D02*
X162559523Y-85544819D01*
X162559523Y-85544819D02*
X162654761Y-85544819D01*
X162654761Y-85544819D02*
X162797618Y-85497200D01*
X162797618Y-85497200D02*
X162892856Y-85401961D01*
X162892856Y-85401961D02*
X162940475Y-85306723D01*
X162940475Y-85306723D02*
X162988094Y-85116247D01*
X162988094Y-85116247D02*
X162988094Y-84973390D01*
X162988094Y-84973390D02*
X162940475Y-84782914D01*
X162940475Y-84782914D02*
X162892856Y-84687676D01*
X162892856Y-84687676D02*
X162797618Y-84592438D01*
X162797618Y-84592438D02*
X162654761Y-84544819D01*
X162654761Y-84544819D02*
X162559523Y-84544819D01*
X162559523Y-84544819D02*
X162416666Y-84592438D01*
X162416666Y-84592438D02*
X162369047Y-84640057D01*
X161988094Y-84640057D02*
X161940475Y-84592438D01*
X161940475Y-84592438D02*
X161845237Y-84544819D01*
X161845237Y-84544819D02*
X161607142Y-84544819D01*
X161607142Y-84544819D02*
X161511904Y-84592438D01*
X161511904Y-84592438D02*
X161464285Y-84640057D01*
X161464285Y-84640057D02*
X161416666Y-84735295D01*
X161416666Y-84735295D02*
X161416666Y-84830533D01*
X161416666Y-84830533D02*
X161464285Y-84973390D01*
X161464285Y-84973390D02*
X162035713Y-85544819D01*
X162035713Y-85544819D02*
X161416666Y-85544819D01*
X160797618Y-84544819D02*
X160702380Y-84544819D01*
X160702380Y-84544819D02*
X160607142Y-84592438D01*
X160607142Y-84592438D02*
X160559523Y-84640057D01*
X160559523Y-84640057D02*
X160511904Y-84735295D01*
X160511904Y-84735295D02*
X160464285Y-84925771D01*
X160464285Y-84925771D02*
X160464285Y-85163866D01*
X160464285Y-85163866D02*
X160511904Y-85354342D01*
X160511904Y-85354342D02*
X160559523Y-85449580D01*
X160559523Y-85449580D02*
X160607142Y-85497200D01*
X160607142Y-85497200D02*
X160702380Y-85544819D01*
X160702380Y-85544819D02*
X160797618Y-85544819D01*
X160797618Y-85544819D02*
X160892856Y-85497200D01*
X160892856Y-85497200D02*
X160940475Y-85449580D01*
X160940475Y-85449580D02*
X160988094Y-85354342D01*
X160988094Y-85354342D02*
X161035713Y-85163866D01*
X161035713Y-85163866D02*
X161035713Y-84925771D01*
X161035713Y-84925771D02*
X160988094Y-84735295D01*
X160988094Y-84735295D02*
X160940475Y-84640057D01*
X160940475Y-84640057D02*
X160892856Y-84592438D01*
X160892856Y-84592438D02*
X160797618Y-84544819D01*
X159607142Y-84544819D02*
X159797618Y-84544819D01*
X159797618Y-84544819D02*
X159892856Y-84592438D01*
X159892856Y-84592438D02*
X159940475Y-84640057D01*
X159940475Y-84640057D02*
X160035713Y-84782914D01*
X160035713Y-84782914D02*
X160083332Y-84973390D01*
X160083332Y-84973390D02*
X160083332Y-85354342D01*
X160083332Y-85354342D02*
X160035713Y-85449580D01*
X160035713Y-85449580D02*
X159988094Y-85497200D01*
X159988094Y-85497200D02*
X159892856Y-85544819D01*
X159892856Y-85544819D02*
X159702380Y-85544819D01*
X159702380Y-85544819D02*
X159607142Y-85497200D01*
X159607142Y-85497200D02*
X159559523Y-85449580D01*
X159559523Y-85449580D02*
X159511904Y-85354342D01*
X159511904Y-85354342D02*
X159511904Y-85116247D01*
X159511904Y-85116247D02*
X159559523Y-85021009D01*
X159559523Y-85021009D02*
X159607142Y-84973390D01*
X159607142Y-84973390D02*
X159702380Y-84925771D01*
X159702380Y-84925771D02*
X159892856Y-84925771D01*
X159892856Y-84925771D02*
X159988094Y-84973390D01*
X159988094Y-84973390D02*
X160035713Y-85021009D01*
X160035713Y-85021009D02*
X160083332Y-85116247D01*
X185269047Y-77924819D02*
X185602380Y-77448628D01*
X185840475Y-77924819D02*
X185840475Y-76924819D01*
X185840475Y-76924819D02*
X185459523Y-76924819D01*
X185459523Y-76924819D02*
X185364285Y-76972438D01*
X185364285Y-76972438D02*
X185316666Y-77020057D01*
X185316666Y-77020057D02*
X185269047Y-77115295D01*
X185269047Y-77115295D02*
X185269047Y-77258152D01*
X185269047Y-77258152D02*
X185316666Y-77353390D01*
X185316666Y-77353390D02*
X185364285Y-77401009D01*
X185364285Y-77401009D02*
X185459523Y-77448628D01*
X185459523Y-77448628D02*
X185840475Y-77448628D01*
X184888094Y-77020057D02*
X184840475Y-76972438D01*
X184840475Y-76972438D02*
X184745237Y-76924819D01*
X184745237Y-76924819D02*
X184507142Y-76924819D01*
X184507142Y-76924819D02*
X184411904Y-76972438D01*
X184411904Y-76972438D02*
X184364285Y-77020057D01*
X184364285Y-77020057D02*
X184316666Y-77115295D01*
X184316666Y-77115295D02*
X184316666Y-77210533D01*
X184316666Y-77210533D02*
X184364285Y-77353390D01*
X184364285Y-77353390D02*
X184935713Y-77924819D01*
X184935713Y-77924819D02*
X184316666Y-77924819D01*
X183697618Y-76924819D02*
X183602380Y-76924819D01*
X183602380Y-76924819D02*
X183507142Y-76972438D01*
X183507142Y-76972438D02*
X183459523Y-77020057D01*
X183459523Y-77020057D02*
X183411904Y-77115295D01*
X183411904Y-77115295D02*
X183364285Y-77305771D01*
X183364285Y-77305771D02*
X183364285Y-77543866D01*
X183364285Y-77543866D02*
X183411904Y-77734342D01*
X183411904Y-77734342D02*
X183459523Y-77829580D01*
X183459523Y-77829580D02*
X183507142Y-77877200D01*
X183507142Y-77877200D02*
X183602380Y-77924819D01*
X183602380Y-77924819D02*
X183697618Y-77924819D01*
X183697618Y-77924819D02*
X183792856Y-77877200D01*
X183792856Y-77877200D02*
X183840475Y-77829580D01*
X183840475Y-77829580D02*
X183888094Y-77734342D01*
X183888094Y-77734342D02*
X183935713Y-77543866D01*
X183935713Y-77543866D02*
X183935713Y-77305771D01*
X183935713Y-77305771D02*
X183888094Y-77115295D01*
X183888094Y-77115295D02*
X183840475Y-77020057D01*
X183840475Y-77020057D02*
X183792856Y-76972438D01*
X183792856Y-76972438D02*
X183697618Y-76924819D01*
X182888094Y-77924819D02*
X182697618Y-77924819D01*
X182697618Y-77924819D02*
X182602380Y-77877200D01*
X182602380Y-77877200D02*
X182554761Y-77829580D01*
X182554761Y-77829580D02*
X182459523Y-77686723D01*
X182459523Y-77686723D02*
X182411904Y-77496247D01*
X182411904Y-77496247D02*
X182411904Y-77115295D01*
X182411904Y-77115295D02*
X182459523Y-77020057D01*
X182459523Y-77020057D02*
X182507142Y-76972438D01*
X182507142Y-76972438D02*
X182602380Y-76924819D01*
X182602380Y-76924819D02*
X182792856Y-76924819D01*
X182792856Y-76924819D02*
X182888094Y-76972438D01*
X182888094Y-76972438D02*
X182935713Y-77020057D01*
X182935713Y-77020057D02*
X182983332Y-77115295D01*
X182983332Y-77115295D02*
X182983332Y-77353390D01*
X182983332Y-77353390D02*
X182935713Y-77448628D01*
X182935713Y-77448628D02*
X182888094Y-77496247D01*
X182888094Y-77496247D02*
X182792856Y-77543866D01*
X182792856Y-77543866D02*
X182602380Y-77543866D01*
X182602380Y-77543866D02*
X182507142Y-77496247D01*
X182507142Y-77496247D02*
X182459523Y-77448628D01*
X182459523Y-77448628D02*
X182411904Y-77353390D01*
X124626666Y-51889819D02*
X124959999Y-51413628D01*
X125198094Y-51889819D02*
X125198094Y-50889819D01*
X125198094Y-50889819D02*
X124817142Y-50889819D01*
X124817142Y-50889819D02*
X124721904Y-50937438D01*
X124721904Y-50937438D02*
X124674285Y-50985057D01*
X124674285Y-50985057D02*
X124626666Y-51080295D01*
X124626666Y-51080295D02*
X124626666Y-51223152D01*
X124626666Y-51223152D02*
X124674285Y-51318390D01*
X124674285Y-51318390D02*
X124721904Y-51366009D01*
X124721904Y-51366009D02*
X124817142Y-51413628D01*
X124817142Y-51413628D02*
X125198094Y-51413628D01*
X123674285Y-51889819D02*
X124245713Y-51889819D01*
X123959999Y-51889819D02*
X123959999Y-50889819D01*
X123959999Y-50889819D02*
X124055237Y-51032676D01*
X124055237Y-51032676D02*
X124150475Y-51127914D01*
X124150475Y-51127914D02*
X124245713Y-51175533D01*
X183249047Y-68304580D02*
X183296666Y-68352200D01*
X183296666Y-68352200D02*
X183439523Y-68399819D01*
X183439523Y-68399819D02*
X183534761Y-68399819D01*
X183534761Y-68399819D02*
X183677618Y-68352200D01*
X183677618Y-68352200D02*
X183772856Y-68256961D01*
X183772856Y-68256961D02*
X183820475Y-68161723D01*
X183820475Y-68161723D02*
X183868094Y-67971247D01*
X183868094Y-67971247D02*
X183868094Y-67828390D01*
X183868094Y-67828390D02*
X183820475Y-67637914D01*
X183820475Y-67637914D02*
X183772856Y-67542676D01*
X183772856Y-67542676D02*
X183677618Y-67447438D01*
X183677618Y-67447438D02*
X183534761Y-67399819D01*
X183534761Y-67399819D02*
X183439523Y-67399819D01*
X183439523Y-67399819D02*
X183296666Y-67447438D01*
X183296666Y-67447438D02*
X183249047Y-67495057D01*
X182868094Y-67495057D02*
X182820475Y-67447438D01*
X182820475Y-67447438D02*
X182725237Y-67399819D01*
X182725237Y-67399819D02*
X182487142Y-67399819D01*
X182487142Y-67399819D02*
X182391904Y-67447438D01*
X182391904Y-67447438D02*
X182344285Y-67495057D01*
X182344285Y-67495057D02*
X182296666Y-67590295D01*
X182296666Y-67590295D02*
X182296666Y-67685533D01*
X182296666Y-67685533D02*
X182344285Y-67828390D01*
X182344285Y-67828390D02*
X182915713Y-68399819D01*
X182915713Y-68399819D02*
X182296666Y-68399819D01*
X181677618Y-67399819D02*
X181582380Y-67399819D01*
X181582380Y-67399819D02*
X181487142Y-67447438D01*
X181487142Y-67447438D02*
X181439523Y-67495057D01*
X181439523Y-67495057D02*
X181391904Y-67590295D01*
X181391904Y-67590295D02*
X181344285Y-67780771D01*
X181344285Y-67780771D02*
X181344285Y-68018866D01*
X181344285Y-68018866D02*
X181391904Y-68209342D01*
X181391904Y-68209342D02*
X181439523Y-68304580D01*
X181439523Y-68304580D02*
X181487142Y-68352200D01*
X181487142Y-68352200D02*
X181582380Y-68399819D01*
X181582380Y-68399819D02*
X181677618Y-68399819D01*
X181677618Y-68399819D02*
X181772856Y-68352200D01*
X181772856Y-68352200D02*
X181820475Y-68304580D01*
X181820475Y-68304580D02*
X181868094Y-68209342D01*
X181868094Y-68209342D02*
X181915713Y-68018866D01*
X181915713Y-68018866D02*
X181915713Y-67780771D01*
X181915713Y-67780771D02*
X181868094Y-67590295D01*
X181868094Y-67590295D02*
X181820475Y-67495057D01*
X181820475Y-67495057D02*
X181772856Y-67447438D01*
X181772856Y-67447438D02*
X181677618Y-67399819D01*
X180963332Y-67495057D02*
X180915713Y-67447438D01*
X180915713Y-67447438D02*
X180820475Y-67399819D01*
X180820475Y-67399819D02*
X180582380Y-67399819D01*
X180582380Y-67399819D02*
X180487142Y-67447438D01*
X180487142Y-67447438D02*
X180439523Y-67495057D01*
X180439523Y-67495057D02*
X180391904Y-67590295D01*
X180391904Y-67590295D02*
X180391904Y-67685533D01*
X180391904Y-67685533D02*
X180439523Y-67828390D01*
X180439523Y-67828390D02*
X181010951Y-68399819D01*
X181010951Y-68399819D02*
X180391904Y-68399819D01*
X119229047Y-89354819D02*
X119562380Y-88878628D01*
X119800475Y-89354819D02*
X119800475Y-88354819D01*
X119800475Y-88354819D02*
X119419523Y-88354819D01*
X119419523Y-88354819D02*
X119324285Y-88402438D01*
X119324285Y-88402438D02*
X119276666Y-88450057D01*
X119276666Y-88450057D02*
X119229047Y-88545295D01*
X119229047Y-88545295D02*
X119229047Y-88688152D01*
X119229047Y-88688152D02*
X119276666Y-88783390D01*
X119276666Y-88783390D02*
X119324285Y-88831009D01*
X119324285Y-88831009D02*
X119419523Y-88878628D01*
X119419523Y-88878628D02*
X119800475Y-88878628D01*
X118276666Y-89354819D02*
X118848094Y-89354819D01*
X118562380Y-89354819D02*
X118562380Y-88354819D01*
X118562380Y-88354819D02*
X118657618Y-88497676D01*
X118657618Y-88497676D02*
X118752856Y-88592914D01*
X118752856Y-88592914D02*
X118848094Y-88640533D01*
X117324285Y-89354819D02*
X117895713Y-89354819D01*
X117609999Y-89354819D02*
X117609999Y-88354819D01*
X117609999Y-88354819D02*
X117705237Y-88497676D01*
X117705237Y-88497676D02*
X117800475Y-88592914D01*
X117800475Y-88592914D02*
X117895713Y-88640533D01*
X116943332Y-88450057D02*
X116895713Y-88402438D01*
X116895713Y-88402438D02*
X116800475Y-88354819D01*
X116800475Y-88354819D02*
X116562380Y-88354819D01*
X116562380Y-88354819D02*
X116467142Y-88402438D01*
X116467142Y-88402438D02*
X116419523Y-88450057D01*
X116419523Y-88450057D02*
X116371904Y-88545295D01*
X116371904Y-88545295D02*
X116371904Y-88640533D01*
X116371904Y-88640533D02*
X116419523Y-88783390D01*
X116419523Y-88783390D02*
X116990951Y-89354819D01*
X116990951Y-89354819D02*
X116371904Y-89354819D01*
X139434047Y-73384580D02*
X139481666Y-73432200D01*
X139481666Y-73432200D02*
X139624523Y-73479819D01*
X139624523Y-73479819D02*
X139719761Y-73479819D01*
X139719761Y-73479819D02*
X139862618Y-73432200D01*
X139862618Y-73432200D02*
X139957856Y-73336961D01*
X139957856Y-73336961D02*
X140005475Y-73241723D01*
X140005475Y-73241723D02*
X140053094Y-73051247D01*
X140053094Y-73051247D02*
X140053094Y-72908390D01*
X140053094Y-72908390D02*
X140005475Y-72717914D01*
X140005475Y-72717914D02*
X139957856Y-72622676D01*
X139957856Y-72622676D02*
X139862618Y-72527438D01*
X139862618Y-72527438D02*
X139719761Y-72479819D01*
X139719761Y-72479819D02*
X139624523Y-72479819D01*
X139624523Y-72479819D02*
X139481666Y-72527438D01*
X139481666Y-72527438D02*
X139434047Y-72575057D01*
X138481666Y-73479819D02*
X139053094Y-73479819D01*
X138767380Y-73479819D02*
X138767380Y-72479819D01*
X138767380Y-72479819D02*
X138862618Y-72622676D01*
X138862618Y-72622676D02*
X138957856Y-72717914D01*
X138957856Y-72717914D02*
X139053094Y-72765533D01*
X137862618Y-72479819D02*
X137767380Y-72479819D01*
X137767380Y-72479819D02*
X137672142Y-72527438D01*
X137672142Y-72527438D02*
X137624523Y-72575057D01*
X137624523Y-72575057D02*
X137576904Y-72670295D01*
X137576904Y-72670295D02*
X137529285Y-72860771D01*
X137529285Y-72860771D02*
X137529285Y-73098866D01*
X137529285Y-73098866D02*
X137576904Y-73289342D01*
X137576904Y-73289342D02*
X137624523Y-73384580D01*
X137624523Y-73384580D02*
X137672142Y-73432200D01*
X137672142Y-73432200D02*
X137767380Y-73479819D01*
X137767380Y-73479819D02*
X137862618Y-73479819D01*
X137862618Y-73479819D02*
X137957856Y-73432200D01*
X137957856Y-73432200D02*
X138005475Y-73384580D01*
X138005475Y-73384580D02*
X138053094Y-73289342D01*
X138053094Y-73289342D02*
X138100713Y-73098866D01*
X138100713Y-73098866D02*
X138100713Y-72860771D01*
X138100713Y-72860771D02*
X138053094Y-72670295D01*
X138053094Y-72670295D02*
X138005475Y-72575057D01*
X138005475Y-72575057D02*
X137957856Y-72527438D01*
X137957856Y-72527438D02*
X137862618Y-72479819D01*
X137195951Y-72479819D02*
X136576904Y-72479819D01*
X136576904Y-72479819D02*
X136910237Y-72860771D01*
X136910237Y-72860771D02*
X136767380Y-72860771D01*
X136767380Y-72860771D02*
X136672142Y-72908390D01*
X136672142Y-72908390D02*
X136624523Y-72956009D01*
X136624523Y-72956009D02*
X136576904Y-73051247D01*
X136576904Y-73051247D02*
X136576904Y-73289342D01*
X136576904Y-73289342D02*
X136624523Y-73384580D01*
X136624523Y-73384580D02*
X136672142Y-73432200D01*
X136672142Y-73432200D02*
X136767380Y-73479819D01*
X136767380Y-73479819D02*
X137053094Y-73479819D01*
X137053094Y-73479819D02*
X137148332Y-73432200D01*
X137148332Y-73432200D02*
X137195951Y-73384580D01*
D16*
X174558000Y-47425181D02*
X174558000Y-48513752D01*
X174558000Y-48513752D02*
X174630571Y-48731467D01*
X174630571Y-48731467D02*
X174775714Y-48876610D01*
X174775714Y-48876610D02*
X174993428Y-48949181D01*
X174993428Y-48949181D02*
X175138571Y-48949181D01*
X173904857Y-47570324D02*
X173832285Y-47497752D01*
X173832285Y-47497752D02*
X173687143Y-47425181D01*
X173687143Y-47425181D02*
X173324285Y-47425181D01*
X173324285Y-47425181D02*
X173179143Y-47497752D01*
X173179143Y-47497752D02*
X173106571Y-47570324D01*
X173106571Y-47570324D02*
X173034000Y-47715467D01*
X173034000Y-47715467D02*
X173034000Y-47860610D01*
X173034000Y-47860610D02*
X173106571Y-48078324D01*
X173106571Y-48078324D02*
X173977428Y-48949181D01*
X173977428Y-48949181D02*
X173034000Y-48949181D01*
X126298000Y-47425181D02*
X126298000Y-48513752D01*
X126298000Y-48513752D02*
X126370571Y-48731467D01*
X126370571Y-48731467D02*
X126515714Y-48876610D01*
X126515714Y-48876610D02*
X126733428Y-48949181D01*
X126733428Y-48949181D02*
X126878571Y-48949181D01*
X125717428Y-47425181D02*
X124774000Y-47425181D01*
X124774000Y-47425181D02*
X125282000Y-48005752D01*
X125282000Y-48005752D02*
X125064285Y-48005752D01*
X125064285Y-48005752D02*
X124919143Y-48078324D01*
X124919143Y-48078324D02*
X124846571Y-48150895D01*
X124846571Y-48150895D02*
X124774000Y-48296038D01*
X124774000Y-48296038D02*
X124774000Y-48658895D01*
X124774000Y-48658895D02*
X124846571Y-48804038D01*
X124846571Y-48804038D02*
X124919143Y-48876610D01*
X124919143Y-48876610D02*
X125064285Y-48949181D01*
X125064285Y-48949181D02*
X125499714Y-48949181D01*
X125499714Y-48949181D02*
X125644857Y-48876610D01*
X125644857Y-48876610D02*
X125717428Y-48804038D01*
D15*
X150979047Y-63859580D02*
X151026666Y-63907200D01*
X151026666Y-63907200D02*
X151169523Y-63954819D01*
X151169523Y-63954819D02*
X151264761Y-63954819D01*
X151264761Y-63954819D02*
X151407618Y-63907200D01*
X151407618Y-63907200D02*
X151502856Y-63811961D01*
X151502856Y-63811961D02*
X151550475Y-63716723D01*
X151550475Y-63716723D02*
X151598094Y-63526247D01*
X151598094Y-63526247D02*
X151598094Y-63383390D01*
X151598094Y-63383390D02*
X151550475Y-63192914D01*
X151550475Y-63192914D02*
X151502856Y-63097676D01*
X151502856Y-63097676D02*
X151407618Y-63002438D01*
X151407618Y-63002438D02*
X151264761Y-62954819D01*
X151264761Y-62954819D02*
X151169523Y-62954819D01*
X151169523Y-62954819D02*
X151026666Y-63002438D01*
X151026666Y-63002438D02*
X150979047Y-63050057D01*
X150026666Y-63954819D02*
X150598094Y-63954819D01*
X150312380Y-63954819D02*
X150312380Y-62954819D01*
X150312380Y-62954819D02*
X150407618Y-63097676D01*
X150407618Y-63097676D02*
X150502856Y-63192914D01*
X150502856Y-63192914D02*
X150598094Y-63240533D01*
X149407618Y-62954819D02*
X149312380Y-62954819D01*
X149312380Y-62954819D02*
X149217142Y-63002438D01*
X149217142Y-63002438D02*
X149169523Y-63050057D01*
X149169523Y-63050057D02*
X149121904Y-63145295D01*
X149121904Y-63145295D02*
X149074285Y-63335771D01*
X149074285Y-63335771D02*
X149074285Y-63573866D01*
X149074285Y-63573866D02*
X149121904Y-63764342D01*
X149121904Y-63764342D02*
X149169523Y-63859580D01*
X149169523Y-63859580D02*
X149217142Y-63907200D01*
X149217142Y-63907200D02*
X149312380Y-63954819D01*
X149312380Y-63954819D02*
X149407618Y-63954819D01*
X149407618Y-63954819D02*
X149502856Y-63907200D01*
X149502856Y-63907200D02*
X149550475Y-63859580D01*
X149550475Y-63859580D02*
X149598094Y-63764342D01*
X149598094Y-63764342D02*
X149645713Y-63573866D01*
X149645713Y-63573866D02*
X149645713Y-63335771D01*
X149645713Y-63335771D02*
X149598094Y-63145295D01*
X149598094Y-63145295D02*
X149550475Y-63050057D01*
X149550475Y-63050057D02*
X149502856Y-63002438D01*
X149502856Y-63002438D02*
X149407618Y-62954819D01*
X148502856Y-63383390D02*
X148598094Y-63335771D01*
X148598094Y-63335771D02*
X148645713Y-63288152D01*
X148645713Y-63288152D02*
X148693332Y-63192914D01*
X148693332Y-63192914D02*
X148693332Y-63145295D01*
X148693332Y-63145295D02*
X148645713Y-63050057D01*
X148645713Y-63050057D02*
X148598094Y-63002438D01*
X148598094Y-63002438D02*
X148502856Y-62954819D01*
X148502856Y-62954819D02*
X148312380Y-62954819D01*
X148312380Y-62954819D02*
X148217142Y-63002438D01*
X148217142Y-63002438D02*
X148169523Y-63050057D01*
X148169523Y-63050057D02*
X148121904Y-63145295D01*
X148121904Y-63145295D02*
X148121904Y-63192914D01*
X148121904Y-63192914D02*
X148169523Y-63288152D01*
X148169523Y-63288152D02*
X148217142Y-63335771D01*
X148217142Y-63335771D02*
X148312380Y-63383390D01*
X148312380Y-63383390D02*
X148502856Y-63383390D01*
X148502856Y-63383390D02*
X148598094Y-63431009D01*
X148598094Y-63431009D02*
X148645713Y-63478628D01*
X148645713Y-63478628D02*
X148693332Y-63573866D01*
X148693332Y-63573866D02*
X148693332Y-63764342D01*
X148693332Y-63764342D02*
X148645713Y-63859580D01*
X148645713Y-63859580D02*
X148598094Y-63907200D01*
X148598094Y-63907200D02*
X148502856Y-63954819D01*
X148502856Y-63954819D02*
X148312380Y-63954819D01*
X148312380Y-63954819D02*
X148217142Y-63907200D01*
X148217142Y-63907200D02*
X148169523Y-63859580D01*
X148169523Y-63859580D02*
X148121904Y-63764342D01*
X148121904Y-63764342D02*
X148121904Y-63573866D01*
X148121904Y-63573866D02*
X148169523Y-63478628D01*
X148169523Y-63478628D02*
X148217142Y-63431009D01*
X148217142Y-63431009D02*
X148312380Y-63383390D01*
X145595180Y-82399047D02*
X146071371Y-82732380D01*
X145595180Y-82970475D02*
X146595180Y-82970475D01*
X146595180Y-82970475D02*
X146595180Y-82589523D01*
X146595180Y-82589523D02*
X146547561Y-82494285D01*
X146547561Y-82494285D02*
X146499942Y-82446666D01*
X146499942Y-82446666D02*
X146404704Y-82399047D01*
X146404704Y-82399047D02*
X146261847Y-82399047D01*
X146261847Y-82399047D02*
X146166609Y-82446666D01*
X146166609Y-82446666D02*
X146118990Y-82494285D01*
X146118990Y-82494285D02*
X146071371Y-82589523D01*
X146071371Y-82589523D02*
X146071371Y-82970475D01*
X145595180Y-81446666D02*
X145595180Y-82018094D01*
X145595180Y-81732380D02*
X146595180Y-81732380D01*
X146595180Y-81732380D02*
X146452323Y-81827618D01*
X146452323Y-81827618D02*
X146357085Y-81922856D01*
X146357085Y-81922856D02*
X146309466Y-82018094D01*
X145595180Y-80494285D02*
X145595180Y-81065713D01*
X145595180Y-80779999D02*
X146595180Y-80779999D01*
X146595180Y-80779999D02*
X146452323Y-80875237D01*
X146452323Y-80875237D02*
X146357085Y-80970475D01*
X146357085Y-80970475D02*
X146309466Y-81065713D01*
X146261847Y-79637142D02*
X145595180Y-79637142D01*
X146642800Y-79875237D02*
X145928514Y-80113332D01*
X145928514Y-80113332D02*
X145928514Y-79494285D01*
X119229047Y-57604819D02*
X119562380Y-57128628D01*
X119800475Y-57604819D02*
X119800475Y-56604819D01*
X119800475Y-56604819D02*
X119419523Y-56604819D01*
X119419523Y-56604819D02*
X119324285Y-56652438D01*
X119324285Y-56652438D02*
X119276666Y-56700057D01*
X119276666Y-56700057D02*
X119229047Y-56795295D01*
X119229047Y-56795295D02*
X119229047Y-56938152D01*
X119229047Y-56938152D02*
X119276666Y-57033390D01*
X119276666Y-57033390D02*
X119324285Y-57081009D01*
X119324285Y-57081009D02*
X119419523Y-57128628D01*
X119419523Y-57128628D02*
X119800475Y-57128628D01*
X118276666Y-57604819D02*
X118848094Y-57604819D01*
X118562380Y-57604819D02*
X118562380Y-56604819D01*
X118562380Y-56604819D02*
X118657618Y-56747676D01*
X118657618Y-56747676D02*
X118752856Y-56842914D01*
X118752856Y-56842914D02*
X118848094Y-56890533D01*
X117657618Y-56604819D02*
X117562380Y-56604819D01*
X117562380Y-56604819D02*
X117467142Y-56652438D01*
X117467142Y-56652438D02*
X117419523Y-56700057D01*
X117419523Y-56700057D02*
X117371904Y-56795295D01*
X117371904Y-56795295D02*
X117324285Y-56985771D01*
X117324285Y-56985771D02*
X117324285Y-57223866D01*
X117324285Y-57223866D02*
X117371904Y-57414342D01*
X117371904Y-57414342D02*
X117419523Y-57509580D01*
X117419523Y-57509580D02*
X117467142Y-57557200D01*
X117467142Y-57557200D02*
X117562380Y-57604819D01*
X117562380Y-57604819D02*
X117657618Y-57604819D01*
X117657618Y-57604819D02*
X117752856Y-57557200D01*
X117752856Y-57557200D02*
X117800475Y-57509580D01*
X117800475Y-57509580D02*
X117848094Y-57414342D01*
X117848094Y-57414342D02*
X117895713Y-57223866D01*
X117895713Y-57223866D02*
X117895713Y-56985771D01*
X117895713Y-56985771D02*
X117848094Y-56795295D01*
X117848094Y-56795295D02*
X117800475Y-56700057D01*
X117800475Y-56700057D02*
X117752856Y-56652438D01*
X117752856Y-56652438D02*
X117657618Y-56604819D01*
X116371904Y-57604819D02*
X116943332Y-57604819D01*
X116657618Y-57604819D02*
X116657618Y-56604819D01*
X116657618Y-56604819D02*
X116752856Y-56747676D01*
X116752856Y-56747676D02*
X116848094Y-56842914D01*
X116848094Y-56842914D02*
X116943332Y-56890533D01*
X139549047Y-57604819D02*
X139882380Y-57128628D01*
X140120475Y-57604819D02*
X140120475Y-56604819D01*
X140120475Y-56604819D02*
X139739523Y-56604819D01*
X139739523Y-56604819D02*
X139644285Y-56652438D01*
X139644285Y-56652438D02*
X139596666Y-56700057D01*
X139596666Y-56700057D02*
X139549047Y-56795295D01*
X139549047Y-56795295D02*
X139549047Y-56938152D01*
X139549047Y-56938152D02*
X139596666Y-57033390D01*
X139596666Y-57033390D02*
X139644285Y-57081009D01*
X139644285Y-57081009D02*
X139739523Y-57128628D01*
X139739523Y-57128628D02*
X140120475Y-57128628D01*
X138596666Y-57604819D02*
X139168094Y-57604819D01*
X138882380Y-57604819D02*
X138882380Y-56604819D01*
X138882380Y-56604819D02*
X138977618Y-56747676D01*
X138977618Y-56747676D02*
X139072856Y-56842914D01*
X139072856Y-56842914D02*
X139168094Y-56890533D01*
X137977618Y-56604819D02*
X137882380Y-56604819D01*
X137882380Y-56604819D02*
X137787142Y-56652438D01*
X137787142Y-56652438D02*
X137739523Y-56700057D01*
X137739523Y-56700057D02*
X137691904Y-56795295D01*
X137691904Y-56795295D02*
X137644285Y-56985771D01*
X137644285Y-56985771D02*
X137644285Y-57223866D01*
X137644285Y-57223866D02*
X137691904Y-57414342D01*
X137691904Y-57414342D02*
X137739523Y-57509580D01*
X137739523Y-57509580D02*
X137787142Y-57557200D01*
X137787142Y-57557200D02*
X137882380Y-57604819D01*
X137882380Y-57604819D02*
X137977618Y-57604819D01*
X137977618Y-57604819D02*
X138072856Y-57557200D01*
X138072856Y-57557200D02*
X138120475Y-57509580D01*
X138120475Y-57509580D02*
X138168094Y-57414342D01*
X138168094Y-57414342D02*
X138215713Y-57223866D01*
X138215713Y-57223866D02*
X138215713Y-56985771D01*
X138215713Y-56985771D02*
X138168094Y-56795295D01*
X138168094Y-56795295D02*
X138120475Y-56700057D01*
X138120475Y-56700057D02*
X138072856Y-56652438D01*
X138072856Y-56652438D02*
X137977618Y-56604819D01*
X137263332Y-56700057D02*
X137215713Y-56652438D01*
X137215713Y-56652438D02*
X137120475Y-56604819D01*
X137120475Y-56604819D02*
X136882380Y-56604819D01*
X136882380Y-56604819D02*
X136787142Y-56652438D01*
X136787142Y-56652438D02*
X136739523Y-56700057D01*
X136739523Y-56700057D02*
X136691904Y-56795295D01*
X136691904Y-56795295D02*
X136691904Y-56890533D01*
X136691904Y-56890533D02*
X136739523Y-57033390D01*
X136739523Y-57033390D02*
X137310951Y-57604819D01*
X137310951Y-57604819D02*
X136691904Y-57604819D01*
X169076666Y-51889819D02*
X169409999Y-51413628D01*
X169648094Y-51889819D02*
X169648094Y-50889819D01*
X169648094Y-50889819D02*
X169267142Y-50889819D01*
X169267142Y-50889819D02*
X169171904Y-50937438D01*
X169171904Y-50937438D02*
X169124285Y-50985057D01*
X169124285Y-50985057D02*
X169076666Y-51080295D01*
X169076666Y-51080295D02*
X169076666Y-51223152D01*
X169076666Y-51223152D02*
X169124285Y-51318390D01*
X169124285Y-51318390D02*
X169171904Y-51366009D01*
X169171904Y-51366009D02*
X169267142Y-51413628D01*
X169267142Y-51413628D02*
X169648094Y-51413628D01*
X168695713Y-50985057D02*
X168648094Y-50937438D01*
X168648094Y-50937438D02*
X168552856Y-50889819D01*
X168552856Y-50889819D02*
X168314761Y-50889819D01*
X168314761Y-50889819D02*
X168219523Y-50937438D01*
X168219523Y-50937438D02*
X168171904Y-50985057D01*
X168171904Y-50985057D02*
X168124285Y-51080295D01*
X168124285Y-51080295D02*
X168124285Y-51175533D01*
X168124285Y-51175533D02*
X168171904Y-51318390D01*
X168171904Y-51318390D02*
X168743332Y-51889819D01*
X168743332Y-51889819D02*
X168124285Y-51889819D01*
X182729047Y-57604819D02*
X183062380Y-57128628D01*
X183300475Y-57604819D02*
X183300475Y-56604819D01*
X183300475Y-56604819D02*
X182919523Y-56604819D01*
X182919523Y-56604819D02*
X182824285Y-56652438D01*
X182824285Y-56652438D02*
X182776666Y-56700057D01*
X182776666Y-56700057D02*
X182729047Y-56795295D01*
X182729047Y-56795295D02*
X182729047Y-56938152D01*
X182729047Y-56938152D02*
X182776666Y-57033390D01*
X182776666Y-57033390D02*
X182824285Y-57081009D01*
X182824285Y-57081009D02*
X182919523Y-57128628D01*
X182919523Y-57128628D02*
X183300475Y-57128628D01*
X182348094Y-56700057D02*
X182300475Y-56652438D01*
X182300475Y-56652438D02*
X182205237Y-56604819D01*
X182205237Y-56604819D02*
X181967142Y-56604819D01*
X181967142Y-56604819D02*
X181871904Y-56652438D01*
X181871904Y-56652438D02*
X181824285Y-56700057D01*
X181824285Y-56700057D02*
X181776666Y-56795295D01*
X181776666Y-56795295D02*
X181776666Y-56890533D01*
X181776666Y-56890533D02*
X181824285Y-57033390D01*
X181824285Y-57033390D02*
X182395713Y-57604819D01*
X182395713Y-57604819D02*
X181776666Y-57604819D01*
X181157618Y-56604819D02*
X181062380Y-56604819D01*
X181062380Y-56604819D02*
X180967142Y-56652438D01*
X180967142Y-56652438D02*
X180919523Y-56700057D01*
X180919523Y-56700057D02*
X180871904Y-56795295D01*
X180871904Y-56795295D02*
X180824285Y-56985771D01*
X180824285Y-56985771D02*
X180824285Y-57223866D01*
X180824285Y-57223866D02*
X180871904Y-57414342D01*
X180871904Y-57414342D02*
X180919523Y-57509580D01*
X180919523Y-57509580D02*
X180967142Y-57557200D01*
X180967142Y-57557200D02*
X181062380Y-57604819D01*
X181062380Y-57604819D02*
X181157618Y-57604819D01*
X181157618Y-57604819D02*
X181252856Y-57557200D01*
X181252856Y-57557200D02*
X181300475Y-57509580D01*
X181300475Y-57509580D02*
X181348094Y-57414342D01*
X181348094Y-57414342D02*
X181395713Y-57223866D01*
X181395713Y-57223866D02*
X181395713Y-56985771D01*
X181395713Y-56985771D02*
X181348094Y-56795295D01*
X181348094Y-56795295D02*
X181300475Y-56700057D01*
X181300475Y-56700057D02*
X181252856Y-56652438D01*
X181252856Y-56652438D02*
X181157618Y-56604819D01*
X179871904Y-57604819D02*
X180443332Y-57604819D01*
X180157618Y-57604819D02*
X180157618Y-56604819D01*
X180157618Y-56604819D02*
X180252856Y-56747676D01*
X180252856Y-56747676D02*
X180348094Y-56842914D01*
X180348094Y-56842914D02*
X180443332Y-56890533D01*
X162409047Y-57604819D02*
X162742380Y-57128628D01*
X162980475Y-57604819D02*
X162980475Y-56604819D01*
X162980475Y-56604819D02*
X162599523Y-56604819D01*
X162599523Y-56604819D02*
X162504285Y-56652438D01*
X162504285Y-56652438D02*
X162456666Y-56700057D01*
X162456666Y-56700057D02*
X162409047Y-56795295D01*
X162409047Y-56795295D02*
X162409047Y-56938152D01*
X162409047Y-56938152D02*
X162456666Y-57033390D01*
X162456666Y-57033390D02*
X162504285Y-57081009D01*
X162504285Y-57081009D02*
X162599523Y-57128628D01*
X162599523Y-57128628D02*
X162980475Y-57128628D01*
X162028094Y-56700057D02*
X161980475Y-56652438D01*
X161980475Y-56652438D02*
X161885237Y-56604819D01*
X161885237Y-56604819D02*
X161647142Y-56604819D01*
X161647142Y-56604819D02*
X161551904Y-56652438D01*
X161551904Y-56652438D02*
X161504285Y-56700057D01*
X161504285Y-56700057D02*
X161456666Y-56795295D01*
X161456666Y-56795295D02*
X161456666Y-56890533D01*
X161456666Y-56890533D02*
X161504285Y-57033390D01*
X161504285Y-57033390D02*
X162075713Y-57604819D01*
X162075713Y-57604819D02*
X161456666Y-57604819D01*
X160837618Y-56604819D02*
X160742380Y-56604819D01*
X160742380Y-56604819D02*
X160647142Y-56652438D01*
X160647142Y-56652438D02*
X160599523Y-56700057D01*
X160599523Y-56700057D02*
X160551904Y-56795295D01*
X160551904Y-56795295D02*
X160504285Y-56985771D01*
X160504285Y-56985771D02*
X160504285Y-57223866D01*
X160504285Y-57223866D02*
X160551904Y-57414342D01*
X160551904Y-57414342D02*
X160599523Y-57509580D01*
X160599523Y-57509580D02*
X160647142Y-57557200D01*
X160647142Y-57557200D02*
X160742380Y-57604819D01*
X160742380Y-57604819D02*
X160837618Y-57604819D01*
X160837618Y-57604819D02*
X160932856Y-57557200D01*
X160932856Y-57557200D02*
X160980475Y-57509580D01*
X160980475Y-57509580D02*
X161028094Y-57414342D01*
X161028094Y-57414342D02*
X161075713Y-57223866D01*
X161075713Y-57223866D02*
X161075713Y-56985771D01*
X161075713Y-56985771D02*
X161028094Y-56795295D01*
X161028094Y-56795295D02*
X160980475Y-56700057D01*
X160980475Y-56700057D02*
X160932856Y-56652438D01*
X160932856Y-56652438D02*
X160837618Y-56604819D01*
X160123332Y-56700057D02*
X160075713Y-56652438D01*
X160075713Y-56652438D02*
X159980475Y-56604819D01*
X159980475Y-56604819D02*
X159742380Y-56604819D01*
X159742380Y-56604819D02*
X159647142Y-56652438D01*
X159647142Y-56652438D02*
X159599523Y-56700057D01*
X159599523Y-56700057D02*
X159551904Y-56795295D01*
X159551904Y-56795295D02*
X159551904Y-56890533D01*
X159551904Y-56890533D02*
X159599523Y-57033390D01*
X159599523Y-57033390D02*
X160170951Y-57604819D01*
X160170951Y-57604819D02*
X159551904Y-57604819D01*
X129429047Y-72749580D02*
X129476666Y-72797200D01*
X129476666Y-72797200D02*
X129619523Y-72844819D01*
X129619523Y-72844819D02*
X129714761Y-72844819D01*
X129714761Y-72844819D02*
X129857618Y-72797200D01*
X129857618Y-72797200D02*
X129952856Y-72701961D01*
X129952856Y-72701961D02*
X130000475Y-72606723D01*
X130000475Y-72606723D02*
X130048094Y-72416247D01*
X130048094Y-72416247D02*
X130048094Y-72273390D01*
X130048094Y-72273390D02*
X130000475Y-72082914D01*
X130000475Y-72082914D02*
X129952856Y-71987676D01*
X129952856Y-71987676D02*
X129857618Y-71892438D01*
X129857618Y-71892438D02*
X129714761Y-71844819D01*
X129714761Y-71844819D02*
X129619523Y-71844819D01*
X129619523Y-71844819D02*
X129476666Y-71892438D01*
X129476666Y-71892438D02*
X129429047Y-71940057D01*
X128476666Y-72844819D02*
X129048094Y-72844819D01*
X128762380Y-72844819D02*
X128762380Y-71844819D01*
X128762380Y-71844819D02*
X128857618Y-71987676D01*
X128857618Y-71987676D02*
X128952856Y-72082914D01*
X128952856Y-72082914D02*
X129048094Y-72130533D01*
X127857618Y-71844819D02*
X127762380Y-71844819D01*
X127762380Y-71844819D02*
X127667142Y-71892438D01*
X127667142Y-71892438D02*
X127619523Y-71940057D01*
X127619523Y-71940057D02*
X127571904Y-72035295D01*
X127571904Y-72035295D02*
X127524285Y-72225771D01*
X127524285Y-72225771D02*
X127524285Y-72463866D01*
X127524285Y-72463866D02*
X127571904Y-72654342D01*
X127571904Y-72654342D02*
X127619523Y-72749580D01*
X127619523Y-72749580D02*
X127667142Y-72797200D01*
X127667142Y-72797200D02*
X127762380Y-72844819D01*
X127762380Y-72844819D02*
X127857618Y-72844819D01*
X127857618Y-72844819D02*
X127952856Y-72797200D01*
X127952856Y-72797200D02*
X128000475Y-72749580D01*
X128000475Y-72749580D02*
X128048094Y-72654342D01*
X128048094Y-72654342D02*
X128095713Y-72463866D01*
X128095713Y-72463866D02*
X128095713Y-72225771D01*
X128095713Y-72225771D02*
X128048094Y-72035295D01*
X128048094Y-72035295D02*
X128000475Y-71940057D01*
X128000475Y-71940057D02*
X127952856Y-71892438D01*
X127952856Y-71892438D02*
X127857618Y-71844819D01*
X126667142Y-72178152D02*
X126667142Y-72844819D01*
X126905237Y-71797200D02*
X127143332Y-72511485D01*
X127143332Y-72511485D02*
X126524285Y-72511485D01*
D16*
X150368000Y-37265181D02*
X150368000Y-38353752D01*
X150368000Y-38353752D02*
X150440571Y-38571467D01*
X150440571Y-38571467D02*
X150585714Y-38716610D01*
X150585714Y-38716610D02*
X150803428Y-38789181D01*
X150803428Y-38789181D02*
X150948571Y-38789181D01*
X148844000Y-38789181D02*
X149714857Y-38789181D01*
X149279428Y-38789181D02*
X149279428Y-37265181D01*
X149279428Y-37265181D02*
X149424571Y-37482895D01*
X149424571Y-37482895D02*
X149569714Y-37628038D01*
X149569714Y-37628038D02*
X149714857Y-37700610D01*
D15*
X150979047Y-67669580D02*
X151026666Y-67717200D01*
X151026666Y-67717200D02*
X151169523Y-67764819D01*
X151169523Y-67764819D02*
X151264761Y-67764819D01*
X151264761Y-67764819D02*
X151407618Y-67717200D01*
X151407618Y-67717200D02*
X151502856Y-67621961D01*
X151502856Y-67621961D02*
X151550475Y-67526723D01*
X151550475Y-67526723D02*
X151598094Y-67336247D01*
X151598094Y-67336247D02*
X151598094Y-67193390D01*
X151598094Y-67193390D02*
X151550475Y-67002914D01*
X151550475Y-67002914D02*
X151502856Y-66907676D01*
X151502856Y-66907676D02*
X151407618Y-66812438D01*
X151407618Y-66812438D02*
X151264761Y-66764819D01*
X151264761Y-66764819D02*
X151169523Y-66764819D01*
X151169523Y-66764819D02*
X151026666Y-66812438D01*
X151026666Y-66812438D02*
X150979047Y-66860057D01*
X150598094Y-66860057D02*
X150550475Y-66812438D01*
X150550475Y-66812438D02*
X150455237Y-66764819D01*
X150455237Y-66764819D02*
X150217142Y-66764819D01*
X150217142Y-66764819D02*
X150121904Y-66812438D01*
X150121904Y-66812438D02*
X150074285Y-66860057D01*
X150074285Y-66860057D02*
X150026666Y-66955295D01*
X150026666Y-66955295D02*
X150026666Y-67050533D01*
X150026666Y-67050533D02*
X150074285Y-67193390D01*
X150074285Y-67193390D02*
X150645713Y-67764819D01*
X150645713Y-67764819D02*
X150026666Y-67764819D01*
X149407618Y-66764819D02*
X149312380Y-66764819D01*
X149312380Y-66764819D02*
X149217142Y-66812438D01*
X149217142Y-66812438D02*
X149169523Y-66860057D01*
X149169523Y-66860057D02*
X149121904Y-66955295D01*
X149121904Y-66955295D02*
X149074285Y-67145771D01*
X149074285Y-67145771D02*
X149074285Y-67383866D01*
X149074285Y-67383866D02*
X149121904Y-67574342D01*
X149121904Y-67574342D02*
X149169523Y-67669580D01*
X149169523Y-67669580D02*
X149217142Y-67717200D01*
X149217142Y-67717200D02*
X149312380Y-67764819D01*
X149312380Y-67764819D02*
X149407618Y-67764819D01*
X149407618Y-67764819D02*
X149502856Y-67717200D01*
X149502856Y-67717200D02*
X149550475Y-67669580D01*
X149550475Y-67669580D02*
X149598094Y-67574342D01*
X149598094Y-67574342D02*
X149645713Y-67383866D01*
X149645713Y-67383866D02*
X149645713Y-67145771D01*
X149645713Y-67145771D02*
X149598094Y-66955295D01*
X149598094Y-66955295D02*
X149550475Y-66860057D01*
X149550475Y-66860057D02*
X149502856Y-66812438D01*
X149502856Y-66812438D02*
X149407618Y-66764819D01*
X148502856Y-67193390D02*
X148598094Y-67145771D01*
X148598094Y-67145771D02*
X148645713Y-67098152D01*
X148645713Y-67098152D02*
X148693332Y-67002914D01*
X148693332Y-67002914D02*
X148693332Y-66955295D01*
X148693332Y-66955295D02*
X148645713Y-66860057D01*
X148645713Y-66860057D02*
X148598094Y-66812438D01*
X148598094Y-66812438D02*
X148502856Y-66764819D01*
X148502856Y-66764819D02*
X148312380Y-66764819D01*
X148312380Y-66764819D02*
X148217142Y-66812438D01*
X148217142Y-66812438D02*
X148169523Y-66860057D01*
X148169523Y-66860057D02*
X148121904Y-66955295D01*
X148121904Y-66955295D02*
X148121904Y-67002914D01*
X148121904Y-67002914D02*
X148169523Y-67098152D01*
X148169523Y-67098152D02*
X148217142Y-67145771D01*
X148217142Y-67145771D02*
X148312380Y-67193390D01*
X148312380Y-67193390D02*
X148502856Y-67193390D01*
X148502856Y-67193390D02*
X148598094Y-67241009D01*
X148598094Y-67241009D02*
X148645713Y-67288628D01*
X148645713Y-67288628D02*
X148693332Y-67383866D01*
X148693332Y-67383866D02*
X148693332Y-67574342D01*
X148693332Y-67574342D02*
X148645713Y-67669580D01*
X148645713Y-67669580D02*
X148598094Y-67717200D01*
X148598094Y-67717200D02*
X148502856Y-67764819D01*
X148502856Y-67764819D02*
X148312380Y-67764819D01*
X148312380Y-67764819D02*
X148217142Y-67717200D01*
X148217142Y-67717200D02*
X148169523Y-67669580D01*
X148169523Y-67669580D02*
X148121904Y-67574342D01*
X148121904Y-67574342D02*
X148121904Y-67383866D01*
X148121904Y-67383866D02*
X148169523Y-67288628D01*
X148169523Y-67288628D02*
X148217142Y-67241009D01*
X148217142Y-67241009D02*
X148312380Y-67193390D01*
X119229047Y-65224819D02*
X119562380Y-64748628D01*
X119800475Y-65224819D02*
X119800475Y-64224819D01*
X119800475Y-64224819D02*
X119419523Y-64224819D01*
X119419523Y-64224819D02*
X119324285Y-64272438D01*
X119324285Y-64272438D02*
X119276666Y-64320057D01*
X119276666Y-64320057D02*
X119229047Y-64415295D01*
X119229047Y-64415295D02*
X119229047Y-64558152D01*
X119229047Y-64558152D02*
X119276666Y-64653390D01*
X119276666Y-64653390D02*
X119324285Y-64701009D01*
X119324285Y-64701009D02*
X119419523Y-64748628D01*
X119419523Y-64748628D02*
X119800475Y-64748628D01*
X118276666Y-65224819D02*
X118848094Y-65224819D01*
X118562380Y-65224819D02*
X118562380Y-64224819D01*
X118562380Y-64224819D02*
X118657618Y-64367676D01*
X118657618Y-64367676D02*
X118752856Y-64462914D01*
X118752856Y-64462914D02*
X118848094Y-64510533D01*
X117657618Y-64224819D02*
X117562380Y-64224819D01*
X117562380Y-64224819D02*
X117467142Y-64272438D01*
X117467142Y-64272438D02*
X117419523Y-64320057D01*
X117419523Y-64320057D02*
X117371904Y-64415295D01*
X117371904Y-64415295D02*
X117324285Y-64605771D01*
X117324285Y-64605771D02*
X117324285Y-64843866D01*
X117324285Y-64843866D02*
X117371904Y-65034342D01*
X117371904Y-65034342D02*
X117419523Y-65129580D01*
X117419523Y-65129580D02*
X117467142Y-65177200D01*
X117467142Y-65177200D02*
X117562380Y-65224819D01*
X117562380Y-65224819D02*
X117657618Y-65224819D01*
X117657618Y-65224819D02*
X117752856Y-65177200D01*
X117752856Y-65177200D02*
X117800475Y-65129580D01*
X117800475Y-65129580D02*
X117848094Y-65034342D01*
X117848094Y-65034342D02*
X117895713Y-64843866D01*
X117895713Y-64843866D02*
X117895713Y-64605771D01*
X117895713Y-64605771D02*
X117848094Y-64415295D01*
X117848094Y-64415295D02*
X117800475Y-64320057D01*
X117800475Y-64320057D02*
X117752856Y-64272438D01*
X117752856Y-64272438D02*
X117657618Y-64224819D01*
X116990951Y-64224819D02*
X116371904Y-64224819D01*
X116371904Y-64224819D02*
X116705237Y-64605771D01*
X116705237Y-64605771D02*
X116562380Y-64605771D01*
X116562380Y-64605771D02*
X116467142Y-64653390D01*
X116467142Y-64653390D02*
X116419523Y-64701009D01*
X116419523Y-64701009D02*
X116371904Y-64796247D01*
X116371904Y-64796247D02*
X116371904Y-65034342D01*
X116371904Y-65034342D02*
X116419523Y-65129580D01*
X116419523Y-65129580D02*
X116467142Y-65177200D01*
X116467142Y-65177200D02*
X116562380Y-65224819D01*
X116562380Y-65224819D02*
X116848094Y-65224819D01*
X116848094Y-65224819D02*
X116943332Y-65177200D01*
X116943332Y-65177200D02*
X116990951Y-65129580D01*
X119114047Y-68304580D02*
X119161666Y-68352200D01*
X119161666Y-68352200D02*
X119304523Y-68399819D01*
X119304523Y-68399819D02*
X119399761Y-68399819D01*
X119399761Y-68399819D02*
X119542618Y-68352200D01*
X119542618Y-68352200D02*
X119637856Y-68256961D01*
X119637856Y-68256961D02*
X119685475Y-68161723D01*
X119685475Y-68161723D02*
X119733094Y-67971247D01*
X119733094Y-67971247D02*
X119733094Y-67828390D01*
X119733094Y-67828390D02*
X119685475Y-67637914D01*
X119685475Y-67637914D02*
X119637856Y-67542676D01*
X119637856Y-67542676D02*
X119542618Y-67447438D01*
X119542618Y-67447438D02*
X119399761Y-67399819D01*
X119399761Y-67399819D02*
X119304523Y-67399819D01*
X119304523Y-67399819D02*
X119161666Y-67447438D01*
X119161666Y-67447438D02*
X119114047Y-67495057D01*
X118161666Y-68399819D02*
X118733094Y-68399819D01*
X118447380Y-68399819D02*
X118447380Y-67399819D01*
X118447380Y-67399819D02*
X118542618Y-67542676D01*
X118542618Y-67542676D02*
X118637856Y-67637914D01*
X118637856Y-67637914D02*
X118733094Y-67685533D01*
X117542618Y-67399819D02*
X117447380Y-67399819D01*
X117447380Y-67399819D02*
X117352142Y-67447438D01*
X117352142Y-67447438D02*
X117304523Y-67495057D01*
X117304523Y-67495057D02*
X117256904Y-67590295D01*
X117256904Y-67590295D02*
X117209285Y-67780771D01*
X117209285Y-67780771D02*
X117209285Y-68018866D01*
X117209285Y-68018866D02*
X117256904Y-68209342D01*
X117256904Y-68209342D02*
X117304523Y-68304580D01*
X117304523Y-68304580D02*
X117352142Y-68352200D01*
X117352142Y-68352200D02*
X117447380Y-68399819D01*
X117447380Y-68399819D02*
X117542618Y-68399819D01*
X117542618Y-68399819D02*
X117637856Y-68352200D01*
X117637856Y-68352200D02*
X117685475Y-68304580D01*
X117685475Y-68304580D02*
X117733094Y-68209342D01*
X117733094Y-68209342D02*
X117780713Y-68018866D01*
X117780713Y-68018866D02*
X117780713Y-67780771D01*
X117780713Y-67780771D02*
X117733094Y-67590295D01*
X117733094Y-67590295D02*
X117685475Y-67495057D01*
X117685475Y-67495057D02*
X117637856Y-67447438D01*
X117637856Y-67447438D02*
X117542618Y-67399819D01*
X116828332Y-67495057D02*
X116780713Y-67447438D01*
X116780713Y-67447438D02*
X116685475Y-67399819D01*
X116685475Y-67399819D02*
X116447380Y-67399819D01*
X116447380Y-67399819D02*
X116352142Y-67447438D01*
X116352142Y-67447438D02*
X116304523Y-67495057D01*
X116304523Y-67495057D02*
X116256904Y-67590295D01*
X116256904Y-67590295D02*
X116256904Y-67685533D01*
X116256904Y-67685533D02*
X116304523Y-67828390D01*
X116304523Y-67828390D02*
X116875951Y-68399819D01*
X116875951Y-68399819D02*
X116256904Y-68399819D01*
X152269047Y-70844580D02*
X152316666Y-70892200D01*
X152316666Y-70892200D02*
X152459523Y-70939819D01*
X152459523Y-70939819D02*
X152554761Y-70939819D01*
X152554761Y-70939819D02*
X152697618Y-70892200D01*
X152697618Y-70892200D02*
X152792856Y-70796961D01*
X152792856Y-70796961D02*
X152840475Y-70701723D01*
X152840475Y-70701723D02*
X152888094Y-70511247D01*
X152888094Y-70511247D02*
X152888094Y-70368390D01*
X152888094Y-70368390D02*
X152840475Y-70177914D01*
X152840475Y-70177914D02*
X152792856Y-70082676D01*
X152792856Y-70082676D02*
X152697618Y-69987438D01*
X152697618Y-69987438D02*
X152554761Y-69939819D01*
X152554761Y-69939819D02*
X152459523Y-69939819D01*
X152459523Y-69939819D02*
X152316666Y-69987438D01*
X152316666Y-69987438D02*
X152269047Y-70035057D01*
X151888094Y-70035057D02*
X151840475Y-69987438D01*
X151840475Y-69987438D02*
X151745237Y-69939819D01*
X151745237Y-69939819D02*
X151507142Y-69939819D01*
X151507142Y-69939819D02*
X151411904Y-69987438D01*
X151411904Y-69987438D02*
X151364285Y-70035057D01*
X151364285Y-70035057D02*
X151316666Y-70130295D01*
X151316666Y-70130295D02*
X151316666Y-70225533D01*
X151316666Y-70225533D02*
X151364285Y-70368390D01*
X151364285Y-70368390D02*
X151935713Y-70939819D01*
X151935713Y-70939819D02*
X151316666Y-70939819D01*
X150697618Y-69939819D02*
X150602380Y-69939819D01*
X150602380Y-69939819D02*
X150507142Y-69987438D01*
X150507142Y-69987438D02*
X150459523Y-70035057D01*
X150459523Y-70035057D02*
X150411904Y-70130295D01*
X150411904Y-70130295D02*
X150364285Y-70320771D01*
X150364285Y-70320771D02*
X150364285Y-70558866D01*
X150364285Y-70558866D02*
X150411904Y-70749342D01*
X150411904Y-70749342D02*
X150459523Y-70844580D01*
X150459523Y-70844580D02*
X150507142Y-70892200D01*
X150507142Y-70892200D02*
X150602380Y-70939819D01*
X150602380Y-70939819D02*
X150697618Y-70939819D01*
X150697618Y-70939819D02*
X150792856Y-70892200D01*
X150792856Y-70892200D02*
X150840475Y-70844580D01*
X150840475Y-70844580D02*
X150888094Y-70749342D01*
X150888094Y-70749342D02*
X150935713Y-70558866D01*
X150935713Y-70558866D02*
X150935713Y-70320771D01*
X150935713Y-70320771D02*
X150888094Y-70130295D01*
X150888094Y-70130295D02*
X150840475Y-70035057D01*
X150840475Y-70035057D02*
X150792856Y-69987438D01*
X150792856Y-69987438D02*
X150697618Y-69939819D01*
X149888094Y-70939819D02*
X149697618Y-70939819D01*
X149697618Y-70939819D02*
X149602380Y-70892200D01*
X149602380Y-70892200D02*
X149554761Y-70844580D01*
X149554761Y-70844580D02*
X149459523Y-70701723D01*
X149459523Y-70701723D02*
X149411904Y-70511247D01*
X149411904Y-70511247D02*
X149411904Y-70130295D01*
X149411904Y-70130295D02*
X149459523Y-70035057D01*
X149459523Y-70035057D02*
X149507142Y-69987438D01*
X149507142Y-69987438D02*
X149602380Y-69939819D01*
X149602380Y-69939819D02*
X149792856Y-69939819D01*
X149792856Y-69939819D02*
X149888094Y-69987438D01*
X149888094Y-69987438D02*
X149935713Y-70035057D01*
X149935713Y-70035057D02*
X149983332Y-70130295D01*
X149983332Y-70130295D02*
X149983332Y-70368390D01*
X149983332Y-70368390D02*
X149935713Y-70463628D01*
X149935713Y-70463628D02*
X149888094Y-70511247D01*
X149888094Y-70511247D02*
X149792856Y-70558866D01*
X149792856Y-70558866D02*
X149602380Y-70558866D01*
X149602380Y-70558866D02*
X149507142Y-70511247D01*
X149507142Y-70511247D02*
X149459523Y-70463628D01*
X149459523Y-70463628D02*
X149411904Y-70368390D01*
X182729047Y-89354819D02*
X183062380Y-88878628D01*
X183300475Y-89354819D02*
X183300475Y-88354819D01*
X183300475Y-88354819D02*
X182919523Y-88354819D01*
X182919523Y-88354819D02*
X182824285Y-88402438D01*
X182824285Y-88402438D02*
X182776666Y-88450057D01*
X182776666Y-88450057D02*
X182729047Y-88545295D01*
X182729047Y-88545295D02*
X182729047Y-88688152D01*
X182729047Y-88688152D02*
X182776666Y-88783390D01*
X182776666Y-88783390D02*
X182824285Y-88831009D01*
X182824285Y-88831009D02*
X182919523Y-88878628D01*
X182919523Y-88878628D02*
X183300475Y-88878628D01*
X182348094Y-88450057D02*
X182300475Y-88402438D01*
X182300475Y-88402438D02*
X182205237Y-88354819D01*
X182205237Y-88354819D02*
X181967142Y-88354819D01*
X181967142Y-88354819D02*
X181871904Y-88402438D01*
X181871904Y-88402438D02*
X181824285Y-88450057D01*
X181824285Y-88450057D02*
X181776666Y-88545295D01*
X181776666Y-88545295D02*
X181776666Y-88640533D01*
X181776666Y-88640533D02*
X181824285Y-88783390D01*
X181824285Y-88783390D02*
X182395713Y-89354819D01*
X182395713Y-89354819D02*
X181776666Y-89354819D01*
X180824285Y-89354819D02*
X181395713Y-89354819D01*
X181109999Y-89354819D02*
X181109999Y-88354819D01*
X181109999Y-88354819D02*
X181205237Y-88497676D01*
X181205237Y-88497676D02*
X181300475Y-88592914D01*
X181300475Y-88592914D02*
X181395713Y-88640533D01*
X180443332Y-88450057D02*
X180395713Y-88402438D01*
X180395713Y-88402438D02*
X180300475Y-88354819D01*
X180300475Y-88354819D02*
X180062380Y-88354819D01*
X180062380Y-88354819D02*
X179967142Y-88402438D01*
X179967142Y-88402438D02*
X179919523Y-88450057D01*
X179919523Y-88450057D02*
X179871904Y-88545295D01*
X179871904Y-88545295D02*
X179871904Y-88640533D01*
X179871904Y-88640533D02*
X179919523Y-88783390D01*
X179919523Y-88783390D02*
X180490951Y-89354819D01*
X180490951Y-89354819D02*
X179871904Y-89354819D01*
X172569047Y-76654819D02*
X172902380Y-76178628D01*
X173140475Y-76654819D02*
X173140475Y-75654819D01*
X173140475Y-75654819D02*
X172759523Y-75654819D01*
X172759523Y-75654819D02*
X172664285Y-75702438D01*
X172664285Y-75702438D02*
X172616666Y-75750057D01*
X172616666Y-75750057D02*
X172569047Y-75845295D01*
X172569047Y-75845295D02*
X172569047Y-75988152D01*
X172569047Y-75988152D02*
X172616666Y-76083390D01*
X172616666Y-76083390D02*
X172664285Y-76131009D01*
X172664285Y-76131009D02*
X172759523Y-76178628D01*
X172759523Y-76178628D02*
X173140475Y-76178628D01*
X172188094Y-75750057D02*
X172140475Y-75702438D01*
X172140475Y-75702438D02*
X172045237Y-75654819D01*
X172045237Y-75654819D02*
X171807142Y-75654819D01*
X171807142Y-75654819D02*
X171711904Y-75702438D01*
X171711904Y-75702438D02*
X171664285Y-75750057D01*
X171664285Y-75750057D02*
X171616666Y-75845295D01*
X171616666Y-75845295D02*
X171616666Y-75940533D01*
X171616666Y-75940533D02*
X171664285Y-76083390D01*
X171664285Y-76083390D02*
X172235713Y-76654819D01*
X172235713Y-76654819D02*
X171616666Y-76654819D01*
X170997618Y-75654819D02*
X170902380Y-75654819D01*
X170902380Y-75654819D02*
X170807142Y-75702438D01*
X170807142Y-75702438D02*
X170759523Y-75750057D01*
X170759523Y-75750057D02*
X170711904Y-75845295D01*
X170711904Y-75845295D02*
X170664285Y-76035771D01*
X170664285Y-76035771D02*
X170664285Y-76273866D01*
X170664285Y-76273866D02*
X170711904Y-76464342D01*
X170711904Y-76464342D02*
X170759523Y-76559580D01*
X170759523Y-76559580D02*
X170807142Y-76607200D01*
X170807142Y-76607200D02*
X170902380Y-76654819D01*
X170902380Y-76654819D02*
X170997618Y-76654819D01*
X170997618Y-76654819D02*
X171092856Y-76607200D01*
X171092856Y-76607200D02*
X171140475Y-76559580D01*
X171140475Y-76559580D02*
X171188094Y-76464342D01*
X171188094Y-76464342D02*
X171235713Y-76273866D01*
X171235713Y-76273866D02*
X171235713Y-76035771D01*
X171235713Y-76035771D02*
X171188094Y-75845295D01*
X171188094Y-75845295D02*
X171140475Y-75750057D01*
X171140475Y-75750057D02*
X171092856Y-75702438D01*
X171092856Y-75702438D02*
X170997618Y-75654819D01*
X170092856Y-76083390D02*
X170188094Y-76035771D01*
X170188094Y-76035771D02*
X170235713Y-75988152D01*
X170235713Y-75988152D02*
X170283332Y-75892914D01*
X170283332Y-75892914D02*
X170283332Y-75845295D01*
X170283332Y-75845295D02*
X170235713Y-75750057D01*
X170235713Y-75750057D02*
X170188094Y-75702438D01*
X170188094Y-75702438D02*
X170092856Y-75654819D01*
X170092856Y-75654819D02*
X169902380Y-75654819D01*
X169902380Y-75654819D02*
X169807142Y-75702438D01*
X169807142Y-75702438D02*
X169759523Y-75750057D01*
X169759523Y-75750057D02*
X169711904Y-75845295D01*
X169711904Y-75845295D02*
X169711904Y-75892914D01*
X169711904Y-75892914D02*
X169759523Y-75988152D01*
X169759523Y-75988152D02*
X169807142Y-76035771D01*
X169807142Y-76035771D02*
X169902380Y-76083390D01*
X169902380Y-76083390D02*
X170092856Y-76083390D01*
X170092856Y-76083390D02*
X170188094Y-76131009D01*
X170188094Y-76131009D02*
X170235713Y-76178628D01*
X170235713Y-76178628D02*
X170283332Y-76273866D01*
X170283332Y-76273866D02*
X170283332Y-76464342D01*
X170283332Y-76464342D02*
X170235713Y-76559580D01*
X170235713Y-76559580D02*
X170188094Y-76607200D01*
X170188094Y-76607200D02*
X170092856Y-76654819D01*
X170092856Y-76654819D02*
X169902380Y-76654819D01*
X169902380Y-76654819D02*
X169807142Y-76607200D01*
X169807142Y-76607200D02*
X169759523Y-76559580D01*
X169759523Y-76559580D02*
X169711904Y-76464342D01*
X169711904Y-76464342D02*
X169711904Y-76273866D01*
X169711904Y-76273866D02*
X169759523Y-76178628D01*
X169759523Y-76178628D02*
X169807142Y-76131009D01*
X169807142Y-76131009D02*
X169902380Y-76083390D01*
X139549047Y-61414819D02*
X139882380Y-60938628D01*
X140120475Y-61414819D02*
X140120475Y-60414819D01*
X140120475Y-60414819D02*
X139739523Y-60414819D01*
X139739523Y-60414819D02*
X139644285Y-60462438D01*
X139644285Y-60462438D02*
X139596666Y-60510057D01*
X139596666Y-60510057D02*
X139549047Y-60605295D01*
X139549047Y-60605295D02*
X139549047Y-60748152D01*
X139549047Y-60748152D02*
X139596666Y-60843390D01*
X139596666Y-60843390D02*
X139644285Y-60891009D01*
X139644285Y-60891009D02*
X139739523Y-60938628D01*
X139739523Y-60938628D02*
X140120475Y-60938628D01*
X138596666Y-61414819D02*
X139168094Y-61414819D01*
X138882380Y-61414819D02*
X138882380Y-60414819D01*
X138882380Y-60414819D02*
X138977618Y-60557676D01*
X138977618Y-60557676D02*
X139072856Y-60652914D01*
X139072856Y-60652914D02*
X139168094Y-60700533D01*
X137977618Y-60414819D02*
X137882380Y-60414819D01*
X137882380Y-60414819D02*
X137787142Y-60462438D01*
X137787142Y-60462438D02*
X137739523Y-60510057D01*
X137739523Y-60510057D02*
X137691904Y-60605295D01*
X137691904Y-60605295D02*
X137644285Y-60795771D01*
X137644285Y-60795771D02*
X137644285Y-61033866D01*
X137644285Y-61033866D02*
X137691904Y-61224342D01*
X137691904Y-61224342D02*
X137739523Y-61319580D01*
X137739523Y-61319580D02*
X137787142Y-61367200D01*
X137787142Y-61367200D02*
X137882380Y-61414819D01*
X137882380Y-61414819D02*
X137977618Y-61414819D01*
X137977618Y-61414819D02*
X138072856Y-61367200D01*
X138072856Y-61367200D02*
X138120475Y-61319580D01*
X138120475Y-61319580D02*
X138168094Y-61224342D01*
X138168094Y-61224342D02*
X138215713Y-61033866D01*
X138215713Y-61033866D02*
X138215713Y-60795771D01*
X138215713Y-60795771D02*
X138168094Y-60605295D01*
X138168094Y-60605295D02*
X138120475Y-60510057D01*
X138120475Y-60510057D02*
X138072856Y-60462438D01*
X138072856Y-60462438D02*
X137977618Y-60414819D01*
X136739523Y-60414819D02*
X137215713Y-60414819D01*
X137215713Y-60414819D02*
X137263332Y-60891009D01*
X137263332Y-60891009D02*
X137215713Y-60843390D01*
X137215713Y-60843390D02*
X137120475Y-60795771D01*
X137120475Y-60795771D02*
X136882380Y-60795771D01*
X136882380Y-60795771D02*
X136787142Y-60843390D01*
X136787142Y-60843390D02*
X136739523Y-60891009D01*
X136739523Y-60891009D02*
X136691904Y-60986247D01*
X136691904Y-60986247D02*
X136691904Y-61224342D01*
X136691904Y-61224342D02*
X136739523Y-61319580D01*
X136739523Y-61319580D02*
X136787142Y-61367200D01*
X136787142Y-61367200D02*
X136882380Y-61414819D01*
X136882380Y-61414819D02*
X137120475Y-61414819D01*
X137120475Y-61414819D02*
X137215713Y-61367200D01*
X137215713Y-61367200D02*
X137263332Y-61319580D01*
X129317619Y-83735057D02*
X129412857Y-83687438D01*
X129412857Y-83687438D02*
X129508095Y-83592200D01*
X129508095Y-83592200D02*
X129650952Y-83449342D01*
X129650952Y-83449342D02*
X129746190Y-83401723D01*
X129746190Y-83401723D02*
X129841428Y-83401723D01*
X129793809Y-83639819D02*
X129889047Y-83592200D01*
X129889047Y-83592200D02*
X129984285Y-83496961D01*
X129984285Y-83496961D02*
X130031904Y-83306485D01*
X130031904Y-83306485D02*
X130031904Y-82973152D01*
X130031904Y-82973152D02*
X129984285Y-82782676D01*
X129984285Y-82782676D02*
X129889047Y-82687438D01*
X129889047Y-82687438D02*
X129793809Y-82639819D01*
X129793809Y-82639819D02*
X129603333Y-82639819D01*
X129603333Y-82639819D02*
X129508095Y-82687438D01*
X129508095Y-82687438D02*
X129412857Y-82782676D01*
X129412857Y-82782676D02*
X129365238Y-82973152D01*
X129365238Y-82973152D02*
X129365238Y-83306485D01*
X129365238Y-83306485D02*
X129412857Y-83496961D01*
X129412857Y-83496961D02*
X129508095Y-83592200D01*
X129508095Y-83592200D02*
X129603333Y-83639819D01*
X129603333Y-83639819D02*
X129793809Y-83639819D01*
X128412857Y-83639819D02*
X128984285Y-83639819D01*
X128698571Y-83639819D02*
X128698571Y-82639819D01*
X128698571Y-82639819D02*
X128793809Y-82782676D01*
X128793809Y-82782676D02*
X128889047Y-82877914D01*
X128889047Y-82877914D02*
X128984285Y-82925533D01*
X127793809Y-82639819D02*
X127698571Y-82639819D01*
X127698571Y-82639819D02*
X127603333Y-82687438D01*
X127603333Y-82687438D02*
X127555714Y-82735057D01*
X127555714Y-82735057D02*
X127508095Y-82830295D01*
X127508095Y-82830295D02*
X127460476Y-83020771D01*
X127460476Y-83020771D02*
X127460476Y-83258866D01*
X127460476Y-83258866D02*
X127508095Y-83449342D01*
X127508095Y-83449342D02*
X127555714Y-83544580D01*
X127555714Y-83544580D02*
X127603333Y-83592200D01*
X127603333Y-83592200D02*
X127698571Y-83639819D01*
X127698571Y-83639819D02*
X127793809Y-83639819D01*
X127793809Y-83639819D02*
X127889047Y-83592200D01*
X127889047Y-83592200D02*
X127936666Y-83544580D01*
X127936666Y-83544580D02*
X127984285Y-83449342D01*
X127984285Y-83449342D02*
X128031904Y-83258866D01*
X128031904Y-83258866D02*
X128031904Y-83020771D01*
X128031904Y-83020771D02*
X127984285Y-82830295D01*
X127984285Y-82830295D02*
X127936666Y-82735057D01*
X127936666Y-82735057D02*
X127889047Y-82687438D01*
X127889047Y-82687438D02*
X127793809Y-82639819D01*
X127127142Y-82639819D02*
X126508095Y-82639819D01*
X126508095Y-82639819D02*
X126841428Y-83020771D01*
X126841428Y-83020771D02*
X126698571Y-83020771D01*
X126698571Y-83020771D02*
X126603333Y-83068390D01*
X126603333Y-83068390D02*
X126555714Y-83116009D01*
X126555714Y-83116009D02*
X126508095Y-83211247D01*
X126508095Y-83211247D02*
X126508095Y-83449342D01*
X126508095Y-83449342D02*
X126555714Y-83544580D01*
X126555714Y-83544580D02*
X126603333Y-83592200D01*
X126603333Y-83592200D02*
X126698571Y-83639819D01*
X126698571Y-83639819D02*
X126984285Y-83639819D01*
X126984285Y-83639819D02*
X127079523Y-83592200D01*
X127079523Y-83592200D02*
X127127142Y-83544580D01*
X109553333Y-61414819D02*
X109553333Y-62129104D01*
X109553333Y-62129104D02*
X109600952Y-62271961D01*
X109600952Y-62271961D02*
X109696190Y-62367200D01*
X109696190Y-62367200D02*
X109839047Y-62414819D01*
X109839047Y-62414819D02*
X109934285Y-62414819D01*
X108648571Y-61748152D02*
X108648571Y-62414819D01*
X108886666Y-61367200D02*
X109124761Y-62081485D01*
X109124761Y-62081485D02*
X108505714Y-62081485D01*
X172609047Y-72749580D02*
X172656666Y-72797200D01*
X172656666Y-72797200D02*
X172799523Y-72844819D01*
X172799523Y-72844819D02*
X172894761Y-72844819D01*
X172894761Y-72844819D02*
X173037618Y-72797200D01*
X173037618Y-72797200D02*
X173132856Y-72701961D01*
X173132856Y-72701961D02*
X173180475Y-72606723D01*
X173180475Y-72606723D02*
X173228094Y-72416247D01*
X173228094Y-72416247D02*
X173228094Y-72273390D01*
X173228094Y-72273390D02*
X173180475Y-72082914D01*
X173180475Y-72082914D02*
X173132856Y-71987676D01*
X173132856Y-71987676D02*
X173037618Y-71892438D01*
X173037618Y-71892438D02*
X172894761Y-71844819D01*
X172894761Y-71844819D02*
X172799523Y-71844819D01*
X172799523Y-71844819D02*
X172656666Y-71892438D01*
X172656666Y-71892438D02*
X172609047Y-71940057D01*
X172228094Y-71940057D02*
X172180475Y-71892438D01*
X172180475Y-71892438D02*
X172085237Y-71844819D01*
X172085237Y-71844819D02*
X171847142Y-71844819D01*
X171847142Y-71844819D02*
X171751904Y-71892438D01*
X171751904Y-71892438D02*
X171704285Y-71940057D01*
X171704285Y-71940057D02*
X171656666Y-72035295D01*
X171656666Y-72035295D02*
X171656666Y-72130533D01*
X171656666Y-72130533D02*
X171704285Y-72273390D01*
X171704285Y-72273390D02*
X172275713Y-72844819D01*
X172275713Y-72844819D02*
X171656666Y-72844819D01*
X171037618Y-71844819D02*
X170942380Y-71844819D01*
X170942380Y-71844819D02*
X170847142Y-71892438D01*
X170847142Y-71892438D02*
X170799523Y-71940057D01*
X170799523Y-71940057D02*
X170751904Y-72035295D01*
X170751904Y-72035295D02*
X170704285Y-72225771D01*
X170704285Y-72225771D02*
X170704285Y-72463866D01*
X170704285Y-72463866D02*
X170751904Y-72654342D01*
X170751904Y-72654342D02*
X170799523Y-72749580D01*
X170799523Y-72749580D02*
X170847142Y-72797200D01*
X170847142Y-72797200D02*
X170942380Y-72844819D01*
X170942380Y-72844819D02*
X171037618Y-72844819D01*
X171037618Y-72844819D02*
X171132856Y-72797200D01*
X171132856Y-72797200D02*
X171180475Y-72749580D01*
X171180475Y-72749580D02*
X171228094Y-72654342D01*
X171228094Y-72654342D02*
X171275713Y-72463866D01*
X171275713Y-72463866D02*
X171275713Y-72225771D01*
X171275713Y-72225771D02*
X171228094Y-72035295D01*
X171228094Y-72035295D02*
X171180475Y-71940057D01*
X171180475Y-71940057D02*
X171132856Y-71892438D01*
X171132856Y-71892438D02*
X171037618Y-71844819D01*
X169847142Y-72178152D02*
X169847142Y-72844819D01*
X170085237Y-71797200D02*
X170323332Y-72511485D01*
X170323332Y-72511485D02*
X169704285Y-72511485D01*
X182729047Y-65224819D02*
X183062380Y-64748628D01*
X183300475Y-65224819D02*
X183300475Y-64224819D01*
X183300475Y-64224819D02*
X182919523Y-64224819D01*
X182919523Y-64224819D02*
X182824285Y-64272438D01*
X182824285Y-64272438D02*
X182776666Y-64320057D01*
X182776666Y-64320057D02*
X182729047Y-64415295D01*
X182729047Y-64415295D02*
X182729047Y-64558152D01*
X182729047Y-64558152D02*
X182776666Y-64653390D01*
X182776666Y-64653390D02*
X182824285Y-64701009D01*
X182824285Y-64701009D02*
X182919523Y-64748628D01*
X182919523Y-64748628D02*
X183300475Y-64748628D01*
X182348094Y-64320057D02*
X182300475Y-64272438D01*
X182300475Y-64272438D02*
X182205237Y-64224819D01*
X182205237Y-64224819D02*
X181967142Y-64224819D01*
X181967142Y-64224819D02*
X181871904Y-64272438D01*
X181871904Y-64272438D02*
X181824285Y-64320057D01*
X181824285Y-64320057D02*
X181776666Y-64415295D01*
X181776666Y-64415295D02*
X181776666Y-64510533D01*
X181776666Y-64510533D02*
X181824285Y-64653390D01*
X181824285Y-64653390D02*
X182395713Y-65224819D01*
X182395713Y-65224819D02*
X181776666Y-65224819D01*
X181157618Y-64224819D02*
X181062380Y-64224819D01*
X181062380Y-64224819D02*
X180967142Y-64272438D01*
X180967142Y-64272438D02*
X180919523Y-64320057D01*
X180919523Y-64320057D02*
X180871904Y-64415295D01*
X180871904Y-64415295D02*
X180824285Y-64605771D01*
X180824285Y-64605771D02*
X180824285Y-64843866D01*
X180824285Y-64843866D02*
X180871904Y-65034342D01*
X180871904Y-65034342D02*
X180919523Y-65129580D01*
X180919523Y-65129580D02*
X180967142Y-65177200D01*
X180967142Y-65177200D02*
X181062380Y-65224819D01*
X181062380Y-65224819D02*
X181157618Y-65224819D01*
X181157618Y-65224819D02*
X181252856Y-65177200D01*
X181252856Y-65177200D02*
X181300475Y-65129580D01*
X181300475Y-65129580D02*
X181348094Y-65034342D01*
X181348094Y-65034342D02*
X181395713Y-64843866D01*
X181395713Y-64843866D02*
X181395713Y-64605771D01*
X181395713Y-64605771D02*
X181348094Y-64415295D01*
X181348094Y-64415295D02*
X181300475Y-64320057D01*
X181300475Y-64320057D02*
X181252856Y-64272438D01*
X181252856Y-64272438D02*
X181157618Y-64224819D01*
X180490951Y-64224819D02*
X179871904Y-64224819D01*
X179871904Y-64224819D02*
X180205237Y-64605771D01*
X180205237Y-64605771D02*
X180062380Y-64605771D01*
X180062380Y-64605771D02*
X179967142Y-64653390D01*
X179967142Y-64653390D02*
X179919523Y-64701009D01*
X179919523Y-64701009D02*
X179871904Y-64796247D01*
X179871904Y-64796247D02*
X179871904Y-65034342D01*
X179871904Y-65034342D02*
X179919523Y-65129580D01*
X179919523Y-65129580D02*
X179967142Y-65177200D01*
X179967142Y-65177200D02*
X180062380Y-65224819D01*
X180062380Y-65224819D02*
X180348094Y-65224819D01*
X180348094Y-65224819D02*
X180443332Y-65177200D01*
X180443332Y-65177200D02*
X180490951Y-65129580D01*
X119229047Y-85449580D02*
X119276666Y-85497200D01*
X119276666Y-85497200D02*
X119419523Y-85544819D01*
X119419523Y-85544819D02*
X119514761Y-85544819D01*
X119514761Y-85544819D02*
X119657618Y-85497200D01*
X119657618Y-85497200D02*
X119752856Y-85401961D01*
X119752856Y-85401961D02*
X119800475Y-85306723D01*
X119800475Y-85306723D02*
X119848094Y-85116247D01*
X119848094Y-85116247D02*
X119848094Y-84973390D01*
X119848094Y-84973390D02*
X119800475Y-84782914D01*
X119800475Y-84782914D02*
X119752856Y-84687676D01*
X119752856Y-84687676D02*
X119657618Y-84592438D01*
X119657618Y-84592438D02*
X119514761Y-84544819D01*
X119514761Y-84544819D02*
X119419523Y-84544819D01*
X119419523Y-84544819D02*
X119276666Y-84592438D01*
X119276666Y-84592438D02*
X119229047Y-84640057D01*
X118276666Y-85544819D02*
X118848094Y-85544819D01*
X118562380Y-85544819D02*
X118562380Y-84544819D01*
X118562380Y-84544819D02*
X118657618Y-84687676D01*
X118657618Y-84687676D02*
X118752856Y-84782914D01*
X118752856Y-84782914D02*
X118848094Y-84830533D01*
X117657618Y-84544819D02*
X117562380Y-84544819D01*
X117562380Y-84544819D02*
X117467142Y-84592438D01*
X117467142Y-84592438D02*
X117419523Y-84640057D01*
X117419523Y-84640057D02*
X117371904Y-84735295D01*
X117371904Y-84735295D02*
X117324285Y-84925771D01*
X117324285Y-84925771D02*
X117324285Y-85163866D01*
X117324285Y-85163866D02*
X117371904Y-85354342D01*
X117371904Y-85354342D02*
X117419523Y-85449580D01*
X117419523Y-85449580D02*
X117467142Y-85497200D01*
X117467142Y-85497200D02*
X117562380Y-85544819D01*
X117562380Y-85544819D02*
X117657618Y-85544819D01*
X117657618Y-85544819D02*
X117752856Y-85497200D01*
X117752856Y-85497200D02*
X117800475Y-85449580D01*
X117800475Y-85449580D02*
X117848094Y-85354342D01*
X117848094Y-85354342D02*
X117895713Y-85163866D01*
X117895713Y-85163866D02*
X117895713Y-84925771D01*
X117895713Y-84925771D02*
X117848094Y-84735295D01*
X117848094Y-84735295D02*
X117800475Y-84640057D01*
X117800475Y-84640057D02*
X117752856Y-84592438D01*
X117752856Y-84592438D02*
X117657618Y-84544819D01*
X116419523Y-84544819D02*
X116895713Y-84544819D01*
X116895713Y-84544819D02*
X116943332Y-85021009D01*
X116943332Y-85021009D02*
X116895713Y-84973390D01*
X116895713Y-84973390D02*
X116800475Y-84925771D01*
X116800475Y-84925771D02*
X116562380Y-84925771D01*
X116562380Y-84925771D02*
X116467142Y-84973390D01*
X116467142Y-84973390D02*
X116419523Y-85021009D01*
X116419523Y-85021009D02*
X116371904Y-85116247D01*
X116371904Y-85116247D02*
X116371904Y-85354342D01*
X116371904Y-85354342D02*
X116419523Y-85449580D01*
X116419523Y-85449580D02*
X116467142Y-85497200D01*
X116467142Y-85497200D02*
X116562380Y-85544819D01*
X116562380Y-85544819D02*
X116800475Y-85544819D01*
X116800475Y-85544819D02*
X116895713Y-85497200D01*
X116895713Y-85497200D02*
X116943332Y-85449580D01*
X182729047Y-85449580D02*
X182776666Y-85497200D01*
X182776666Y-85497200D02*
X182919523Y-85544819D01*
X182919523Y-85544819D02*
X183014761Y-85544819D01*
X183014761Y-85544819D02*
X183157618Y-85497200D01*
X183157618Y-85497200D02*
X183252856Y-85401961D01*
X183252856Y-85401961D02*
X183300475Y-85306723D01*
X183300475Y-85306723D02*
X183348094Y-85116247D01*
X183348094Y-85116247D02*
X183348094Y-84973390D01*
X183348094Y-84973390D02*
X183300475Y-84782914D01*
X183300475Y-84782914D02*
X183252856Y-84687676D01*
X183252856Y-84687676D02*
X183157618Y-84592438D01*
X183157618Y-84592438D02*
X183014761Y-84544819D01*
X183014761Y-84544819D02*
X182919523Y-84544819D01*
X182919523Y-84544819D02*
X182776666Y-84592438D01*
X182776666Y-84592438D02*
X182729047Y-84640057D01*
X182348094Y-84640057D02*
X182300475Y-84592438D01*
X182300475Y-84592438D02*
X182205237Y-84544819D01*
X182205237Y-84544819D02*
X181967142Y-84544819D01*
X181967142Y-84544819D02*
X181871904Y-84592438D01*
X181871904Y-84592438D02*
X181824285Y-84640057D01*
X181824285Y-84640057D02*
X181776666Y-84735295D01*
X181776666Y-84735295D02*
X181776666Y-84830533D01*
X181776666Y-84830533D02*
X181824285Y-84973390D01*
X181824285Y-84973390D02*
X182395713Y-85544819D01*
X182395713Y-85544819D02*
X181776666Y-85544819D01*
X181157618Y-84544819D02*
X181062380Y-84544819D01*
X181062380Y-84544819D02*
X180967142Y-84592438D01*
X180967142Y-84592438D02*
X180919523Y-84640057D01*
X180919523Y-84640057D02*
X180871904Y-84735295D01*
X180871904Y-84735295D02*
X180824285Y-84925771D01*
X180824285Y-84925771D02*
X180824285Y-85163866D01*
X180824285Y-85163866D02*
X180871904Y-85354342D01*
X180871904Y-85354342D02*
X180919523Y-85449580D01*
X180919523Y-85449580D02*
X180967142Y-85497200D01*
X180967142Y-85497200D02*
X181062380Y-85544819D01*
X181062380Y-85544819D02*
X181157618Y-85544819D01*
X181157618Y-85544819D02*
X181252856Y-85497200D01*
X181252856Y-85497200D02*
X181300475Y-85449580D01*
X181300475Y-85449580D02*
X181348094Y-85354342D01*
X181348094Y-85354342D02*
X181395713Y-85163866D01*
X181395713Y-85163866D02*
X181395713Y-84925771D01*
X181395713Y-84925771D02*
X181348094Y-84735295D01*
X181348094Y-84735295D02*
X181300475Y-84640057D01*
X181300475Y-84640057D02*
X181252856Y-84592438D01*
X181252856Y-84592438D02*
X181157618Y-84544819D01*
X179919523Y-84544819D02*
X180395713Y-84544819D01*
X180395713Y-84544819D02*
X180443332Y-85021009D01*
X180443332Y-85021009D02*
X180395713Y-84973390D01*
X180395713Y-84973390D02*
X180300475Y-84925771D01*
X180300475Y-84925771D02*
X180062380Y-84925771D01*
X180062380Y-84925771D02*
X179967142Y-84973390D01*
X179967142Y-84973390D02*
X179919523Y-85021009D01*
X179919523Y-85021009D02*
X179871904Y-85116247D01*
X179871904Y-85116247D02*
X179871904Y-85354342D01*
X179871904Y-85354342D02*
X179919523Y-85449580D01*
X179919523Y-85449580D02*
X179967142Y-85497200D01*
X179967142Y-85497200D02*
X180062380Y-85544819D01*
X180062380Y-85544819D02*
X180300475Y-85544819D01*
X180300475Y-85544819D02*
X180395713Y-85497200D01*
X180395713Y-85497200D02*
X180443332Y-85449580D01*
X119229047Y-61414819D02*
X119562380Y-60938628D01*
X119800475Y-61414819D02*
X119800475Y-60414819D01*
X119800475Y-60414819D02*
X119419523Y-60414819D01*
X119419523Y-60414819D02*
X119324285Y-60462438D01*
X119324285Y-60462438D02*
X119276666Y-60510057D01*
X119276666Y-60510057D02*
X119229047Y-60605295D01*
X119229047Y-60605295D02*
X119229047Y-60748152D01*
X119229047Y-60748152D02*
X119276666Y-60843390D01*
X119276666Y-60843390D02*
X119324285Y-60891009D01*
X119324285Y-60891009D02*
X119419523Y-60938628D01*
X119419523Y-60938628D02*
X119800475Y-60938628D01*
X118276666Y-61414819D02*
X118848094Y-61414819D01*
X118562380Y-61414819D02*
X118562380Y-60414819D01*
X118562380Y-60414819D02*
X118657618Y-60557676D01*
X118657618Y-60557676D02*
X118752856Y-60652914D01*
X118752856Y-60652914D02*
X118848094Y-60700533D01*
X117657618Y-60414819D02*
X117562380Y-60414819D01*
X117562380Y-60414819D02*
X117467142Y-60462438D01*
X117467142Y-60462438D02*
X117419523Y-60510057D01*
X117419523Y-60510057D02*
X117371904Y-60605295D01*
X117371904Y-60605295D02*
X117324285Y-60795771D01*
X117324285Y-60795771D02*
X117324285Y-61033866D01*
X117324285Y-61033866D02*
X117371904Y-61224342D01*
X117371904Y-61224342D02*
X117419523Y-61319580D01*
X117419523Y-61319580D02*
X117467142Y-61367200D01*
X117467142Y-61367200D02*
X117562380Y-61414819D01*
X117562380Y-61414819D02*
X117657618Y-61414819D01*
X117657618Y-61414819D02*
X117752856Y-61367200D01*
X117752856Y-61367200D02*
X117800475Y-61319580D01*
X117800475Y-61319580D02*
X117848094Y-61224342D01*
X117848094Y-61224342D02*
X117895713Y-61033866D01*
X117895713Y-61033866D02*
X117895713Y-60795771D01*
X117895713Y-60795771D02*
X117848094Y-60605295D01*
X117848094Y-60605295D02*
X117800475Y-60510057D01*
X117800475Y-60510057D02*
X117752856Y-60462438D01*
X117752856Y-60462438D02*
X117657618Y-60414819D01*
X116467142Y-60748152D02*
X116467142Y-61414819D01*
X116705237Y-60367200D02*
X116943332Y-61081485D01*
X116943332Y-61081485D02*
X116324285Y-61081485D01*
X172497619Y-64685057D02*
X172592857Y-64637438D01*
X172592857Y-64637438D02*
X172688095Y-64542200D01*
X172688095Y-64542200D02*
X172830952Y-64399342D01*
X172830952Y-64399342D02*
X172926190Y-64351723D01*
X172926190Y-64351723D02*
X173021428Y-64351723D01*
X172973809Y-64589819D02*
X173069047Y-64542200D01*
X173069047Y-64542200D02*
X173164285Y-64446961D01*
X173164285Y-64446961D02*
X173211904Y-64256485D01*
X173211904Y-64256485D02*
X173211904Y-63923152D01*
X173211904Y-63923152D02*
X173164285Y-63732676D01*
X173164285Y-63732676D02*
X173069047Y-63637438D01*
X173069047Y-63637438D02*
X172973809Y-63589819D01*
X172973809Y-63589819D02*
X172783333Y-63589819D01*
X172783333Y-63589819D02*
X172688095Y-63637438D01*
X172688095Y-63637438D02*
X172592857Y-63732676D01*
X172592857Y-63732676D02*
X172545238Y-63923152D01*
X172545238Y-63923152D02*
X172545238Y-64256485D01*
X172545238Y-64256485D02*
X172592857Y-64446961D01*
X172592857Y-64446961D02*
X172688095Y-64542200D01*
X172688095Y-64542200D02*
X172783333Y-64589819D01*
X172783333Y-64589819D02*
X172973809Y-64589819D01*
X172164285Y-63685057D02*
X172116666Y-63637438D01*
X172116666Y-63637438D02*
X172021428Y-63589819D01*
X172021428Y-63589819D02*
X171783333Y-63589819D01*
X171783333Y-63589819D02*
X171688095Y-63637438D01*
X171688095Y-63637438D02*
X171640476Y-63685057D01*
X171640476Y-63685057D02*
X171592857Y-63780295D01*
X171592857Y-63780295D02*
X171592857Y-63875533D01*
X171592857Y-63875533D02*
X171640476Y-64018390D01*
X171640476Y-64018390D02*
X172211904Y-64589819D01*
X172211904Y-64589819D02*
X171592857Y-64589819D01*
X170973809Y-63589819D02*
X170878571Y-63589819D01*
X170878571Y-63589819D02*
X170783333Y-63637438D01*
X170783333Y-63637438D02*
X170735714Y-63685057D01*
X170735714Y-63685057D02*
X170688095Y-63780295D01*
X170688095Y-63780295D02*
X170640476Y-63970771D01*
X170640476Y-63970771D02*
X170640476Y-64208866D01*
X170640476Y-64208866D02*
X170688095Y-64399342D01*
X170688095Y-64399342D02*
X170735714Y-64494580D01*
X170735714Y-64494580D02*
X170783333Y-64542200D01*
X170783333Y-64542200D02*
X170878571Y-64589819D01*
X170878571Y-64589819D02*
X170973809Y-64589819D01*
X170973809Y-64589819D02*
X171069047Y-64542200D01*
X171069047Y-64542200D02*
X171116666Y-64494580D01*
X171116666Y-64494580D02*
X171164285Y-64399342D01*
X171164285Y-64399342D02*
X171211904Y-64208866D01*
X171211904Y-64208866D02*
X171211904Y-63970771D01*
X171211904Y-63970771D02*
X171164285Y-63780295D01*
X171164285Y-63780295D02*
X171116666Y-63685057D01*
X171116666Y-63685057D02*
X171069047Y-63637438D01*
X171069047Y-63637438D02*
X170973809Y-63589819D01*
X169688095Y-64589819D02*
X170259523Y-64589819D01*
X169973809Y-64589819D02*
X169973809Y-63589819D01*
X169973809Y-63589819D02*
X170069047Y-63732676D01*
X170069047Y-63732676D02*
X170164285Y-63827914D01*
X170164285Y-63827914D02*
X170259523Y-63875533D01*
X139549047Y-81734819D02*
X139882380Y-81258628D01*
X140120475Y-81734819D02*
X140120475Y-80734819D01*
X140120475Y-80734819D02*
X139739523Y-80734819D01*
X139739523Y-80734819D02*
X139644285Y-80782438D01*
X139644285Y-80782438D02*
X139596666Y-80830057D01*
X139596666Y-80830057D02*
X139549047Y-80925295D01*
X139549047Y-80925295D02*
X139549047Y-81068152D01*
X139549047Y-81068152D02*
X139596666Y-81163390D01*
X139596666Y-81163390D02*
X139644285Y-81211009D01*
X139644285Y-81211009D02*
X139739523Y-81258628D01*
X139739523Y-81258628D02*
X140120475Y-81258628D01*
X138596666Y-81734819D02*
X139168094Y-81734819D01*
X138882380Y-81734819D02*
X138882380Y-80734819D01*
X138882380Y-80734819D02*
X138977618Y-80877676D01*
X138977618Y-80877676D02*
X139072856Y-80972914D01*
X139072856Y-80972914D02*
X139168094Y-81020533D01*
X137644285Y-81734819D02*
X138215713Y-81734819D01*
X137929999Y-81734819D02*
X137929999Y-80734819D01*
X137929999Y-80734819D02*
X138025237Y-80877676D01*
X138025237Y-80877676D02*
X138120475Y-80972914D01*
X138120475Y-80972914D02*
X138215713Y-81020533D01*
X136691904Y-81734819D02*
X137263332Y-81734819D01*
X136977618Y-81734819D02*
X136977618Y-80734819D01*
X136977618Y-80734819D02*
X137072856Y-80877676D01*
X137072856Y-80877676D02*
X137168094Y-80972914D01*
X137168094Y-80972914D02*
X137263332Y-81020533D01*
X139509047Y-85449580D02*
X139556666Y-85497200D01*
X139556666Y-85497200D02*
X139699523Y-85544819D01*
X139699523Y-85544819D02*
X139794761Y-85544819D01*
X139794761Y-85544819D02*
X139937618Y-85497200D01*
X139937618Y-85497200D02*
X140032856Y-85401961D01*
X140032856Y-85401961D02*
X140080475Y-85306723D01*
X140080475Y-85306723D02*
X140128094Y-85116247D01*
X140128094Y-85116247D02*
X140128094Y-84973390D01*
X140128094Y-84973390D02*
X140080475Y-84782914D01*
X140080475Y-84782914D02*
X140032856Y-84687676D01*
X140032856Y-84687676D02*
X139937618Y-84592438D01*
X139937618Y-84592438D02*
X139794761Y-84544819D01*
X139794761Y-84544819D02*
X139699523Y-84544819D01*
X139699523Y-84544819D02*
X139556666Y-84592438D01*
X139556666Y-84592438D02*
X139509047Y-84640057D01*
X138556666Y-85544819D02*
X139128094Y-85544819D01*
X138842380Y-85544819D02*
X138842380Y-84544819D01*
X138842380Y-84544819D02*
X138937618Y-84687676D01*
X138937618Y-84687676D02*
X139032856Y-84782914D01*
X139032856Y-84782914D02*
X139128094Y-84830533D01*
X137937618Y-84544819D02*
X137842380Y-84544819D01*
X137842380Y-84544819D02*
X137747142Y-84592438D01*
X137747142Y-84592438D02*
X137699523Y-84640057D01*
X137699523Y-84640057D02*
X137651904Y-84735295D01*
X137651904Y-84735295D02*
X137604285Y-84925771D01*
X137604285Y-84925771D02*
X137604285Y-85163866D01*
X137604285Y-85163866D02*
X137651904Y-85354342D01*
X137651904Y-85354342D02*
X137699523Y-85449580D01*
X137699523Y-85449580D02*
X137747142Y-85497200D01*
X137747142Y-85497200D02*
X137842380Y-85544819D01*
X137842380Y-85544819D02*
X137937618Y-85544819D01*
X137937618Y-85544819D02*
X138032856Y-85497200D01*
X138032856Y-85497200D02*
X138080475Y-85449580D01*
X138080475Y-85449580D02*
X138128094Y-85354342D01*
X138128094Y-85354342D02*
X138175713Y-85163866D01*
X138175713Y-85163866D02*
X138175713Y-84925771D01*
X138175713Y-84925771D02*
X138128094Y-84735295D01*
X138128094Y-84735295D02*
X138080475Y-84640057D01*
X138080475Y-84640057D02*
X138032856Y-84592438D01*
X138032856Y-84592438D02*
X137937618Y-84544819D01*
X136747142Y-84544819D02*
X136937618Y-84544819D01*
X136937618Y-84544819D02*
X137032856Y-84592438D01*
X137032856Y-84592438D02*
X137080475Y-84640057D01*
X137080475Y-84640057D02*
X137175713Y-84782914D01*
X137175713Y-84782914D02*
X137223332Y-84973390D01*
X137223332Y-84973390D02*
X137223332Y-85354342D01*
X137223332Y-85354342D02*
X137175713Y-85449580D01*
X137175713Y-85449580D02*
X137128094Y-85497200D01*
X137128094Y-85497200D02*
X137032856Y-85544819D01*
X137032856Y-85544819D02*
X136842380Y-85544819D01*
X136842380Y-85544819D02*
X136747142Y-85497200D01*
X136747142Y-85497200D02*
X136699523Y-85449580D01*
X136699523Y-85449580D02*
X136651904Y-85354342D01*
X136651904Y-85354342D02*
X136651904Y-85116247D01*
X136651904Y-85116247D02*
X136699523Y-85021009D01*
X136699523Y-85021009D02*
X136747142Y-84973390D01*
X136747142Y-84973390D02*
X136842380Y-84925771D01*
X136842380Y-84925771D02*
X137032856Y-84925771D01*
X137032856Y-84925771D02*
X137128094Y-84973390D01*
X137128094Y-84973390D02*
X137175713Y-85021009D01*
X137175713Y-85021009D02*
X137223332Y-85116247D01*
X129317619Y-59986057D02*
X129412857Y-59938438D01*
X129412857Y-59938438D02*
X129508095Y-59843200D01*
X129508095Y-59843200D02*
X129650952Y-59700342D01*
X129650952Y-59700342D02*
X129746190Y-59652723D01*
X129746190Y-59652723D02*
X129841428Y-59652723D01*
X129793809Y-59890819D02*
X129889047Y-59843200D01*
X129889047Y-59843200D02*
X129984285Y-59747961D01*
X129984285Y-59747961D02*
X130031904Y-59557485D01*
X130031904Y-59557485D02*
X130031904Y-59224152D01*
X130031904Y-59224152D02*
X129984285Y-59033676D01*
X129984285Y-59033676D02*
X129889047Y-58938438D01*
X129889047Y-58938438D02*
X129793809Y-58890819D01*
X129793809Y-58890819D02*
X129603333Y-58890819D01*
X129603333Y-58890819D02*
X129508095Y-58938438D01*
X129508095Y-58938438D02*
X129412857Y-59033676D01*
X129412857Y-59033676D02*
X129365238Y-59224152D01*
X129365238Y-59224152D02*
X129365238Y-59557485D01*
X129365238Y-59557485D02*
X129412857Y-59747961D01*
X129412857Y-59747961D02*
X129508095Y-59843200D01*
X129508095Y-59843200D02*
X129603333Y-59890819D01*
X129603333Y-59890819D02*
X129793809Y-59890819D01*
X128412857Y-59890819D02*
X128984285Y-59890819D01*
X128698571Y-59890819D02*
X128698571Y-58890819D01*
X128698571Y-58890819D02*
X128793809Y-59033676D01*
X128793809Y-59033676D02*
X128889047Y-59128914D01*
X128889047Y-59128914D02*
X128984285Y-59176533D01*
X127793809Y-58890819D02*
X127698571Y-58890819D01*
X127698571Y-58890819D02*
X127603333Y-58938438D01*
X127603333Y-58938438D02*
X127555714Y-58986057D01*
X127555714Y-58986057D02*
X127508095Y-59081295D01*
X127508095Y-59081295D02*
X127460476Y-59271771D01*
X127460476Y-59271771D02*
X127460476Y-59509866D01*
X127460476Y-59509866D02*
X127508095Y-59700342D01*
X127508095Y-59700342D02*
X127555714Y-59795580D01*
X127555714Y-59795580D02*
X127603333Y-59843200D01*
X127603333Y-59843200D02*
X127698571Y-59890819D01*
X127698571Y-59890819D02*
X127793809Y-59890819D01*
X127793809Y-59890819D02*
X127889047Y-59843200D01*
X127889047Y-59843200D02*
X127936666Y-59795580D01*
X127936666Y-59795580D02*
X127984285Y-59700342D01*
X127984285Y-59700342D02*
X128031904Y-59509866D01*
X128031904Y-59509866D02*
X128031904Y-59271771D01*
X128031904Y-59271771D02*
X127984285Y-59081295D01*
X127984285Y-59081295D02*
X127936666Y-58986057D01*
X127936666Y-58986057D02*
X127889047Y-58938438D01*
X127889047Y-58938438D02*
X127793809Y-58890819D01*
X126508095Y-59890819D02*
X127079523Y-59890819D01*
X126793809Y-59890819D02*
X126793809Y-58890819D01*
X126793809Y-58890819D02*
X126889047Y-59033676D01*
X126889047Y-59033676D02*
X126984285Y-59128914D01*
X126984285Y-59128914D02*
X127079523Y-59176533D01*
X162409047Y-65224819D02*
X162742380Y-64748628D01*
X162980475Y-65224819D02*
X162980475Y-64224819D01*
X162980475Y-64224819D02*
X162599523Y-64224819D01*
X162599523Y-64224819D02*
X162504285Y-64272438D01*
X162504285Y-64272438D02*
X162456666Y-64320057D01*
X162456666Y-64320057D02*
X162409047Y-64415295D01*
X162409047Y-64415295D02*
X162409047Y-64558152D01*
X162409047Y-64558152D02*
X162456666Y-64653390D01*
X162456666Y-64653390D02*
X162504285Y-64701009D01*
X162504285Y-64701009D02*
X162599523Y-64748628D01*
X162599523Y-64748628D02*
X162980475Y-64748628D01*
X162028094Y-64320057D02*
X161980475Y-64272438D01*
X161980475Y-64272438D02*
X161885237Y-64224819D01*
X161885237Y-64224819D02*
X161647142Y-64224819D01*
X161647142Y-64224819D02*
X161551904Y-64272438D01*
X161551904Y-64272438D02*
X161504285Y-64320057D01*
X161504285Y-64320057D02*
X161456666Y-64415295D01*
X161456666Y-64415295D02*
X161456666Y-64510533D01*
X161456666Y-64510533D02*
X161504285Y-64653390D01*
X161504285Y-64653390D02*
X162075713Y-65224819D01*
X162075713Y-65224819D02*
X161456666Y-65224819D01*
X160837618Y-64224819D02*
X160742380Y-64224819D01*
X160742380Y-64224819D02*
X160647142Y-64272438D01*
X160647142Y-64272438D02*
X160599523Y-64320057D01*
X160599523Y-64320057D02*
X160551904Y-64415295D01*
X160551904Y-64415295D02*
X160504285Y-64605771D01*
X160504285Y-64605771D02*
X160504285Y-64843866D01*
X160504285Y-64843866D02*
X160551904Y-65034342D01*
X160551904Y-65034342D02*
X160599523Y-65129580D01*
X160599523Y-65129580D02*
X160647142Y-65177200D01*
X160647142Y-65177200D02*
X160742380Y-65224819D01*
X160742380Y-65224819D02*
X160837618Y-65224819D01*
X160837618Y-65224819D02*
X160932856Y-65177200D01*
X160932856Y-65177200D02*
X160980475Y-65129580D01*
X160980475Y-65129580D02*
X161028094Y-65034342D01*
X161028094Y-65034342D02*
X161075713Y-64843866D01*
X161075713Y-64843866D02*
X161075713Y-64605771D01*
X161075713Y-64605771D02*
X161028094Y-64415295D01*
X161028094Y-64415295D02*
X160980475Y-64320057D01*
X160980475Y-64320057D02*
X160932856Y-64272438D01*
X160932856Y-64272438D02*
X160837618Y-64224819D01*
X160170951Y-64224819D02*
X159504285Y-64224819D01*
X159504285Y-64224819D02*
X159932856Y-65224819D01*
X162409047Y-81734819D02*
X162742380Y-81258628D01*
X162980475Y-81734819D02*
X162980475Y-80734819D01*
X162980475Y-80734819D02*
X162599523Y-80734819D01*
X162599523Y-80734819D02*
X162504285Y-80782438D01*
X162504285Y-80782438D02*
X162456666Y-80830057D01*
X162456666Y-80830057D02*
X162409047Y-80925295D01*
X162409047Y-80925295D02*
X162409047Y-81068152D01*
X162409047Y-81068152D02*
X162456666Y-81163390D01*
X162456666Y-81163390D02*
X162504285Y-81211009D01*
X162504285Y-81211009D02*
X162599523Y-81258628D01*
X162599523Y-81258628D02*
X162980475Y-81258628D01*
X162028094Y-80830057D02*
X161980475Y-80782438D01*
X161980475Y-80782438D02*
X161885237Y-80734819D01*
X161885237Y-80734819D02*
X161647142Y-80734819D01*
X161647142Y-80734819D02*
X161551904Y-80782438D01*
X161551904Y-80782438D02*
X161504285Y-80830057D01*
X161504285Y-80830057D02*
X161456666Y-80925295D01*
X161456666Y-80925295D02*
X161456666Y-81020533D01*
X161456666Y-81020533D02*
X161504285Y-81163390D01*
X161504285Y-81163390D02*
X162075713Y-81734819D01*
X162075713Y-81734819D02*
X161456666Y-81734819D01*
X160504285Y-81734819D02*
X161075713Y-81734819D01*
X160789999Y-81734819D02*
X160789999Y-80734819D01*
X160789999Y-80734819D02*
X160885237Y-80877676D01*
X160885237Y-80877676D02*
X160980475Y-80972914D01*
X160980475Y-80972914D02*
X161075713Y-81020533D01*
X159551904Y-81734819D02*
X160123332Y-81734819D01*
X159837618Y-81734819D02*
X159837618Y-80734819D01*
X159837618Y-80734819D02*
X159932856Y-80877676D01*
X159932856Y-80877676D02*
X160028094Y-80972914D01*
X160028094Y-80972914D02*
X160123332Y-81020533D01*
X116689047Y-74749819D02*
X117022380Y-74273628D01*
X117260475Y-74749819D02*
X117260475Y-73749819D01*
X117260475Y-73749819D02*
X116879523Y-73749819D01*
X116879523Y-73749819D02*
X116784285Y-73797438D01*
X116784285Y-73797438D02*
X116736666Y-73845057D01*
X116736666Y-73845057D02*
X116689047Y-73940295D01*
X116689047Y-73940295D02*
X116689047Y-74083152D01*
X116689047Y-74083152D02*
X116736666Y-74178390D01*
X116736666Y-74178390D02*
X116784285Y-74226009D01*
X116784285Y-74226009D02*
X116879523Y-74273628D01*
X116879523Y-74273628D02*
X117260475Y-74273628D01*
X115736666Y-74749819D02*
X116308094Y-74749819D01*
X116022380Y-74749819D02*
X116022380Y-73749819D01*
X116022380Y-73749819D02*
X116117618Y-73892676D01*
X116117618Y-73892676D02*
X116212856Y-73987914D01*
X116212856Y-73987914D02*
X116308094Y-74035533D01*
X114784285Y-74749819D02*
X115355713Y-74749819D01*
X115069999Y-74749819D02*
X115069999Y-73749819D01*
X115069999Y-73749819D02*
X115165237Y-73892676D01*
X115165237Y-73892676D02*
X115260475Y-73987914D01*
X115260475Y-73987914D02*
X115355713Y-74035533D01*
X114165237Y-73749819D02*
X114069999Y-73749819D01*
X114069999Y-73749819D02*
X113974761Y-73797438D01*
X113974761Y-73797438D02*
X113927142Y-73845057D01*
X113927142Y-73845057D02*
X113879523Y-73940295D01*
X113879523Y-73940295D02*
X113831904Y-74130771D01*
X113831904Y-74130771D02*
X113831904Y-74368866D01*
X113831904Y-74368866D02*
X113879523Y-74559342D01*
X113879523Y-74559342D02*
X113927142Y-74654580D01*
X113927142Y-74654580D02*
X113974761Y-74702200D01*
X113974761Y-74702200D02*
X114069999Y-74749819D01*
X114069999Y-74749819D02*
X114165237Y-74749819D01*
X114165237Y-74749819D02*
X114260475Y-74702200D01*
X114260475Y-74702200D02*
X114308094Y-74654580D01*
X114308094Y-74654580D02*
X114355713Y-74559342D01*
X114355713Y-74559342D02*
X114403332Y-74368866D01*
X114403332Y-74368866D02*
X114403332Y-74130771D01*
X114403332Y-74130771D02*
X114355713Y-73940295D01*
X114355713Y-73940295D02*
X114308094Y-73845057D01*
X114308094Y-73845057D02*
X114260475Y-73797438D01*
X114260475Y-73797438D02*
X114165237Y-73749819D01*
X139549047Y-89354819D02*
X139882380Y-88878628D01*
X140120475Y-89354819D02*
X140120475Y-88354819D01*
X140120475Y-88354819D02*
X139739523Y-88354819D01*
X139739523Y-88354819D02*
X139644285Y-88402438D01*
X139644285Y-88402438D02*
X139596666Y-88450057D01*
X139596666Y-88450057D02*
X139549047Y-88545295D01*
X139549047Y-88545295D02*
X139549047Y-88688152D01*
X139549047Y-88688152D02*
X139596666Y-88783390D01*
X139596666Y-88783390D02*
X139644285Y-88831009D01*
X139644285Y-88831009D02*
X139739523Y-88878628D01*
X139739523Y-88878628D02*
X140120475Y-88878628D01*
X138596666Y-89354819D02*
X139168094Y-89354819D01*
X138882380Y-89354819D02*
X138882380Y-88354819D01*
X138882380Y-88354819D02*
X138977618Y-88497676D01*
X138977618Y-88497676D02*
X139072856Y-88592914D01*
X139072856Y-88592914D02*
X139168094Y-88640533D01*
X137644285Y-89354819D02*
X138215713Y-89354819D01*
X137929999Y-89354819D02*
X137929999Y-88354819D01*
X137929999Y-88354819D02*
X138025237Y-88497676D01*
X138025237Y-88497676D02*
X138120475Y-88592914D01*
X138120475Y-88592914D02*
X138215713Y-88640533D01*
X137310951Y-88354819D02*
X136691904Y-88354819D01*
X136691904Y-88354819D02*
X137025237Y-88735771D01*
X137025237Y-88735771D02*
X136882380Y-88735771D01*
X136882380Y-88735771D02*
X136787142Y-88783390D01*
X136787142Y-88783390D02*
X136739523Y-88831009D01*
X136739523Y-88831009D02*
X136691904Y-88926247D01*
X136691904Y-88926247D02*
X136691904Y-89164342D01*
X136691904Y-89164342D02*
X136739523Y-89259580D01*
X136739523Y-89259580D02*
X136787142Y-89307200D01*
X136787142Y-89307200D02*
X136882380Y-89354819D01*
X136882380Y-89354819D02*
X137168094Y-89354819D01*
X137168094Y-89354819D02*
X137263332Y-89307200D01*
X137263332Y-89307200D02*
X137310951Y-89259580D01*
X130976666Y-51794580D02*
X131024285Y-51842200D01*
X131024285Y-51842200D02*
X131167142Y-51889819D01*
X131167142Y-51889819D02*
X131262380Y-51889819D01*
X131262380Y-51889819D02*
X131405237Y-51842200D01*
X131405237Y-51842200D02*
X131500475Y-51746961D01*
X131500475Y-51746961D02*
X131548094Y-51651723D01*
X131548094Y-51651723D02*
X131595713Y-51461247D01*
X131595713Y-51461247D02*
X131595713Y-51318390D01*
X131595713Y-51318390D02*
X131548094Y-51127914D01*
X131548094Y-51127914D02*
X131500475Y-51032676D01*
X131500475Y-51032676D02*
X131405237Y-50937438D01*
X131405237Y-50937438D02*
X131262380Y-50889819D01*
X131262380Y-50889819D02*
X131167142Y-50889819D01*
X131167142Y-50889819D02*
X131024285Y-50937438D01*
X131024285Y-50937438D02*
X130976666Y-50985057D01*
X130024285Y-51889819D02*
X130595713Y-51889819D01*
X130309999Y-51889819D02*
X130309999Y-50889819D01*
X130309999Y-50889819D02*
X130405237Y-51032676D01*
X130405237Y-51032676D02*
X130500475Y-51127914D01*
X130500475Y-51127914D02*
X130595713Y-51175533D01*
X149729047Y-56874580D02*
X149776666Y-56922200D01*
X149776666Y-56922200D02*
X149919523Y-56969819D01*
X149919523Y-56969819D02*
X150014761Y-56969819D01*
X150014761Y-56969819D02*
X150157618Y-56922200D01*
X150157618Y-56922200D02*
X150252856Y-56826961D01*
X150252856Y-56826961D02*
X150300475Y-56731723D01*
X150300475Y-56731723D02*
X150348094Y-56541247D01*
X150348094Y-56541247D02*
X150348094Y-56398390D01*
X150348094Y-56398390D02*
X150300475Y-56207914D01*
X150300475Y-56207914D02*
X150252856Y-56112676D01*
X150252856Y-56112676D02*
X150157618Y-56017438D01*
X150157618Y-56017438D02*
X150014761Y-55969819D01*
X150014761Y-55969819D02*
X149919523Y-55969819D01*
X149919523Y-55969819D02*
X149776666Y-56017438D01*
X149776666Y-56017438D02*
X149729047Y-56065057D01*
X148776666Y-56969819D02*
X149348094Y-56969819D01*
X149062380Y-56969819D02*
X149062380Y-55969819D01*
X149062380Y-55969819D02*
X149157618Y-56112676D01*
X149157618Y-56112676D02*
X149252856Y-56207914D01*
X149252856Y-56207914D02*
X149348094Y-56255533D01*
X148157618Y-55969819D02*
X148062380Y-55969819D01*
X148062380Y-55969819D02*
X147967142Y-56017438D01*
X147967142Y-56017438D02*
X147919523Y-56065057D01*
X147919523Y-56065057D02*
X147871904Y-56160295D01*
X147871904Y-56160295D02*
X147824285Y-56350771D01*
X147824285Y-56350771D02*
X147824285Y-56588866D01*
X147824285Y-56588866D02*
X147871904Y-56779342D01*
X147871904Y-56779342D02*
X147919523Y-56874580D01*
X147919523Y-56874580D02*
X147967142Y-56922200D01*
X147967142Y-56922200D02*
X148062380Y-56969819D01*
X148062380Y-56969819D02*
X148157618Y-56969819D01*
X148157618Y-56969819D02*
X148252856Y-56922200D01*
X148252856Y-56922200D02*
X148300475Y-56874580D01*
X148300475Y-56874580D02*
X148348094Y-56779342D01*
X148348094Y-56779342D02*
X148395713Y-56588866D01*
X148395713Y-56588866D02*
X148395713Y-56350771D01*
X148395713Y-56350771D02*
X148348094Y-56160295D01*
X148348094Y-56160295D02*
X148300475Y-56065057D01*
X148300475Y-56065057D02*
X148252856Y-56017438D01*
X148252856Y-56017438D02*
X148157618Y-55969819D01*
X147348094Y-56969819D02*
X147157618Y-56969819D01*
X147157618Y-56969819D02*
X147062380Y-56922200D01*
X147062380Y-56922200D02*
X147014761Y-56874580D01*
X147014761Y-56874580D02*
X146919523Y-56731723D01*
X146919523Y-56731723D02*
X146871904Y-56541247D01*
X146871904Y-56541247D02*
X146871904Y-56160295D01*
X146871904Y-56160295D02*
X146919523Y-56065057D01*
X146919523Y-56065057D02*
X146967142Y-56017438D01*
X146967142Y-56017438D02*
X147062380Y-55969819D01*
X147062380Y-55969819D02*
X147252856Y-55969819D01*
X147252856Y-55969819D02*
X147348094Y-56017438D01*
X147348094Y-56017438D02*
X147395713Y-56065057D01*
X147395713Y-56065057D02*
X147443332Y-56160295D01*
X147443332Y-56160295D02*
X147443332Y-56398390D01*
X147443332Y-56398390D02*
X147395713Y-56493628D01*
X147395713Y-56493628D02*
X147348094Y-56541247D01*
X147348094Y-56541247D02*
X147252856Y-56588866D01*
X147252856Y-56588866D02*
X147062380Y-56588866D01*
X147062380Y-56588866D02*
X146967142Y-56541247D01*
X146967142Y-56541247D02*
X146919523Y-56493628D01*
X146919523Y-56493628D02*
X146871904Y-56398390D01*
X139549047Y-65224819D02*
X139882380Y-64748628D01*
X140120475Y-65224819D02*
X140120475Y-64224819D01*
X140120475Y-64224819D02*
X139739523Y-64224819D01*
X139739523Y-64224819D02*
X139644285Y-64272438D01*
X139644285Y-64272438D02*
X139596666Y-64320057D01*
X139596666Y-64320057D02*
X139549047Y-64415295D01*
X139549047Y-64415295D02*
X139549047Y-64558152D01*
X139549047Y-64558152D02*
X139596666Y-64653390D01*
X139596666Y-64653390D02*
X139644285Y-64701009D01*
X139644285Y-64701009D02*
X139739523Y-64748628D01*
X139739523Y-64748628D02*
X140120475Y-64748628D01*
X138596666Y-65224819D02*
X139168094Y-65224819D01*
X138882380Y-65224819D02*
X138882380Y-64224819D01*
X138882380Y-64224819D02*
X138977618Y-64367676D01*
X138977618Y-64367676D02*
X139072856Y-64462914D01*
X139072856Y-64462914D02*
X139168094Y-64510533D01*
X137977618Y-64224819D02*
X137882380Y-64224819D01*
X137882380Y-64224819D02*
X137787142Y-64272438D01*
X137787142Y-64272438D02*
X137739523Y-64320057D01*
X137739523Y-64320057D02*
X137691904Y-64415295D01*
X137691904Y-64415295D02*
X137644285Y-64605771D01*
X137644285Y-64605771D02*
X137644285Y-64843866D01*
X137644285Y-64843866D02*
X137691904Y-65034342D01*
X137691904Y-65034342D02*
X137739523Y-65129580D01*
X137739523Y-65129580D02*
X137787142Y-65177200D01*
X137787142Y-65177200D02*
X137882380Y-65224819D01*
X137882380Y-65224819D02*
X137977618Y-65224819D01*
X137977618Y-65224819D02*
X138072856Y-65177200D01*
X138072856Y-65177200D02*
X138120475Y-65129580D01*
X138120475Y-65129580D02*
X138168094Y-65034342D01*
X138168094Y-65034342D02*
X138215713Y-64843866D01*
X138215713Y-64843866D02*
X138215713Y-64605771D01*
X138215713Y-64605771D02*
X138168094Y-64415295D01*
X138168094Y-64415295D02*
X138120475Y-64320057D01*
X138120475Y-64320057D02*
X138072856Y-64272438D01*
X138072856Y-64272438D02*
X137977618Y-64224819D01*
X137310951Y-64224819D02*
X136644285Y-64224819D01*
X136644285Y-64224819D02*
X137072856Y-65224819D01*
X153215180Y-82399047D02*
X153691371Y-82732380D01*
X153215180Y-82970475D02*
X154215180Y-82970475D01*
X154215180Y-82970475D02*
X154215180Y-82589523D01*
X154215180Y-82589523D02*
X154167561Y-82494285D01*
X154167561Y-82494285D02*
X154119942Y-82446666D01*
X154119942Y-82446666D02*
X154024704Y-82399047D01*
X154024704Y-82399047D02*
X153881847Y-82399047D01*
X153881847Y-82399047D02*
X153786609Y-82446666D01*
X153786609Y-82446666D02*
X153738990Y-82494285D01*
X153738990Y-82494285D02*
X153691371Y-82589523D01*
X153691371Y-82589523D02*
X153691371Y-82970475D01*
X154119942Y-82018094D02*
X154167561Y-81970475D01*
X154167561Y-81970475D02*
X154215180Y-81875237D01*
X154215180Y-81875237D02*
X154215180Y-81637142D01*
X154215180Y-81637142D02*
X154167561Y-81541904D01*
X154167561Y-81541904D02*
X154119942Y-81494285D01*
X154119942Y-81494285D02*
X154024704Y-81446666D01*
X154024704Y-81446666D02*
X153929466Y-81446666D01*
X153929466Y-81446666D02*
X153786609Y-81494285D01*
X153786609Y-81494285D02*
X153215180Y-82065713D01*
X153215180Y-82065713D02*
X153215180Y-81446666D01*
X153215180Y-80494285D02*
X153215180Y-81065713D01*
X153215180Y-80779999D02*
X154215180Y-80779999D01*
X154215180Y-80779999D02*
X154072323Y-80875237D01*
X154072323Y-80875237D02*
X153977085Y-80970475D01*
X153977085Y-80970475D02*
X153929466Y-81065713D01*
X153881847Y-79637142D02*
X153215180Y-79637142D01*
X154262800Y-79875237D02*
X153548514Y-80113332D01*
X153548514Y-80113332D02*
X153548514Y-79494285D01*
X109553333Y-69034819D02*
X109553333Y-69749104D01*
X109553333Y-69749104D02*
X109600952Y-69891961D01*
X109600952Y-69891961D02*
X109696190Y-69987200D01*
X109696190Y-69987200D02*
X109839047Y-70034819D01*
X109839047Y-70034819D02*
X109934285Y-70034819D01*
X108600952Y-69034819D02*
X109077142Y-69034819D01*
X109077142Y-69034819D02*
X109124761Y-69511009D01*
X109124761Y-69511009D02*
X109077142Y-69463390D01*
X109077142Y-69463390D02*
X108981904Y-69415771D01*
X108981904Y-69415771D02*
X108743809Y-69415771D01*
X108743809Y-69415771D02*
X108648571Y-69463390D01*
X108648571Y-69463390D02*
X108600952Y-69511009D01*
X108600952Y-69511009D02*
X108553333Y-69606247D01*
X108553333Y-69606247D02*
X108553333Y-69844342D01*
X108553333Y-69844342D02*
X108600952Y-69939580D01*
X108600952Y-69939580D02*
X108648571Y-69987200D01*
X108648571Y-69987200D02*
X108743809Y-70034819D01*
X108743809Y-70034819D02*
X108981904Y-70034819D01*
X108981904Y-70034819D02*
X109077142Y-69987200D01*
X109077142Y-69987200D02*
X109124761Y-69939580D01*
X116689047Y-77924819D02*
X117022380Y-77448628D01*
X117260475Y-77924819D02*
X117260475Y-76924819D01*
X117260475Y-76924819D02*
X116879523Y-76924819D01*
X116879523Y-76924819D02*
X116784285Y-76972438D01*
X116784285Y-76972438D02*
X116736666Y-77020057D01*
X116736666Y-77020057D02*
X116689047Y-77115295D01*
X116689047Y-77115295D02*
X116689047Y-77258152D01*
X116689047Y-77258152D02*
X116736666Y-77353390D01*
X116736666Y-77353390D02*
X116784285Y-77401009D01*
X116784285Y-77401009D02*
X116879523Y-77448628D01*
X116879523Y-77448628D02*
X117260475Y-77448628D01*
X115736666Y-77924819D02*
X116308094Y-77924819D01*
X116022380Y-77924819D02*
X116022380Y-76924819D01*
X116022380Y-76924819D02*
X116117618Y-77067676D01*
X116117618Y-77067676D02*
X116212856Y-77162914D01*
X116212856Y-77162914D02*
X116308094Y-77210533D01*
X115117618Y-76924819D02*
X115022380Y-76924819D01*
X115022380Y-76924819D02*
X114927142Y-76972438D01*
X114927142Y-76972438D02*
X114879523Y-77020057D01*
X114879523Y-77020057D02*
X114831904Y-77115295D01*
X114831904Y-77115295D02*
X114784285Y-77305771D01*
X114784285Y-77305771D02*
X114784285Y-77543866D01*
X114784285Y-77543866D02*
X114831904Y-77734342D01*
X114831904Y-77734342D02*
X114879523Y-77829580D01*
X114879523Y-77829580D02*
X114927142Y-77877200D01*
X114927142Y-77877200D02*
X115022380Y-77924819D01*
X115022380Y-77924819D02*
X115117618Y-77924819D01*
X115117618Y-77924819D02*
X115212856Y-77877200D01*
X115212856Y-77877200D02*
X115260475Y-77829580D01*
X115260475Y-77829580D02*
X115308094Y-77734342D01*
X115308094Y-77734342D02*
X115355713Y-77543866D01*
X115355713Y-77543866D02*
X115355713Y-77305771D01*
X115355713Y-77305771D02*
X115308094Y-77115295D01*
X115308094Y-77115295D02*
X115260475Y-77020057D01*
X115260475Y-77020057D02*
X115212856Y-76972438D01*
X115212856Y-76972438D02*
X115117618Y-76924819D01*
X114308094Y-77924819D02*
X114117618Y-77924819D01*
X114117618Y-77924819D02*
X114022380Y-77877200D01*
X114022380Y-77877200D02*
X113974761Y-77829580D01*
X113974761Y-77829580D02*
X113879523Y-77686723D01*
X113879523Y-77686723D02*
X113831904Y-77496247D01*
X113831904Y-77496247D02*
X113831904Y-77115295D01*
X113831904Y-77115295D02*
X113879523Y-77020057D01*
X113879523Y-77020057D02*
X113927142Y-76972438D01*
X113927142Y-76972438D02*
X114022380Y-76924819D01*
X114022380Y-76924819D02*
X114212856Y-76924819D01*
X114212856Y-76924819D02*
X114308094Y-76972438D01*
X114308094Y-76972438D02*
X114355713Y-77020057D01*
X114355713Y-77020057D02*
X114403332Y-77115295D01*
X114403332Y-77115295D02*
X114403332Y-77353390D01*
X114403332Y-77353390D02*
X114355713Y-77448628D01*
X114355713Y-77448628D02*
X114308094Y-77496247D01*
X114308094Y-77496247D02*
X114212856Y-77543866D01*
X114212856Y-77543866D02*
X114022380Y-77543866D01*
X114022380Y-77543866D02*
X113927142Y-77496247D01*
X113927142Y-77496247D02*
X113879523Y-77448628D01*
X113879523Y-77448628D02*
X113831904Y-77353390D01*
X172609047Y-89259580D02*
X172656666Y-89307200D01*
X172656666Y-89307200D02*
X172799523Y-89354819D01*
X172799523Y-89354819D02*
X172894761Y-89354819D01*
X172894761Y-89354819D02*
X173037618Y-89307200D01*
X173037618Y-89307200D02*
X173132856Y-89211961D01*
X173132856Y-89211961D02*
X173180475Y-89116723D01*
X173180475Y-89116723D02*
X173228094Y-88926247D01*
X173228094Y-88926247D02*
X173228094Y-88783390D01*
X173228094Y-88783390D02*
X173180475Y-88592914D01*
X173180475Y-88592914D02*
X173132856Y-88497676D01*
X173132856Y-88497676D02*
X173037618Y-88402438D01*
X173037618Y-88402438D02*
X172894761Y-88354819D01*
X172894761Y-88354819D02*
X172799523Y-88354819D01*
X172799523Y-88354819D02*
X172656666Y-88402438D01*
X172656666Y-88402438D02*
X172609047Y-88450057D01*
X172228094Y-88450057D02*
X172180475Y-88402438D01*
X172180475Y-88402438D02*
X172085237Y-88354819D01*
X172085237Y-88354819D02*
X171847142Y-88354819D01*
X171847142Y-88354819D02*
X171751904Y-88402438D01*
X171751904Y-88402438D02*
X171704285Y-88450057D01*
X171704285Y-88450057D02*
X171656666Y-88545295D01*
X171656666Y-88545295D02*
X171656666Y-88640533D01*
X171656666Y-88640533D02*
X171704285Y-88783390D01*
X171704285Y-88783390D02*
X172275713Y-89354819D01*
X172275713Y-89354819D02*
X171656666Y-89354819D01*
X171037618Y-88354819D02*
X170942380Y-88354819D01*
X170942380Y-88354819D02*
X170847142Y-88402438D01*
X170847142Y-88402438D02*
X170799523Y-88450057D01*
X170799523Y-88450057D02*
X170751904Y-88545295D01*
X170751904Y-88545295D02*
X170704285Y-88735771D01*
X170704285Y-88735771D02*
X170704285Y-88973866D01*
X170704285Y-88973866D02*
X170751904Y-89164342D01*
X170751904Y-89164342D02*
X170799523Y-89259580D01*
X170799523Y-89259580D02*
X170847142Y-89307200D01*
X170847142Y-89307200D02*
X170942380Y-89354819D01*
X170942380Y-89354819D02*
X171037618Y-89354819D01*
X171037618Y-89354819D02*
X171132856Y-89307200D01*
X171132856Y-89307200D02*
X171180475Y-89259580D01*
X171180475Y-89259580D02*
X171228094Y-89164342D01*
X171228094Y-89164342D02*
X171275713Y-88973866D01*
X171275713Y-88973866D02*
X171275713Y-88735771D01*
X171275713Y-88735771D02*
X171228094Y-88545295D01*
X171228094Y-88545295D02*
X171180475Y-88450057D01*
X171180475Y-88450057D02*
X171132856Y-88402438D01*
X171132856Y-88402438D02*
X171037618Y-88354819D01*
X170370951Y-88354819D02*
X169704285Y-88354819D01*
X169704285Y-88354819D02*
X170132856Y-89354819D01*
X162409047Y-89354819D02*
X162742380Y-88878628D01*
X162980475Y-89354819D02*
X162980475Y-88354819D01*
X162980475Y-88354819D02*
X162599523Y-88354819D01*
X162599523Y-88354819D02*
X162504285Y-88402438D01*
X162504285Y-88402438D02*
X162456666Y-88450057D01*
X162456666Y-88450057D02*
X162409047Y-88545295D01*
X162409047Y-88545295D02*
X162409047Y-88688152D01*
X162409047Y-88688152D02*
X162456666Y-88783390D01*
X162456666Y-88783390D02*
X162504285Y-88831009D01*
X162504285Y-88831009D02*
X162599523Y-88878628D01*
X162599523Y-88878628D02*
X162980475Y-88878628D01*
X162028094Y-88450057D02*
X161980475Y-88402438D01*
X161980475Y-88402438D02*
X161885237Y-88354819D01*
X161885237Y-88354819D02*
X161647142Y-88354819D01*
X161647142Y-88354819D02*
X161551904Y-88402438D01*
X161551904Y-88402438D02*
X161504285Y-88450057D01*
X161504285Y-88450057D02*
X161456666Y-88545295D01*
X161456666Y-88545295D02*
X161456666Y-88640533D01*
X161456666Y-88640533D02*
X161504285Y-88783390D01*
X161504285Y-88783390D02*
X162075713Y-89354819D01*
X162075713Y-89354819D02*
X161456666Y-89354819D01*
X160504285Y-89354819D02*
X161075713Y-89354819D01*
X160789999Y-89354819D02*
X160789999Y-88354819D01*
X160789999Y-88354819D02*
X160885237Y-88497676D01*
X160885237Y-88497676D02*
X160980475Y-88592914D01*
X160980475Y-88592914D02*
X161075713Y-88640533D01*
X160170951Y-88354819D02*
X159551904Y-88354819D01*
X159551904Y-88354819D02*
X159885237Y-88735771D01*
X159885237Y-88735771D02*
X159742380Y-88735771D01*
X159742380Y-88735771D02*
X159647142Y-88783390D01*
X159647142Y-88783390D02*
X159599523Y-88831009D01*
X159599523Y-88831009D02*
X159551904Y-88926247D01*
X159551904Y-88926247D02*
X159551904Y-89164342D01*
X159551904Y-89164342D02*
X159599523Y-89259580D01*
X159599523Y-89259580D02*
X159647142Y-89307200D01*
X159647142Y-89307200D02*
X159742380Y-89354819D01*
X159742380Y-89354819D02*
X160028094Y-89354819D01*
X160028094Y-89354819D02*
X160123332Y-89307200D01*
X160123332Y-89307200D02*
X160170951Y-89259580D01*
X139549047Y-69034819D02*
X139882380Y-68558628D01*
X140120475Y-69034819D02*
X140120475Y-68034819D01*
X140120475Y-68034819D02*
X139739523Y-68034819D01*
X139739523Y-68034819D02*
X139644285Y-68082438D01*
X139644285Y-68082438D02*
X139596666Y-68130057D01*
X139596666Y-68130057D02*
X139549047Y-68225295D01*
X139549047Y-68225295D02*
X139549047Y-68368152D01*
X139549047Y-68368152D02*
X139596666Y-68463390D01*
X139596666Y-68463390D02*
X139644285Y-68511009D01*
X139644285Y-68511009D02*
X139739523Y-68558628D01*
X139739523Y-68558628D02*
X140120475Y-68558628D01*
X138596666Y-69034819D02*
X139168094Y-69034819D01*
X138882380Y-69034819D02*
X138882380Y-68034819D01*
X138882380Y-68034819D02*
X138977618Y-68177676D01*
X138977618Y-68177676D02*
X139072856Y-68272914D01*
X139072856Y-68272914D02*
X139168094Y-68320533D01*
X137977618Y-68034819D02*
X137882380Y-68034819D01*
X137882380Y-68034819D02*
X137787142Y-68082438D01*
X137787142Y-68082438D02*
X137739523Y-68130057D01*
X137739523Y-68130057D02*
X137691904Y-68225295D01*
X137691904Y-68225295D02*
X137644285Y-68415771D01*
X137644285Y-68415771D02*
X137644285Y-68653866D01*
X137644285Y-68653866D02*
X137691904Y-68844342D01*
X137691904Y-68844342D02*
X137739523Y-68939580D01*
X137739523Y-68939580D02*
X137787142Y-68987200D01*
X137787142Y-68987200D02*
X137882380Y-69034819D01*
X137882380Y-69034819D02*
X137977618Y-69034819D01*
X137977618Y-69034819D02*
X138072856Y-68987200D01*
X138072856Y-68987200D02*
X138120475Y-68939580D01*
X138120475Y-68939580D02*
X138168094Y-68844342D01*
X138168094Y-68844342D02*
X138215713Y-68653866D01*
X138215713Y-68653866D02*
X138215713Y-68415771D01*
X138215713Y-68415771D02*
X138168094Y-68225295D01*
X138168094Y-68225295D02*
X138120475Y-68130057D01*
X138120475Y-68130057D02*
X138072856Y-68082438D01*
X138072856Y-68082438D02*
X137977618Y-68034819D01*
X136787142Y-68034819D02*
X136977618Y-68034819D01*
X136977618Y-68034819D02*
X137072856Y-68082438D01*
X137072856Y-68082438D02*
X137120475Y-68130057D01*
X137120475Y-68130057D02*
X137215713Y-68272914D01*
X137215713Y-68272914D02*
X137263332Y-68463390D01*
X137263332Y-68463390D02*
X137263332Y-68844342D01*
X137263332Y-68844342D02*
X137215713Y-68939580D01*
X137215713Y-68939580D02*
X137168094Y-68987200D01*
X137168094Y-68987200D02*
X137072856Y-69034819D01*
X137072856Y-69034819D02*
X136882380Y-69034819D01*
X136882380Y-69034819D02*
X136787142Y-68987200D01*
X136787142Y-68987200D02*
X136739523Y-68939580D01*
X136739523Y-68939580D02*
X136691904Y-68844342D01*
X136691904Y-68844342D02*
X136691904Y-68606247D01*
X136691904Y-68606247D02*
X136739523Y-68511009D01*
X136739523Y-68511009D02*
X136787142Y-68463390D01*
X136787142Y-68463390D02*
X136882380Y-68415771D01*
X136882380Y-68415771D02*
X137072856Y-68415771D01*
X137072856Y-68415771D02*
X137168094Y-68463390D01*
X137168094Y-68463390D02*
X137215713Y-68511009D01*
X137215713Y-68511009D02*
X137263332Y-68606247D01*
X172497619Y-79290057D02*
X172592857Y-79242438D01*
X172592857Y-79242438D02*
X172688095Y-79147200D01*
X172688095Y-79147200D02*
X172830952Y-79004342D01*
X172830952Y-79004342D02*
X172926190Y-78956723D01*
X172926190Y-78956723D02*
X173021428Y-78956723D01*
X172973809Y-79194819D02*
X173069047Y-79147200D01*
X173069047Y-79147200D02*
X173164285Y-79051961D01*
X173164285Y-79051961D02*
X173211904Y-78861485D01*
X173211904Y-78861485D02*
X173211904Y-78528152D01*
X173211904Y-78528152D02*
X173164285Y-78337676D01*
X173164285Y-78337676D02*
X173069047Y-78242438D01*
X173069047Y-78242438D02*
X172973809Y-78194819D01*
X172973809Y-78194819D02*
X172783333Y-78194819D01*
X172783333Y-78194819D02*
X172688095Y-78242438D01*
X172688095Y-78242438D02*
X172592857Y-78337676D01*
X172592857Y-78337676D02*
X172545238Y-78528152D01*
X172545238Y-78528152D02*
X172545238Y-78861485D01*
X172545238Y-78861485D02*
X172592857Y-79051961D01*
X172592857Y-79051961D02*
X172688095Y-79147200D01*
X172688095Y-79147200D02*
X172783333Y-79194819D01*
X172783333Y-79194819D02*
X172973809Y-79194819D01*
X172164285Y-78290057D02*
X172116666Y-78242438D01*
X172116666Y-78242438D02*
X172021428Y-78194819D01*
X172021428Y-78194819D02*
X171783333Y-78194819D01*
X171783333Y-78194819D02*
X171688095Y-78242438D01*
X171688095Y-78242438D02*
X171640476Y-78290057D01*
X171640476Y-78290057D02*
X171592857Y-78385295D01*
X171592857Y-78385295D02*
X171592857Y-78480533D01*
X171592857Y-78480533D02*
X171640476Y-78623390D01*
X171640476Y-78623390D02*
X172211904Y-79194819D01*
X172211904Y-79194819D02*
X171592857Y-79194819D01*
X170973809Y-78194819D02*
X170878571Y-78194819D01*
X170878571Y-78194819D02*
X170783333Y-78242438D01*
X170783333Y-78242438D02*
X170735714Y-78290057D01*
X170735714Y-78290057D02*
X170688095Y-78385295D01*
X170688095Y-78385295D02*
X170640476Y-78575771D01*
X170640476Y-78575771D02*
X170640476Y-78813866D01*
X170640476Y-78813866D02*
X170688095Y-79004342D01*
X170688095Y-79004342D02*
X170735714Y-79099580D01*
X170735714Y-79099580D02*
X170783333Y-79147200D01*
X170783333Y-79147200D02*
X170878571Y-79194819D01*
X170878571Y-79194819D02*
X170973809Y-79194819D01*
X170973809Y-79194819D02*
X171069047Y-79147200D01*
X171069047Y-79147200D02*
X171116666Y-79099580D01*
X171116666Y-79099580D02*
X171164285Y-79004342D01*
X171164285Y-79004342D02*
X171211904Y-78813866D01*
X171211904Y-78813866D02*
X171211904Y-78575771D01*
X171211904Y-78575771D02*
X171164285Y-78385295D01*
X171164285Y-78385295D02*
X171116666Y-78290057D01*
X171116666Y-78290057D02*
X171069047Y-78242438D01*
X171069047Y-78242438D02*
X170973809Y-78194819D01*
X170307142Y-78194819D02*
X169688095Y-78194819D01*
X169688095Y-78194819D02*
X170021428Y-78575771D01*
X170021428Y-78575771D02*
X169878571Y-78575771D01*
X169878571Y-78575771D02*
X169783333Y-78623390D01*
X169783333Y-78623390D02*
X169735714Y-78671009D01*
X169735714Y-78671009D02*
X169688095Y-78766247D01*
X169688095Y-78766247D02*
X169688095Y-79004342D01*
X169688095Y-79004342D02*
X169735714Y-79099580D01*
X169735714Y-79099580D02*
X169783333Y-79147200D01*
X169783333Y-79147200D02*
X169878571Y-79194819D01*
X169878571Y-79194819D02*
X170164285Y-79194819D01*
X170164285Y-79194819D02*
X170259523Y-79147200D01*
X170259523Y-79147200D02*
X170307142Y-79099580D01*
X162409047Y-69034819D02*
X162742380Y-68558628D01*
X162980475Y-69034819D02*
X162980475Y-68034819D01*
X162980475Y-68034819D02*
X162599523Y-68034819D01*
X162599523Y-68034819D02*
X162504285Y-68082438D01*
X162504285Y-68082438D02*
X162456666Y-68130057D01*
X162456666Y-68130057D02*
X162409047Y-68225295D01*
X162409047Y-68225295D02*
X162409047Y-68368152D01*
X162409047Y-68368152D02*
X162456666Y-68463390D01*
X162456666Y-68463390D02*
X162504285Y-68511009D01*
X162504285Y-68511009D02*
X162599523Y-68558628D01*
X162599523Y-68558628D02*
X162980475Y-68558628D01*
X162028094Y-68130057D02*
X161980475Y-68082438D01*
X161980475Y-68082438D02*
X161885237Y-68034819D01*
X161885237Y-68034819D02*
X161647142Y-68034819D01*
X161647142Y-68034819D02*
X161551904Y-68082438D01*
X161551904Y-68082438D02*
X161504285Y-68130057D01*
X161504285Y-68130057D02*
X161456666Y-68225295D01*
X161456666Y-68225295D02*
X161456666Y-68320533D01*
X161456666Y-68320533D02*
X161504285Y-68463390D01*
X161504285Y-68463390D02*
X162075713Y-69034819D01*
X162075713Y-69034819D02*
X161456666Y-69034819D01*
X160837618Y-68034819D02*
X160742380Y-68034819D01*
X160742380Y-68034819D02*
X160647142Y-68082438D01*
X160647142Y-68082438D02*
X160599523Y-68130057D01*
X160599523Y-68130057D02*
X160551904Y-68225295D01*
X160551904Y-68225295D02*
X160504285Y-68415771D01*
X160504285Y-68415771D02*
X160504285Y-68653866D01*
X160504285Y-68653866D02*
X160551904Y-68844342D01*
X160551904Y-68844342D02*
X160599523Y-68939580D01*
X160599523Y-68939580D02*
X160647142Y-68987200D01*
X160647142Y-68987200D02*
X160742380Y-69034819D01*
X160742380Y-69034819D02*
X160837618Y-69034819D01*
X160837618Y-69034819D02*
X160932856Y-68987200D01*
X160932856Y-68987200D02*
X160980475Y-68939580D01*
X160980475Y-68939580D02*
X161028094Y-68844342D01*
X161028094Y-68844342D02*
X161075713Y-68653866D01*
X161075713Y-68653866D02*
X161075713Y-68415771D01*
X161075713Y-68415771D02*
X161028094Y-68225295D01*
X161028094Y-68225295D02*
X160980475Y-68130057D01*
X160980475Y-68130057D02*
X160932856Y-68082438D01*
X160932856Y-68082438D02*
X160837618Y-68034819D01*
X159647142Y-68034819D02*
X159837618Y-68034819D01*
X159837618Y-68034819D02*
X159932856Y-68082438D01*
X159932856Y-68082438D02*
X159980475Y-68130057D01*
X159980475Y-68130057D02*
X160075713Y-68272914D01*
X160075713Y-68272914D02*
X160123332Y-68463390D01*
X160123332Y-68463390D02*
X160123332Y-68844342D01*
X160123332Y-68844342D02*
X160075713Y-68939580D01*
X160075713Y-68939580D02*
X160028094Y-68987200D01*
X160028094Y-68987200D02*
X159932856Y-69034819D01*
X159932856Y-69034819D02*
X159742380Y-69034819D01*
X159742380Y-69034819D02*
X159647142Y-68987200D01*
X159647142Y-68987200D02*
X159599523Y-68939580D01*
X159599523Y-68939580D02*
X159551904Y-68844342D01*
X159551904Y-68844342D02*
X159551904Y-68606247D01*
X159551904Y-68606247D02*
X159599523Y-68511009D01*
X159599523Y-68511009D02*
X159647142Y-68463390D01*
X159647142Y-68463390D02*
X159742380Y-68415771D01*
X159742380Y-68415771D02*
X159932856Y-68415771D01*
X159932856Y-68415771D02*
X160028094Y-68463390D01*
X160028094Y-68463390D02*
X160075713Y-68511009D01*
X160075713Y-68511009D02*
X160123332Y-68606247D01*
X185269047Y-74749819D02*
X185602380Y-74273628D01*
X185840475Y-74749819D02*
X185840475Y-73749819D01*
X185840475Y-73749819D02*
X185459523Y-73749819D01*
X185459523Y-73749819D02*
X185364285Y-73797438D01*
X185364285Y-73797438D02*
X185316666Y-73845057D01*
X185316666Y-73845057D02*
X185269047Y-73940295D01*
X185269047Y-73940295D02*
X185269047Y-74083152D01*
X185269047Y-74083152D02*
X185316666Y-74178390D01*
X185316666Y-74178390D02*
X185364285Y-74226009D01*
X185364285Y-74226009D02*
X185459523Y-74273628D01*
X185459523Y-74273628D02*
X185840475Y-74273628D01*
X184888094Y-73845057D02*
X184840475Y-73797438D01*
X184840475Y-73797438D02*
X184745237Y-73749819D01*
X184745237Y-73749819D02*
X184507142Y-73749819D01*
X184507142Y-73749819D02*
X184411904Y-73797438D01*
X184411904Y-73797438D02*
X184364285Y-73845057D01*
X184364285Y-73845057D02*
X184316666Y-73940295D01*
X184316666Y-73940295D02*
X184316666Y-74035533D01*
X184316666Y-74035533D02*
X184364285Y-74178390D01*
X184364285Y-74178390D02*
X184935713Y-74749819D01*
X184935713Y-74749819D02*
X184316666Y-74749819D01*
X183364285Y-74749819D02*
X183935713Y-74749819D01*
X183649999Y-74749819D02*
X183649999Y-73749819D01*
X183649999Y-73749819D02*
X183745237Y-73892676D01*
X183745237Y-73892676D02*
X183840475Y-73987914D01*
X183840475Y-73987914D02*
X183935713Y-74035533D01*
X182745237Y-73749819D02*
X182649999Y-73749819D01*
X182649999Y-73749819D02*
X182554761Y-73797438D01*
X182554761Y-73797438D02*
X182507142Y-73845057D01*
X182507142Y-73845057D02*
X182459523Y-73940295D01*
X182459523Y-73940295D02*
X182411904Y-74130771D01*
X182411904Y-74130771D02*
X182411904Y-74368866D01*
X182411904Y-74368866D02*
X182459523Y-74559342D01*
X182459523Y-74559342D02*
X182507142Y-74654580D01*
X182507142Y-74654580D02*
X182554761Y-74702200D01*
X182554761Y-74702200D02*
X182649999Y-74749819D01*
X182649999Y-74749819D02*
X182745237Y-74749819D01*
X182745237Y-74749819D02*
X182840475Y-74702200D01*
X182840475Y-74702200D02*
X182888094Y-74654580D01*
X182888094Y-74654580D02*
X182935713Y-74559342D01*
X182935713Y-74559342D02*
X182983332Y-74368866D01*
X182983332Y-74368866D02*
X182983332Y-74130771D01*
X182983332Y-74130771D02*
X182935713Y-73940295D01*
X182935713Y-73940295D02*
X182888094Y-73845057D01*
X182888094Y-73845057D02*
X182840475Y-73797438D01*
X182840475Y-73797438D02*
X182745237Y-73749819D01*
X129317619Y-65701057D02*
X129412857Y-65653438D01*
X129412857Y-65653438D02*
X129508095Y-65558200D01*
X129508095Y-65558200D02*
X129650952Y-65415342D01*
X129650952Y-65415342D02*
X129746190Y-65367723D01*
X129746190Y-65367723D02*
X129841428Y-65367723D01*
X129793809Y-65605819D02*
X129889047Y-65558200D01*
X129889047Y-65558200D02*
X129984285Y-65462961D01*
X129984285Y-65462961D02*
X130031904Y-65272485D01*
X130031904Y-65272485D02*
X130031904Y-64939152D01*
X130031904Y-64939152D02*
X129984285Y-64748676D01*
X129984285Y-64748676D02*
X129889047Y-64653438D01*
X129889047Y-64653438D02*
X129793809Y-64605819D01*
X129793809Y-64605819D02*
X129603333Y-64605819D01*
X129603333Y-64605819D02*
X129508095Y-64653438D01*
X129508095Y-64653438D02*
X129412857Y-64748676D01*
X129412857Y-64748676D02*
X129365238Y-64939152D01*
X129365238Y-64939152D02*
X129365238Y-65272485D01*
X129365238Y-65272485D02*
X129412857Y-65462961D01*
X129412857Y-65462961D02*
X129508095Y-65558200D01*
X129508095Y-65558200D02*
X129603333Y-65605819D01*
X129603333Y-65605819D02*
X129793809Y-65605819D01*
X128412857Y-65605819D02*
X128984285Y-65605819D01*
X128698571Y-65605819D02*
X128698571Y-64605819D01*
X128698571Y-64605819D02*
X128793809Y-64748676D01*
X128793809Y-64748676D02*
X128889047Y-64843914D01*
X128889047Y-64843914D02*
X128984285Y-64891533D01*
X127793809Y-64605819D02*
X127698571Y-64605819D01*
X127698571Y-64605819D02*
X127603333Y-64653438D01*
X127603333Y-64653438D02*
X127555714Y-64701057D01*
X127555714Y-64701057D02*
X127508095Y-64796295D01*
X127508095Y-64796295D02*
X127460476Y-64986771D01*
X127460476Y-64986771D02*
X127460476Y-65224866D01*
X127460476Y-65224866D02*
X127508095Y-65415342D01*
X127508095Y-65415342D02*
X127555714Y-65510580D01*
X127555714Y-65510580D02*
X127603333Y-65558200D01*
X127603333Y-65558200D02*
X127698571Y-65605819D01*
X127698571Y-65605819D02*
X127793809Y-65605819D01*
X127793809Y-65605819D02*
X127889047Y-65558200D01*
X127889047Y-65558200D02*
X127936666Y-65510580D01*
X127936666Y-65510580D02*
X127984285Y-65415342D01*
X127984285Y-65415342D02*
X128031904Y-65224866D01*
X128031904Y-65224866D02*
X128031904Y-64986771D01*
X128031904Y-64986771D02*
X127984285Y-64796295D01*
X127984285Y-64796295D02*
X127936666Y-64701057D01*
X127936666Y-64701057D02*
X127889047Y-64653438D01*
X127889047Y-64653438D02*
X127793809Y-64605819D01*
X127079523Y-64701057D02*
X127031904Y-64653438D01*
X127031904Y-64653438D02*
X126936666Y-64605819D01*
X126936666Y-64605819D02*
X126698571Y-64605819D01*
X126698571Y-64605819D02*
X126603333Y-64653438D01*
X126603333Y-64653438D02*
X126555714Y-64701057D01*
X126555714Y-64701057D02*
X126508095Y-64796295D01*
X126508095Y-64796295D02*
X126508095Y-64891533D01*
X126508095Y-64891533D02*
X126555714Y-65034390D01*
X126555714Y-65034390D02*
X127127142Y-65605819D01*
X127127142Y-65605819D02*
X126508095Y-65605819D01*
X162524047Y-73384580D02*
X162571666Y-73432200D01*
X162571666Y-73432200D02*
X162714523Y-73479819D01*
X162714523Y-73479819D02*
X162809761Y-73479819D01*
X162809761Y-73479819D02*
X162952618Y-73432200D01*
X162952618Y-73432200D02*
X163047856Y-73336961D01*
X163047856Y-73336961D02*
X163095475Y-73241723D01*
X163095475Y-73241723D02*
X163143094Y-73051247D01*
X163143094Y-73051247D02*
X163143094Y-72908390D01*
X163143094Y-72908390D02*
X163095475Y-72717914D01*
X163095475Y-72717914D02*
X163047856Y-72622676D01*
X163047856Y-72622676D02*
X162952618Y-72527438D01*
X162952618Y-72527438D02*
X162809761Y-72479819D01*
X162809761Y-72479819D02*
X162714523Y-72479819D01*
X162714523Y-72479819D02*
X162571666Y-72527438D01*
X162571666Y-72527438D02*
X162524047Y-72575057D01*
X162143094Y-72575057D02*
X162095475Y-72527438D01*
X162095475Y-72527438D02*
X162000237Y-72479819D01*
X162000237Y-72479819D02*
X161762142Y-72479819D01*
X161762142Y-72479819D02*
X161666904Y-72527438D01*
X161666904Y-72527438D02*
X161619285Y-72575057D01*
X161619285Y-72575057D02*
X161571666Y-72670295D01*
X161571666Y-72670295D02*
X161571666Y-72765533D01*
X161571666Y-72765533D02*
X161619285Y-72908390D01*
X161619285Y-72908390D02*
X162190713Y-73479819D01*
X162190713Y-73479819D02*
X161571666Y-73479819D01*
X160952618Y-72479819D02*
X160857380Y-72479819D01*
X160857380Y-72479819D02*
X160762142Y-72527438D01*
X160762142Y-72527438D02*
X160714523Y-72575057D01*
X160714523Y-72575057D02*
X160666904Y-72670295D01*
X160666904Y-72670295D02*
X160619285Y-72860771D01*
X160619285Y-72860771D02*
X160619285Y-73098866D01*
X160619285Y-73098866D02*
X160666904Y-73289342D01*
X160666904Y-73289342D02*
X160714523Y-73384580D01*
X160714523Y-73384580D02*
X160762142Y-73432200D01*
X160762142Y-73432200D02*
X160857380Y-73479819D01*
X160857380Y-73479819D02*
X160952618Y-73479819D01*
X160952618Y-73479819D02*
X161047856Y-73432200D01*
X161047856Y-73432200D02*
X161095475Y-73384580D01*
X161095475Y-73384580D02*
X161143094Y-73289342D01*
X161143094Y-73289342D02*
X161190713Y-73098866D01*
X161190713Y-73098866D02*
X161190713Y-72860771D01*
X161190713Y-72860771D02*
X161143094Y-72670295D01*
X161143094Y-72670295D02*
X161095475Y-72575057D01*
X161095475Y-72575057D02*
X161047856Y-72527438D01*
X161047856Y-72527438D02*
X160952618Y-72479819D01*
X160285951Y-72479819D02*
X159666904Y-72479819D01*
X159666904Y-72479819D02*
X160000237Y-72860771D01*
X160000237Y-72860771D02*
X159857380Y-72860771D01*
X159857380Y-72860771D02*
X159762142Y-72908390D01*
X159762142Y-72908390D02*
X159714523Y-72956009D01*
X159714523Y-72956009D02*
X159666904Y-73051247D01*
X159666904Y-73051247D02*
X159666904Y-73289342D01*
X159666904Y-73289342D02*
X159714523Y-73384580D01*
X159714523Y-73384580D02*
X159762142Y-73432200D01*
X159762142Y-73432200D02*
X159857380Y-73479819D01*
X159857380Y-73479819D02*
X160143094Y-73479819D01*
X160143094Y-73479819D02*
X160238332Y-73432200D01*
X160238332Y-73432200D02*
X160285951Y-73384580D01*
X172497619Y-69765057D02*
X172592857Y-69717438D01*
X172592857Y-69717438D02*
X172688095Y-69622200D01*
X172688095Y-69622200D02*
X172830952Y-69479342D01*
X172830952Y-69479342D02*
X172926190Y-69431723D01*
X172926190Y-69431723D02*
X173021428Y-69431723D01*
X172973809Y-69669819D02*
X173069047Y-69622200D01*
X173069047Y-69622200D02*
X173164285Y-69526961D01*
X173164285Y-69526961D02*
X173211904Y-69336485D01*
X173211904Y-69336485D02*
X173211904Y-69003152D01*
X173211904Y-69003152D02*
X173164285Y-68812676D01*
X173164285Y-68812676D02*
X173069047Y-68717438D01*
X173069047Y-68717438D02*
X172973809Y-68669819D01*
X172973809Y-68669819D02*
X172783333Y-68669819D01*
X172783333Y-68669819D02*
X172688095Y-68717438D01*
X172688095Y-68717438D02*
X172592857Y-68812676D01*
X172592857Y-68812676D02*
X172545238Y-69003152D01*
X172545238Y-69003152D02*
X172545238Y-69336485D01*
X172545238Y-69336485D02*
X172592857Y-69526961D01*
X172592857Y-69526961D02*
X172688095Y-69622200D01*
X172688095Y-69622200D02*
X172783333Y-69669819D01*
X172783333Y-69669819D02*
X172973809Y-69669819D01*
X172164285Y-68765057D02*
X172116666Y-68717438D01*
X172116666Y-68717438D02*
X172021428Y-68669819D01*
X172021428Y-68669819D02*
X171783333Y-68669819D01*
X171783333Y-68669819D02*
X171688095Y-68717438D01*
X171688095Y-68717438D02*
X171640476Y-68765057D01*
X171640476Y-68765057D02*
X171592857Y-68860295D01*
X171592857Y-68860295D02*
X171592857Y-68955533D01*
X171592857Y-68955533D02*
X171640476Y-69098390D01*
X171640476Y-69098390D02*
X172211904Y-69669819D01*
X172211904Y-69669819D02*
X171592857Y-69669819D01*
X170973809Y-68669819D02*
X170878571Y-68669819D01*
X170878571Y-68669819D02*
X170783333Y-68717438D01*
X170783333Y-68717438D02*
X170735714Y-68765057D01*
X170735714Y-68765057D02*
X170688095Y-68860295D01*
X170688095Y-68860295D02*
X170640476Y-69050771D01*
X170640476Y-69050771D02*
X170640476Y-69288866D01*
X170640476Y-69288866D02*
X170688095Y-69479342D01*
X170688095Y-69479342D02*
X170735714Y-69574580D01*
X170735714Y-69574580D02*
X170783333Y-69622200D01*
X170783333Y-69622200D02*
X170878571Y-69669819D01*
X170878571Y-69669819D02*
X170973809Y-69669819D01*
X170973809Y-69669819D02*
X171069047Y-69622200D01*
X171069047Y-69622200D02*
X171116666Y-69574580D01*
X171116666Y-69574580D02*
X171164285Y-69479342D01*
X171164285Y-69479342D02*
X171211904Y-69288866D01*
X171211904Y-69288866D02*
X171211904Y-69050771D01*
X171211904Y-69050771D02*
X171164285Y-68860295D01*
X171164285Y-68860295D02*
X171116666Y-68765057D01*
X171116666Y-68765057D02*
X171069047Y-68717438D01*
X171069047Y-68717438D02*
X170973809Y-68669819D01*
X170259523Y-68765057D02*
X170211904Y-68717438D01*
X170211904Y-68717438D02*
X170116666Y-68669819D01*
X170116666Y-68669819D02*
X169878571Y-68669819D01*
X169878571Y-68669819D02*
X169783333Y-68717438D01*
X169783333Y-68717438D02*
X169735714Y-68765057D01*
X169735714Y-68765057D02*
X169688095Y-68860295D01*
X169688095Y-68860295D02*
X169688095Y-68955533D01*
X169688095Y-68955533D02*
X169735714Y-69098390D01*
X169735714Y-69098390D02*
X170307142Y-69669819D01*
X170307142Y-69669819D02*
X169688095Y-69669819D01*
X129429047Y-89259580D02*
X129476666Y-89307200D01*
X129476666Y-89307200D02*
X129619523Y-89354819D01*
X129619523Y-89354819D02*
X129714761Y-89354819D01*
X129714761Y-89354819D02*
X129857618Y-89307200D01*
X129857618Y-89307200D02*
X129952856Y-89211961D01*
X129952856Y-89211961D02*
X130000475Y-89116723D01*
X130000475Y-89116723D02*
X130048094Y-88926247D01*
X130048094Y-88926247D02*
X130048094Y-88783390D01*
X130048094Y-88783390D02*
X130000475Y-88592914D01*
X130000475Y-88592914D02*
X129952856Y-88497676D01*
X129952856Y-88497676D02*
X129857618Y-88402438D01*
X129857618Y-88402438D02*
X129714761Y-88354819D01*
X129714761Y-88354819D02*
X129619523Y-88354819D01*
X129619523Y-88354819D02*
X129476666Y-88402438D01*
X129476666Y-88402438D02*
X129429047Y-88450057D01*
X128476666Y-89354819D02*
X129048094Y-89354819D01*
X128762380Y-89354819D02*
X128762380Y-88354819D01*
X128762380Y-88354819D02*
X128857618Y-88497676D01*
X128857618Y-88497676D02*
X128952856Y-88592914D01*
X128952856Y-88592914D02*
X129048094Y-88640533D01*
X127857618Y-88354819D02*
X127762380Y-88354819D01*
X127762380Y-88354819D02*
X127667142Y-88402438D01*
X127667142Y-88402438D02*
X127619523Y-88450057D01*
X127619523Y-88450057D02*
X127571904Y-88545295D01*
X127571904Y-88545295D02*
X127524285Y-88735771D01*
X127524285Y-88735771D02*
X127524285Y-88973866D01*
X127524285Y-88973866D02*
X127571904Y-89164342D01*
X127571904Y-89164342D02*
X127619523Y-89259580D01*
X127619523Y-89259580D02*
X127667142Y-89307200D01*
X127667142Y-89307200D02*
X127762380Y-89354819D01*
X127762380Y-89354819D02*
X127857618Y-89354819D01*
X127857618Y-89354819D02*
X127952856Y-89307200D01*
X127952856Y-89307200D02*
X128000475Y-89259580D01*
X128000475Y-89259580D02*
X128048094Y-89164342D01*
X128048094Y-89164342D02*
X128095713Y-88973866D01*
X128095713Y-88973866D02*
X128095713Y-88735771D01*
X128095713Y-88735771D02*
X128048094Y-88545295D01*
X128048094Y-88545295D02*
X128000475Y-88450057D01*
X128000475Y-88450057D02*
X127952856Y-88402438D01*
X127952856Y-88402438D02*
X127857618Y-88354819D01*
X127190951Y-88354819D02*
X126524285Y-88354819D01*
X126524285Y-88354819D02*
X126952856Y-89354819D01*
X129389047Y-76654819D02*
X129722380Y-76178628D01*
X129960475Y-76654819D02*
X129960475Y-75654819D01*
X129960475Y-75654819D02*
X129579523Y-75654819D01*
X129579523Y-75654819D02*
X129484285Y-75702438D01*
X129484285Y-75702438D02*
X129436666Y-75750057D01*
X129436666Y-75750057D02*
X129389047Y-75845295D01*
X129389047Y-75845295D02*
X129389047Y-75988152D01*
X129389047Y-75988152D02*
X129436666Y-76083390D01*
X129436666Y-76083390D02*
X129484285Y-76131009D01*
X129484285Y-76131009D02*
X129579523Y-76178628D01*
X129579523Y-76178628D02*
X129960475Y-76178628D01*
X128436666Y-76654819D02*
X129008094Y-76654819D01*
X128722380Y-76654819D02*
X128722380Y-75654819D01*
X128722380Y-75654819D02*
X128817618Y-75797676D01*
X128817618Y-75797676D02*
X128912856Y-75892914D01*
X128912856Y-75892914D02*
X129008094Y-75940533D01*
X127817618Y-75654819D02*
X127722380Y-75654819D01*
X127722380Y-75654819D02*
X127627142Y-75702438D01*
X127627142Y-75702438D02*
X127579523Y-75750057D01*
X127579523Y-75750057D02*
X127531904Y-75845295D01*
X127531904Y-75845295D02*
X127484285Y-76035771D01*
X127484285Y-76035771D02*
X127484285Y-76273866D01*
X127484285Y-76273866D02*
X127531904Y-76464342D01*
X127531904Y-76464342D02*
X127579523Y-76559580D01*
X127579523Y-76559580D02*
X127627142Y-76607200D01*
X127627142Y-76607200D02*
X127722380Y-76654819D01*
X127722380Y-76654819D02*
X127817618Y-76654819D01*
X127817618Y-76654819D02*
X127912856Y-76607200D01*
X127912856Y-76607200D02*
X127960475Y-76559580D01*
X127960475Y-76559580D02*
X128008094Y-76464342D01*
X128008094Y-76464342D02*
X128055713Y-76273866D01*
X128055713Y-76273866D02*
X128055713Y-76035771D01*
X128055713Y-76035771D02*
X128008094Y-75845295D01*
X128008094Y-75845295D02*
X127960475Y-75750057D01*
X127960475Y-75750057D02*
X127912856Y-75702438D01*
X127912856Y-75702438D02*
X127817618Y-75654819D01*
X126912856Y-76083390D02*
X127008094Y-76035771D01*
X127008094Y-76035771D02*
X127055713Y-75988152D01*
X127055713Y-75988152D02*
X127103332Y-75892914D01*
X127103332Y-75892914D02*
X127103332Y-75845295D01*
X127103332Y-75845295D02*
X127055713Y-75750057D01*
X127055713Y-75750057D02*
X127008094Y-75702438D01*
X127008094Y-75702438D02*
X126912856Y-75654819D01*
X126912856Y-75654819D02*
X126722380Y-75654819D01*
X126722380Y-75654819D02*
X126627142Y-75702438D01*
X126627142Y-75702438D02*
X126579523Y-75750057D01*
X126579523Y-75750057D02*
X126531904Y-75845295D01*
X126531904Y-75845295D02*
X126531904Y-75892914D01*
X126531904Y-75892914D02*
X126579523Y-75988152D01*
X126579523Y-75988152D02*
X126627142Y-76035771D01*
X126627142Y-76035771D02*
X126722380Y-76083390D01*
X126722380Y-76083390D02*
X126912856Y-76083390D01*
X126912856Y-76083390D02*
X127008094Y-76131009D01*
X127008094Y-76131009D02*
X127055713Y-76178628D01*
X127055713Y-76178628D02*
X127103332Y-76273866D01*
X127103332Y-76273866D02*
X127103332Y-76464342D01*
X127103332Y-76464342D02*
X127055713Y-76559580D01*
X127055713Y-76559580D02*
X127008094Y-76607200D01*
X127008094Y-76607200D02*
X126912856Y-76654819D01*
X126912856Y-76654819D02*
X126722380Y-76654819D01*
X126722380Y-76654819D02*
X126627142Y-76607200D01*
X126627142Y-76607200D02*
X126579523Y-76559580D01*
X126579523Y-76559580D02*
X126531904Y-76464342D01*
X126531904Y-76464342D02*
X126531904Y-76273866D01*
X126531904Y-76273866D02*
X126579523Y-76178628D01*
X126579523Y-76178628D02*
X126627142Y-76131009D01*
X126627142Y-76131009D02*
X126722380Y-76083390D01*
X172569047Y-57509580D02*
X172616666Y-57557200D01*
X172616666Y-57557200D02*
X172759523Y-57604819D01*
X172759523Y-57604819D02*
X172854761Y-57604819D01*
X172854761Y-57604819D02*
X172997618Y-57557200D01*
X172997618Y-57557200D02*
X173092856Y-57461961D01*
X173092856Y-57461961D02*
X173140475Y-57366723D01*
X173140475Y-57366723D02*
X173188094Y-57176247D01*
X173188094Y-57176247D02*
X173188094Y-57033390D01*
X173188094Y-57033390D02*
X173140475Y-56842914D01*
X173140475Y-56842914D02*
X173092856Y-56747676D01*
X173092856Y-56747676D02*
X172997618Y-56652438D01*
X172997618Y-56652438D02*
X172854761Y-56604819D01*
X172854761Y-56604819D02*
X172759523Y-56604819D01*
X172759523Y-56604819D02*
X172616666Y-56652438D01*
X172616666Y-56652438D02*
X172569047Y-56700057D01*
X172188094Y-56700057D02*
X172140475Y-56652438D01*
X172140475Y-56652438D02*
X172045237Y-56604819D01*
X172045237Y-56604819D02*
X171807142Y-56604819D01*
X171807142Y-56604819D02*
X171711904Y-56652438D01*
X171711904Y-56652438D02*
X171664285Y-56700057D01*
X171664285Y-56700057D02*
X171616666Y-56795295D01*
X171616666Y-56795295D02*
X171616666Y-56890533D01*
X171616666Y-56890533D02*
X171664285Y-57033390D01*
X171664285Y-57033390D02*
X172235713Y-57604819D01*
X172235713Y-57604819D02*
X171616666Y-57604819D01*
X170997618Y-56604819D02*
X170902380Y-56604819D01*
X170902380Y-56604819D02*
X170807142Y-56652438D01*
X170807142Y-56652438D02*
X170759523Y-56700057D01*
X170759523Y-56700057D02*
X170711904Y-56795295D01*
X170711904Y-56795295D02*
X170664285Y-56985771D01*
X170664285Y-56985771D02*
X170664285Y-57223866D01*
X170664285Y-57223866D02*
X170711904Y-57414342D01*
X170711904Y-57414342D02*
X170759523Y-57509580D01*
X170759523Y-57509580D02*
X170807142Y-57557200D01*
X170807142Y-57557200D02*
X170902380Y-57604819D01*
X170902380Y-57604819D02*
X170997618Y-57604819D01*
X170997618Y-57604819D02*
X171092856Y-57557200D01*
X171092856Y-57557200D02*
X171140475Y-57509580D01*
X171140475Y-57509580D02*
X171188094Y-57414342D01*
X171188094Y-57414342D02*
X171235713Y-57223866D01*
X171235713Y-57223866D02*
X171235713Y-56985771D01*
X171235713Y-56985771D02*
X171188094Y-56795295D01*
X171188094Y-56795295D02*
X171140475Y-56700057D01*
X171140475Y-56700057D02*
X171092856Y-56652438D01*
X171092856Y-56652438D02*
X170997618Y-56604819D01*
X169711904Y-57604819D02*
X170283332Y-57604819D01*
X169997618Y-57604819D02*
X169997618Y-56604819D01*
X169997618Y-56604819D02*
X170092856Y-56747676D01*
X170092856Y-56747676D02*
X170188094Y-56842914D01*
X170188094Y-56842914D02*
X170283332Y-56890533D01*
X175426666Y-51794580D02*
X175474285Y-51842200D01*
X175474285Y-51842200D02*
X175617142Y-51889819D01*
X175617142Y-51889819D02*
X175712380Y-51889819D01*
X175712380Y-51889819D02*
X175855237Y-51842200D01*
X175855237Y-51842200D02*
X175950475Y-51746961D01*
X175950475Y-51746961D02*
X175998094Y-51651723D01*
X175998094Y-51651723D02*
X176045713Y-51461247D01*
X176045713Y-51461247D02*
X176045713Y-51318390D01*
X176045713Y-51318390D02*
X175998094Y-51127914D01*
X175998094Y-51127914D02*
X175950475Y-51032676D01*
X175950475Y-51032676D02*
X175855237Y-50937438D01*
X175855237Y-50937438D02*
X175712380Y-50889819D01*
X175712380Y-50889819D02*
X175617142Y-50889819D01*
X175617142Y-50889819D02*
X175474285Y-50937438D01*
X175474285Y-50937438D02*
X175426666Y-50985057D01*
X175045713Y-50985057D02*
X174998094Y-50937438D01*
X174998094Y-50937438D02*
X174902856Y-50889819D01*
X174902856Y-50889819D02*
X174664761Y-50889819D01*
X174664761Y-50889819D02*
X174569523Y-50937438D01*
X174569523Y-50937438D02*
X174521904Y-50985057D01*
X174521904Y-50985057D02*
X174474285Y-51080295D01*
X174474285Y-51080295D02*
X174474285Y-51175533D01*
X174474285Y-51175533D02*
X174521904Y-51318390D01*
X174521904Y-51318390D02*
X175093332Y-51889819D01*
X175093332Y-51889819D02*
X174474285Y-51889819D01*
%LPC*%
D17*
X166370000Y-60960000D03*
D18*
X156210000Y-60960000D03*
D17*
X125730000Y-57150000D03*
X130730000Y-57150000D03*
X176530000Y-60960000D03*
D18*
X186690000Y-60960000D03*
D19*
X186690000Y-48260000D03*
D17*
X163750000Y-85090000D03*
X158750000Y-85090000D03*
X189230000Y-77470000D03*
D18*
X179070000Y-77470000D03*
D20*
X125730000Y-53340000D03*
D21*
X123190000Y-53340000D03*
D22*
X182880000Y-69215000D03*
D23*
X181380000Y-69215000D03*
D17*
X113030000Y-88900000D03*
D18*
X123190000Y-88900000D03*
D22*
X137565000Y-74295000D03*
D23*
X139065000Y-74295000D03*
D24*
X180200000Y-44510000D03*
X167900000Y-44510000D03*
D25*
X170300000Y-48260000D03*
X177800000Y-48260000D03*
D26*
X170300000Y-41010000D03*
D24*
X131940000Y-44510000D03*
X119640000Y-44510000D03*
D25*
X122040000Y-48260000D03*
X129540000Y-48260000D03*
D26*
X122040000Y-41010000D03*
D17*
X152320000Y-63500000D03*
X147320000Y-63500000D03*
X146050000Y-76200000D03*
D18*
X146050000Y-86360000D03*
D17*
X113030000Y-57150000D03*
D18*
X123190000Y-57150000D03*
D17*
X133350000Y-57150000D03*
D18*
X143510000Y-57150000D03*
D20*
X170180000Y-53340000D03*
D21*
X167640000Y-53340000D03*
D17*
X186690000Y-57150000D03*
D18*
X176530000Y-57150000D03*
D17*
X166370000Y-57150000D03*
D18*
X156210000Y-57150000D03*
D17*
X125810000Y-72390000D03*
X130810000Y-72390000D03*
D26*
X144860000Y-38100000D03*
X154860000Y-38100000D03*
D25*
X142360000Y-47800000D03*
X149860000Y-47800000D03*
X157360000Y-47800000D03*
X144860000Y-50300000D03*
X154860000Y-50300000D03*
D17*
X147320000Y-67310000D03*
X152320000Y-67310000D03*
X113030000Y-64770000D03*
D18*
X123190000Y-64770000D03*
D22*
X117245000Y-69215000D03*
D23*
X118745000Y-69215000D03*
D27*
X152400000Y-72390000D03*
D17*
X149900000Y-72390000D03*
D19*
X111760000Y-48260000D03*
D17*
X186690000Y-88900000D03*
D18*
X176530000Y-88900000D03*
D17*
X176530000Y-76200000D03*
D18*
X166370000Y-76200000D03*
D17*
X133350000Y-60960000D03*
D18*
X143510000Y-60960000D03*
D28*
X127000000Y-81280000D03*
D29*
X128270000Y-81280000D03*
X129540000Y-81280000D03*
D20*
X109220000Y-59690000D03*
D21*
X109220000Y-57150000D03*
X109220000Y-54610000D03*
D17*
X173990000Y-72390000D03*
X168990000Y-72390000D03*
X186690000Y-64770000D03*
D18*
X176530000Y-64770000D03*
D17*
X115610000Y-85090000D03*
X120610000Y-85090000D03*
X184110000Y-85090000D03*
X179110000Y-85090000D03*
X123190000Y-60960000D03*
D18*
X113030000Y-60960000D03*
D28*
X170180000Y-62230000D03*
D29*
X171450000Y-62230000D03*
X172720000Y-62230000D03*
D17*
X133350000Y-81280000D03*
D18*
X143510000Y-81280000D03*
D17*
X135890000Y-85090000D03*
X140890000Y-85090000D03*
D28*
X129540000Y-60960000D03*
D29*
X128270000Y-60960000D03*
X127000000Y-60960000D03*
D17*
X156210000Y-64770000D03*
D18*
X166370000Y-64770000D03*
D30*
X149860000Y-90170000D03*
D17*
X166370000Y-81280000D03*
D18*
X156210000Y-81280000D03*
D17*
X110490000Y-74295000D03*
D18*
X120650000Y-74295000D03*
D17*
X133350000Y-88900000D03*
D18*
X143510000Y-88900000D03*
D20*
X129540000Y-53340000D03*
D21*
X132080000Y-53340000D03*
D27*
X147360000Y-58420000D03*
D17*
X149860000Y-58420000D03*
X143510000Y-64770000D03*
D18*
X133350000Y-64770000D03*
D17*
X153670000Y-76200000D03*
D18*
X153670000Y-86360000D03*
D20*
X109220000Y-67310000D03*
D21*
X109220000Y-64770000D03*
D17*
X110490000Y-77470000D03*
D18*
X120650000Y-77470000D03*
D17*
X168990000Y-88900000D03*
X173990000Y-88900000D03*
X166370000Y-88900000D03*
D18*
X156210000Y-88900000D03*
D17*
X133350000Y-68580000D03*
D18*
X143510000Y-68580000D03*
D28*
X172720000Y-80645000D03*
D29*
X171450000Y-80645000D03*
X170180000Y-80645000D03*
D17*
X166370000Y-68580000D03*
D18*
X156210000Y-68580000D03*
D17*
X189230000Y-74295000D03*
D18*
X179070000Y-74295000D03*
D28*
X129540000Y-66675000D03*
D29*
X128270000Y-66675000D03*
X127000000Y-66675000D03*
D22*
X162155000Y-74295000D03*
D23*
X160655000Y-74295000D03*
D28*
X170180000Y-67310000D03*
D29*
X171450000Y-67310000D03*
X172720000Y-67310000D03*
D17*
X130810000Y-88900000D03*
X125810000Y-88900000D03*
X123190000Y-76200000D03*
D18*
X133350000Y-76200000D03*
D17*
X173950000Y-57150000D03*
X168950000Y-57150000D03*
D20*
X173990000Y-53315000D03*
D21*
X176530000Y-53315000D03*
%LPD*%
M02*
